<!-- <svg width="86" height="87" viewBox="0 0 86 87" fill="none" xmlns="http://www.w3.org/2000/svg">
<path d="M42.5493 83.5999C31.8153 83.5999 21.7581 79.3955 14.2153 71.7688C6.67242 64.0443 2.41748 53.8754 2.41748 43.0221C2.41748 32.1687 6.57572 21.9998 14.1186 14.3731C21.6614 6.74645 31.8153 2.44421 42.5493 2.44421C53.2834 2.44421 63.3405 6.64867 70.8834 14.2754C78.4262 21.902 82.6812 32.1687 82.6812 43.0221C82.6812 53.8754 78.5229 64.0443 70.9801 71.671C63.3405 79.2977 53.2834 83.5999 42.5493 83.5999ZM42.5493 4.302C32.2988 4.302 22.7252 8.31089 15.4724 15.6442C8.21967 22.9776 4.25484 32.6576 4.25484 43.0221C4.25484 53.3865 8.21967 63.0666 15.4724 70.3999C22.7252 77.7333 32.2988 81.7422 42.5493 81.7422C52.7999 81.7422 62.3735 77.7333 69.6262 70.3999C76.879 63.0666 80.8438 53.3865 80.8438 43.0221C80.8438 32.6576 76.879 22.9776 69.6262 15.6442C62.3735 8.31089 52.7999 4.302 42.5493 4.302Z" fill="url(#paint0_linear)"/>
<path d="M42.5494 81.058C32.4923 81.058 23.0154 77.1469 15.9561 69.9113C8.80002 62.7735 4.93188 53.1912 4.93188 43.0223C4.93188 32.8534 8.80002 23.2712 15.9561 16.1334C23.1121 8.89781 32.4923 4.98669 42.5494 4.98669C52.6066 4.98669 62.0835 8.89781 69.1428 16.1334C76.2989 23.369 80.167 32.8534 80.167 43.0223C80.167 53.1912 76.2989 62.7735 69.1428 69.9113C62.0835 77.1469 52.6066 81.058 42.5494 81.058ZM42.5494 6.55114C32.8791 6.55114 23.8857 10.3645 17.1165 17.2089C10.3473 24.0534 6.57584 33.2445 6.57584 42.9246C6.57584 52.7024 10.3473 61.7957 17.1165 68.6402C23.8857 75.4846 32.9758 79.298 42.5494 79.298C52.1231 79.298 61.2132 75.4846 67.9824 68.6402C74.7516 61.7957 78.523 52.6046 78.523 42.9246C78.523 33.1468 74.7516 24.0534 67.9824 17.2089C61.2132 10.3645 52.2198 6.55114 42.5494 6.55114Z" fill="url(#paint1_linear)"/>
<path d="M42.5494 86.0445C31.1385 86.0445 20.5011 81.5467 12.4747 73.4311C4.44835 65.3156 0 54.56 0 43.0222C0 31.4845 4.44835 20.7289 12.4747 12.6133C20.5011 4.49778 31.1385 0 42.5494 0C53.9604 0 64.5978 4.49778 72.6242 12.6133C80.6505 20.7289 85.0989 31.4845 85.0989 43.0222C85.0989 54.56 80.6505 65.3156 72.6242 73.4311C64.5978 81.5467 53.9604 86.0445 42.5494 86.0445ZM42.5494 1.95556C31.7187 1.95556 21.4681 6.25778 13.8286 13.9822C6.18901 21.7067 1.93407 32.0711 1.93407 43.0222C1.93407 53.9734 6.18901 64.3378 13.8286 72.0623C21.4681 79.7867 31.7187 84.0889 42.5494 84.0889C53.3802 84.0889 63.6307 79.7867 71.2703 72.0623C78.9099 64.3378 83.1648 53.9734 83.1648 43.0222C83.1648 32.0711 78.9099 21.7067 71.2703 13.9822C63.6307 6.25778 53.3802 1.95556 42.5494 1.95556Z" fill="url(#paint2_linear)"/>
<path d="M42.5496 78.6132C33.1694 78.6132 24.2727 74.8976 17.6969 68.1509C11.0243 61.4043 7.34961 52.5065 7.34961 43.022C7.34961 33.5375 11.0243 24.5419 17.6969 17.893C24.3694 11.1464 33.1694 7.43079 42.5496 7.43079C51.9298 7.43079 60.8265 11.1464 67.4024 17.893C74.0749 24.6397 77.7496 33.5375 77.7496 43.022C77.7496 52.5065 74.0749 61.502 67.4024 68.1509C60.8265 74.8976 51.9298 78.6132 42.5496 78.6132ZM42.5496 8.89746C33.5562 8.89746 25.0463 12.4175 18.6639 18.8708C12.2815 25.3242 8.80016 33.9286 8.80016 43.022C8.80016 52.1153 12.2815 60.7198 18.6639 67.1732C25.0463 73.6265 33.5562 77.1465 42.5496 77.1465C51.543 77.1465 60.0529 73.6265 66.4353 67.1732C72.8178 60.7198 76.2991 52.1153 76.2991 43.022C76.2991 33.9286 72.8178 25.3242 66.4353 18.8708C60.0529 12.4175 51.543 8.89746 42.5496 8.89746Z" fill="url(#paint3_linear)"/>
<path d="M42.5495 76.0711C33.8462 76.0711 25.6264 72.6489 19.4374 66.3911C13.2484 60.1333 9.86377 51.8221 9.86377 43.0221C9.86377 34.2221 13.2484 25.911 19.4374 19.6532C25.6264 13.3954 33.8462 9.97314 42.5495 9.97314C51.2528 9.97314 59.4726 13.3954 65.6616 19.6532C71.8506 25.911 75.2352 34.2221 75.2352 43.0221C75.2352 51.8221 71.8506 60.1333 65.6616 66.3911C59.4726 72.6489 51.2528 76.0711 42.5495 76.0711ZM42.5495 11.2443C34.1363 11.2443 26.3033 14.5687 20.3077 20.5332C14.4088 26.4976 11.1209 34.5154 11.1209 43.0221C11.1209 51.5288 14.4088 59.5466 20.3077 65.5111C26.2066 71.4755 34.1363 74.8 42.5495 74.8C50.9627 74.8 58.8924 71.4755 64.7913 65.5111C70.6902 59.5466 73.9781 51.5288 73.9781 43.0221C73.9781 34.5154 70.6902 26.4976 64.7913 20.5332C58.7957 14.5687 50.9627 11.2443 42.5495 11.2443Z" fill="url(#paint4_linear)"/>
<path d="M42.5494 73.6266C34.4263 73.6266 26.8834 70.3999 21.178 64.631C15.4725 58.8621 12.2812 51.1376 12.2812 43.0221C12.2812 34.9065 15.4725 27.1821 21.178 21.4132C26.8834 15.6443 34.523 12.4176 42.5494 12.4176C50.5757 12.4176 58.2153 15.6443 63.9208 21.4132C69.6263 27.1821 72.8175 34.9065 72.8175 43.0221C72.8175 51.1376 69.6263 58.8621 63.9208 64.631C58.2153 70.4977 50.6725 73.6266 42.5494 73.6266ZM42.5494 13.5909C34.7164 13.5909 27.4637 16.6221 21.9516 22.1954C16.4395 27.7687 13.4417 35.1021 13.4417 43.0221C13.4417 50.9421 16.4395 58.2754 21.9516 63.8488C27.4637 69.4221 34.8131 72.4532 42.5494 72.4532C50.2856 72.4532 57.6351 69.4221 63.1472 63.8488C68.6593 58.2754 71.6571 50.8443 71.6571 43.0221C71.6571 35.1998 68.6593 27.7687 63.1472 22.1954C57.6351 16.6221 50.3823 13.5909 42.5494 13.5909Z" fill="url(#paint5_linear)"/>
<path d="M42.5495 71.182C35.1033 71.182 28.1407 68.2487 22.9187 62.9687C17.6968 57.6887 14.7957 50.5509 14.7957 43.1198C14.7957 35.5909 17.6968 28.5509 22.9187 23.2709C28.1407 17.9909 35.2001 15.0576 42.5495 15.0576C49.899 15.0576 56.9583 17.9909 62.1803 23.2709C67.4023 28.5509 70.3033 35.6887 70.3033 43.1198C70.3033 50.6487 67.4023 57.6887 62.1803 62.9687C56.9583 68.2487 49.9957 71.182 42.5495 71.182ZM42.5495 15.8398C35.3935 15.8398 28.6242 18.6754 23.5957 23.7598C18.5671 28.8443 15.666 35.7865 15.666 43.022C15.666 50.2576 18.4704 57.102 23.499 62.1864C28.5275 67.2709 35.2968 70.1064 42.4528 70.1064C49.6088 70.1064 56.3781 67.2709 61.4066 62.1864C66.4352 57.102 69.2396 50.2576 69.2396 43.022C69.2396 35.7865 66.4352 28.942 61.4066 23.8576C56.3781 18.7732 49.7055 15.8398 42.5495 15.8398Z" fill="url(#paint6_linear)"/>
<path d="M42.5496 68.6399C35.7804 68.6399 29.398 65.9999 24.5628 61.111C19.7277 56.2221 17.2134 49.8666 17.2134 43.0221C17.2134 36.1777 19.8244 29.7243 24.6595 24.8354C29.4947 19.9465 35.7804 17.3065 42.6463 17.3065C49.5122 17.3065 55.7979 19.9465 60.6331 24.8354C65.4682 29.7243 68.0792 36.0799 68.0792 43.0221C68.0792 49.9644 65.4682 56.3199 60.6331 61.2088C55.7979 66.0977 49.3188 68.6399 42.5496 68.6399ZM42.5496 18.1865C35.9738 18.1865 29.7848 20.7287 25.143 25.4221C20.5013 30.1154 17.987 36.3732 17.987 43.0221C17.987 49.671 20.5013 55.9288 25.143 60.6222C29.7848 65.3155 35.9738 67.8577 42.5496 67.8577C49.1254 67.8577 55.3144 65.3155 59.9562 60.6222C64.5979 55.9288 67.1122 49.671 67.1122 43.0221C67.1122 36.3732 64.5979 30.1154 59.9562 25.4221C55.3144 20.7287 49.1254 18.1865 42.5496 18.1865Z" fill="url(#paint7_linear)"/>
<path d="M42.5495 66.1955C36.4572 66.1955 30.655 63.7511 26.3034 59.4489C21.9517 55.0489 19.6309 49.28 19.6309 43.0222C19.6309 36.8622 22.0484 30.9955 26.3034 26.5955C30.655 22.1955 36.3605 19.8489 42.5495 19.8489C48.7385 19.8489 54.444 22.2933 58.7956 26.5955C63.1473 30.9955 65.4681 36.7644 65.4681 43.0222C65.4681 49.1822 63.0506 55.0489 58.7956 59.4489C54.444 63.7511 48.6418 66.1955 42.5495 66.1955ZM42.5495 20.5333C36.5539 20.5333 31.0418 22.88 26.7869 27.0844C22.6287 31.3867 20.3078 36.96 20.3078 43.0222C20.3078 49.0844 22.6287 54.6578 26.7869 58.96C30.9451 63.2622 36.5539 65.5111 42.5495 65.5111C48.5451 65.5111 54.0572 63.1644 58.3121 58.96C62.5671 54.7555 64.7912 49.0844 64.7912 43.0222C64.7912 36.96 62.4703 31.3867 58.3121 27.0844C54.0572 22.88 48.5451 20.5333 42.5495 20.5333Z" fill="url(#paint8_linear)"/>
<path d="M42.5495 63.7511C37.0374 63.7511 31.9121 61.6 28.044 57.6889C24.1758 53.7777 22.0483 48.5955 22.0483 43.0222C22.0483 37.4488 24.1758 32.2666 28.044 28.3555C31.9121 24.4443 37.0374 22.2932 42.5495 22.2932C48.0616 22.2932 53.1869 24.4443 57.055 28.3555C60.9232 32.2666 63.0507 37.4488 63.0507 43.0222C63.0507 48.5955 60.9232 53.7777 57.055 57.6889C53.1869 61.6 48.0616 63.7511 42.5495 63.7511ZM42.5495 22.7821C37.2308 22.7821 32.2022 24.8354 28.4308 28.7466C24.6593 32.5599 22.5319 37.6444 22.5319 43.0222C22.5319 48.4 24.5626 53.4844 28.4308 57.2978C32.2989 61.1111 37.2308 63.2622 42.5495 63.2622C47.8682 63.2622 52.8968 61.2089 56.6682 57.2978C60.4397 53.3866 62.5671 48.4 62.5671 43.0222C62.5671 37.6444 60.5364 32.5599 56.6682 28.7466C52.8968 24.9332 47.8682 22.7821 42.5495 22.7821Z" fill="url(#paint9_linear)"/>
<defs>
<linearGradient id="paint0_linear" x1="42.5493" y1="2.44421" x2="42.5493" y2="83.5999" gradientUnits="userSpaceOnUse">
<stop stop-color="#15D7BF"/>
<stop offset="1" stop-color="#075B51"/>
</linearGradient>
<linearGradient id="paint1_linear" x1="42.5494" y1="4.98669" x2="42.5494" y2="81.058" gradientUnits="userSpaceOnUse">
<stop stop-color="#15D7BF"/>
<stop offset="1" stop-color="#075B51"/>
</linearGradient>
<linearGradient id="paint2_linear" x1="42.5494" y1="0" x2="42.5494" y2="86.0445" gradientUnits="userSpaceOnUse">
<stop stop-color="#15D7BF"/>
<stop offset="1" stop-color="#075B51"/>
</linearGradient>
<linearGradient id="paint3_linear" x1="42.5496" y1="7.43079" x2="42.5496" y2="78.6132" gradientUnits="userSpaceOnUse">
<stop stop-color="#15D7BF"/>
<stop offset="1" stop-color="#075B51"/>
</linearGradient>
<linearGradient id="paint4_linear" x1="42.5495" y1="9.97314" x2="42.5495" y2="76.0711" gradientUnits="userSpaceOnUse">
<stop stop-color="#15D7BF"/>
<stop offset="1" stop-color="#075B51"/>
</linearGradient>
<linearGradient id="paint5_linear" x1="42.5494" y1="12.4176" x2="42.5494" y2="73.6266" gradientUnits="userSpaceOnUse">
<stop stop-color="#15D7BF"/>
<stop offset="1" stop-color="#075B51"/>
</linearGradient>
<linearGradient id="paint6_linear" x1="42.5495" y1="15.0576" x2="42.5495" y2="71.182" gradientUnits="userSpaceOnUse">
<stop stop-color="#15D7BF"/>
<stop offset="1" stop-color="#075B51"/>
</linearGradient>
<linearGradient id="paint7_linear" x1="42.6463" y1="17.3065" x2="42.6463" y2="68.6399" gradientUnits="userSpaceOnUse">
<stop stop-color="#15D7BF"/>
<stop offset="1" stop-color="#075B51"/>
</linearGradient>
<linearGradient id="paint8_linear" x1="42.5495" y1="19.8489" x2="42.5495" y2="66.1955" gradientUnits="userSpaceOnUse">
<stop stop-color="#15D7BF"/>
<stop offset="1" stop-color="#075B51"/>
</linearGradient>
<linearGradient id="paint9_linear" x1="42.5495" y1="22.2932" x2="42.5495" y2="63.7511" gradientUnits="userSpaceOnUse">
<stop stop-color="#15D7BF"/>
<stop offset="1" stop-color="#075B51"/>
</linearGradient>
</defs>
</svg> -->

<svg width="88" height="88" viewBox="0 0 88 88" fill="none" xmlns="http://www.w3.org/2000/svg">
<path fill-rule="evenodd" clip-rule="evenodd" d="M44 88C32.2 88 21.2 83.4 12.9 75.1C4.6 66.8 0 55.8 0 44C0 32.2 4.6 21.2 12.9 12.9C21.2 4.6 32.2 0 44 0C55.8 0 66.8 4.6 75.1 12.9C83.4 21.2 88 32.2 88 44C88 55.8 83.4 66.8 75.1 75.1C66.8 83.4 55.8 88 44 88ZM44 2C32.8 2 22.2 6.4 14.3 14.3C6.4 22.2 2 32.8 2 44C2 55.2 6.4 65.8 14.3 73.7C22.2 81.6 32.8 86 44 86C55.2 86 65.8 81.6 73.7 73.7C81.6 65.8 86 55.2 86 44C86 32.8 81.6 22.2 73.7 14.3C65.8 6.4 55.2 2 44 2ZM44 85.5C32.9 85.5 22.5 81.2 14.7 73.4C6.9 65.5 2.5 55.1 2.5 44C2.5 32.9 6.8 22.5 14.6 14.7C22.4 6.9 32.9 2.5 44 2.5C55.1 2.5 65.5 6.8 73.3 14.6C81.1 22.4 85.5 32.9 85.5 44C85.5 55.1 81.2 65.5 73.4 73.3C65.5 81.1 55.1 85.5 44 85.5ZM44 4.4C33.4 4.4 23.5 8.5 16 16C8.5 23.5 4.4 33.4 4.4 44C4.4 54.6 8.5 64.5 16 72C23.5 79.5 33.4 83.6 44 83.6C54.6 83.6 64.5 79.5 72 72C79.5 64.5 83.6 54.6 83.6 44C83.6 33.4 79.5 23.5 72 16C64.5 8.5 54.6 4.4 44 4.4ZM44 82.9C33.6 82.9 23.8 78.9 16.5 71.5C9.09998 64.2 5.09998 54.4 5.09998 44C5.09998 33.6 9.09998 23.8 16.5 16.5C23.9 9.09998 33.6 5.09998 44 5.09998C54.4 5.09998 64.2 9.09998 71.5 16.5C78.9 23.9 82.9 33.6 82.9 44C82.9 54.4 78.9 64.2 71.5 71.5C64.2 78.9 54.4 82.9 44 82.9ZM44 6.69998C34 6.69998 24.7 10.6 17.7 17.6C10.7 24.6 6.79998 34 6.79998 43.9C6.79998 53.9 10.7 63.2 17.7 70.2C24.7 77.2 34.1 81.1 44 81.1C53.9 81.1 63.3 77.2 70.3 70.2C77.3 63.2 81.2 53.8 81.2 43.9C81.2 33.9 77.3 24.6 70.3 17.6C63.3 10.6 54 6.69998 44 6.69998ZM18.3 69.7C25.1 76.6 34.3 80.4 44 80.4C53.7 80.4 62.9 76.6 69.7 69.7C76.6 62.9 80.4 53.7 80.4 44C80.4 34.3 76.6 25.2 69.7 18.3C62.9 11.4 53.7 7.59998 44 7.59998C34.3 7.59998 25.2 11.4 18.3 18.3C11.4 25.1 7.59998 34.3 7.59998 44C7.59998 53.7 11.4 62.8 18.3 69.7ZM19.3 19.3C25.9 12.7 34.7 9.09998 44 9.09998C53.3 9.09998 62.1 12.7 68.7 19.3C75.3 25.9 78.9 34.7 78.9 44C78.9 53.3 75.3 62.1 68.7 68.7C62.1 75.3 53.3 78.9 44 78.9C34.7 78.9 25.9 75.3 19.3 68.7C12.7 62.1 9.09998 53.3 9.09998 44C9.09998 34.7 12.7 25.9 19.3 19.3ZM44 77.8C35 77.8 26.5 74.2999 20.1 67.8999C13.7 61.5 10.2 53 10.2 44C10.2 35 13.7 26.5 20.1 20.1C26.5 13.7 35 10.2 44 10.2C53 10.2 61.5 13.7 67.8999 20.1C74.2999 26.5 77.8 35 77.8 44C77.8 53 74.2999 61.5 67.8999 67.8999C61.5 74.2999 53 77.8 44 77.8ZM44 11.5C35.2999 11.5 27.2 14.9 21 21C14.9 27.1 11.5 35.2999 11.5 44C11.5 52.7 14.9 60.9 21 67C27.1 73.1 35.2999 76.5 44 76.5C52.7 76.5 60.9 73.1 67 67C73.1 60.9 76.5 52.7 76.5 44C76.5 35.2999 73.1 27.1 67 21C60.7999 14.9 52.7 11.5 44 11.5ZM21.9 66.0999C27.7999 71.9999 35.6 75.3 44 75.3C52.3999 75.3 60.1999 72.0999 66.0999 66.0999C71.9999 60.1999 75.3 52.2999 75.3 44C75.3 35.7 71.9999 27.7999 66.0999 21.9C60.1999 16 52.2999 12.7 44 12.7C35.7 12.7 27.7999 16 21.9 21.9C16 27.7999 12.7 35.7 12.7 44C12.7 52.2999 16 60.1999 21.9 66.0999ZM22.7 22.7C28.4 17 35.8999 13.9 44 13.9C52.1 13.9 59.6 17 65.3 22.7C71 28.4 74.0999 36 74.0999 44C74.0999 52 71 59.6 65.3 65.3C59.6 71 52 74.0999 44 74.0999C36 74.0999 28.4 71 22.7 65.3C17 59.6 13.9 52.1 13.9 44C13.9 35.8999 17 28.4 22.7 22.7ZM44 72.8C36.3 72.8 29.1 69.8 23.7001 64.4C18.3001 59 15.3 51.7 15.3 44.1C15.3 36.4 18.3001 29.2 23.7001 23.8C29.1 18.4 36.4001 15.4 44 15.4C51.6 15.4 58.9001 18.4 64.3 23.8C69.7001 29.2 72.7 36.5 72.7 44.1C72.7 51.8 69.7001 59 64.3 64.4C58.9001 69.8 51.7001 72.8 44 72.8ZM44 16.2C36.6 16.2 29.6 19.1 24.4 24.3C19.2001 29.5 16.2001 36.6 16.2001 44C16.2001 51.4 19.1 58.4 24.3 63.6C29.5 68.8 36.5 71.7 43.9001 71.7C51.3001 71.7 58.3 68.8 63.5 63.6C68.7001 58.4 71.6001 51.4 71.6001 44C71.6001 36.6 68.7001 29.6 63.5 24.4C58.3 19.2 51.4001 16.2 44 16.2ZM25.4 62.5C30.4 67.5 37 70.2 44 70.2C51 70.2 57.7 67.5999 62.7 62.5999C67.7 57.5999 70.4001 51.0999 70.4001 44C70.4001 36.9 67.7 30.4 62.7 25.4C57.7 20.4 51.2 17.7 44.1 17.7C37 17.7 30.5 20.4 25.5 25.4C20.5 30.4 17.8 37 17.8 44C17.8 51 20.4 57.5 25.4 62.5ZM26 26C30.8 21.2 37.2001 18.6 44 18.6C50.8 18.6 57.2001 21.2 62 26C66.8 30.7999 69.4001 37.2 69.4001 44C69.4001 50.7999 66.8 57.2 62 62C57.2001 66.7999 50.8 69.3999 44 69.3999C37.2001 69.3999 30.8 66.7999 26 62C21.2001 57.2 18.6 50.7999 18.6 44C18.6 37.2 21.2001 30.7999 26 26ZM44 67.7C37.7001 67.7 31.7001 65.2001 27.2001 60.8001C22.7001 56.3001 20.3 50.4001 20.3 44C20.3 37.7001 22.8001 31.7001 27.2001 27.2001C31.7001 22.7001 37.6 20.3 44 20.3C50.4001 20.3 56.3001 22.8001 60.8001 27.2001C65.3 31.7001 67.7 37.6 67.7 44C67.7 50.3 65.2001 56.3001 60.8001 60.8001C56.3001 65.2001 50.3 67.7 44 67.7ZM44 21C37.8 21 32.1001 23.4001 27.7001 27.7001C23.4001 32.1001 21 37.8 21 44C21 50.2001 23.4001 55.9001 27.7001 60.3001C32 64.7001 37.8 67 44 67C50.2001 67 55.9001 64.6001 60.3001 60.3001C64.7001 56.0001 67 50.2001 67 44C67 37.8 64.6001 32.1001 60.3001 27.7001C55.9001 23.4001 50.2001 21 44 21ZM29 59C33 63 38.3 65.2 44 65.2C49.7001 65.2 55 63 59 59C63 55 65.2 49.7001 65.2 44C65.2 38.3 63 33 59 29C55 25 49.7001 22.8 44 22.8C38.3 22.8 33 25 29 29C25 33 22.8 38.3 22.8 44C22.8 49.7001 25 55 29 59ZM29.4001 29.4001C33.3001 25.4001 38.5 23.3 44 23.3C49.5 23.3 54.7 25.5001 58.6 29.4001C62.6 33.3001 64.7 38.5 64.7 44C64.7 49.5 62.5 54.6 58.6 58.6C54.7 62.6 49.5 64.7 44 64.7C38.5 64.7 33.4001 62.5 29.4001 58.6C25.4001 54.7 23.3 49.5 23.3 44C23.3 38.5 25.5001 33.3001 29.4001 29.4001Z" fill="url(#paint0_linear_8_2)"/>
<defs>
<linearGradient id="paint0_linear_8_2" x1="44" y1="10" x2="62.5" y2="74.5" gradientUnits="userSpaceOnUse">
<stop stop-color="#FFBA33"/>
<stop offset="1" stop-color="#237878"/>
</linearGradient>
</defs>
</svg>


