<svg width="43" height="49" viewBox="0 0 43 49" fill="none" xmlns="http://www.w3.org/2000/svg">
<path d="M39.1064 9.99995C40.708 9.99995 42.0064 8.70158 42.0064 7.09995C42.0064 5.49833 40.708 4.19995 39.1064 4.19995C37.5048 4.19995 36.2064 5.49833 36.2064 7.09995C36.2064 8.70158 37.5048 9.99995 39.1064 9.99995Z" fill="black"/>
<path d="M39.1064 24.3C40.708 24.3 42.0064 23.0016 42.0064 21.4C42.0064 19.7984 40.708 18.5 39.1064 18.5C37.5048 18.5 36.2064 19.7984 36.2064 21.4C36.2064 23.0016 37.5048 24.3 39.1064 24.3Z" fill="black"/>
<path d="M18.6064 0C17.0064 0 14.3065 0.200001 12.7065 0.700001C7.80645 2.3 1.40645 7.6 3.50645 16C3.60645 16.3 4.50645 18 4.80645 18.5C6.00645 20 7.70645 20.9 9.80645 20.9C13.3064 20.9 16.1064 18.1 16.1064 14.6C16.1064 11.1 13.3064 8.3 9.80645 8.3C8.40645 8.3 7.20645 8.7 6.10645 9.5C6.10645 9.3 7.10645 5.4 10.8064 3.1C11.8064 2.5 15.6065 0.500001 19.2065 2.2C28.7065 6.6 24.9065 24 23.9065 26.5C22.9065 29 19.3064 39.7 0.00645003 48.3C-0.19355 48.4 4.30645 48 6.70645 47.2C27.2065 40.6 31.2065 25.2 31.9065 22.7C32.6065 20.2 32.9065 16.3 32.7065 14.2C32.4065 10 29.2064 0.3 18.6064 0Z" fill="black"/>
</svg>
