<svg width="90" height="90" viewBox="0 0 90 90" fill="none" xmlns="http://www.w3.org/2000/svg">
<path d="M90 1.8V15.8V61.8C90 70.1 83.3 76.8 75 76.8C66.7 76.8 60 70.1 60 61.8C60 53.5 66.7 46.8 75 46.8C79.3 46.8 83.3 48.7 86 51.6V18.3L30 30.4V74.8C30 83.1 23.3 89.8 15 89.8C6.7 89.8 0 83.1 0 74.8C0 66.5 6.7 59.8 15 59.8C19.3 59.8 23.3 61.7 26 64.6V28.8V14.8C26 14.7 26 14.5 26 14.4V14.3C26 14.2 26 14.1 26.1 14.1C26.1 14.1 26.1 14 26.2 14C26.2 13.9 26.3 13.9 26.3 13.8L26.4 13.7C26.4 13.6 26.5 13.6 26.5 13.5L26.6 13.4C26.7 13.3 26.7 13.3 26.8 13.3L26.9 13.2C27 13.2 27.1 13.1 27.1 13.1H27.2C27.3 13.1 27.4 13 27.5 13L87.5 0C87.6 0 87.8 0 87.9 0H88C88.1 0 88.2 0 88.3 0H88.4C88.5 0 88.6 0.1 88.7 0.1C88.7 0.1 88.8 0.1 88.8 0.2C88.9 0.2 89 0.3 89 0.3C89 0.3 89 0.3 89.1 0.3C89.1 0.3 89.1 0.3 89.2 0.4C89.3 0.5 89.3 0.5 89.4 0.6L89.5 0.7C89.7 0.7 89.7 0.8 89.7 0.8L89.8 0.9C89.8 1 89.9 1.1 89.9 1.2V1.3C90 1.5 90 1.7 90 1.8Z" fill="black"/>
</svg>
