<svg width="18" height="28" viewBox="0 0 18 28" fill="none" xmlns="http://www.w3.org/2000/svg">
<path d="M17.629 0.226001C17.4515 0.0807564 17.2294 0.000963681 17 1.10527e-06C16.9288 -0.000103876 16.8577 0.00726994 16.788 0.0220012L6.788 2.165C6.56468 2.21345 6.36469 2.33692 6.22131 2.51486C6.07794 2.6928 5.99984 2.91448 6 3.143V20.082C5.39466 19.7221 4.70426 19.5301 4 19.526C3.20888 19.526 2.43552 19.7606 1.77772 20.2001C1.11993 20.6396 0.607234 21.2644 0.304484 21.9953C0.00173312 22.7262 -0.0774802 23.5304 0.0768607 24.3064C0.231202 25.0823 0.612165 25.795 1.17157 26.3544C1.73098 26.9138 2.44372 27.2948 3.21964 27.4491C3.99556 27.6035 4.79983 27.5243 5.53074 27.2215C6.26164 26.9188 6.88635 26.4061 7.32588 25.7483C7.76541 25.0905 8 24.3171 8 23.526V7.86L17.209 5.887C17.4329 5.83915 17.6336 5.71594 17.7775 5.53794C17.9215 5.35994 18 5.13793 18 4.909V1C17.9995 0.851538 17.9659 0.705051 17.9018 0.571173C17.8376 0.437294 17.7444 0.319384 17.629 0.226001V0.226001Z" fill="black"/>
</svg>
