<svg width="53" height="86" viewBox="0 0 53 86" fill="none" xmlns="http://www.w3.org/2000/svg">
<path d="M49.5443 7.97195C51.7443 7.47195 53.0443 5.37195 52.6443 3.17195C52.1443 0.971948 50.0443 -0.328052 47.8443 0.0719482L25.8443 4.87195C24.0443 5.27195 22.6443 6.87195 22.6443 8.77195V54.972H15.7443C7.64425 54.972 0.644255 61.072 0.0442548 69.172C-0.655745 78.472 7.04426 86.1719 16.3443 85.4719C24.4443 84.8719 30.5443 77.872 30.5443 69.7719V58.9719V28.3719L49.4443 24.2719C51.6443 23.7719 52.9443 21.6719 52.5443 19.4719C52.0443 17.2719 49.9443 15.9719 47.7443 16.3719L30.5443 20.0719V11.8719L49.5443 7.97195Z" fill="black"/>
</svg>
