<svg width="91" height="90" viewBox="0 0 91 90" fill="none" xmlns="http://www.w3.org/2000/svg">
<path d="M59.0017 61.5C58.6731 61.5011 58.3475 61.4372 58.0437 61.3119C57.7399 61.1866 57.464 61.0024 57.2317 60.77L29.2317 32.77C28.7623 32.3006 28.4985 31.6639 28.4985 31C28.4985 30.3361 28.7623 29.6994 29.2317 29.23C29.7011 28.7606 30.3378 28.4968 31.0017 28.4968C31.6656 28.4968 32.3023 28.7606 32.7717 29.23L60.7717 57.23C61.1222 57.5796 61.3611 58.0255 61.4579 58.511C61.5547 58.9966 61.5052 59.4999 61.3156 59.9573C61.126 60.4147 60.8049 60.8054 60.393 61.0801C59.981 61.3547 59.4968 61.5009 59.0017 61.5Z" fill="black"/>
<path d="M31.0018 61.5C30.5067 61.5009 30.0225 61.3547 29.6105 61.0801C29.1986 60.8054 28.8775 60.4147 28.6879 59.9573C28.4983 59.4999 28.4488 58.9966 28.5456 58.511C28.6424 58.0255 28.8813 57.5796 29.2318 57.23L57.2318 29.23C57.4642 28.9975 57.7402 28.8132 58.0439 28.6874C58.3476 28.5616 58.6731 28.4968 59.0018 28.4968C59.3305 28.4968 59.656 28.5616 59.9597 28.6874C60.2634 28.8132 60.5393 28.9975 60.7718 29.23C61.0042 29.4624 61.1886 29.7384 61.3144 30.0421C61.4402 30.3458 61.5049 30.6713 61.5049 31C61.5049 31.3287 61.4402 31.6542 61.3144 31.9579C61.1886 32.2616 61.0042 32.5375 60.7718 32.77L32.7718 60.77C32.5395 61.0024 32.2635 61.1866 31.9598 61.3119C31.656 61.4372 31.3304 61.5011 31.0018 61.5V61.5Z" fill="black"/>
<path d="M45.0017 90C37.9048 90.0003 30.9084 88.322 24.584 85.1022C18.2595 81.8824 12.7862 77.2124 8.61108 71.4735C4.43597 65.7346 1.6774 59.0896 0.560637 52.0811C-0.556124 45.0726 0.000590086 37.8994 2.18532 31.1471C4.37005 24.3948 8.12084 18.255 13.1314 13.2291C18.142 8.2031 24.2702 4.43348 31.0158 2.22804C37.7613 0.0225942 44.9328 -0.556132 51.9447 0.539114C58.9566 1.63436 65.61 4.37252 71.3617 8.53001C71.8013 8.94898 72.0733 9.51361 72.127 10.1185C72.1807 10.7233 72.0125 11.3271 71.6536 11.817C71.2948 12.3068 70.7699 12.6494 70.177 12.7806C69.5841 12.9118 68.9637 12.8227 68.4317 12.53C60.3967 6.74591 50.5022 4.14712 40.6619 5.23629C30.8217 6.32546 21.735 11.0252 15.1594 18.4265C8.58382 25.8277 4.98665 35.4046 5.06366 45.3046C5.14066 55.2047 8.88637 64.7244 15.5763 72.0225C22.2662 79.3206 31.4249 83.8784 41.2809 84.8143C51.1369 85.7503 60.9898 82.9979 68.9339 77.0895C76.8779 71.1811 82.3486 62.5366 84.2877 52.828C86.2268 43.1195 84.4966 33.0367 79.4317 24.53C79.1071 23.9604 79.0193 23.2862 79.187 22.6525C79.3548 22.0188 79.7647 21.4763 80.3286 21.1419C80.8924 20.8076 81.5651 20.708 82.2016 20.8648C82.8381 21.0215 83.3876 21.422 83.7317 21.98C87.8015 28.8159 89.9862 36.6086 90.0634 44.5639C90.1405 52.5192 88.1072 60.3527 84.1707 67.2662C80.2342 74.1797 74.5352 79.9261 67.6545 83.9197C60.7738 87.9132 52.9574 90.0113 45.0017 90V90Z" fill="black"/>
<path d="M76.8917 19.3999C76.5348 19.4035 76.1814 19.3304 75.8553 19.1854C75.5292 19.0405 75.2381 18.8272 75.0017 18.5599C74.5817 18.0866 74.155 17.6233 73.7217 17.1699C73.4902 16.9348 73.3075 16.6562 73.1843 16.3502C73.061 16.0441 72.9995 15.7167 73.0033 15.3868C73.0072 15.0569 73.0763 14.731 73.2067 14.4279C73.3371 14.1249 73.5262 13.8506 73.7631 13.621C74 13.3913 74.28 13.2108 74.587 13.0899C74.894 12.969 75.2219 12.9101 75.5517 12.9165C75.8816 12.9229 76.207 12.9945 76.509 13.1273C76.8111 13.26 77.0838 13.4512 77.3116 13.6899C77.805 14.1966 78.285 14.7166 78.7517 15.2499C79.0685 15.6105 79.2748 16.0547 79.3459 16.5295C79.417 17.0042 79.35 17.4893 79.1528 17.927C78.9556 18.3646 78.6366 18.7362 78.2338 18.9974C77.8311 19.2586 77.3617 19.3984 76.8816 19.3999H76.8917Z" fill="black"/>
</svg>
