<svg width="941" height="631" viewBox="0 0 941 631" fill="none" xmlns="http://www.w3.org/2000/svg">
<path d="M159.904 80.8447C156.856 93.8043 148.981 104.766 137.732 111.731C126.367 118.669 113.017 120.951 100.058 117.904C87.0979 114.856 76.1361 106.981 69.1709 95.7323C62.2056 84.4841 59.9512 71.0171 62.9986 58.0575C66.0461 45.0979 73.9217 34.1361 85.1699 27.1708C96.4181 20.2055 109.885 17.9511 122.845 20.9986C135.804 24.046 146.766 31.9217 153.731 43.1699C160.669 54.5348 162.951 67.8851 159.904 80.8447ZM65.2169 58.5791C62.3067 70.9549 64.3756 83.6391 71.073 94.4547C77.7704 105.27 88.2033 112.775 100.579 115.685C112.955 118.596 125.639 116.527 136.455 109.829C147.27 103.132 154.775 92.6989 157.685 80.3231C160.596 67.9473 158.527 55.2631 151.829 44.4475C145.132 33.6319 134.699 26.1271 122.323 23.2169C109.947 20.3067 97.2631 22.3756 86.4475 29.073C75.632 35.7704 68.1271 46.2033 65.2169 58.5791Z" fill="url(#paint0_linear_625)" fill-opacity="0.3"/>
<path d="M156.869 80.1309C154.013 92.2732 146.653 102.617 136.009 109.108C125.454 115.744 112.914 117.723 100.772 114.868C88.6296 112.013 78.286 104.652 71.7947 94.0082C65.1866 83.3368 63.1795 70.9136 66.0348 58.7713C68.8901 46.629 76.2507 36.2853 86.8946 29.794C97.566 23.1859 109.989 21.1789 122.132 24.0341C134.274 26.8894 144.618 34.2501 151.109 44.894C157.744 55.4486 159.724 67.9886 156.869 80.1309ZM67.9028 59.2105C65.1574 70.8859 67.1575 82.8146 73.4084 92.9092C79.6593 103.004 89.5634 110.138 101.122 112.856C112.797 115.601 124.726 113.601 134.821 107.35C144.915 101.099 152.049 91.1953 154.767 79.6367C157.485 68.0782 155.513 56.0326 149.262 45.9381C143.011 35.8436 133.107 28.7095 121.548 25.9915C109.873 23.246 97.944 25.2461 87.8495 31.497C77.7549 37.7479 70.6483 47.5352 67.9028 59.2105Z" fill="url(#paint1_linear_625)" fill-opacity="0.3"/>
<path d="M162.823 81.5313C159.583 95.3082 151.192 106.888 139.223 114.3C127.254 121.712 113.148 124.062 99.3714 120.823C85.5945 117.583 74.0146 109.192 66.6028 97.2232C59.191 85.2539 56.8404 71.1482 60.08 57.3713C63.3196 43.5944 71.7103 32.0145 83.6795 24.6027C95.6487 17.1909 109.754 14.8403 123.531 18.0799C137.308 21.3196 148.888 29.7102 156.3 41.6794C163.712 53.6487 166.062 67.7544 162.823 81.5313ZM62.4151 57.9204C59.3402 70.9967 61.5671 84.5806 68.6217 95.973C75.6763 107.365 86.8441 115.413 99.9205 118.488C112.997 121.563 126.581 119.336 137.973 112.281C149.365 105.226 157.413 94.0586 160.488 80.9822C163.563 67.9059 161.336 54.322 154.281 42.9296C147.226 31.5372 136.059 23.4899 122.982 20.415C109.906 17.3401 96.3221 19.567 84.9297 26.6216C73.5373 33.6762 65.49 44.844 62.4151 57.9204Z" fill="url(#paint2_linear_625)" fill-opacity="0.3"/>
<path d="M153.95 79.4446C151.287 90.7696 144.324 100.468 134.401 106.512C124.451 112.674 112.783 114.612 101.458 111.949C90.133 109.286 80.435 102.324 74.3902 92.4009C68.2286 82.4505 66.2903 70.7827 68.9534 59.4577C71.6165 48.1326 78.5789 38.4346 88.5018 32.3898C98.4521 26.2282 110.12 24.2899 121.445 26.953C132.77 29.6161 142.468 36.5785 148.513 46.5014C154.702 56.335 156.613 68.1195 153.95 79.4446ZM70.7047 59.8695C68.1514 70.7275 69.9385 81.9902 75.8323 91.5079C81.726 101.026 91.0119 107.645 101.87 110.198C112.728 112.751 123.991 110.964 133.508 105.07C143.026 99.1767 149.645 89.8908 152.198 79.0328C154.752 68.1747 152.965 56.9121 147.071 47.3944C141.177 37.8767 131.891 31.2576 121.033 28.7043C110.175 26.151 98.9125 27.9381 89.3948 33.8318C79.8771 39.7256 73.258 49.0115 70.7047 59.8695Z" fill="url(#paint3_linear_625)" fill-opacity="0.3"/>
<path d="M150.915 78.7308C148.444 89.2385 142.024 98.2016 132.795 103.917C123.565 109.632 112.68 111.385 102.173 108.914C91.6647 106.443 82.7016 100.023 76.9865 90.7935C71.2714 81.5642 69.5187 70.6793 71.9896 60.1715C74.4605 49.6637 80.8805 40.7006 90.1098 34.9855C99.3391 29.2704 110.224 27.5177 120.732 29.9886C131.24 32.4595 140.203 38.8795 145.918 48.1088C151.633 57.338 153.386 68.223 150.915 78.7308ZM73.5074 60.5284C71.1188 70.6859 72.8646 81.0764 78.2844 89.9898C83.7316 98.7865 92.3719 105.007 102.529 107.396C112.687 109.784 123.194 108.066 131.991 102.619C140.787 97.1717 147.008 88.5314 149.397 78.3738C151.785 68.2163 150.067 57.7091 144.62 48.9124C139.173 40.1158 130.532 33.8949 120.375 31.5064C110.217 29.1178 99.7101 30.8361 90.9135 36.2834C82.0893 41.8473 75.8959 50.3709 73.5074 60.5284Z" fill="url(#paint4_linear_625)" fill-opacity="0.3"/>
<path d="M147.996 78.0444C145.689 87.8517 139.695 96.0524 131.187 101.321C122.679 106.59 112.549 108.274 102.859 105.995C93.1682 103.716 84.8507 97.6944 79.582 89.1861C74.3134 80.6779 72.6295 70.5484 74.9082 60.8579C77.1869 51.1674 83.2087 42.8499 91.7169 37.5813C100.225 32.3127 110.355 30.6287 120.045 32.9074C129.736 35.1862 138.053 41.2079 143.322 49.7162C148.707 58.2519 150.302 68.2372 147.996 78.0444ZM76.3092 61.1873C74.0854 70.6443 75.6457 80.2519 80.7357 88.4718C85.8257 96.6916 93.7311 102.37 103.188 104.594C112.645 106.818 122.253 105.257 130.473 100.167C138.692 95.0774 144.398 87.0552 146.595 77.715C148.791 68.3747 147.258 58.6504 142.168 50.4306C137.078 42.2107 129.056 36.5048 119.716 34.3085C110.375 32.1121 100.651 33.6449 92.4313 38.7349C84.2115 43.8249 78.5331 51.7303 76.3092 61.1873Z" fill="url(#paint5_linear_625)" fill-opacity="0.3"/>
<path d="M145.076 77.3579C142.962 86.3479 137.483 93.9305 129.695 98.7526C121.908 103.575 112.562 105.073 103.688 102.987C94.6983 100.873 87.1157 95.3933 82.2936 87.6061C77.4715 79.8189 75.9731 70.4723 78.0596 61.599C80.1462 52.7258 85.6529 45.0265 93.4402 40.2043C101.227 35.3822 110.574 33.8838 119.447 35.9704C128.437 38.0843 136.02 43.5637 140.842 51.3509C145.664 59.1381 147.19 68.368 145.076 77.3579ZM78.9937 61.8187C76.962 70.4584 78.426 79.4273 83.0696 86.9261C87.7131 94.4249 95.1789 99.8768 103.819 101.908C112.458 103.94 121.427 102.476 128.926 97.8325C136.425 93.189 141.733 85.8124 143.764 77.1727C145.796 68.533 144.332 59.5641 139.688 52.0653C135.045 44.5665 127.668 39.2588 119.028 37.2272C110.389 35.1955 101.42 36.6596 93.921 41.3031C86.4222 45.9466 81.0253 53.1789 78.9937 61.8187Z" fill="url(#paint6_linear_625)" fill-opacity="0.3"/>
<path d="M142.04 76.6439C140.118 84.8166 135.154 91.781 127.944 96.246C120.733 100.711 112.431 101.962 104.258 100.04C96.0851 98.1183 89.1207 93.154 84.6557 85.9436C80.1908 78.7332 78.823 70.403 80.7723 62.1135C82.7216 53.824 87.6584 46.9764 94.8688 42.5114C102.079 38.0465 110.409 36.6787 118.699 38.628C126.988 40.5773 133.836 45.5141 138.301 52.7245C142.766 59.9349 143.962 68.4712 142.04 76.6439ZM81.7956 62.4774C79.9287 70.4166 81.2072 78.6026 85.4935 85.5246C89.7799 92.4465 96.5382 97.2392 104.477 99.1061C112.417 100.973 120.603 99.6945 127.525 95.4082C134.447 91.1219 139.239 84.3635 141.106 76.4243C142.973 68.4851 141.695 60.299 137.408 53.3771C133.122 46.4551 126.364 41.6624 118.424 39.7955C110.485 37.9286 102.299 39.2071 95.3772 43.4934C88.4552 47.7798 83.6625 54.5381 81.7956 62.4774Z" fill="url(#paint7_linear_625)" fill-opacity="0.3"/>
<path d="M139.123 75.9577C137.393 83.3132 132.827 89.632 126.454 93.6779C119.965 97.6963 112.418 98.8786 104.945 97.1215C97.5899 95.3918 91.2711 90.8257 87.2252 84.4531C83.2068 77.9638 82.0245 70.4165 83.7816 62.9443C85.5387 55.4721 90.0774 49.27 96.45 45.2241C102.939 41.2057 110.487 40.0234 117.959 41.7805C125.314 43.5101 131.633 48.0762 135.679 54.4488C139.581 60.9107 140.852 68.6023 139.123 75.9577ZM84.5989 63.1364C82.8967 70.3751 84.1339 77.689 87.9463 84.0067C91.9029 90.235 97.8989 94.602 105.138 96.3042C112.376 98.0064 119.69 96.7692 126.008 92.9568C132.325 89.1444 136.603 83.0042 138.305 75.7655C140.008 68.5268 138.77 61.213 134.958 54.8953C131.146 48.5776 125.005 44.3 117.767 42.5978C110.528 40.8956 103.214 42.1328 96.8964 45.9451C90.6681 49.9017 86.3011 55.8977 84.5989 63.1364Z" fill="url(#paint8_linear_625)" fill-opacity="0.3"/>
<path d="M136.203 75.2718C134.638 81.9267 130.615 87.5106 124.846 91.0825C119.078 94.6545 112.286 95.768 105.631 94.2031C98.9761 92.6381 93.3922 88.6145 89.8203 82.8462C86.2483 77.0779 85.1348 70.286 86.6998 63.631C88.2647 56.9761 92.2883 51.3922 98.0566 47.8202C103.825 44.2483 110.617 43.1348 117.272 44.6997C123.927 46.2646 129.511 50.2883 133.083 56.0566C136.655 61.8249 137.768 68.6168 136.203 75.2718ZM87.2835 63.7683C85.7735 70.1897 86.7977 76.8374 90.3971 82.489C93.8797 88.1131 99.3469 92.1093 105.768 93.6193C112.19 95.1293 118.837 94.1051 124.489 90.5057C130.141 86.9063 134.109 81.5559 135.619 75.1345C137.129 68.7131 136.105 62.0654 132.506 56.4138C128.906 50.7623 123.556 46.7935 117.135 45.2835C110.713 43.7735 104.065 44.7977 98.4138 48.3971C92.7897 51.8797 88.7935 57.3469 87.2835 63.7683Z" fill="url(#paint9_linear_625)" fill-opacity="0.3"/>
<path d="M132.467 74.3927C131.138 80.0431 127.722 84.7842 122.824 87.817C117.926 90.8498 112.16 91.7952 106.509 90.4665C100.859 89.1378 96.1177 85.7215 93.085 80.8238C90.0522 75.9262 89.1068 70.1595 90.4355 64.5091C91.7642 58.8587 95.1805 54.1176 100.078 51.0848C104.976 48.0521 110.742 47.1067 116.393 48.4354C122.043 49.7641 126.784 53.1804 129.817 58.078C132.85 62.9756 133.795 68.7423 132.467 74.3927ZM90.9311 64.6257C89.649 70.0778 90.5186 75.7221 93.5747 80.5206C96.5317 85.2957 101.174 88.6887 106.626 89.9708C112.078 91.2529 117.722 90.3833 122.521 87.3272C127.319 84.2711 130.689 79.7283 131.971 74.2762C133.253 68.824 132.383 63.1798 129.327 58.3813C126.271 53.5828 121.728 50.2131 116.276 48.931C110.824 47.6489 105.18 48.5185 100.381 51.5746C95.6062 54.5316 92.2132 59.1735 90.9311 64.6257Z" fill="url(#paint10_linear_625)" fill-opacity="0.3"/>
<path d="M127.674 67.7512C128.169 72.0437 126.962 76.2272 124.278 79.5891C121.594 82.951 117.768 85.071 113.448 85.5693C109.129 86.0676 104.921 84.8741 101.542 82.2115C98.1631 79.549 96.0355 75.7501 95.5404 71.4576C95.0453 67.1652 96.2522 62.9817 98.9362 59.6198C101.62 56.2579 105.446 54.1379 109.765 53.6396C114.085 53.1413 118.293 54.3348 121.672 56.9973C125.051 59.6599 127.178 63.4588 127.674 67.7512ZM95.9193 71.4139C96.397 75.5558 98.4402 79.2881 101.81 81.8754C105.105 84.4714 109.237 85.6735 113.405 85.1928C117.573 84.712 121.332 82.676 123.94 79.3228C126.548 75.9697 127.772 71.9368 127.295 67.795C126.817 63.6531 124.774 59.9208 121.403 57.3335C118.033 54.7463 113.977 53.5353 109.809 54.0161C105.641 54.4969 101.882 56.5329 99.274 59.886C96.6572 63.1639 95.4416 67.2721 95.9193 71.4139Z" fill="url(#paint11_linear_625)" fill-opacity="0.3"/>
<path d="M130.132 73.8438C128.951 78.8664 125.914 83.0807 121.561 85.7765C117.207 88.4723 112.082 89.3127 107.059 88.1316C102.036 86.9506 97.8221 83.9138 95.1262 79.5604C92.4304 75.207 91.5901 70.081 92.7711 65.0584C93.9522 60.0358 96.9889 55.8215 101.342 53.1257C105.696 50.4299 110.822 49.5896 115.844 50.7706C120.867 51.9517 125.081 54.9884 127.777 59.3418C130.473 63.6953 131.313 68.8213 130.132 73.8438ZM93.2117 65.162C92.0721 70.0084 92.8451 75.0255 95.5616 79.2908C98.19 83.5354 102.316 86.5514 107.163 87.691C112.009 88.8307 117.026 88.0577 121.291 85.3412C125.557 82.6246 128.552 78.5866 129.692 73.7402C130.831 68.8939 130.058 63.8768 127.342 59.6114C124.625 55.3461 120.587 52.3508 115.741 51.2112C110.894 50.0716 105.877 50.8445 101.612 53.5611C97.3673 56.1895 94.3513 60.3156 93.2117 65.162Z" fill="url(#paint12_linear_625)" fill-opacity="0.3"/>
<path d="M26.2356 69.4309C25.5284 72.4382 23.6874 74.9788 21.0528 76.5894C18.3908 78.1935 15.2602 78.7154 12.2182 78C9.17612 77.2847 6.59986 75.4495 4.95913 72.8335C3.3184 70.2176 2.78149 67.0893 3.48866 64.082C4.19584 61.0746 6.03687 58.5341 8.67146 56.9235C11.3061 55.3129 14.464 54.7975 17.506 55.5128C20.5481 56.2282 23.1244 58.0634 24.7651 60.6793C26.3995 63.3224 26.9427 66.4236 26.2356 69.4309ZM4.00937 64.2044C3.33406 67.0763 3.82698 70.0227 5.4046 72.538C6.98222 75.0533 9.4342 76.8021 12.3392 77.4853C15.2442 78.1684 18.2186 77.6956 20.7519 76.1469C23.2852 74.5983 25.0395 72.1803 25.7148 69.3085C26.3902 66.4366 25.8972 63.4902 24.3196 60.9749C22.742 58.4595 20.29 56.7107 17.385 56.0276C14.48 55.3445 11.5056 55.8173 8.97232 57.3659C6.43906 58.9146 4.68469 61.3326 4.00937 64.2044Z" fill="url(#paint13_linear_625)" fill-opacity="0.3"/>
<path d="M25.5227 69.2633C24.8602 72.081 23.1396 74.4784 20.6465 75.9792C18.1744 77.5137 15.2338 77.9658 12.3836 77.2956C9.53334 76.6254 7.1024 74.9101 5.57321 72.4348C4.01663 69.953 3.53837 67.0672 4.20095 64.2495C4.86352 61.4318 6.58411 59.0345 9.07723 57.5336C11.5767 56.0056 14.4899 55.547 17.3401 56.2173C20.1903 56.8875 22.6213 58.6028 24.1505 61.0781C25.7134 63.5328 26.1853 66.4457 25.5227 69.2633ZM4.63944 64.3526C4.00235 67.0619 4.47868 69.8329 5.95113 72.1805C7.42358 74.5282 9.75127 76.1906 12.4645 76.8286C15.205 77.473 18.0023 77.0157 20.3666 75.5704C22.731 74.125 24.3987 71.8295 25.0294 69.1473C25.6602 66.4651 25.1902 63.6671 23.7177 61.3194C22.2453 58.9718 19.9176 57.3094 17.2044 56.6714C14.4638 56.0269 11.6666 56.4842 9.30224 57.9296C6.93786 59.375 5.27654 61.6433 4.63944 64.3526Z" fill="url(#paint14_linear_625)" fill-opacity="0.3"/>
<path d="M26.9204 69.592C26.1686 72.789 24.2072 75.4728 21.4037 77.1866C18.6002 78.9004 15.2925 79.4378 12.0586 78.6774C8.8247 77.9169 6.10311 75.9618 4.35721 73.1781C2.61131 70.3945 2.05144 67.1178 2.80321 63.9209C3.55498 60.7239 5.51645 58.0401 8.31993 56.3263C11.1234 54.6125 14.4311 54.0751 17.665 54.8355C20.8989 55.596 23.6205 57.5512 25.3664 60.3348C27.1123 63.1184 27.6722 66.3951 26.9204 69.592ZM3.35133 64.0498C2.63778 67.0842 3.16832 70.2396 4.83009 72.8891C6.49185 75.5385 9.11655 77.4137 12.186 78.1355C15.2555 78.8573 18.4408 78.3483 21.1092 76.7171C23.7776 75.0859 25.6587 72.4976 26.3723 69.4631C27.0858 66.4287 26.5553 63.2733 24.8935 60.6239C23.2318 57.9744 20.6071 56.0992 17.5376 55.3774C14.4681 54.6556 11.2828 55.1646 8.61442 56.7958C5.94605 58.427 4.06487 61.0153 3.35133 64.0498Z" fill="url(#paint15_linear_625)" fill-opacity="0.3"/>
<path d="M24.8379 69.1022C24.2199 71.7302 22.5924 73.9779 20.2681 75.3755C17.9375 76.8003 15.2015 77.2434 12.5431 76.6183C9.88476 75.9931 7.60551 74.3707 6.1815 72.0631C4.73009 69.749 4.26842 67.0386 4.8864 64.4106C5.50438 61.7826 7.13193 59.5349 9.45616 58.1373C11.7868 56.7125 14.5228 56.2694 17.1812 56.8946C19.8395 57.5197 22.1188 59.1421 23.5428 61.4497C25.0006 63.7367 25.4559 66.4742 24.8379 69.1022ZM5.29749 64.5073C4.70499 67.0269 5.13096 69.6431 6.51927 71.8566C7.90758 74.0701 10.0899 75.6125 12.6387 76.2119C15.1874 76.8112 17.8285 76.403 20.0578 75.0402C22.2871 73.6774 23.8343 71.5252 24.4268 69.0055C25.0193 66.4859 24.5933 63.8697 23.205 61.6562C21.8167 59.4428 19.6344 57.9003 17.0856 57.3009C14.5369 56.7016 11.8958 57.1098 9.66651 58.4726C7.43724 59.8354 5.88999 61.9876 5.29749 64.5073Z" fill="url(#paint16_linear_625)" fill-opacity="0.3"/>
<path d="M24.1251 68.9346C23.5517 71.373 22.051 73.4504 19.8892 74.7719C17.7275 76.0934 15.175 76.4938 12.7085 75.9138C10.242 75.3338 8.13546 73.8378 6.78922 71.6914C5.44298 69.545 5.0253 67.0165 5.59869 64.5782C6.17207 62.1398 7.67281 60.0624 9.83452 58.7409C11.9962 57.4194 14.5487 57.019 17.0153 57.599C19.4818 58.179 21.5883 59.675 22.9345 61.8214C24.2808 63.9678 24.6985 66.4963 24.1251 68.9346ZM5.95496 64.6619C5.40069 67.019 5.81645 69.4327 7.09321 71.5056C8.37634 73.5513 10.407 75.001 12.7913 75.5616C15.1756 76.1223 17.6395 75.7296 19.6999 74.47C21.7603 73.2105 23.2145 71.208 23.7688 68.8509C24.3231 66.4938 23.9137 64.053 22.6306 62.0072C21.3474 59.9615 19.3167 58.5118 16.9324 57.9512C14.5481 57.3905 12.0842 57.7832 10.0238 59.0428C7.95708 60.3294 6.50923 62.3048 5.95496 64.6619Z" fill="url(#paint17_linear_625)" fill-opacity="0.3"/>
<path d="M23.4402 68.7735C22.9051 71.0493 21.5037 72.9499 19.5109 74.1682C17.5181 75.3864 15.1428 75.7714 12.8681 75.2365C10.5934 74.7016 8.63857 73.2984 7.39751 71.3197C6.15644 69.341 5.75535 66.988 6.28414 64.7393C6.81293 62.4905 8.22062 60.5629 10.2135 59.3446C12.2063 58.1263 14.5816 57.7414 16.8563 58.2763C19.131 58.8112 21.0858 60.2144 22.3269 62.1931C23.5953 64.1782 23.9754 66.4977 23.4402 68.7735ZM6.61301 64.8166C6.09697 67.0111 6.46873 69.2429 7.66772 71.1545C8.86672 73.0661 10.7247 74.3894 12.9445 74.9114C15.1644 75.4334 17.4174 75.0768 19.3426 73.8999C21.2679 72.7229 22.6017 70.8636 23.1114 68.6962C23.621 66.5287 23.2556 64.2699 22.0567 62.3583C20.8577 60.4466 18.9723 59.1169 16.7798 58.6014C14.5874 58.0858 12.307 58.4359 10.3817 59.6129C8.45646 60.7899 7.12906 62.6221 6.61301 64.8166Z" fill="url(#paint18_linear_625)" fill-opacity="0.3"/>
<path d="M22.7548 68.6124C22.2642 70.6986 20.9833 72.4559 19.1594 73.571C17.3354 74.686 15.1437 75.0283 13.0608 74.5385C10.9506 74.0423 9.16845 72.7655 8.03257 70.9545C6.89668 69.1435 6.53958 66.9723 7.02377 64.9133C7.50796 62.8542 8.79521 61.0697 10.6192 59.9547C12.4431 58.8397 14.6349 58.4974 16.7177 58.9872C18.828 59.4834 20.6101 60.7602 21.746 62.5712C22.8818 64.3822 23.2453 66.5263 22.7548 68.6124ZM7.24302 64.9648C6.77157 66.9697 7.12037 69.0531 8.21419 70.7971C9.30801 72.541 11.0627 73.8114 13.0907 74.2883C15.1188 74.7651 17.2219 74.4306 18.9783 73.3568C20.7347 72.2831 21.9755 70.5735 22.4469 68.5686C22.9184 66.5637 22.5696 64.4803 21.4757 62.7364C20.3819 60.9924 18.6483 59.7556 16.6202 59.2787C14.5922 58.8018 12.489 59.1364 10.7326 60.2101C8.97624 61.2839 7.71447 62.9599 7.24302 64.9648Z" fill="url(#paint19_linear_625)" fill-opacity="0.3"/>
<path d="M22.0426 68.4448C21.5967 70.3413 20.4362 71.9554 18.7474 72.9879C17.0585 74.0203 15.1115 74.3058 13.1931 73.8547C11.2747 73.4036 9.63792 72.2467 8.58617 70.5699C7.53442 68.893 7.20857 66.9579 7.66091 65.0343C8.11324 63.1107 9.26731 61.5237 10.9562 60.4913C12.645 59.4588 14.5984 59.1462 16.5442 59.6038C18.49 60.0613 20.0994 61.2117 21.1511 62.8886C22.2029 64.5655 22.4886 66.5483 22.0426 68.4448ZM7.90119 65.1194C7.46796 66.9617 7.77278 68.8633 8.78246 70.4731C9.79214 72.0829 11.3805 73.1997 13.2441 73.638C15.1077 74.0762 17.0273 73.7842 18.6486 72.7931C20.2699 71.802 21.3902 70.2356 21.8234 68.3932C22.2566 66.5509 21.9518 64.6494 20.9421 63.0396C19.9324 61.4298 18.3441 60.3129 16.4805 59.8747C14.6169 59.4365 12.6973 59.7284 11.076 60.7196C9.4547 61.7107 8.33441 63.2771 7.90119 65.1194Z" fill="url(#paint20_linear_625)" fill-opacity="0.3"/>
<path d="M21.3577 68.2837C20.9564 69.9905 19.889 71.455 18.3964 72.3906C16.8764 73.3198 15.1066 73.5898 13.3526 73.1774C11.626 72.7714 10.141 71.7074 9.18802 70.2253C8.24145 68.7161 7.95959 66.9629 8.36733 65.229C8.77507 63.495 9.8361 62.0577 11.3287 61.122C12.8486 60.1928 14.6185 59.9228 16.3724 60.3353C18.099 60.7413 19.5841 61.8053 20.537 63.2874C21.4562 64.7901 21.7591 66.5768 21.3577 68.2837ZM8.55917 65.2741C8.16418 66.9539 8.45877 68.6528 9.35691 70.122C10.2888 71.5706 11.6981 72.5882 13.3972 72.9877C15.0964 73.3873 16.8114 73.1044 18.2912 72.2229C19.771 71.3415 20.7709 69.9183 21.1659 68.2386C21.5609 66.5588 21.2663 64.8598 20.3682 63.3906C19.47 61.9214 18.027 60.9245 16.3278 60.5249C14.6287 60.1254 12.9136 60.4083 11.4338 61.2897C9.97506 62.2047 8.95417 63.5943 8.55917 65.2741Z" fill="url(#paint21_linear_625)" fill-opacity="0.3"/>
<path d="M20.6719 68.1227C20.3088 69.667 19.3682 70.9611 18.0171 71.7871C16.666 72.613 15.0734 72.8675 13.5112 72.5001C11.9491 72.1328 10.6367 71.1952 9.79534 69.8537C8.95394 68.5122 8.68867 66.9345 9.05181 65.3902C9.41495 63.8459 10.3555 62.5517 11.7066 61.7258C13.0577 60.8999 14.6504 60.6454 16.2125 61.0127C17.7746 61.3801 19.087 62.3177 19.9284 63.6592C20.7698 65.0007 21.0351 66.5784 20.6719 68.1227ZM9.18884 65.4224C8.83844 66.9125 9.08267 68.4567 9.93044 69.7711C10.7508 71.0791 12.0358 72.0102 13.5431 72.3647C15.0504 72.7191 16.6093 72.4853 17.933 71.6529C19.2566 70.8205 20.1845 69.5806 20.5349 68.0904C20.8853 66.6003 20.641 65.0562 19.7933 63.7418C18.9455 62.4273 17.688 61.5026 16.1806 61.1482C14.6733 60.7937 13.1144 61.0276 11.7908 61.86C10.4735 62.6652 9.53924 63.9323 9.18884 65.4224Z" fill="url(#paint22_linear_625)" fill-opacity="0.3"/>
<path d="M19.7951 67.9164C19.4868 69.2276 18.6882 70.3264 17.541 71.0277C16.3939 71.729 15.0416 71.945 13.7153 71.6332C12.3889 71.3213 11.2747 70.5252 10.5603 69.3862C9.84589 68.2472 9.62066 66.9076 9.92899 65.5964C10.2373 64.2852 11.0359 63.1864 12.1831 62.4851C13.3302 61.7839 14.6825 61.5678 16.0088 61.8797C17.3352 62.1916 18.4494 62.9876 19.1638 64.1267C19.8782 65.2657 20.1034 66.6052 19.7951 67.9164ZM10.0453 65.6238C9.74783 66.889 9.9552 68.2 10.675 69.316C11.3715 70.4266 12.4625 71.2172 13.7423 71.5181C15.0221 71.8191 16.3457 71.6205 17.4696 70.9138C18.5935 70.2071 19.3813 69.1543 19.6788 67.8891C19.9763 66.6239 19.7689 65.3128 19.0491 64.1968C18.3293 63.0808 17.2616 62.2956 15.9818 61.9947C14.702 61.6937 13.3784 61.8923 12.2545 62.599C11.1361 63.2828 10.3429 64.3586 10.0453 65.6238Z" fill="url(#paint23_linear_625)" fill-opacity="0.3"/>
<path d="M18.6667 66.3713C18.7855 67.3683 18.5048 68.339 17.8772 69.118C17.2495 69.897 16.3534 70.387 15.3403 70.5001C14.3272 70.6132 13.3394 70.3336 12.5451 69.7133C11.7509 69.0931 11.2494 68.2097 11.1307 67.2127C11.012 66.2158 11.2927 65.2451 11.9203 64.4661C12.5479 63.6871 13.4441 63.1971 14.4572 63.084C15.4703 62.9709 16.4581 63.2505 17.2524 63.8707C18.0466 64.491 18.548 65.3743 18.6667 66.3713ZM11.2196 67.2028C11.3342 68.1648 11.8157 69.0326 12.6079 69.6354C13.3823 70.2402 14.3523 70.5218 15.3299 70.4126C16.3074 70.3035 17.1879 69.833 17.7978 69.0559C18.4076 68.2789 18.6924 67.3432 18.5779 66.3812C18.4633 65.4192 17.9818 64.5514 17.1896 63.9486C16.3974 63.3459 15.4452 63.0623 14.4676 63.1714C13.4901 63.2806 12.6096 63.7511 11.9997 64.5281C11.3878 65.2876 11.1051 66.2408 11.2196 67.2028Z" fill="url(#paint24_linear_625)" fill-opacity="0.3"/>
<path d="M19.2472 67.7875C18.9732 68.9531 18.2633 69.9298 17.2436 70.5531C16.2239 71.1765 15.0219 71.3685 13.843 71.0913C12.664 70.8141 11.6735 70.1064 11.0385 69.094C10.4035 68.0815 10.2033 66.8908 10.4774 65.7253C10.7514 64.5598 11.4613 63.5831 12.481 62.9597C13.5007 62.3364 14.7027 62.1443 15.8816 62.4215C17.0606 62.6988 18.0511 63.4064 18.6861 64.4189C19.3211 65.4313 19.5213 66.622 19.2472 67.7875ZM10.5808 65.7496C10.3163 66.8742 10.5007 68.0396 11.1405 69.0317C11.7596 70.0188 12.7294 70.7216 13.867 70.9891C15.0046 71.2566 16.1811 71.0801 17.1801 70.4519C18.1791 69.8237 18.8794 68.8878 19.1438 67.7632C19.4083 66.6386 19.224 65.4732 18.5841 64.4812C17.9443 63.4892 16.9952 62.7913 15.8576 62.5238C14.72 62.2563 13.5435 62.4328 12.5445 63.061C11.5503 63.6687 10.8452 64.625 10.5808 65.7496Z" fill="url(#paint25_linear_625)" fill-opacity="0.3"/>
<line x1="779.1" y1="101.51" x2="823.1" y2="110.51" stroke="#A1B0CD"/>
<line x1="779.1" y1="99.5101" x2="823.1" y2="108.51" stroke="#A1B0CD"/>
<path d="M817 94.5L750.865 103.981L709.847 126.654L668.829 149.328" stroke="url(#paint26_linear_625)" stroke-width="4"/>
<line x1="809.688" y1="91.6096" x2="834.688" y2="71.6096" stroke="#A1B0CD"/>
<line x1="805.688" y1="91.6096" x2="830.688" y2="71.6096" stroke="#A1B0CD"/>
<line x1="813.682" y1="90.6145" x2="836.682" y2="71.6145" stroke="#A1B0CD"/>
<path d="M817.024 90.1654L750.43 99.7145L709.099 122.354L667.769 144.994" stroke="#B0F3EB"/>
<g filter="url(#filter0_d_625)">
<circle cx="750" cy="102" r="12" fill="url(#paint27_linear_625)"/>
</g>
<g filter="url(#filter1_f_625)">
<ellipse cx="386" cy="273.5" rx="20" ry="17.5" fill="url(#paint28_linear_625)"/>
</g>
<line x1="385.762" y1="269.571" x2="253.762" y2="165.571" stroke="url(#paint29_linear_625)" stroke-width="4"/>
<line x1="386.22" y1="270.244" x2="484.195" y2="227.169" stroke="url(#paint30_linear_625)" stroke-width="4"/>
<line x1="385.552" y1="270.221" x2="344.552" y2="187.221" stroke="url(#paint31_linear_625)"/>
<line x1="385.838" y1="270.647" x2="448.648" y2="338.653" stroke="url(#paint32_linear_625)"/>
<line x1="385.995" y1="268.146" x2="375.922" y2="406.14" stroke="url(#paint33_linear_625)" stroke-width="4"/>
<line x1="386.441" y1="270.764" x2="401.441" y2="298.764" stroke="url(#paint34_linear_625)"/>
<line x1="384.798" y1="270.341" x2="364.611" y2="245.314" stroke="url(#paint35_linear_625)"/>
<line x1="386.423" y1="269.267" x2="345.423" y2="334.267" stroke="url(#paint36_linear_625)"/>
<line x1="385.272" y1="271.809" x2="406.204" y2="197.864" stroke="url(#paint37_linear_625)"/>
<line x1="385.54" y1="269.803" x2="394.54" y2="248.803" stroke="url(#paint38_linear_625)"/>
<line x1="385.967" y1="271.045" x2="383.277" y2="293.733" stroke="url(#paint39_linear_625)"/>
<line x1="386.325" y1="269.62" x2="428.325" y2="305.62" stroke="url(#paint40_linear_625)"/>
<line x1="385.266" y1="271.442" x2="334.795" y2="248.798" stroke="url(#paint41_linear_625)"/>
<line x1="386.325" y1="270.38" x2="365.325" y2="288.38" stroke="url(#paint42_linear_625)"/>
<line x1="385.051" y1="270.714" x2="400.099" y2="247.507" stroke="url(#paint43_linear_625)"/>
<line x1="250.302" y1="169.602" x2="383.302" y2="270.602" stroke="#8FB5FF"/>
<line x1="364.509" y1="373.905" x2="383.557" y2="275.907" stroke="#A1B0CD"/>
<g filter="url(#filter2_d_625)">
<ellipse cx="864.5" cy="89.5" rx="46.5" ry="46.5" transform="rotate(90 864.5 89.5)" fill="url(#paint44_linear_625)"/>
</g>
<path d="M851.798 90.3588H857.223V112.692C857.223 113.133 856.834 124.389 857 135.5C857 135.5 860.319 136.404 862.5 136.5C864.655 136.594 868 136 868 136C868 136 868.018 113.133 868.018 112.692V90.464H874.254C874.66 90.464 875.001 90.1597 875.047 89.7569L875.995 81.5347C876.021 81.3085 875.949 81.082 875.798 80.9123C875.646 80.7424 875.429 80.6452 875.202 80.6452H868.018V75.4911C868.018 73.9374 868.855 73.1496 870.505 73.1496C870.74 73.1496 875.202 73.1496 875.202 73.1496C875.643 73.1496 876 72.7921 876 72.3513V64.8041C876 64.3632 875.643 64.0059 875.202 64.0059H868.729C868.683 64.0037 868.582 64 868.432 64C867.309 64 863.405 64.2205 860.322 67.0574C856.905 70.2012 857.38 73.9654 857.493 74.618V80.645H851.798C851.357 80.645 851 81.0023 851 81.4432V89.5604C851 90.0013 851.357 90.3588 851.798 90.3588Z" fill="white"/>
<g filter="url(#filter3_d_625)">
<circle cx="373.627" cy="504.627" r="92.5" transform="rotate(151.189 373.627 504.627)" fill="url(#paint45_linear_625)" shape-rendering="crispEdges"/>
</g>
<path d="M348.077 486.077L373.077 506.846L373.154 506.923C373.769 507.462 374.615 507.462 375.154 506.923L375.231 506.846L400.231 486.077C400.307 486 400.384 486 400.461 485.923C398.538 484.769 396.307 484 393.923 484H354.307C351.923 484 349.692 484.692 347.769 485.923C347.846 485.923 348 486 348.077 486.077Z" fill="white"/>
<path d="M404.692 490.231C404.538 490.462 404.385 490.616 404.154 490.769L379.231 511.539C377.769 512.769 376 513.462 374.154 513.462C372.308 513.462 370.538 512.846 369.077 511.539L344.154 490.769C343.923 490.616 343.769 490.385 343.615 490.231C342.615 492 342 494.077 342 496.308V521.692C342 528.462 347.538 534 354.308 534H394C400.769 534 406.308 528.462 406.308 521.692V496.308C406.308 494.077 405.692 492 404.692 490.231Z" fill="white"/>
<g filter="url(#filter4_d_625)">
<ellipse cx="175.5" cy="120" rx="92.5" ry="95" fill="white"/>
</g>
<path d="M175.552 25C124.417 25 83 67.4644 83 119.893C83 161.882 109.493 197.349 146.282 209.922C150.91 210.752 152.645 207.905 152.645 205.414C152.645 203.161 152.529 195.688 152.529 187.741C129.276 192.129 123.26 181.929 121.409 176.591C120.368 173.863 115.856 165.441 111.922 163.187C108.683 161.408 104.055 157.019 111.807 156.901C119.095 156.782 124.301 163.78 126.036 166.627C134.366 180.98 147.67 176.947 152.992 174.456C153.802 168.288 156.231 164.136 158.892 161.764C138.3 159.392 116.781 151.207 116.781 114.911C116.781 104.591 120.368 96.0508 126.268 89.4083C125.342 87.036 122.103 77.3095 127.193 64.2618C127.193 64.2618 134.945 61.7709 152.645 73.9883C160.049 71.8532 167.916 70.7856 175.783 70.7856C183.65 70.7856 191.517 71.8532 198.921 73.9883C216.621 61.6522 224.372 64.2618 224.372 64.2618C229.463 77.3095 226.224 87.036 225.298 89.4083C231.198 96.0508 234.785 104.472 234.785 114.911C234.785 151.326 213.151 159.392 192.558 161.764C195.913 164.729 198.805 170.423 198.805 179.319C198.805 192.011 198.689 202.212 198.689 205.414C198.689 207.905 200.425 210.871 205.052 209.922C223.426 203.564 239.393 191.457 250.704 175.307C262.014 159.156 268.1 139.775 268.103 119.893C268.103 67.4644 226.686 25 175.552 25Z" fill="url(#paint46_linear_625)"/>
<g filter="url(#filter5_d_625)">
<circle cx="587.357" cy="201.357" r="92.5" transform="rotate(60 587.357 201.357)" fill="url(#paint47_linear_625)" shape-rendering="crispEdges"/>
</g>
<path d="M619.675 171.59C618.63 172.433 617.53 173.204 616.381 173.898C617.409 171.835 618.007 169.571 618.118 167.24C618.143 166.718 617.842 166.233 617.363 166.025C616.883 165.815 616.324 165.925 615.958 166.299C613.733 168.577 611.181 170.469 608.365 171.93C604.562 169.793 600.019 169.213 595.786 170.347C586.852 172.741 581.531 181.957 583.925 190.891C584.114 191.594 584.346 192.282 584.619 192.948C573.272 194.946 561.505 192.258 552.101 185.473C551.766 185.231 551.333 185.168 550.943 185.307C550.554 185.445 550.256 185.765 550.148 186.164C549.372 189.012 549.368 192.032 550.136 194.898C551.182 198.802 553.568 202.133 556.806 204.368C555.988 204.309 555.175 204.18 554.378 203.98C553.95 203.873 553.497 203.998 553.184 204.309C552.871 204.62 552.743 205.072 552.848 205.501C552.865 205.574 552.884 205.645 552.904 205.718C554.465 211.546 559.008 215.952 564.569 217.526C564.146 217.596 563.718 217.646 563.288 217.678C562.845 217.71 562.451 217.974 562.253 218.372C562.054 218.77 562.08 219.243 562.321 219.617C565.58 224.682 571.242 227.534 577.099 227.296C573.286 231.394 568.449 234.301 562.949 235.775C561.801 236.082 560.629 236.324 559.464 236.493C558.884 236.577 558.437 237.052 558.389 237.637C558.34 238.222 558.703 238.763 559.262 238.941C567.542 241.578 576.354 241.784 584.745 239.535C601.241 235.115 609.476 224.571 613.479 216.505C618.472 206.446 619.699 194.574 616.848 183.932C616.729 183.487 616.602 183.04 616.468 182.596C618.727 179.706 620.472 176.473 621.66 172.976C621.84 172.445 621.648 171.859 621.188 171.537C620.728 171.216 620.112 171.237 619.675 171.59Z" fill="white"/>
<defs>
<filter id="filter0_d_625" x="723" y="75" width="54" height="54" filterUnits="userSpaceOnUse" color-interpolation-filters="sRGB">
<feFlood flood-opacity="0" result="BackgroundImageFix"/>
<feColorMatrix in="SourceAlpha" type="matrix" values="0 0 0 0 0 0 0 0 0 0 0 0 0 0 0 0 0 0 127 0" result="hardAlpha"/>
<feOffset/>
<feGaussianBlur stdDeviation="7.5"/>
<feComposite in2="hardAlpha" operator="out"/>
<feColorMatrix type="matrix" values="0 0 0 0 0.2 0 0 0 0 1 0 0 0 0 0.901031 0 0 0 1 0"/>
<feBlend mode="normal" in2="BackgroundImageFix" result="effect1_dropShadow_625"/>
<feBlend mode="normal" in="SourceGraphic" in2="effect1_dropShadow_625" result="shape"/>
</filter>
<filter id="filter1_f_625" x="331" y="221" width="110" height="105" filterUnits="userSpaceOnUse" color-interpolation-filters="sRGB">
<feFlood flood-opacity="0" result="BackgroundImageFix"/>
<feBlend mode="normal" in="SourceGraphic" in2="BackgroundImageFix" result="shape"/>
<feGaussianBlur stdDeviation="17.5" result="effect1_foregroundBlur_625"/>
</filter>
<filter id="filter2_d_625" x="790" y="14" width="151" height="151" filterUnits="userSpaceOnUse" color-interpolation-filters="sRGB">
<feFlood flood-opacity="0" result="BackgroundImageFix"/>
<feColorMatrix in="SourceAlpha" type="matrix" values="0 0 0 0 0 0 0 0 0 0 0 0 0 0 0 0 0 0 127 0" result="hardAlpha"/>
<feMorphology radius="10" operator="dilate" in="SourceAlpha" result="effect1_dropShadow_625"/>
<feOffset dx="1"/>
<feGaussianBlur stdDeviation="9.5"/>
<feComposite in2="hardAlpha" operator="out"/>
<feColorMatrix type="matrix" values="0 0 0 0 1 0 0 0 0 1 0 0 0 0 1 0 0 0 1 0"/>
<feBlend mode="normal" in2="BackgroundImageFix" result="effect1_dropShadow_625"/>
<feBlend mode="normal" in="SourceGraphic" in2="effect1_dropShadow_625" result="shape"/>
</filter>
<filter id="filter3_d_625" x="252.11" y="381.11" width="243.034" height="243.034" filterUnits="userSpaceOnUse" color-interpolation-filters="sRGB">
<feFlood flood-opacity="0" result="BackgroundImageFix"/>
<feColorMatrix in="SourceAlpha" type="matrix" values="0 0 0 0 0 0 0 0 0 0 0 0 0 0 0 0 0 0 127 0" result="hardAlpha"/>
<feMorphology radius="10" operator="dilate" in="SourceAlpha" result="effect1_dropShadow_625"/>
<feOffset dy="-2"/>
<feGaussianBlur stdDeviation="9.5"/>
<feComposite in2="hardAlpha" operator="out"/>
<feColorMatrix type="matrix" values="0 0 0 0 1 0 0 0 0 1 0 0 0 0 1 0 0 0 1 0"/>
<feBlend mode="normal" in2="BackgroundImageFix" result="effect1_dropShadow_625"/>
<feBlend mode="normal" in="SourceGraphic" in2="effect1_dropShadow_625" result="shape"/>
</filter>
<filter id="filter4_d_625" x="54" y="0" width="243" height="248" filterUnits="userSpaceOnUse" color-interpolation-filters="sRGB">
<feFlood flood-opacity="0" result="BackgroundImageFix"/>
<feColorMatrix in="SourceAlpha" type="matrix" values="0 0 0 0 0 0 0 0 0 0 0 0 0 0 0 0 0 0 127 0" result="hardAlpha"/>
<feMorphology radius="10" operator="dilate" in="SourceAlpha" result="effect1_dropShadow_625"/>
<feOffset dy="4"/>
<feGaussianBlur stdDeviation="9.5"/>
<feComposite in2="hardAlpha" operator="out"/>
<feColorMatrix type="matrix" values="0 0 0 0 1 0 0 0 0 1 0 0 0 0 1 0 0 0 1 0"/>
<feBlend mode="normal" in2="BackgroundImageFix" result="effect1_dropShadow_625"/>
<feBlend mode="normal" in="SourceGraphic" in2="effect1_dropShadow_625" result="shape"/>
</filter>
<filter id="filter5_d_625" x="465.842" y="77.8419" width="243.031" height="243.031" filterUnits="userSpaceOnUse" color-interpolation-filters="sRGB">
<feFlood flood-opacity="0" result="BackgroundImageFix"/>
<feColorMatrix in="SourceAlpha" type="matrix" values="0 0 0 0 0 0 0 0 0 0 0 0 0 0 0 0 0 0 127 0" result="hardAlpha"/>
<feMorphology radius="10" operator="dilate" in="SourceAlpha" result="effect1_dropShadow_625"/>
<feOffset dy="-2"/>
<feGaussianBlur stdDeviation="9.5"/>
<feComposite in2="hardAlpha" operator="out"/>
<feColorMatrix type="matrix" values="0 0 0 0 1 0 0 0 0 1 0 0 0 0 1 0 0 0 1 0"/>
<feBlend mode="normal" in2="BackgroundImageFix" result="effect1_dropShadow_625"/>
<feBlend mode="normal" in="SourceGraphic" in2="effect1_dropShadow_625" result="shape"/>
</filter>
<linearGradient id="paint0_linear_625" x1="62.9986" y1="58.0575" x2="159.904" y2="80.8447" gradientUnits="userSpaceOnUse">
<stop stop-color="#2D74B6"/>
<stop offset="1" stop-color="#188275"/>
</linearGradient>
<linearGradient id="paint1_linear_625" x1="66.0348" y1="58.7713" x2="156.869" y2="80.1309" gradientUnits="userSpaceOnUse">
<stop stop-color="#2D74B6"/>
<stop offset="1" stop-color="#188275"/>
</linearGradient>
<linearGradient id="paint2_linear_625" x1="60.08" y1="57.3713" x2="162.823" y2="81.5313" gradientUnits="userSpaceOnUse">
<stop stop-color="#2D74B6"/>
<stop offset="1" stop-color="#188275"/>
</linearGradient>
<linearGradient id="paint3_linear_625" x1="68.9534" y1="59.4577" x2="153.95" y2="79.4446" gradientUnits="userSpaceOnUse">
<stop stop-color="#2D74B6"/>
<stop offset="1" stop-color="#188275"/>
</linearGradient>
<linearGradient id="paint4_linear_625" x1="71.9896" y1="60.1715" x2="150.915" y2="78.7307" gradientUnits="userSpaceOnUse">
<stop stop-color="#2D74B6"/>
<stop offset="1" stop-color="#188275"/>
</linearGradient>
<linearGradient id="paint5_linear_625" x1="74.9082" y1="60.8579" x2="147.996" y2="78.0444" gradientUnits="userSpaceOnUse">
<stop stop-color="#2D74B6"/>
<stop offset="1" stop-color="#188275"/>
</linearGradient>
<linearGradient id="paint6_linear_625" x1="78.0596" y1="61.599" x2="145.076" y2="77.3579" gradientUnits="userSpaceOnUse">
<stop stop-color="#2D74B6"/>
<stop offset="1" stop-color="#188275"/>
</linearGradient>
<linearGradient id="paint7_linear_625" x1="80.7723" y1="62.1135" x2="142.068" y2="76.5271" gradientUnits="userSpaceOnUse">
<stop stop-color="#2D74B6"/>
<stop offset="1" stop-color="#188275"/>
</linearGradient>
<linearGradient id="paint8_linear_625" x1="83.7816" y1="62.9443" x2="139.123" y2="75.9577" gradientUnits="userSpaceOnUse">
<stop stop-color="#2D74B6"/>
<stop offset="1" stop-color="#188275"/>
</linearGradient>
<linearGradient id="paint9_linear_625" x1="86.6998" y1="63.631" x2="136.203" y2="75.2718" gradientUnits="userSpaceOnUse">
<stop stop-color="#2D74B6"/>
<stop offset="1" stop-color="#188275"/>
</linearGradient>
<linearGradient id="paint10_linear_625" x1="90.4355" y1="64.5091" x2="132.467" y2="74.3927" gradientUnits="userSpaceOnUse">
<stop stop-color="#2D74B6"/>
<stop offset="1" stop-color="#188275"/>
</linearGradient>
<linearGradient id="paint11_linear_625" x1="95.5404" y1="71.4576" x2="127.674" y2="67.7512" gradientUnits="userSpaceOnUse">
<stop stop-color="#2D74B6"/>
<stop offset="1" stop-color="#188275"/>
</linearGradient>
<linearGradient id="paint12_linear_625" x1="92.7711" y1="65.0584" x2="130.132" y2="73.8438" gradientUnits="userSpaceOnUse">
<stop stop-color="#2D74B6"/>
<stop offset="1" stop-color="#188275"/>
</linearGradient>
<linearGradient id="paint13_linear_625" x1="3.48866" y1="64.082" x2="26.2356" y2="69.4309" gradientUnits="userSpaceOnUse">
<stop stop-color="#2D74B6"/>
<stop offset="1" stop-color="#188275"/>
</linearGradient>
<linearGradient id="paint14_linear_625" x1="4.20095" y1="64.2495" x2="25.5227" y2="69.2633" gradientUnits="userSpaceOnUse">
<stop stop-color="#2D74B6"/>
<stop offset="1" stop-color="#188275"/>
</linearGradient>
<linearGradient id="paint15_linear_625" x1="2.80321" y1="63.9209" x2="26.9204" y2="69.592" gradientUnits="userSpaceOnUse">
<stop stop-color="#2D74B6"/>
<stop offset="1" stop-color="#188275"/>
</linearGradient>
<linearGradient id="paint16_linear_625" x1="4.8864" y1="64.4106" x2="24.8379" y2="69.1022" gradientUnits="userSpaceOnUse">
<stop stop-color="#2D74B6"/>
<stop offset="1" stop-color="#188275"/>
</linearGradient>
<linearGradient id="paint17_linear_625" x1="5.59869" y1="64.5782" x2="24.1251" y2="68.9346" gradientUnits="userSpaceOnUse">
<stop stop-color="#2D74B6"/>
<stop offset="1" stop-color="#188275"/>
</linearGradient>
<linearGradient id="paint18_linear_625" x1="6.28414" y1="64.7392" x2="23.4402" y2="68.7735" gradientUnits="userSpaceOnUse">
<stop stop-color="#2D74B6"/>
<stop offset="1" stop-color="#188275"/>
</linearGradient>
<linearGradient id="paint19_linear_625" x1="7.02377" y1="64.9133" x2="22.7548" y2="68.6124" gradientUnits="userSpaceOnUse">
<stop stop-color="#2D74B6"/>
<stop offset="1" stop-color="#188275"/>
</linearGradient>
<linearGradient id="paint20_linear_625" x1="7.66091" y1="65.0343" x2="22.049" y2="68.4177" gradientUnits="userSpaceOnUse">
<stop stop-color="#2D74B6"/>
<stop offset="1" stop-color="#188275"/>
</linearGradient>
<linearGradient id="paint21_linear_625" x1="8.36733" y1="65.229" x2="21.3577" y2="68.2837" gradientUnits="userSpaceOnUse">
<stop stop-color="#2D74B6"/>
<stop offset="1" stop-color="#188275"/>
</linearGradient>
<linearGradient id="paint22_linear_625" x1="9.05181" y1="65.3902" x2="20.6719" y2="68.1227" gradientUnits="userSpaceOnUse">
<stop stop-color="#2D74B6"/>
<stop offset="1" stop-color="#188275"/>
</linearGradient>
<linearGradient id="paint23_linear_625" x1="9.92899" y1="65.5964" x2="19.7951" y2="67.9164" gradientUnits="userSpaceOnUse">
<stop stop-color="#2D74B6"/>
<stop offset="1" stop-color="#188275"/>
</linearGradient>
<linearGradient id="paint24_linear_625" x1="11.1307" y1="67.2127" x2="18.6602" y2="66.3162" gradientUnits="userSpaceOnUse">
<stop stop-color="#2D74B6"/>
<stop offset="1" stop-color="#188275"/>
</linearGradient>
<linearGradient id="paint25_linear_625" x1="10.4774" y1="65.7253" x2="19.2472" y2="67.7875" gradientUnits="userSpaceOnUse">
<stop stop-color="#2D74B6"/>
<stop offset="1" stop-color="#188275"/>
</linearGradient>
<linearGradient id="paint26_linear_625" x1="766.352" y1="133.77" x2="766.257" y2="133.121" gradientUnits="userSpaceOnUse">
<stop stop-color="#D8D7DD"/>
<stop offset="1" stop-color="#DDE1E1"/>
</linearGradient>
<linearGradient id="paint27_linear_625" x1="750" y1="90" x2="762" y2="114" gradientUnits="userSpaceOnUse">
<stop stop-color="#C9D8E1"/>
<stop offset="1" stop-color="#DFE1E2"/>
</linearGradient>
<linearGradient id="paint28_linear_625" x1="386" y1="256" x2="386" y2="291" gradientUnits="userSpaceOnUse">
<stop stop-color="#000B69"/>
<stop offset="1" stop-color="#BFC2E1"/>
</linearGradient>
<linearGradient id="paint29_linear_625" x1="321" y1="216" x2="321.619" y2="215.215" gradientUnits="userSpaceOnUse">
<stop stop-color="#82D1C8"/>
<stop offset="1" stop-color="#FF0099" stop-opacity="0.59"/>
</linearGradient>
<linearGradient id="paint30_linear_625" x1="436.012" y1="250.537" x2="436.415" y2="251.453" gradientUnits="userSpaceOnUse">
<stop stop-color="#82D1C8"/>
<stop offset="1" stop-color="#FF0099" stop-opacity="0.59"/>
</linearGradient>
<linearGradient id="paint31_linear_625" x1="365.5" y1="228.5" x2="366.397" y2="228.057" gradientUnits="userSpaceOnUse">
<stop stop-color="#82D1C8"/>
<stop offset="1" stop-color="#FF0099" stop-opacity="0.59"/>
</linearGradient>
<linearGradient id="paint32_linear_625" x1="416.875" y1="304.989" x2="416.141" y2="305.668" gradientUnits="userSpaceOnUse">
<stop stop-color="#82D1C8"/>
<stop offset="1" stop-color="#FF0099" stop-opacity="0.59"/>
</linearGradient>
<linearGradient id="paint33_linear_625" x1="378.964" y1="336.997" x2="377.966" y2="336.925" gradientUnits="userSpaceOnUse">
<stop stop-color="#82D1C8"/>
<stop offset="1" stop-color="#FF0099" stop-opacity="0.59"/>
</linearGradient>
<linearGradient id="paint34_linear_625" x1="393.5" y1="285" x2="392.619" y2="285.472" gradientUnits="userSpaceOnUse">
<stop stop-color="#82D1C8"/>
<stop offset="1" stop-color="#FF0099" stop-opacity="0.59"/>
</linearGradient>
<linearGradient id="paint35_linear_625" x1="375.094" y1="257.513" x2="375.872" y2="256.885" gradientUnits="userSpaceOnUse">
<stop stop-color="#82D1C8"/>
<stop offset="1" stop-color="#FF0099" stop-opacity="0.59"/>
</linearGradient>
<linearGradient id="paint36_linear_625" x1="365.5" y1="301.5" x2="364.654" y2="300.966" gradientUnits="userSpaceOnUse">
<stop stop-color="#82D1C8"/>
<stop offset="1" stop-color="#FF0099" stop-opacity="0.59"/>
</linearGradient>
<linearGradient id="paint37_linear_625" x1="396.219" y1="234.973" x2="397.181" y2="235.245" gradientUnits="userSpaceOnUse">
<stop stop-color="#82D1C8"/>
<stop offset="1" stop-color="#FF0099" stop-opacity="0.59"/>
</linearGradient>
<linearGradient id="paint38_linear_625" x1="390.5" y1="259.5" x2="391.419" y2="259.894" gradientUnits="userSpaceOnUse">
<stop stop-color="#82D1C8"/>
<stop offset="1" stop-color="#FF0099" stop-opacity="0.59"/>
</linearGradient>
<linearGradient id="paint39_linear_625" x1="384.125" y1="282.33" x2="383.132" y2="282.212" gradientUnits="userSpaceOnUse">
<stop stop-color="#82D1C8"/>
<stop offset="1" stop-color="#FF0099" stop-opacity="0.59"/>
</linearGradient>
<linearGradient id="paint40_linear_625" x1="407" y1="288" x2="406.349" y2="288.759" gradientUnits="userSpaceOnUse">
<stop stop-color="#82D1C8"/>
<stop offset="1" stop-color="#FF0099" stop-opacity="0.59"/>
</linearGradient>
<linearGradient id="paint41_linear_625" x1="360.235" y1="259.664" x2="360.644" y2="258.751" gradientUnits="userSpaceOnUse">
<stop stop-color="#82D1C8"/>
<stop offset="1" stop-color="#FF0099" stop-opacity="0.59"/>
</linearGradient>
<linearGradient id="paint42_linear_625" x1="375.5" y1="279" x2="374.849" y2="278.241" gradientUnits="userSpaceOnUse">
<stop stop-color="#82D1C8"/>
<stop offset="1" stop-color="#FF0099" stop-opacity="0.59"/>
</linearGradient>
<linearGradient id="paint43_linear_625" x1="392.994" y1="259.383" x2="393.833" y2="259.927" gradientUnits="userSpaceOnUse">
<stop stop-color="#82D1C8"/>
<stop offset="1" stop-color="#FF0099" stop-opacity="0.59"/>
</linearGradient>
<linearGradient id="paint44_linear_625" x1="831" y1="116.5" x2="898.057" y2="66.7502" gradientUnits="userSpaceOnUse">
<stop stop-color="#CAEEE8"/>
<stop offset="1" stop-color="#C0C0C9"/>
</linearGradient>
<linearGradient id="paint45_linear_625" x1="373.627" y1="412.127" x2="373.627" y2="597.127" gradientUnits="userSpaceOnUse">
<stop stop-color="#EFEFEF"/>
<stop offset="1" stop-color="#D1F4FF" stop-opacity="0"/>
</linearGradient>
<linearGradient id="paint46_linear_625" x1="121" y1="52.5" x2="229.213" y2="182.832" gradientUnits="userSpaceOnUse">
<stop stop-color="#BEFEF6"/>
<stop offset="1" stop-color="#BAC3D6"/>
</linearGradient>
<linearGradient id="paint47_linear_625" x1="651.87" y1="130.857" x2="479.481" y2="148.429" gradientUnits="userSpaceOnUse">
<stop stop-color="#EFEFEF"/>
<stop offset="1" stop-color="#D1F4FF" stop-opacity="0"/>
</linearGradient>
</defs>
</svg>
