<svg width="1148" height="1148" viewBox="0 0 1148 1148" fill="none" xmlns="http://www.w3.org/2000/svg">
<g filter="url(#filter0_d_784_6)">
<path d="M770.078 458.513C836.983 529.784 834.259 641.033 763.995 706.993C693.731 772.952 582.531 768.647 515.627 697.376C448.722 626.105 451.446 514.856 521.71 448.896C591.974 382.937 703.173 387.242 770.078 458.513Z" fill="white"/>
</g>
<g filter="url(#filter1_d_784_6)">
<path d="M1080.04 522.781C1117.46 562.644 1115.97 624.837 1076.71 661.692C1037.45 698.546 975.287 696.107 937.865 656.243C900.444 616.38 901.934 554.187 941.193 517.333C980.453 480.478 1042.62 482.918 1080.04 522.781Z" fill="white"/>
</g>
<g filter="url(#filter2_d_784_6)">
<path d="M546.871 850.467C584.292 890.33 582.802 952.523 543.543 989.378C504.284 1026.23 442.121 1023.79 404.699 983.929C367.278 944.066 368.768 881.873 408.027 845.019C447.287 808.164 509.45 810.604 546.871 850.467Z" fill="white"/>
</g>
<g filter="url(#filter3_d_784_6)">
<path d="M524.371 196.771C561.792 236.634 560.302 298.827 521.043 335.681C481.784 372.536 419.621 370.096 382.199 330.233C344.778 290.37 346.268 228.177 385.527 191.322C424.787 154.468 486.95 156.907 524.371 196.771Z" fill="white"/>
</g>
<defs>
<filter id="filter0_d_784_6" x="442.178" y="377.111" width="401.35" height="401.667" filterUnits="userSpaceOnUse" color-interpolation-filters="sRGB">
<feFlood flood-opacity="0" result="BackgroundImageFix"/>
<feColorMatrix in="SourceAlpha" type="matrix" values="0 0 0 0 0 0 0 0 0 0 0 0 0 0 0 0 0 0 127 0" result="hardAlpha"/>
<feOffset/>
<feGaussianBlur stdDeviation="12.5"/>
<feComposite in2="hardAlpha" operator="out"/>
<feColorMatrix type="matrix" values="0 0 0 0 0 0 0 0 0 0 0 0 0 0 0 0 0 0 0.25 0"/>
<feBlend mode="normal" in2="BackgroundImageFix" result="effect1_dropShadow_784_6"/>
<feBlend mode="normal" in="SourceGraphic" in2="effect1_dropShadow_784_6" result="shape"/>
</filter>
<filter id="filter1_d_784_6" x="885.746" y="466.212" width="246.41" height="246.601" filterUnits="userSpaceOnUse" color-interpolation-filters="sRGB">
<feFlood flood-opacity="0" result="BackgroundImageFix"/>
<feColorMatrix in="SourceAlpha" type="matrix" values="0 0 0 0 0 0 0 0 0 0 0 0 0 0 0 0 0 0 127 0" result="hardAlpha"/>
<feOffset/>
<feGaussianBlur stdDeviation="12.5"/>
<feComposite in2="hardAlpha" operator="out"/>
<feColorMatrix type="matrix" values="0 0 0 0 0 0 0 0 0 0 0 0 0 0 0 0 0 0 0.25 0"/>
<feBlend mode="normal" in2="BackgroundImageFix" result="effect1_dropShadow_784_6"/>
<feBlend mode="normal" in="SourceGraphic" in2="effect1_dropShadow_784_6" result="shape"/>
</filter>
<filter id="filter2_d_784_6" x="352.58" y="793.898" width="246.41" height="246.601" filterUnits="userSpaceOnUse" color-interpolation-filters="sRGB">
<feFlood flood-opacity="0" result="BackgroundImageFix"/>
<feColorMatrix in="SourceAlpha" type="matrix" values="0 0 0 0 0 0 0 0 0 0 0 0 0 0 0 0 0 0 127 0" result="hardAlpha"/>
<feOffset/>
<feGaussianBlur stdDeviation="12.5"/>
<feComposite in2="hardAlpha" operator="out"/>
<feColorMatrix type="matrix" values="0 0 0 0 0 0 0 0 0 0 0 0 0 0 0 0 0 0 0.25 0"/>
<feBlend mode="normal" in2="BackgroundImageFix" result="effect1_dropShadow_784_6"/>
<feBlend mode="normal" in="SourceGraphic" in2="effect1_dropShadow_784_6" result="shape"/>
</filter>
<filter id="filter3_d_784_6" x="330.08" y="140.202" width="246.41" height="246.601" filterUnits="userSpaceOnUse" color-interpolation-filters="sRGB">
<feFlood flood-opacity="0" result="BackgroundImageFix"/>
<feColorMatrix in="SourceAlpha" type="matrix" values="0 0 0 0 0 0 0 0 0 0 0 0 0 0 0 0 0 0 127 0" result="hardAlpha"/>
<feOffset/>
<feGaussianBlur stdDeviation="12.5"/>
<feComposite in2="hardAlpha" operator="out"/>
<feColorMatrix type="matrix" values="0 0 0 0 0 0 0 0 0 0 0 0 0 0 0 0 0 0 0.25 0"/>
<feBlend mode="normal" in2="BackgroundImageFix" result="effect1_dropShadow_784_6"/>
<feBlend mode="normal" in="SourceGraphic" in2="effect1_dropShadow_784_6" result="shape"/>
</filter>
</defs>
</svg>
