<svg width="32" height="32" viewBox="0 0 32 32" fill="none" xmlns="http://www.w3.org/2000/svg">
<path fill-rule="evenodd" clip-rule="evenodd" d="M17.0338 30.7425C16.8915 31.2762 17.2087 31.8241 17.7424 31.9664C18.276 32.1087 18.824 31.7915 18.9663 31.2579L21.1683 23.0002H31C31.5523 23.0002 32 22.5525 32 22.0002C32 21.4479 31.5523 21.0002 31 21.0002H21.7016L24.3683 11.0002H31C31.5523 11.0002 32 10.5525 32 10.0002C32 9.44796 31.5523 9.00024 31 9.00024H24.9016L26.9663 1.2579C27.1086 0.724272 26.7913 0.176314 26.2577 0.0340127C25.7241 -0.108291 25.1761 0.208947 25.0338 0.742585L22.8318 9.00024H12.9016L14.9663 1.25791C15.1086 0.724273 14.7913 0.176315 14.2577 0.0340132C13.7241 -0.10829 13.1761 0.208948 13.0338 0.742586L10.8318 9.00024H1C0.447715 9.00024 0 9.44796 0 10.0002C0 10.5525 0.447715 11.0002 1 11.0002H10.2984L7.63175 21.0002H1C0.447715 21.0002 0 21.4479 0 22.0002C0 22.5525 0.447715 23.0002 1 23.0002H7.09842L5.0338 30.7425C4.89149 31.2762 5.20873 31.8241 5.74237 31.9664C6.276 32.1087 6.82396 31.7915 6.96627 31.2579L9.16831 23.0002H19.0984L17.0338 30.7425ZM19.6318 21.0002L22.2984 11.0002H12.3683L9.70164 21.0002H19.6318Z" fill="black"/>
</svg>
