<svg width="235" height="235" viewBox="0 0 235 235" fill="none" xmlns="http://www.w3.org/2000/svg">
<path d="M54.7023 75.6018H7.52567C5.4319 75.6018 3.73535 77.2991 3.73535 79.3921V230.95C3.73535 233.044 5.4319 234.741 7.52567 234.741H54.7023C56.7961 234.741 58.4926 233.044 58.4926 230.95V79.3921C58.4926 77.2991 56.7961 75.6018 54.7023 75.6018Z" fill="white"/>
<path d="M31.1307 0.258545C13.9651 0.258545 0 14.2084 0 31.3551C0 48.5093 13.9651 62.4646 31.1307 62.4646C48.2826 62.4646 62.2363 48.5086 62.2363 31.3551C62.2371 14.2084 48.2826 0.258545 31.1307 0.258545Z" fill="white"/>
<path d="M174.699 71.835C155.751 71.835 141.744 79.9804 133.249 89.2356V79.3921C133.249 77.2991 131.552 75.6018 129.458 75.6018H84.2786C82.1848 75.6018 80.4883 77.2991 80.4883 79.3921V230.95C80.4883 233.044 82.1848 234.741 84.2786 234.741H131.352C133.446 234.741 135.142 233.044 135.142 230.95V155.964C135.142 130.696 142.006 120.851 159.62 120.851C178.804 120.851 180.328 136.633 180.328 157.264V230.951C180.328 233.045 182.025 234.742 184.119 234.742H231.21C233.303 234.742 235 233.045 235 230.951V147.819C235 110.245 227.836 71.835 174.699 71.835Z" fill="white"/>
</svg>
