<svg width="33" height="90" viewBox="0 0 33 90" fill="none" xmlns="http://www.w3.org/2000/svg">
<path d="M32.9503 55.173C32.9373 54.252 32.8233 53.335 32.6143 52.456C32.4083 51.546 32.1303 50.696 31.7903 49.941C31.4103 49.069 31.0093 48.326 30.5713 47.682C28.6643 44.784 25.9083 42.714 22.8113 41.855C22.0263 41.635 21.2223 41.494 20.4023 41.436C20.1593 41.425 19.9173 41.419 19.6763 41.419C19.2113 41.419 18.7853 41.442 18.4003 41.488C18.2263 39.608 18.0663 37.724 17.9243 35.87C20.3813 33.365 22.1733 31.224 23.7103 28.963C25.1863 26.753 26.1493 24.806 26.7373 22.846C27.0653 21.799 27.3053 20.679 27.4723 19.412C27.5413 18.845 27.5823 18.314 27.6253 17.701L27.6573 16.948L27.6723 16.126C27.6903 13.89 27.4373 11.698 26.9213 9.611C26.3043 7.129 25.4203 5.082 24.2163 3.348C23.8233 2.787 23.4253 2.309 22.9983 1.885C22.6293 1.519 22.0473 0.984 21.2533 0.569C20.8533 0.355 20.4203 0.197 19.9583 0.0970001C19.6793 0.0390001 19.4203 0.00900019 19.1433 0.00400019L19.0593 0L18.7833 0.0100002C18.7803 0.0100002 18.4153 0.0369998 18.2453 0.0879998C17.6903 0.209 17.1463 0.47 16.6723 0.841C16.3323 1.108 16.0293 1.422 15.7333 1.819C14.8513 3.064 14.5193 4.261 14.2483 5.237C14.0103 6.157 13.8263 7.145 13.6663 8.356C13.1553 12.622 13.1733 16.689 13.2573 20.102C13.3243 23.08 13.4743 26.204 13.7183 29.639C12.9023 30.497 12.0703 31.35 11.2413 32.2L10.4873 32.974C10.2313 33.236 9.97729 33.492 9.72229 33.749C9.30029 34.174 8.87729 34.601 8.45329 35.046C7.66129 35.87 6.97629 36.642 6.35929 37.407C5.02029 39.057 3.85229 40.836 2.88929 42.691C1.87829 44.606 1.12029 46.6 0.63629 48.614C0.10829 50.769 -0.0927099 52.896 0.0392901 54.906C0.0522901 55.306 0.100291 55.705 0.149291 56.102L0.20529 56.551L0.277289 56.948C0.343289 57.324 0.411289 57.712 0.513289 58.07C0.733289 59.016 1.08429 59.997 1.58429 61.069C2.44429 62.925 3.77529 64.62 5.44529 65.982L6.06329 66.462L6.63429 66.844C6.94829 67.069 7.28529 67.256 7.61229 67.436L8.01229 67.658L8.98029 68.114L9.96529 68.513L10.6153 68.74C12.4153 69.351 14.2733 69.689 16.1343 69.745C16.3263 69.752 16.5183 69.755 16.7103 69.755C17.4903 69.755 18.2813 69.703 19.0703 69.602C19.1523 70.134 19.2313 70.662 19.3063 71.188C19.4983 72.464 19.6583 73.839 19.7973 75.388C19.8973 76.573 19.9933 77.97 19.9473 79.343C19.9243 80.03 19.8763 80.627 19.8003 81.153L19.7723 81.349C19.7633 81.422 19.7543 81.495 19.7383 81.568L19.6553 81.98L19.6163 82.122C19.5583 82.332 19.5033 82.537 19.4143 82.768C19.0743 83.726 18.5113 84.592 17.7963 85.267C17.1033 85.903 16.2893 86.355 15.4753 86.565L15.0023 86.669L15.0553 86.942L14.9893 86.67L14.8063 86.697C14.5903 86.725 14.3923 86.74 14.1813 86.745L14.0583 86.746C13.6473 86.746 13.2933 86.713 12.9783 86.644C12.5973 86.56 12.2353 86.439 11.9263 86.295C11.6233 86.142 11.3383 85.951 11.0913 85.74C10.6463 85.342 10.3333 84.861 10.1773 84.327C10.1123 84.123 10.0753 83.891 10.0593 83.578C10.0543 83.501 10.0533 83.423 10.0553 83.353L10.0963 83.309L10.0893 82.964L10.0973 82.796L10.1063 82.75C10.1363 82.589 10.1763 82.367 10.2343 82.213C10.2833 82.07 10.3413 81.931 10.4043 81.803C11.0163 82.093 11.6823 82.243 12.3683 82.243C14.9183 82.243 16.9933 80.169 16.9933 77.618C16.9933 75.057 14.9423 72.933 12.4203 72.885L12.2703 72.884C10.3493 72.884 8.75129 73.578 7.38529 75.005C6.05529 76.392 5.15929 78.248 4.92729 80.083C4.85729 80.582 4.82829 81.09 4.84329 81.599C4.86529 82.188 4.91329 82.643 5.01529 83.205C5.25529 84.284 5.70629 85.365 6.28729 86.249C6.96529 87.283 7.87529 88.154 8.90829 88.76C9.45129 89.089 10.0283 89.351 10.6043 89.532C11.1983 89.733 11.8193 89.87 12.4503 89.939C12.7973 89.98 13.1513 90 13.5083 90C13.7933 90 14.0803 89.987 14.3633 89.961C14.6813 89.932 15.0293 89.879 15.3643 89.809L15.7323 89.723L16.3273 89.552C17.0293 89.31 17.6363 89.029 18.1933 88.688C18.7893 88.312 19.3423 87.871 19.8473 87.362C20.8573 86.305 21.6203 85.026 22.0463 83.686C22.1613 83.354 22.2483 82.992 22.3303 82.638L22.3443 82.577L22.4263 82.09C22.4543 81.94 22.4703 81.812 22.4833 81.683L22.5033 81.52C22.5793 80.877 22.6213 80.183 22.6273 79.403C22.6633 76.583 22.3023 73.658 21.9523 70.823L21.7173 69.063C23.4833 68.569 25.1083 67.829 26.5613 66.858C28.1533 65.786 29.4793 64.501 30.4943 63.047C31.0103 62.328 31.4693 61.509 31.8533 60.622C32.0613 60.158 32.2183 59.699 32.3323 59.343C32.3923 59.18 32.4403 58.994 32.4863 58.806L32.5413 58.593C32.6033 58.347 32.6693 58.078 32.6963 57.922L32.8153 57.311L32.9013 56.57C32.9513 56.021 32.9673 55.57 32.9503 55.173ZM17.3533 14.476C17.4683 12.392 17.6603 10.601 17.9413 9C18.1183 8.001 18.3113 7.166 18.5323 6.447C18.7303 5.801 18.9573 5.253 19.1743 4.87C19.4223 5.095 19.7383 5.485 20.0233 6.001C20.6813 7.2 21.1253 8.76 21.3413 10.633C21.5103 12.152 21.5173 13.859 21.3633 15.841L21.3073 16.471L21.2263 17.172L21.2083 17.293C21.1563 17.65 21.0983 18.043 21.0313 18.392C20.8533 19.255 20.6413 19.997 20.3773 20.667C19.8823 21.97 19.1043 23.297 17.9343 24.836C17.7383 25.088 17.5323 25.346 17.3163 25.611C17.2403 23.62 17.2013 21.788 17.1973 20.058C17.2043 18.054 17.2543 16.228 17.3533 14.476ZM16.6463 66.352C16.5123 66.352 16.3783 66.349 16.2393 66.345C15.4713 66.32 14.7213 66.232 13.9903 66.077C13.3073 65.948 12.5913 65.738 11.8083 65.438L11.2843 65.235L10.4973 64.871L9.72129 64.447C9.15629 64.085 8.50829 63.644 7.96929 63.103C7.37929 62.528 6.92929 61.975 6.58629 61.403C6.15629 60.708 5.84529 60.059 5.63229 59.408C5.39129 58.713 5.23229 57.983 5.15129 57.196C5.11429 56.955 5.10629 56.708 5.09629 56.462C5.09029 56.326 5.08529 56.189 5.07829 56.138C5.08229 56 5.08429 55.863 5.08529 55.725C5.08829 55.476 5.08829 55.229 5.12029 54.945C5.34029 52.059 6.47729 49.039 8.49729 45.973C9.37029 44.656 10.4353 43.316 11.6623 41.991C12.2963 41.308 12.8933 40.709 13.4953 40.153L14.5483 39.162C14.6633 40.275 14.7823 41.38 14.9073 42.477L14.8263 42.512L14.5713 42.639C14.3613 42.744 14.1523 42.848 13.9543 42.962C11.7433 44.227 9.97629 46.095 8.98429 48.213C7.90729 50.439 7.78929 52.478 7.88029 53.804C7.99529 55.334 8.45429 56.766 9.16429 57.821C9.68329 58.63 10.3463 59.258 11.1553 59.7L11.5013 59.877L11.9473 60.036L12.8903 58.613L12.7463 58.458C12.6813 58.392 12.5873 58.287 12.4883 58.148C12.2803 57.859 12.0043 57.371 11.8643 56.681C11.6983 55.899 11.7223 54.971 11.9353 54.059C12.1763 52.968 12.7113 51.851 13.4373 50.918C14.0563 50.133 14.8263 49.475 15.7273 48.968C15.8923 50.155 16.0643 51.33 16.2443 52.491C16.7613 55.91 17.3363 59.288 17.8353 62.185L18.5243 66.197C17.8983 66.3 17.2693 66.352 16.6463 66.352ZM27.1013 57.149L27.0973 57.298C27.0583 59.574 25.8953 61.989 24.0523 63.608C23.2493 64.333 22.2863 64.944 21.2253 65.404C20.6463 61.121 20.0483 56.693 19.5053 52.053C19.3513 50.72 19.2013 49.372 19.0543 48.009C19.6193 48.009 20.2333 48.114 20.8653 48.315C22.3973 48.835 23.9383 50.003 25.0873 51.516C25.7283 52.368 26.2283 53.27 26.5713 54.194C26.7613 54.705 26.8983 55.206 26.9873 55.716C27.0283 55.911 27.0463 56.107 27.0663 56.304L27.0813 56.446L27.1033 56.783L27.0883 57.135L27.1013 57.149Z" fill="black"/>
</svg>
