<svg width="900" height="31" viewBox="0 0 900 31" fill="none" xmlns="http://www.w3.org/2000/svg">
<path d="M0.99999 14C4.46817 12.4232 68.6474 13.8884 85.3237 7.3978C102 0.907193 129.283 0.510537 142.532 0.907196C155.781 1.30385 177.288 1.06174 193.528 7.7701C209.767 14.4785 275.816 6.44945 281.235 7.3978C286.654 8.34615 321.712 4 358.412 7.3978C395.112 10.7956 440.446 18.0187 466.892 7.3978C492.326 -2.81711 547.214 6.6168 551.374 7.35301C551.559 7.38583 551.688 7.40759 551.874 7.43555C555.547 7.98713 598.922 14.3736 627.182 12.7084C653.674 11.1474 667.667 3.20767 694.105 0.907196C737.643 -2.88118 762.134 6.35427 805.823 7.3978C836.376 8.12754 874.5 11 884.08 7.3978C893.659 3.7956 913.159 -4.5 884.08 10.5C855 25.5 805.73 15.5001 755.631 18.0188C705.277 20.5503 677.345 31 627.182 31C577.442 31 549.707 21.2484 499.813 18.0188C430.4 13.5257 345.693 18.0188 321.712 15.6586C297.731 13.2984 281.235 22.7392 257.488 25.0994C233.741 27.4597 160.982 21.5592 134.537 14.4785C108.091 7.39774 88.293 18.0188 59.418 18.0188C46.3505 18.0188 41.2251 18.0234 29.5 16C16.8304 13.8136 -2.46819 15.5768 0.99999 14Z" fill="#00C2FF"/>
</svg>

