<svg width="53" height="86" viewBox="0 0 53 86" fill="none" xmlns="http://www.w3.org/2000/svg">
<path fill-rule="evenodd" clip-rule="evenodd" d="M52.6442 3.17192C53.0442 5.37192 51.7442 7.47192 49.5442 7.97192L30.5442 11.8719L30.5 23L30.5442 28.3719V58.9719V69.7719C30.5442 77.8719 24.4442 84.8719 16.3442 85.4719C7.04421 86.1719 -0.655793 78.4719 0.0442066 69.1719C0.644207 61.0719 7.6442 54.9719 15.7442 54.9719H22.6442V8.77192C22.6442 6.87192 24.0442 5.27192 25.8442 4.87192L47.8442 0.0719201C50.0442 -0.32808 52.1442 0.97192 52.6442 3.17192ZM15.5 79C20.1944 79 23.4815 75.1657 24 70.5C24.5 66 24.0208 64.0001 22.5 62.5001C20.9792 61.0001 17.5 61.2775 15.5 61.5C11 62.0001 6.99995 65.8056 6.99995 70.5C6.99995 75.1944 10.8055 79 15.5 79Z" fill="black"/>
</svg>
