<svg width="88" height="88" viewBox="0 0 88 88" fill="none" xmlns="http://www.w3.org/2000/svg">
<path fill-rule="evenodd" clip-rule="evenodd" d="M44 88C32.2 88 21.2 83.4 12.9 75.1C4.6 66.8 0 55.8 0 44C0 32.2 4.6 21.2 12.9 12.9C21.2 4.6 32.2 0 44 0C55.8 0 66.8 4.6 75.1 12.9C83.4 21.2 88 32.2 88 44C88 55.8 83.4 66.8 75.1 75.1C66.8 83.4 55.8 88 44 88ZM44 2C32.8 2 22.2 6.4 14.3 14.3C6.4 22.2 2 32.8 2 44C2 55.2 6.4 65.8 14.3 73.7C22.2 81.6 32.8 86 44 86C55.2 86 65.8 81.6 73.7 73.7C81.6 65.8 86 55.2 86 44C86 32.8 81.6 22.2 73.7 14.3C65.8 6.4 55.2 2 44 2ZM44 85.5C32.9 85.5 22.5 81.2 14.7 73.4C6.9 65.5 2.5 55.1 2.5 44C2.5 32.9 6.8 22.5 14.6 14.7C22.4 6.9 32.9 2.5 44 2.5C55.1 2.5 65.5 6.8 73.3 14.6C81.1 22.4 85.5 32.9 85.5 44C85.5 55.1 81.2 65.5 73.4 73.3C65.5 81.1 55.1 85.5 44 85.5ZM44 4.4C33.4 4.4 23.5 8.5 16 16C8.5 23.5 4.4 33.4 4.4 44C4.4 54.6 8.5 64.5 16 72C23.5 79.5 33.4 83.6 44 83.6C54.6 83.6 64.5 79.5 72 72C79.5 64.5 83.6 54.6 83.6 44C83.6 33.4 79.5 23.5 72 16C64.5 8.5 54.6 4.4 44 4.4ZM44 82.9C33.6 82.9 23.8 78.9 16.5 71.5C9.09998 64.2 5.09998 54.4 5.09998 44C5.09998 33.6 9.09998 23.8 16.5 16.5C23.9 9.09998 33.6 5.09998 44 5.09998C54.4 5.09998 64.2 9.09998 71.5 16.5C78.9 23.9 82.9 33.6 82.9 44C82.9 54.4 78.9 64.2 71.5 71.5C64.2 78.9 54.4 82.9 44 82.9ZM44 6.69998C34 6.69998 24.7 10.6 17.7 17.6C10.7 24.6 6.79998 34 6.79998 43.9C6.79998 53.9 10.7 63.2 17.7 70.2C24.7 77.2 34.1 81.1 44 81.1C53.9 81.1 63.3 77.2 70.3 70.2C77.3 63.2 81.2 53.8 81.2 43.9C81.2 33.9 77.3 24.6 70.3 17.6C63.3 10.6 54 6.69998 44 6.69998ZM18.3 69.7C25.1 76.6 34.3 80.4 44 80.4C53.7 80.4 62.9 76.6 69.7 69.7C76.6 62.9 80.4 53.7 80.4 44C80.4 34.3 76.6 25.2 69.7 18.3C62.9 11.4 53.7 7.59998 44 7.59998C34.3 7.59998 25.2 11.4 18.3 18.3C11.4 25.1 7.59998 34.3 7.59998 44C7.59998 53.7 11.4 62.8 18.3 69.7ZM19.3 19.3C25.9 12.7 34.7 9.09998 44 9.09998C53.3 9.09998 62.1 12.7 68.7 19.3C75.3 25.9 78.9 34.7 78.9 44C78.9 53.3 75.3 62.1 68.7 68.7C62.1 75.3 53.3 78.9 44 78.9C34.7 78.9 25.9 75.3 19.3 68.7C12.7 62.1 9.09998 53.3 9.09998 44C9.09998 34.7 12.7 25.9 19.3 19.3ZM44 77.8C35 77.8 26.5 74.2999 20.1 67.8999C13.7 61.5 10.2 53 10.2 44C10.2 35 13.7 26.5 20.1 20.1C26.5 13.7 35 10.2 44 10.2C53 10.2 61.5 13.7 67.8999 20.1C74.2999 26.5 77.8 35 77.8 44C77.8 53 74.2999 61.5 67.8999 67.8999C61.5 74.2999 53 77.8 44 77.8ZM44 11.5C35.2999 11.5 27.2 14.9 21 21C14.9 27.1 11.5 35.2999 11.5 44C11.5 52.7 14.9 60.9 21 67C27.1 73.1 35.2999 76.5 44 76.5C52.7 76.5 60.9 73.1 67 67C73.1 60.9 76.5 52.7 76.5 44C76.5 35.2999 73.1 27.1 67 21C60.7999 14.9 52.7 11.5 44 11.5ZM21.9 66.0999C27.7999 71.9999 35.6 75.3 44 75.3C52.3999 75.3 60.1999 72.0999 66.0999 66.0999C71.9999 60.1999 75.3 52.2999 75.3 44C75.3 35.7 71.9999 27.7999 66.0999 21.9C60.1999 16 52.2999 12.7 44 12.7C35.7 12.7 27.7999 16 21.9 21.9C16 27.7999 12.7 35.7 12.7 44C12.7 52.2999 16 60.1999 21.9 66.0999ZM22.7 22.7C28.4 17 35.8999 13.9 44 13.9C52.1 13.9 59.6 17 65.3 22.7C71 28.4 74.0999 36 74.0999 44C74.0999 52 71 59.6 65.3 65.3C59.6 71 52 74.0999 44 74.0999C36 74.0999 28.4 71 22.7 65.3C17 59.6 13.9 52.1 13.9 44C13.9 35.8999 17 28.4 22.7 22.7ZM44 72.8C36.3 72.8 29.1 69.8 23.7001 64.4C18.3001 59 15.3 51.7 15.3 44.1C15.3 36.4 18.3001 29.2 23.7001 23.8C29.1 18.4 36.4001 15.4 44 15.4C51.6 15.4 58.9001 18.4 64.3 23.8C69.7001 29.2 72.7 36.5 72.7 44.1C72.7 51.8 69.7001 59 64.3 64.4C58.9001 69.8 51.7001 72.8 44 72.8ZM44 16.2C36.6 16.2 29.6 19.1 24.4 24.3C19.2001 29.5 16.2001 36.6 16.2001 44C16.2001 51.4 19.1 58.4 24.3 63.6C29.5 68.8 36.5 71.7 43.9001 71.7C51.3001 71.7 58.3 68.8 63.5 63.6C68.7001 58.4 71.6001 51.4 71.6001 44C71.6001 36.6 68.7001 29.6 63.5 24.4C58.3 19.2 51.4001 16.2 44 16.2ZM25.4 62.5C30.4 67.5 37 70.2 44 70.2C51 70.2 57.7 67.5999 62.7 62.5999C67.7 57.5999 70.4001 51.0999 70.4001 44C70.4001 36.9 67.7 30.4 62.7 25.4C57.7 20.4 51.2 17.7 44.1 17.7C37 17.7 30.5 20.4 25.5 25.4C20.5 30.4 17.8 37 17.8 44C17.8 51 20.4 57.5 25.4 62.5ZM26 26C30.8 21.2 37.2001 18.6 44 18.6C50.8 18.6 57.2001 21.2 62 26C66.8 30.7999 69.4001 37.2 69.4001 44C69.4001 50.7999 66.8 57.2 62 62C57.2001 66.7999 50.8 69.3999 44 69.3999C37.2001 69.3999 30.8 66.7999 26 62C21.2001 57.2 18.6 50.7999 18.6 44C18.6 37.2 21.2001 30.7999 26 26ZM44 67.7C37.7001 67.7 31.7001 65.2001 27.2001 60.8001C22.7001 56.3001 20.3 50.4001 20.3 44C20.3 37.7001 22.8001 31.7001 27.2001 27.2001C31.7001 22.7001 37.6 20.3 44 20.3C50.4001 20.3 56.3001 22.8001 60.8001 27.2001C65.3 31.7001 67.7 37.6 67.7 44C67.7 50.3 65.2001 56.3001 60.8001 60.8001C56.3001 65.2001 50.3 67.7 44 67.7ZM44 21C37.8 21 32.1001 23.4001 27.7001 27.7001C23.4001 32.1001 21 37.8 21 44C21 50.2001 23.4001 55.9001 27.7001 60.3001C32 64.7001 37.8 67 44 67C50.2001 67 55.9001 64.6001 60.3001 60.3001C64.7001 56.0001 67 50.2001 67 44C67 37.8 64.6001 32.1001 60.3001 27.7001C55.9001 23.4001 50.2001 21 44 21ZM29 59C33 63 38.3 65.2 44 65.2C49.7001 65.2 55 63 59 59C63 55 65.2 49.7001 65.2 44C65.2 38.3 63 33 59 29C55 25 49.7001 22.8 44 22.8C38.3 22.8 33 25 29 29C25 33 22.8 38.3 22.8 44C22.8 49.7001 25 55 29 59ZM29.4001 29.4001C33.3001 25.4001 38.5 23.3 44 23.3C49.5 23.3 54.7 25.5001 58.6 29.4001C62.6 33.3001 64.7 38.5 64.7 44C64.7 49.5 62.5 54.6 58.6 58.6C54.7 62.6 49.5 64.7 44 64.7C38.5 64.7 33.4001 62.5 29.4001 58.6C25.4001 54.7 23.3 49.5 23.3 44C23.3 38.5 25.5001 33.3001 29.4001 29.4001Z" fill="url(#paint0_linear_8_2)"/>
<defs>
<linearGradient id="paint0_linear_8_2" x1="44" y1="10" x2="62.5" y2="74.5" gradientUnits="userSpaceOnUse">
<stop stop-color="#FFBA33"/>
<stop offset="1" stop-color="#237878"/>
</linearGradient>
</defs>
</svg>

