<svg width="150" height="103" viewBox="0 0 150 103" fill="none" xmlns="http://www.w3.org/2000/svg">
<path d="M90 14.8V28.8V74.8C90 83.1 83.3 89.8 75 89.8C66.7 89.8 60 83.1 60 74.8C60 66.5 66.7 59.8 75 59.8C79.3 59.8 83.3 61.7 86 64.6V22.5L30 35.5V87.8C30 96.1 23.3 102.8 15 102.8C6.7 102.8 0 96.1 0 87.8C0 79.5 6.7 72.8 15 72.8C19.3 72.8 23.3 74.7 26 77.6V41.8V27.8C26 27.7 26 27.5 26 27.4V27.3C26 27.2 26 27.1 26.1 27.1C26.1 27.1 26.1 27 26.2 27C26.2 26.9 26.3 26.9 26.3 26.8L26.4 26.7C26.4 26.6 26.5 26.6 26.5 26.5L26.6 26.4C26.7 26.3 26.7 26.3 26.8 26.3L26.9 26.2C27 26.2 27.1 26.1 27.1 26.1H27.2C27.3 26.1 27.4 26 27.5 26L87.5 13C87.6 13 87.8 13 87.9 13H88C88.1 13 88.2 13 88.3 13H88.4C88.5 13 88.6 13.1 88.7 13.1C88.7 13.1 88.8 13.1 88.8 13.2C88.9 13.2 89 13.3 89 13.3C89 13.3 89 13.3 89.1 13.3C89.1 13.3 89.1 13.3 89.2 13.4C89.3 13.5 89.3 13.5 89.4 13.6L89.5 13.7C89.7 13.7 89.7 13.8 89.7 13.8L89.8 13.9C89.8 14 89.9 14.1 89.9 14.2V14.3C90 14.5 90 14.7 90 14.8Z" fill="black"/>
<path d="M150 1.8V15.8V61.8C150 70.1 143.3 76.8 135 76.8C126.7 76.8 120 70.1 120 61.8C120 53.5 126.7 46.8 135 46.8C139.3 46.8 143.3 48.7 146 51.6V9.5L90 21.5V74.8C90 83.1 83.3 89.8 75 89.8C66.7 89.8 60 83.1 60 74.8C60 66.5 66.7 59.8 75 59.8C79.3 59.8 83.3 61.7 86 64.6V28.8V14.8C86 14.7 86 14.5 86 14.4V14.3C86 14.2 86 14.1 86.1 14.1C86.1 14.1 86.1 14 86.2 14C86.2 13.9 86.3 13.9 86.3 13.8L86.4 13.7C86.4 13.6 86.5 13.6 86.5 13.5L86.6 13.4C86.7 13.3 86.7 13.3 86.8 13.3L86.9 13.2C87 13.2 87.1 13.1 87.1 13.1H87.2C87.3 13.1 87.4 13 87.5 13L147.5 0C147.6 0 147.8 0 147.9 0H148C148.1 0 148.2 0 148.3 0H148.4C148.5 0 148.6 0.1 148.7 0.1C148.7 0.1 148.8 0.1 148.8 0.2C148.9 0.2 149 0.3 149 0.3C149 0.3 149 0.3 149.1 0.3C149.1 0.3 149.1 0.3 149.2 0.4C149.3 0.5 149.3 0.5 149.4 0.6L149.5 0.7C149.7 0.7 149.7 0.8 149.7 0.8L149.8 0.9C149.8 1 149.9 1.1 149.9 1.2V1.3C150 1.5 150 1.7 150 1.8Z" fill="black"/>
<path d="M29 39L149.5 12.5V20L29 47.5V39Z" fill="black"/>
</svg>
