<svg width="654" height="688" viewBox="0 0 654 688" fill="none" xmlns="http://www.w3.org/2000/svg">
<path d="M482.816 565.028C482.925 565.116 483.061 565.165 483.201 565.166C483.244 565.166 483.288 565.161 483.33 565.152L489.44 563.843C489.577 563.813 489.699 563.738 489.787 563.629C489.874 563.52 489.922 563.385 489.922 563.245V552.895C490.292 553.115 490.714 553.233 491.144 553.235C491.627 553.235 492.1 553.092 492.502 552.823C492.904 552.555 493.217 552.173 493.402 551.726C493.587 551.28 493.635 550.788 493.541 550.314C493.447 549.84 493.214 549.405 492.872 549.063C492.53 548.721 492.095 548.488 491.621 548.394C491.147 548.3 490.655 548.348 490.209 548.533C489.762 548.718 489.38 549.031 489.112 549.433C488.843 549.835 488.7 550.308 488.7 550.791V560.363L483.073 561.569C482.936 561.598 482.814 561.673 482.726 561.782C482.638 561.891 482.59 562.026 482.59 562.166V564.555C482.59 564.645 482.61 564.735 482.65 564.817C482.689 564.899 482.746 564.971 482.816 565.028V565.028Z" fill="black"/>
<path d="M169.163 385.492C169.186 385.354 169.16 385.212 169.091 385.09C169.069 385.053 169.043 385.017 169.014 384.985L164.825 380.348C164.731 380.245 164.605 380.177 164.467 380.155C164.329 380.134 164.188 380.16 164.067 380.23L155.104 385.405C155.109 384.975 155 384.551 154.787 384.177C154.545 383.758 154.185 383.42 153.751 383.207C153.318 382.993 152.83 382.912 152.351 382.976C151.872 383.039 151.422 383.242 151.059 383.561C150.695 383.88 150.434 384.299 150.309 384.766C150.184 385.233 150.2 385.727 150.356 386.184C150.511 386.642 150.799 387.043 151.182 387.338C151.566 387.632 152.028 387.806 152.51 387.838C152.993 387.869 153.474 387.757 153.892 387.515L162.182 382.729L166.039 386.999C166.133 387.103 166.26 387.172 166.398 387.194C166.536 387.215 166.677 387.189 166.798 387.119L168.867 385.925C168.945 385.879 169.013 385.817 169.064 385.742C169.115 385.667 169.149 385.582 169.163 385.492V385.492Z" fill="black"/>
<path d="M414.901 60.5051C414.698 61.0426 414.316 61.4939 413.82 61.7833C413.665 61.8727 413.502 61.9457 413.332 62.0011L388.953 69.8774C388.408 70.052 387.819 70.0346 387.286 69.8282C386.752 69.6217 386.304 69.2386 386.019 68.7426L364.802 31.9937C363.939 33.5328 362.682 34.814 361.159 35.7051C359.443 36.696 357.471 37.1557 355.493 37.0261C353.516 36.8965 351.621 36.1833 350.049 34.9769C348.476 33.7704 347.297 32.1248 346.66 30.2481C346.023 28.3714 345.957 26.348 346.47 24.4337C346.983 22.5193 348.052 20.8001 349.542 19.4934C351.032 18.1866 352.876 17.3511 354.841 17.0924C356.806 16.8337 358.803 17.1635 360.581 18.0401C362.358 18.9166 363.836 20.3006 364.827 22.0169L384.449 56.0041L406.899 48.7497C407.445 48.5731 408.035 48.589 408.57 48.7949C409.105 49.0007 409.554 49.384 409.84 49.8807L414.737 58.3612C414.922 58.6839 415.032 59.0438 415.061 59.4146C415.089 59.7854 415.035 60.1579 414.901 60.5051V60.5051Z" fill="black"/>
<path d="M354.888 583.007V574.453V546.347C354.888 541.275 358.982 537.181 364.053 537.181C369.125 537.181 373.219 541.275 373.219 546.347C373.219 551.418 369.125 555.512 364.053 555.512C361.426 555.512 358.982 554.351 357.332 552.579V572.926L391.549 565.532V538.403C391.549 533.332 395.643 529.238 400.714 529.238C405.786 529.238 409.879 533.332 409.879 538.403C409.879 543.475 405.786 547.569 400.714 547.569C398.087 547.569 395.643 546.408 393.993 544.636V566.51V575.064C393.993 575.125 393.993 575.247 393.993 575.309V575.37C393.993 575.431 393.993 575.492 393.932 575.492C393.932 575.492 393.932 575.553 393.871 575.553C393.871 575.614 393.81 575.614 393.81 575.675L393.749 575.736C393.749 575.797 393.688 575.797 393.688 575.859L393.626 575.92C393.565 575.981 393.565 575.981 393.504 575.981L393.443 576.042C393.382 576.042 393.321 576.103 393.321 576.103H393.26C393.199 576.103 393.138 576.164 393.077 576.164L356.416 584.107C356.355 584.107 356.232 584.107 356.171 584.107H356.11C356.049 584.107 355.988 584.107 355.927 584.107H355.866C355.805 584.107 355.744 584.046 355.683 584.046C355.683 584.046 355.621 584.046 355.621 583.985C355.56 583.985 355.499 583.924 355.499 583.924C355.499 583.924 355.499 583.924 355.438 583.924C355.438 583.924 355.438 583.924 355.377 583.863C355.316 583.802 355.316 583.802 355.255 583.741L355.194 583.679C355.072 583.679 355.072 583.618 355.072 583.618L355.01 583.557C355.01 583.496 354.949 583.435 354.949 583.374V583.313C354.888 583.191 354.888 583.068 354.888 583.007Z" fill="black"/>
<path d="M343.89 191.09V185.279V166.187C343.89 162.742 341.433 159.961 338.391 159.961C335.348 159.961 332.891 162.742 332.891 166.187C332.891 169.632 335.348 172.412 338.391 172.412C339.967 172.412 341.433 171.624 342.423 170.42V184.241L321.893 179.219V160.791C321.893 157.346 319.437 154.565 316.394 154.565C313.351 154.565 310.895 157.346 310.895 160.791C310.895 164.236 313.351 167.017 316.394 167.017C317.971 167.017 319.437 166.228 320.427 165.024V179.883V185.694C320.427 185.736 320.427 185.819 320.427 185.86V185.902C320.427 185.943 320.427 185.985 320.463 185.985C320.463 185.985 320.463 186.026 320.5 186.026C320.5 186.068 320.537 186.068 320.537 186.109L320.573 186.151C320.573 186.192 320.61 186.192 320.61 186.234L320.647 186.275C320.683 186.317 320.683 186.317 320.72 186.317L320.757 186.358C320.793 186.358 320.83 186.4 320.83 186.4H320.867C320.903 186.4 320.94 186.441 320.977 186.441L342.973 191.837C343.01 191.837 343.083 191.837 343.12 191.837H343.157C343.193 191.837 343.23 191.837 343.266 191.837H343.303C343.34 191.837 343.376 191.795 343.413 191.795C343.413 191.795 343.45 191.795 343.45 191.754C343.486 191.754 343.523 191.712 343.523 191.712C343.523 191.712 343.523 191.712 343.56 191.712C343.56 191.712 343.56 191.712 343.596 191.671C343.633 191.629 343.633 191.629 343.67 191.588L343.706 191.546C343.78 191.546 343.78 191.505 343.78 191.505L343.816 191.463C343.816 191.422 343.853 191.38 343.853 191.339V191.297C343.89 191.214 343.89 191.131 343.89 191.09Z" fill="black"/>
<path d="M444.707 355.361V349.943V332.142C444.707 328.93 442.114 326.337 438.903 326.337C435.691 326.337 433.098 328.93 433.098 332.142C433.098 335.354 435.691 337.947 438.903 337.947C440.567 337.947 442.114 337.211 443.159 336.089V348.975L421.489 344.293V327.111C421.489 323.9 418.896 321.307 415.684 321.307C412.472 321.307 409.879 323.9 409.879 327.111C409.879 330.323 412.472 332.916 415.684 332.916C417.348 332.916 418.896 332.181 419.941 331.059V344.912V350.33C419.941 350.369 419.941 350.446 419.941 350.485V350.523C419.941 350.562 419.941 350.601 419.979 350.601C419.979 350.601 419.979 350.639 420.018 350.639C420.018 350.678 420.057 350.678 420.057 350.717L420.096 350.756C420.096 350.794 420.134 350.794 420.134 350.833L420.173 350.872C420.212 350.91 420.212 350.91 420.25 350.91L420.289 350.949C420.328 350.949 420.366 350.988 420.366 350.988H420.405C420.444 350.988 420.483 351.026 420.521 351.026L443.74 356.057C443.778 356.057 443.856 356.057 443.894 356.057H443.933C443.972 356.057 444.011 356.057 444.049 356.057H444.088C444.127 356.057 444.165 356.018 444.204 356.018C444.204 356.018 444.243 356.018 444.243 355.98C444.281 355.98 444.32 355.941 444.32 355.941C444.32 355.941 444.32 355.941 444.359 355.941C444.359 355.941 444.359 355.941 444.398 355.902C444.436 355.864 444.436 355.864 444.475 355.825L444.514 355.786C444.591 355.786 444.591 355.748 444.591 355.748L444.63 355.709C444.63 355.67 444.668 355.631 444.668 355.593V355.554C444.707 355.477 444.707 355.399 444.707 355.361Z" fill="black"/>
<path d="M467.925 360.391V354.973V337.173C467.925 333.961 465.333 331.368 462.121 331.368C458.909 331.368 456.316 333.961 456.316 337.173C456.316 340.384 458.909 342.977 462.121 342.977C463.785 342.977 465.333 342.242 466.378 341.12V354.006L444.707 349.324V332.142C444.707 328.93 442.114 326.337 438.902 326.337C435.69 326.337 433.098 328.93 433.098 332.142C433.098 335.354 435.69 337.947 438.902 337.947C440.566 337.947 442.114 337.211 443.159 336.089V349.943V355.36C443.159 355.399 443.159 355.477 443.159 355.515V355.554C443.159 355.593 443.159 355.631 443.198 355.631C443.198 355.631 443.198 355.67 443.236 355.67C443.236 355.709 443.275 355.709 443.275 355.747L443.314 355.786C443.314 355.825 443.352 355.825 443.352 355.863L443.391 355.902C443.43 355.941 443.43 355.941 443.469 355.941L443.507 355.98C443.546 355.98 443.585 356.018 443.585 356.018H443.623C443.662 356.018 443.701 356.057 443.739 356.057L466.958 361.088C466.997 361.088 467.074 361.088 467.113 361.088H467.151C467.19 361.088 467.229 361.088 467.268 361.088H467.306C467.345 361.088 467.384 361.049 467.422 361.049C467.422 361.049 467.461 361.049 467.461 361.01C467.5 361.01 467.538 360.972 467.538 360.972C467.538 360.972 467.538 360.972 467.577 360.972C467.577 360.972 467.577 360.972 467.616 360.933C467.655 360.894 467.655 360.894 467.693 360.855L467.732 360.817C467.809 360.817 467.809 360.778 467.809 360.778L467.848 360.739C467.848 360.701 467.887 360.662 467.887 360.623V360.585C467.925 360.507 467.925 360.43 467.925 360.391Z" fill="black"/>
<path d="M619.962 340.92C620.525 340.912 621.085 340.843 621.622 340.715C622.178 340.589 622.697 340.419 623.159 340.211C623.692 339.979 624.146 339.734 624.539 339.467C626.31 338.301 627.575 336.617 628.099 334.725C628.234 334.245 628.32 333.754 628.355 333.253C628.362 333.105 628.366 332.957 628.366 332.81C628.366 332.525 628.352 332.265 628.324 332.03C629.472 331.924 630.623 331.826 631.756 331.739C633.287 333.24 634.595 334.335 635.977 335.274C637.327 336.176 638.517 336.765 639.714 337.124C640.354 337.324 641.038 337.471 641.812 337.573C642.159 337.615 642.483 337.64 642.858 337.667L643.318 337.686L643.82 337.695C645.186 337.706 646.526 337.552 647.801 337.236C649.317 336.859 650.568 336.319 651.628 335.584C651.97 335.343 652.263 335.1 652.522 334.839C652.745 334.614 653.072 334.258 653.326 333.773C653.456 333.529 653.553 333.264 653.614 332.982C653.65 332.811 653.668 332.653 653.671 332.484L653.673 332.433L653.667 332.264C653.667 332.262 653.651 332.039 653.62 331.935C653.546 331.596 653.386 331.264 653.159 330.974C652.996 330.766 652.804 330.581 652.562 330.4C651.801 329.861 651.07 329.659 650.473 329.493C649.911 329.348 649.308 329.235 648.568 329.137C645.961 328.825 643.476 328.836 641.391 328.887C639.571 328.928 637.662 329.02 635.564 329.169C635.039 328.671 634.518 328.162 633.999 327.656L633.526 327.195C633.366 327.039 633.209 326.883 633.052 326.728C632.793 326.47 632.532 326.211 632.26 325.952C631.756 325.468 631.285 325.05 630.817 324.673C629.809 323.855 628.722 323.141 627.589 322.553C626.418 321.935 625.2 321.472 623.97 321.176C622.653 320.853 621.353 320.73 620.125 320.811C619.881 320.819 619.637 320.848 619.394 320.878L619.12 320.913L618.877 320.957C618.648 320.997 618.411 321.038 618.192 321.101C617.614 321.235 617.014 321.45 616.359 321.755C615.225 322.281 614.19 323.094 613.357 324.114L613.064 324.492L612.831 324.841C612.693 325.033 612.579 325.239 612.469 325.438L612.333 325.683L612.055 326.274L611.811 326.876L611.672 327.273C611.299 328.373 611.092 329.508 611.058 330.645C611.054 330.763 611.052 330.88 611.052 330.997C611.052 331.474 611.084 331.957 611.146 332.439C610.821 332.489 610.498 332.538 610.177 332.584C609.397 332.701 608.557 332.799 607.61 332.884C606.886 332.945 606.033 333.003 605.194 332.975C604.774 332.961 604.409 332.932 604.088 332.885L603.968 332.868C603.923 332.863 603.879 332.857 603.834 332.847L603.582 332.797L603.496 332.773C603.367 332.737 603.242 332.704 603.101 332.649C602.516 332.442 601.987 332.098 601.574 331.661C601.185 331.237 600.909 330.74 600.781 330.243L600.717 329.954L600.551 329.986L600.717 329.946L600.7 329.834C600.683 329.702 600.674 329.581 600.671 329.452L600.67 329.377C600.67 329.126 600.691 328.909 600.733 328.717C600.784 328.484 600.858 328.263 600.946 328.074C601.039 327.889 601.156 327.715 601.285 327.564C601.528 327.292 601.822 327.101 602.148 327.006C602.273 326.966 602.415 326.943 602.606 326.933C602.653 326.93 602.701 326.93 602.744 326.931L602.77 326.956L602.981 326.952L603.084 326.957L603.112 326.962C603.21 326.981 603.346 327.005 603.44 327.04C603.528 327.07 603.612 327.106 603.691 327.144C603.513 327.518 603.422 327.925 603.422 328.344C603.422 329.902 604.689 331.17 606.248 331.17C607.813 331.17 609.11 329.917 609.14 328.376L609.14 328.284C609.14 327.111 608.716 326.134 607.844 325.3C606.997 324.487 605.863 323.94 604.742 323.798C604.437 323.755 604.126 323.737 603.815 323.746C603.455 323.76 603.177 323.789 602.834 323.852C602.175 323.998 601.514 324.274 600.974 324.629C600.342 325.043 599.81 325.599 599.44 326.23C599.239 326.562 599.079 326.915 598.968 327.266C598.845 327.629 598.762 328.009 598.719 328.394C598.694 328.606 598.682 328.823 598.682 329.041C598.682 329.215 598.69 329.39 598.706 329.563C598.724 329.758 598.756 329.97 598.799 330.175L598.851 330.4L598.956 330.763C599.104 331.192 599.275 331.563 599.484 331.903C599.714 332.268 599.983 332.606 600.294 332.914C600.94 333.531 601.721 333.997 602.54 334.258C602.743 334.328 602.964 334.381 603.18 334.431L603.218 334.44L603.515 334.49C603.607 334.507 603.685 334.517 603.764 334.525L603.864 334.537C604.256 334.583 604.68 334.609 605.157 334.613C606.88 334.635 608.667 334.414 610.4 334.2L611.475 334.057C611.777 335.136 612.229 336.129 612.822 337.016C613.477 337.989 614.262 338.799 615.151 339.42C615.59 339.735 616.091 340.015 616.633 340.25C616.916 340.377 617.196 340.473 617.414 340.543C617.514 340.579 617.627 340.609 617.742 340.637L617.872 340.67C618.023 340.708 618.187 340.748 618.282 340.765L618.656 340.838L619.108 340.89C619.444 340.921 619.719 340.931 619.962 340.92ZM644.828 331.39C646.102 331.46 647.196 331.578 648.174 331.749C648.785 331.858 649.295 331.976 649.734 332.111C650.129 332.232 650.464 332.37 650.698 332.503C650.56 332.654 650.322 332.847 650.007 333.022C649.274 333.424 648.321 333.695 647.176 333.827C646.248 333.93 645.205 333.934 643.994 333.84L643.609 333.806L643.181 333.757L643.107 333.746C642.889 333.714 642.649 333.678 642.436 333.638C641.908 333.529 641.455 333.399 641.046 333.238C640.249 332.935 639.439 332.46 638.498 331.745C638.344 331.625 638.187 331.5 638.025 331.368C639.241 331.321 640.361 331.297 641.418 331.295C642.642 331.299 643.758 331.33 644.828 331.39ZM613.131 330.958C613.131 330.876 613.133 330.794 613.136 330.71C613.151 330.24 613.205 329.782 613.299 329.335C613.378 328.918 613.507 328.481 613.69 328.002L613.814 327.682L614.036 327.201L614.295 326.727C614.517 326.382 614.786 325.986 615.117 325.656C615.468 325.296 615.806 325.021 616.155 324.811C616.58 324.549 616.977 324.359 617.374 324.229C617.799 324.081 618.245 323.984 618.726 323.935C618.873 323.912 619.024 323.907 619.174 323.901C619.257 323.897 619.341 323.894 619.372 323.89C619.457 323.892 619.54 323.894 619.625 323.894C619.777 323.896 619.928 323.896 620.101 323.916C621.865 324.05 623.71 324.745 625.583 325.979C626.388 326.512 627.207 327.163 628.016 327.913C628.434 328.3 628.8 328.665 629.139 329.033L629.745 329.676C629.065 329.747 628.39 329.819 627.719 329.896L627.698 329.846L627.62 329.69C627.556 329.562 627.493 329.434 627.423 329.313C626.65 327.962 625.509 326.883 624.215 326.277C622.854 325.619 621.609 325.546 620.798 325.602C619.864 325.672 618.989 325.953 618.344 326.387C617.85 326.704 617.466 327.109 617.196 327.603L617.088 327.815L616.991 328.087L617.86 328.663L617.955 328.575C617.995 328.536 618.059 328.478 618.144 328.418C618.321 328.291 618.619 328.122 619.041 328.036C619.518 327.935 620.085 327.95 620.643 328.08C621.309 328.227 621.992 328.554 622.562 328.997C623.041 329.376 623.443 329.846 623.753 330.397C623.028 330.498 622.31 330.603 621.601 330.713C619.512 331.028 617.448 331.38 615.677 331.685L613.226 332.106C613.163 331.723 613.131 331.339 613.131 330.958ZM618.755 337.346L618.664 337.344C617.273 337.32 615.797 336.609 614.808 335.483C614.365 334.993 613.992 334.404 613.711 333.756C616.328 333.402 619.033 333.037 621.868 332.705C622.683 332.611 623.506 332.519 624.339 332.43C624.339 332.775 624.275 333.15 624.152 333.536C623.835 334.472 623.121 335.414 622.196 336.116C621.676 336.507 621.125 336.813 620.56 337.023C620.248 337.139 619.942 337.222 619.63 337.277C619.511 337.302 619.391 337.313 619.271 337.325L619.184 337.334L618.978 337.348L618.763 337.338L618.755 337.346Z" fill="black"/>
<path d="M217.499 463.165C218.485 464.344 219.598 465.411 220.794 466.33C222.018 467.291 223.272 468.099 224.507 468.719C225.917 469.448 227.218 469.989 228.463 470.362C233.982 472.107 239.729 471.888 244.643 469.741C245.891 469.2 247.081 468.536 248.204 467.748C248.53 467.507 248.849 467.26 249.162 467.006C249.764 466.517 250.291 466.039 250.741 465.574C252.945 467.825 255.135 470.097 257.27 472.348C256.724 478.177 256.657 482.835 257.046 487.381C257.46 491.796 258.262 495.33 259.563 498.487C260.24 500.188 261.108 501.891 262.225 503.707C262.733 504.514 263.238 505.245 263.828 506.084L264.579 507.092L265.424 508.173C267.754 511.087 270.388 513.659 273.253 515.818C276.664 518.383 279.963 520.103 283.346 521.082C284.446 521.395 285.464 521.595 286.463 521.694C287.326 521.78 288.643 521.86 290.108 521.562C290.851 521.418 291.578 521.167 292.281 520.811C292.703 520.592 293.07 520.358 293.434 520.073L293.547 519.99L293.894 519.687C293.898 519.684 294.342 519.265 294.509 519.02C295.1 518.279 295.53 517.368 295.753 516.389C295.912 515.686 295.974 514.96 295.94 514.135C295.772 511.594 294.942 509.695 294.266 508.146C293.606 506.704 292.805 505.231 291.737 503.495C287.91 497.433 283.607 492.186 279.906 487.855C276.686 484.069 273.204 480.181 269.273 475.99C269.427 474.021 269.607 472.04 269.785 470.067L269.947 468.272C270.003 467.663 270.063 467.064 270.122 466.463C270.222 465.469 270.32 464.471 270.401 463.448C270.559 461.548 270.634 459.827 270.628 458.187C270.625 454.642 270.265 451.109 269.56 447.694C268.854 444.15 267.737 440.77 266.245 437.653C264.661 434.307 262.683 431.341 260.396 428.877C259.959 428.373 259.477 427.907 258.995 427.444L258.45 426.922L257.939 426.484C257.458 426.066 256.962 425.635 256.453 425.279C255.173 424.286 253.686 423.385 251.91 422.523C248.844 421.024 245.336 420.23 241.741 420.224L240.435 420.253L239.294 420.359C238.65 420.398 238.017 420.511 237.404 420.622L236.653 420.755L234.92 421.183L233.224 421.703L232.144 422.093C229.17 423.196 226.408 424.714 223.94 426.6C223.684 426.793 223.432 426.991 223.183 427.193C222.173 428.014 221.204 428.914 220.288 429.875C219.622 429.272 218.964 428.671 218.314 428.069C216.722 426.619 215.068 425.007 213.258 423.147C211.881 421.718 210.287 420.01 208.902 418.184C208.209 417.27 207.643 416.447 207.187 415.685L207.017 415.402C206.952 415.298 206.887 415.194 206.831 415.083L206.505 414.462L206.406 414.237C206.26 413.904 206.116 413.581 205.988 413.188C205.42 411.59 205.238 409.876 205.453 408.249C205.681 406.697 206.259 405.255 207.093 404.126L207.596 403.494L207.24 403.196L207.611 403.479L207.82 403.251C208.07 402.988 208.311 402.76 208.579 402.531L208.737 402.401C209.269 401.968 209.762 401.638 210.243 401.396C210.825 401.104 211.421 400.88 211.972 400.741C212.526 400.62 213.096 400.568 213.638 400.581C214.633 400.628 215.544 400.922 216.308 401.449C216.607 401.645 216.899 401.906 217.249 402.295C217.337 402.389 217.42 402.489 217.491 402.582L217.484 402.682L217.856 403.121L218.023 403.347L218.059 403.416C218.19 403.656 218.372 403.986 218.459 404.246C218.546 404.483 218.617 404.724 218.67 404.956C217.573 405.225 216.552 405.731 215.664 406.453C212.362 409.137 211.858 414.006 214.542 417.309C217.237 420.625 222.128 421.217 225.444 418.625L225.64 418.469C228.127 416.447 229.466 413.867 229.733 410.582C229.996 407.386 229.203 404.04 227.572 401.42C227.138 400.7 226.641 400.011 226.086 399.368C225.437 398.629 224.896 398.09 224.173 397.47C222.727 396.325 221.005 395.4 219.323 394.866C217.357 394.241 215.262 394.071 213.286 394.373C212.237 394.519 211.214 394.786 210.278 395.158C209.297 395.523 208.349 395.999 207.459 396.574C206.967 396.886 206.487 397.233 206.025 397.608C205.656 397.908 205.298 398.227 204.959 398.558C204.577 398.931 204.183 399.366 203.822 399.809L203.436 400.307L202.846 401.155C202.192 402.207 201.701 403.21 201.339 404.237C200.963 405.351 200.711 406.504 200.593 407.695C200.397 410.127 200.755 412.586 201.613 414.769C201.814 415.32 202.082 415.88 202.349 416.425L202.395 416.519L202.801 417.236C202.923 417.459 203.037 417.642 203.155 417.823L203.301 418.055C203.879 418.967 204.555 419.91 205.368 420.927C208.289 424.616 211.835 428.024 215.271 431.326L217.428 433.358C215.661 435.856 214.335 438.524 213.476 441.311C212.542 444.374 212.178 447.434 212.393 450.385C212.482 451.859 212.749 453.402 213.186 454.955C213.405 455.774 213.684 456.534 213.911 457.115C214.005 457.389 214.139 457.681 214.277 457.972L214.43 458.306C214.608 458.69 214.806 459.108 214.935 459.338L215.424 460.255L216.093 461.305C216.606 462.068 217.059 462.669 217.499 463.165ZM280.523 499.45C282.567 502.27 284.203 504.791 285.524 507.16C286.346 508.639 286.975 509.924 287.445 511.087C287.869 512.132 288.151 513.081 288.274 513.805C287.716 513.775 286.896 513.602 285.984 513.234C283.87 512.374 281.654 510.821 279.403 508.623C277.586 506.834 275.78 504.631 273.894 501.902L273.303 501.028L272.671 500.035L272.566 499.859C272.258 499.342 271.92 498.772 271.639 498.25C270.961 496.945 270.455 495.761 270.092 494.616C269.362 492.407 268.973 489.87 268.868 486.646C268.857 486.114 268.852 485.563 268.853 484.992C271.046 487.491 273.025 489.822 274.851 492.058C276.95 494.66 278.807 497.077 280.523 499.45ZM226.847 431.532C227.021 431.391 227.197 431.254 227.382 431.113C228.402 430.337 229.466 429.662 230.576 429.093C231.596 428.541 232.744 428.06 234.074 427.624L234.966 427.336L236.368 426.979L237.819 426.711C238.932 426.586 240.235 426.475 241.502 426.608C242.871 426.732 244.036 426.974 245.082 427.354C246.37 427.801 247.456 428.315 248.417 428.933C249.46 429.58 250.434 430.358 251.367 431.292C251.669 431.565 251.939 431.876 252.211 432.184C252.362 432.354 252.512 432.526 252.575 432.585C252.715 432.768 252.857 432.947 253.001 433.127C253.259 433.452 253.519 433.772 253.776 434.174C256.528 438.142 258.234 443.249 258.845 449.345C259.1 451.969 259.131 454.825 258.937 457.832C258.835 459.384 258.692 460.788 258.498 462.141L258.177 464.532C256.857 463.212 255.54 461.907 254.224 460.618L254.292 460.487L254.488 460.054C254.65 459.697 254.811 459.343 254.947 458.987C256.479 455.022 256.801 450.744 255.857 446.957C254.909 442.941 252.916 440.177 251.403 438.556C249.644 436.695 247.543 435.324 245.513 434.705C243.99 434.204 242.47 434.088 240.958 434.367L240.323 434.502L239.578 434.766L239.855 437.601L240.204 437.65C240.358 437.667 240.59 437.704 240.865 437.78C241.438 437.935 242.309 438.277 243.216 439.023C244.254 439.861 245.2 441.088 245.884 442.493C246.72 444.159 247.202 446.168 247.244 448.141C247.269 449.808 246.964 451.471 246.331 453.075C244.868 451.712 243.409 450.372 241.954 449.058C237.687 445.174 233.387 441.405 229.693 438.179L224.578 433.709C225.281 432.917 226.04 432.188 226.847 431.532ZM222.994 454.451L222.842 454.254C220.497 451.266 219.462 446.915 220.145 442.879C220.422 441.095 221.026 439.291 221.915 437.578C227.172 442.515 232.606 447.62 238.192 453.056C239.795 454.62 241.407 456.208 243.032 457.818C242.3 458.413 241.395 458.923 240.365 459.328C237.834 460.267 234.609 460.376 231.529 459.626C229.803 459.197 228.206 458.555 226.79 457.72C226.006 457.258 225.301 456.754 224.649 456.187C224.391 455.977 224.161 455.743 223.928 455.509L223.759 455.34L223.376 454.927L223.025 454.456L222.994 454.451Z" fill="black"/>
<path d="M53.0474 400.926V392.371L53.0474 364.265C53.0474 359.193 57.1412 355.1 62.2126 355.1C67.284 355.1 71.3778 359.193 71.3778 364.265C71.3778 369.336 67.284 373.43 62.2126 373.43C59.5852 373.43 57.1412 372.269 55.4915 370.497L55.4915 396.221L89.7082 388.278L89.7082 356.322C89.7082 351.25 93.802 347.156 98.8734 347.156C103.945 347.156 108.039 351.25 108.039 356.322C108.039 361.393 103.945 365.487 98.8734 365.487C96.246 365.487 93.802 364.326 92.1522 362.554L92.1522 384.428V392.982C92.1522 393.043 92.1522 393.166 92.1522 393.227V393.288C92.1522 393.349 92.1522 393.41 92.0911 393.41C92.0911 393.41 92.0911 393.471 92.03 393.471C92.03 393.532 91.9689 393.532 91.9689 393.593L91.9078 393.655C91.9078 393.716 91.8467 393.716 91.8467 393.777L91.7856 393.838C91.7245 393.899 91.7245 393.899 91.6634 393.899L91.6023 393.96C91.5412 393.96 91.4801 394.021 91.4801 394.021H91.419C91.3579 394.021 91.2968 394.082 91.2357 394.082L54.5749 402.025C54.5138 402.025 54.3916 402.025 54.3305 402.025H54.2694C54.2083 402.025 54.1472 402.025 54.0861 402.025H54.025C53.9639 402.025 53.9028 401.964 53.8417 401.964C53.8417 401.964 53.7806 401.964 53.7806 401.903C53.7195 401.903 53.6584 401.842 53.6584 401.842C53.6584 401.842 53.6584 401.842 53.5973 401.842C53.5973 401.842 53.5973 401.842 53.5362 401.781C53.4751 401.72 53.4751 401.72 53.414 401.659L53.3529 401.598C53.2307 401.598 53.2307 401.537 53.2307 401.537L53.1696 401.475C53.1696 401.414 53.1085 401.353 53.1085 401.292V401.231C53.0474 401.109 53.0474 400.987 53.0474 400.926Z" fill="black"/>
<path d="M16.3868 408.869V400.314L16.3868 372.208C16.3868 367.136 20.4805 363.043 25.552 363.043C30.6234 363.043 34.7171 367.136 34.7171 372.208C34.7171 377.279 30.6234 381.373 25.552 381.373C22.9246 381.373 20.4805 380.212 18.8308 378.44L18.8308 404.164L53.0475 396.832L53.0475 364.265C53.0475 359.193 57.1413 355.1 62.2127 355.1C67.2841 355.1 71.3779 359.193 71.3779 364.265C71.3779 369.336 67.2841 373.43 62.2127 373.43C59.5854 373.43 57.1413 372.269 55.4916 370.497L55.4916 392.371L55.4916 400.926C55.4916 400.987 55.4916 401.109 55.4916 401.17V401.231C55.4916 401.292 55.4916 401.353 55.4305 401.353C55.4305 401.353 55.4305 401.414 55.3694 401.414C55.3694 401.475 55.3083 401.475 55.3083 401.537L55.2472 401.598C55.2472 401.659 55.1861 401.659 55.1861 401.72L55.125 401.781C55.0639 401.842 55.0639 401.842 55.0028 401.842L54.9417 401.903C54.8806 401.903 54.8195 401.964 54.8195 401.964H54.7584C54.6973 401.964 54.6362 402.025 54.5751 402.025L17.9143 409.969C17.8532 409.969 17.731 409.969 17.6699 409.969H17.6088C17.5477 409.969 17.4866 409.969 17.4255 409.969H17.3644C17.3033 409.969 17.2422 409.907 17.1811 409.907C17.1811 409.907 17.12 409.907 17.12 409.846C17.0589 409.846 16.9978 409.785 16.9978 409.785C16.9978 409.785 16.9978 409.785 16.9367 409.785C16.9367 409.785 16.9367 409.785 16.8756 409.724C16.8145 409.663 16.8145 409.663 16.7534 409.602L16.6923 409.541C16.5701 409.541 16.5701 409.48 16.5701 409.48L16.509 409.419C16.509 409.357 16.4479 409.296 16.4479 409.235V409.174C16.3868 409.052 16.3868 408.93 16.3868 408.869Z" fill="black"/>
<path d="M90.3193 386.139L16.6923 402.331V397.748L90.3193 380.945L90.3193 386.139Z" fill="black"/>
<path d="M505.621 211.736V203.182V175.075C505.621 170.004 509.715 165.91 514.786 165.91C519.858 165.91 523.952 170.004 523.952 175.075C523.952 180.146 519.858 184.24 514.786 184.24C512.159 184.24 509.715 183.079 508.065 181.307V207.031L542.282 199.088V167.132C542.282 162.061 546.376 157.967 551.447 157.967C556.519 157.967 560.612 162.061 560.612 167.132C560.612 172.203 556.519 176.297 551.447 176.297C548.82 176.297 546.376 175.136 544.726 173.364V195.239V203.793C544.726 203.854 544.726 203.976 544.726 204.037V204.098C544.726 204.159 544.726 204.22 544.665 204.22C544.665 204.22 544.665 204.282 544.604 204.282C544.604 204.343 544.543 204.343 544.543 204.404L544.482 204.465C544.482 204.526 544.42 204.526 544.42 204.587L544.359 204.648C544.298 204.709 544.298 204.709 544.237 204.709L544.176 204.77C544.115 204.77 544.054 204.831 544.054 204.831H543.993C543.932 204.831 543.871 204.893 543.809 204.893L507.149 212.836C507.088 212.836 506.965 212.836 506.904 212.836H506.843C506.782 212.836 506.721 212.836 506.66 212.836H506.599C506.538 212.836 506.477 212.775 506.415 212.775C506.415 212.775 506.354 212.775 506.354 212.713C506.293 212.713 506.232 212.652 506.232 212.652C506.232 212.652 506.232 212.652 506.171 212.652C506.171 212.652 506.171 212.652 506.11 212.591C506.049 212.53 506.049 212.53 505.988 212.469L505.927 212.408C505.804 212.408 505.804 212.347 505.804 212.347L505.743 212.286C505.743 212.225 505.682 212.164 505.682 212.102V212.041C505.621 211.919 505.621 211.797 505.621 211.736Z" fill="black"/>
<path d="M468.96 219.679V211.125V183.018C468.96 177.947 473.054 173.853 478.126 173.853C483.197 173.853 487.291 177.947 487.291 183.018C487.291 188.09 483.197 192.183 478.126 192.183C475.498 192.183 473.054 191.022 471.405 189.251V214.974L505.621 207.642V175.075C505.621 170.004 509.715 165.91 514.786 165.91C519.858 165.91 523.952 170.004 523.952 175.075C523.952 180.146 519.858 184.24 514.786 184.24C512.159 184.24 509.715 183.079 508.065 181.307V203.182V211.736C508.065 211.797 508.065 211.919 508.065 211.98V212.041C508.065 212.102 508.065 212.164 508.004 212.164C508.004 212.164 508.004 212.225 507.943 212.225C507.943 212.286 507.882 212.286 507.882 212.347L507.821 212.408C507.821 212.469 507.76 212.469 507.76 212.53L507.699 212.591C507.638 212.652 507.638 212.652 507.577 212.652L507.515 212.713C507.454 212.713 507.393 212.775 507.393 212.775H507.332C507.271 212.775 507.21 212.836 507.149 212.836L470.488 220.779C470.427 220.779 470.305 220.779 470.244 220.779H470.183C470.121 220.779 470.06 220.779 469.999 220.779H469.938C469.877 220.779 469.816 220.718 469.755 220.718C469.755 220.718 469.694 220.718 469.694 220.657C469.633 220.657 469.571 220.596 469.571 220.596C469.571 220.596 469.571 220.596 469.51 220.596C469.51 220.596 469.51 220.596 469.449 220.534C469.388 220.473 469.388 220.473 469.327 220.412L469.266 220.351C469.144 220.351 469.144 220.29 469.144 220.29L469.083 220.229C469.083 220.168 469.022 220.107 469.022 220.046V219.984C468.96 219.862 468.96 219.74 468.96 219.679Z" fill="black"/>
<path d="M542.893 197.866L469.266 214.363V210.697L542.893 194.505V197.866Z" fill="black"/>
<path d="M542.893 193.589L469.266 209.781V206.42L542.893 190.228V193.589Z" fill="black"/>
<path d="M312.057 339.734L306.834 346.145L289.676 367.208C286.579 371.009 281.012 371.577 277.212 368.481C273.411 365.385 272.843 359.818 275.939 356.018C279.035 352.217 284.602 351.648 288.402 354.744C290.371 356.348 291.494 358.71 291.649 361.045L307.353 341.768L277.235 326.374L257.353 350.78C254.257 354.58 248.69 355.149 244.889 352.053C241.088 348.957 240.52 343.39 243.616 339.589C246.712 335.789 252.279 335.22 256.08 338.316C258.048 339.92 259.171 342.282 259.326 344.617L272.68 328.224L277.902 321.814C277.939 321.768 278.014 321.677 278.051 321.631L278.089 321.585C278.126 321.539 278.163 321.493 278.209 321.531C278.209 321.531 278.246 321.485 278.292 321.522C278.329 321.476 278.375 321.514 278.413 321.468L278.496 321.459C278.533 321.414 278.579 321.451 278.616 321.405L278.699 321.397C278.782 321.388 278.782 321.388 278.828 321.425L278.911 321.417C278.957 321.454 279.04 321.446 279.04 321.446L279.086 321.483C279.132 321.52 279.215 321.512 279.26 321.549L311.583 337.978C311.629 338.015 311.721 338.09 311.766 338.127L311.812 338.164C311.858 338.201 311.904 338.239 311.95 338.276L311.995 338.313C312.041 338.351 312.05 338.434 312.095 338.471C312.095 338.471 312.141 338.508 312.104 338.554C312.15 338.591 312.158 338.675 312.158 338.675C312.158 338.675 312.158 338.675 312.204 338.712C312.204 338.712 312.204 338.712 312.213 338.795C312.221 338.878 312.221 338.878 312.229 338.961L312.238 339.044C312.33 339.119 312.292 339.165 312.292 339.165L312.301 339.248C312.263 339.294 312.272 339.377 312.235 339.422L312.197 339.468C312.169 339.597 312.094 339.689 312.057 339.734Z" fill="black"/>
<path d="M274.911 328.29L306.132 344.202L303.334 347.636L271.741 332.182L274.911 328.29Z" fill="black"/>
<path d="M173.198 499.755L170.092 502.71L159.89 512.419C158.049 514.171 155.148 514.1 153.396 512.259C151.644 510.418 151.716 507.517 153.557 505.765C155.398 504.013 158.298 504.085 160.05 505.926C160.958 506.88 161.381 508.168 161.308 509.379L170.645 500.493L156.163 490.605L144.341 501.855C142.5 503.607 139.6 503.536 137.848 501.695C136.096 499.854 136.168 496.953 138.009 495.201C139.85 493.449 142.75 493.521 144.502 495.362C145.41 496.316 145.833 497.604 145.759 498.815L153.7 491.259L156.805 488.303C156.827 488.282 156.872 488.24 156.894 488.219L156.916 488.198C156.938 488.177 156.96 488.156 156.981 488.178C156.981 488.178 157.004 488.157 157.025 488.179C157.047 488.158 157.068 488.18 157.09 488.159L157.133 488.16C157.156 488.139 157.177 488.161 157.199 488.14L157.242 488.141C157.286 488.142 157.286 488.142 157.307 488.164L157.35 488.165C157.371 488.187 157.414 488.189 157.414 488.189L157.435 488.211C157.457 488.233 157.5 488.234 157.521 488.256L173.069 498.82C173.09 498.842 173.132 498.887 173.154 498.909L173.175 498.931C173.196 498.953 173.217 498.975 173.238 498.998L173.259 499.02C173.28 499.042 173.279 499.085 173.3 499.107C173.3 499.107 173.321 499.13 173.299 499.151C173.32 499.173 173.319 499.216 173.319 499.216C173.319 499.216 173.319 499.216 173.34 499.238C173.34 499.238 173.34 499.238 173.339 499.282C173.338 499.325 173.338 499.325 173.337 499.368L173.336 499.412C173.378 499.456 173.356 499.477 173.356 499.477L173.355 499.52C173.333 499.541 173.332 499.585 173.31 499.606L173.287 499.627C173.264 499.691 173.22 499.734 173.198 499.755Z" fill="black"/>
<path d="M154.843 491.438L169.858 501.664L168.195 503.247L152.958 493.232L154.843 491.438Z" fill="black"/>
<path d="M98.8736 245.728V237.174L98.8736 209.068C98.8736 203.996 102.967 199.902 108.039 199.902C113.11 199.902 117.204 203.996 117.204 209.068C117.204 214.139 113.11 218.233 108.039 218.233C105.411 218.233 102.967 217.072 101.318 215.3L101.318 241.024L135.534 233.691V201.124C135.534 196.053 139.628 191.959 144.7 191.959C149.771 191.959 153.865 196.053 153.865 201.124C153.865 206.196 149.771 210.29 144.7 210.29C142.072 210.29 139.628 209.129 137.978 207.357V229.231V237.785C137.978 237.846 137.978 237.968 137.978 238.03V238.091C137.978 238.152 137.978 238.213 137.917 238.213C137.917 238.213 137.917 238.274 137.856 238.274C137.856 238.335 137.795 238.335 137.795 238.396L137.734 238.457C137.734 238.518 137.673 238.518 137.673 238.579L137.612 238.641C137.551 238.702 137.551 238.702 137.49 238.702L137.428 238.763C137.367 238.763 137.306 238.824 137.306 238.824H137.245C137.184 238.824 137.123 238.885 137.062 238.885L100.401 246.828C100.34 246.828 100.218 246.828 100.157 246.828H100.096C100.034 246.828 99.9734 246.828 99.9123 246.828H99.8512C99.7901 246.828 99.729 246.767 99.6679 246.767C99.6679 246.767 99.6068 246.767 99.6068 246.706C99.5457 246.706 99.4846 246.645 99.4846 246.645C99.4846 246.645 99.4846 246.645 99.4235 246.645C99.4235 246.645 99.4235 246.645 99.3624 246.584C99.3013 246.523 99.3013 246.523 99.2402 246.462L99.1791 246.4C99.0569 246.4 99.0569 246.339 99.0569 246.339L98.9958 246.278C98.9958 246.217 98.9347 246.156 98.9347 246.095V246.034C98.8736 245.912 98.8736 245.789 98.8736 245.728Z" fill="black"/>
<path d="M136.146 232.469L100.707 240.107V237.052L136.146 229.414V232.469Z" fill="black"/>
<path d="M136.146 228.498L100.707 236.135V233.08L136.146 225.443V228.498Z" fill="black"/>
<path fill-rule="evenodd" clip-rule="evenodd" d="M488.089 475.958L491.144 467.404H481.979L478.924 475.958H488.089ZM488.7 498.565H479.535L485.034 483.901H475.869L470.98 498.565H461.815L467.314 483.901H457.538L460.593 475.958H470.369L472.813 467.404H463.037L466.092 459.461H475.869L481.368 444.796H489.922L485.034 459.461H493.588L499.087 444.796H507.641L502.753 459.461H512.529L509.474 467.404H499.698L496.643 475.958H507.03L503.975 483.901H493.588L488.7 498.565Z" fill="black"/>
<path fill-rule="evenodd" clip-rule="evenodd" d="M42.6395 313.586C42.7264 313.26 42.5326 312.925 42.2065 312.838C41.8805 312.751 41.5457 312.945 41.4587 313.271L40.1133 318.317H34.106C33.7685 318.317 33.4949 318.59 33.4949 318.928C33.4949 319.265 33.7685 319.539 34.106 319.539H39.7874L38.158 325.649H34.106C33.7685 325.649 33.4949 325.922 33.4949 326.26C33.4949 326.597 33.7685 326.871 34.106 326.871H37.8322L36.5706 331.602C36.4837 331.928 36.6775 332.262 37.0036 332.349C37.3296 332.436 37.6644 332.242 37.7514 331.916L39.0968 326.871H45.1643L43.9028 331.602C43.8158 331.928 44.0097 332.262 44.3357 332.349C44.6618 332.436 44.9966 332.242 45.0835 331.916L46.429 326.871H52.4364C52.7738 326.871 53.0474 326.597 53.0474 326.26C53.0474 325.922 52.7738 325.649 52.4364 325.649H46.7549L48.3843 319.539H52.4364C52.7738 319.539 53.0474 319.265 53.0474 318.928C53.0474 318.59 52.7738 318.317 52.4364 318.317H48.7101L49.9716 313.586C50.0586 313.26 49.8648 312.925 49.5387 312.838C49.2126 312.751 48.8778 312.945 48.7909 313.271L47.4454 318.317H41.378L42.6395 313.586ZM41.0521 319.539L39.4227 325.649H45.4902L47.1195 319.539H41.0521Z" fill="black"/>
<path fill-rule="evenodd" clip-rule="evenodd" d="M622.008 432.123C622.119 431.797 621.871 431.462 621.453 431.375C621.035 431.288 620.606 431.482 620.495 431.808L618.771 436.853H611.074C610.642 436.853 610.291 437.127 610.291 437.464C610.291 437.802 610.642 438.075 611.074 438.075H618.353L616.266 444.185H611.074C610.642 444.185 610.291 444.459 610.291 444.796C610.291 445.134 610.642 445.407 611.074 445.407H615.848L614.232 450.138C614.121 450.464 614.369 450.799 614.787 450.886C615.204 450.973 615.633 450.779 615.745 450.453L617.469 445.407H625.243L623.626 450.138C623.515 450.464 623.763 450.799 624.181 450.886C624.599 450.973 625.028 450.779 625.139 450.453L626.863 445.407H634.56C634.992 445.407 635.343 445.134 635.343 444.796C635.343 444.459 634.992 444.185 634.56 444.185H627.281L629.368 438.075H634.56C634.992 438.075 635.343 437.802 635.343 437.464C635.343 437.127 634.992 436.853 634.56 436.853H629.786L631.402 432.123C631.513 431.797 631.265 431.462 630.847 431.375C630.43 431.288 630.001 431.482 629.889 431.808L628.165 436.853H620.391L622.008 432.123ZM619.974 438.075L617.886 444.185H625.66L627.748 438.075H619.974Z" fill="black"/>
<path fill-rule="evenodd" clip-rule="evenodd" d="M187.07 57.612C186.747 56.491 187.467 55.3403 188.68 55.0414C189.893 54.7425 191.138 55.4088 191.461 56.5295L196.464 73.8734L218.804 73.8734C220.059 73.8734 221.076 74.8137 221.076 75.9737C221.076 77.1337 220.059 78.074 218.804 78.074L197.676 78.074L203.735 99.0773L218.804 99.0773C220.059 99.0773 221.076 100.018 221.076 101.178C221.076 102.338 220.059 103.278 218.804 103.278L204.947 103.278L209.639 119.539C209.962 120.66 209.241 121.811 208.029 122.11C206.816 122.409 205.571 121.743 205.248 120.622L200.244 103.278H177.681L182.372 119.539C182.696 120.66 181.975 121.811 180.762 122.11C179.55 122.409 178.305 121.743 177.981 120.622L172.978 103.278H150.638C149.383 103.278 148.366 102.338 148.366 101.178C148.366 100.018 149.383 99.0773 150.638 99.0773H171.766L165.707 78.074H150.638C149.383 78.074 148.366 77.1337 148.366 75.9737C148.366 74.8137 149.383 73.8734 150.638 73.8734H164.495L159.804 57.612C159.48 56.491 160.201 55.3403 161.414 55.0414C162.626 54.7425 163.871 55.4088 164.195 56.5295L169.198 73.8734L191.761 73.8734L187.07 57.612ZM192.973 78.074L199.032 99.0773H176.469L170.41 78.074L192.973 78.074Z" fill="black"/>
<path d="M312.663 400.192C311.685 400.192 310.891 400.986 310.891 401.964C310.891 402.943 311.685 403.736 312.663 403.736C313.642 403.736 314.435 402.943 314.435 401.964C314.435 400.986 313.642 400.192 312.663 400.192Z" fill="black"/>
<path d="M312.663 391.455C311.685 391.455 310.891 392.248 310.891 393.227C310.891 394.205 311.685 394.999 312.663 394.999C313.642 394.999 314.435 394.205 314.435 393.227C314.435 392.248 313.642 391.455 312.663 391.455Z" fill="black"/>
<path d="M325.189 406.302C326.166 406.302 327.816 406.18 328.794 405.875C331.788 404.897 335.698 401.659 334.415 396.526C334.354 396.343 333.804 395.304 333.621 394.999C332.888 394.082 331.849 393.532 330.566 393.532C328.427 393.532 326.716 395.243 326.716 397.382C326.716 399.52 328.427 401.231 330.566 401.231C331.421 401.231 332.154 400.987 332.826 400.498C332.826 400.62 332.215 403.003 329.955 404.408C329.344 404.775 327.022 405.997 324.822 404.958C319.018 402.27 321.339 391.638 321.95 390.111C322.561 388.583 324.761 382.045 336.554 376.791C336.676 376.729 333.926 376.974 332.46 377.463C319.934 381.495 317.49 390.905 317.062 392.432C316.635 393.96 316.451 396.343 316.574 397.626C316.757 400.192 318.712 406.119 325.189 406.302Z" fill="black"/>
<path d="M328.844 611.471C328.542 610.89 328.764 610.177 329.339 609.879C329.914 609.581 330.624 609.811 330.925 610.392C331.227 610.973 331.005 611.685 330.43 611.983C329.855 612.281 329.145 612.052 328.844 611.471Z" fill="black"/>
<path d="M323.711 614.131C323.41 613.55 323.632 612.838 324.206 612.54C324.781 612.242 325.491 612.471 325.793 613.052C326.094 613.633 325.872 614.346 325.297 614.644C324.722 614.942 324.012 614.713 323.711 614.131Z" fill="black"/>
<path d="M336.287 617.047C336.588 617.628 337.024 618.645 337.146 619.318C337.493 621.393 336.794 624.701 333.384 625.502C333.257 625.522 332.478 625.511 332.242 625.496C331.478 625.339 330.835 624.89 330.44 624.128C329.782 622.858 330.261 621.322 331.517 620.671C332.773 620.019 334.305 620.514 334.963 621.784C335.226 622.292 335.308 622.802 335.228 623.35C335.3 623.312 336.512 622.224 336.641 620.454C336.669 619.979 336.672 618.229 335.385 617.239C332.019 614.611 326.488 619.227 325.779 620.055C325.07 620.883 321.906 624.179 322.448 632.781C322.45 632.872 321.748 631.165 321.583 630.146C320.098 621.481 324.873 617.165 325.639 616.446C326.405 615.727 327.748 614.892 328.539 614.574C330.103 613.902 334.187 613.258 336.287 617.047Z" fill="black"/>
<path fill-rule="evenodd" clip-rule="evenodd" d="M184.022 332.265C183.777 330.921 184.572 329.638 185.916 329.332L197.525 326.949L197.552 320.15L197.525 316.867V298.17V291.572C197.525 286.622 201.252 282.345 206.201 281.979C211.884 281.551 216.589 286.256 216.161 291.938C215.794 296.887 211.517 300.615 206.568 300.615H202.352L202.352 328.843C202.352 330.004 201.497 330.982 200.397 331.226L186.955 334.159C185.61 334.404 184.327 333.609 184.022 332.265ZM206.717 285.933C203.849 285.933 201.84 288.276 201.524 291.127C201.218 293.876 201.511 295.098 202.44 296.015C203.369 296.931 205.495 296.762 206.717 296.626C209.467 296.32 211.911 293.995 211.911 291.127C211.911 288.258 209.586 285.933 206.717 285.933Z" fill="black"/>
<path fill-rule="evenodd" clip-rule="evenodd" d="M246.182 657.636C246.173 656.285 245.099 655.211 243.645 655.197L231.143 655.321L229.789 648.752L229.177 645.573L225.529 627.494L224.242 621.113C223.277 616.328 218.578 612.972 213.375 613.652C207.399 614.428 203.439 619.961 204.991 625.366C206.336 630.075 211.498 632.784 216.63 631.749L221.001 630.867L226.508 658.162C226.734 659.285 227.812 660.051 229 660.057L243.51 660.081C244.952 660.036 246.127 659 246.182 657.636ZM213.611 617.584C216.585 616.984 219.125 618.829 220.009 621.52C220.862 624.114 220.797 625.357 220.012 626.438C219.228 627.518 216.991 627.799 215.697 627.923C212.786 628.203 209.799 626.466 209.239 623.692C208.68 620.919 210.637 618.184 213.611 617.584Z" fill="black"/>
<path d="M316.339 117.427C316.198 116.884 315.96 116.363 315.628 115.892L301.056 95.2533C299.925 93.6509 297.892 92.9154 295.997 93.4231L270.221 100.33C270.798 98.7748 270.715 97.0002 269.959 95.2322C269.107 93.2374 267.485 91.473 265.391 90.2641C263.297 89.0552 260.958 88.5324 258.804 88.7918C256.515 89.0677 254.697 90.1829 253.687 91.9319C252.856 93.3719 252.671 95.0706 253.137 96.8099C253.237 97.1831 253.367 97.5584 253.527 97.933C254.379 99.9277 256.001 101.692 258.095 102.901C260.189 104.11 262.528 104.633 264.682 104.373C265.023 104.332 265.353 104.27 265.672 104.193C265.692 104.188 288.025 98.2063 288.025 98.2063L305.235 122.583L289.003 126.932C289.58 125.377 289.496 123.602 288.741 121.834C287.889 119.839 286.267 118.075 284.173 116.866C282.079 115.657 279.739 115.134 277.586 115.394C275.296 115.669 273.479 116.785 272.469 118.534C271.638 119.974 271.452 121.673 271.918 123.412C272.018 123.785 272.148 124.16 272.308 124.535C273.16 126.53 274.783 128.294 276.877 129.503C278.971 130.712 281.31 131.235 283.464 130.975C283.804 130.934 313.003 123.148 313.003 123.148C314.487 122.75 315.686 121.65 316.208 120.205C316.535 119.302 316.573 118.333 316.339 117.427L316.339 117.427ZM313.867 118.069C313.974 118.479 313.956 118.916 313.804 119.335C313.562 120.004 313.029 120.494 312.341 120.678L307.866 121.877L290.656 97.501L296.659 95.8925C297.523 95.6608 298.451 95.9967 298.968 96.728L313.539 117.367C313.693 117.585 313.803 117.822 313.867 118.069L313.867 118.069ZM286.657 123.606C286.947 124.691 286.85 125.718 286.366 126.557C285.883 127.393 285.046 127.989 283.967 128.281L283.932 128.291L283.932 128.29C283.686 128.355 283.427 128.404 283.157 128.437C281.549 128.631 279.773 128.223 278.155 127.289C276.537 126.355 275.295 125.02 274.659 123.53C274.077 122.167 274.085 120.847 274.683 119.812C275.28 118.777 276.42 118.109 277.891 117.932C279.499 117.738 281.276 118.146 282.894 119.08C284.512 120.014 285.753 121.349 286.39 122.839C286.5 123.097 286.589 123.353 286.657 123.606L286.657 123.606ZM267.875 97.0045C268.166 98.0892 268.069 99.1162 267.584 99.9551C267.102 100.791 266.266 101.387 265.188 101.679L265.148 101.689C264.903 101.754 264.645 101.803 264.376 101.835C262.768 102.029 260.991 101.621 259.373 100.687C257.755 99.7527 256.514 98.418 255.878 96.9286C255.296 95.566 255.304 94.245 255.901 93.21C256.499 92.175 257.638 91.5074 259.11 91.3302C260.718 91.1365 262.495 91.5441 264.112 92.4783C265.73 93.4124 266.972 94.7471 267.608 96.2365C267.718 96.4946 267.807 96.751 267.875 97.0045L267.875 97.0045Z" fill="black"/>
<path d="M125.794 154.062C125.904 153.74 125.934 153.396 125.881 153.06C125.828 152.724 125.694 152.406 125.49 152.133L120.105 144.935C119.857 144.597 119.513 144.342 119.118 144.203C118.723 144.064 118.296 144.048 117.891 144.157L110.232 146.209L110.231 146.077C110.233 145.921 110.222 145.766 110.199 145.613V145.613C110.171 145.476 110.135 145.342 110.091 145.21L110.062 145.102C110.022 144.965 109.974 144.829 109.919 144.697C109.9 144.627 109.883 144.563 109.837 144.5C109.743 144.293 109.631 144.093 109.505 143.904C108.535 142.435 106.938 141.849 105.935 142.556C105.826 142.635 105.727 142.727 105.64 142.831L105.571 142.918C105.506 143.006 105.448 143.099 105.398 143.195L105.356 143.276C105.302 143.406 105.259 143.541 105.227 143.679L105.208 143.776C105.187 143.895 105.175 144.016 105.172 144.137L105.167 144.271C105.165 144.424 105.176 144.577 105.198 144.729V144.729C105.232 144.858 105.317 145.175 105.325 145.202C105.364 145.34 105.414 145.475 105.473 145.606L105.528 145.81C105.622 146.018 105.733 146.217 105.861 146.407C106.287 147.069 106.903 147.587 107.629 147.891C108.028 148.05 108.465 148.087 108.885 147.998C108.9 147.997 108.915 147.993 108.928 147.987L118.248 145.49C118.383 145.454 118.525 145.459 118.657 145.505C118.788 145.551 118.903 145.635 118.986 145.747L124.371 152.946C124.44 153.036 124.485 153.141 124.503 153.253C124.521 153.365 124.511 153.479 124.474 153.586C124.438 153.691 124.377 153.785 124.298 153.861C124.218 153.938 124.121 153.994 124.015 154.026L116.334 156.084L116.337 156.095L116.336 155.963C116.338 155.807 116.328 155.652 116.304 155.499C116.277 155.362 116.241 155.228 116.196 155.096L116.168 154.988C116.128 154.85 116.08 154.715 116.024 154.583C116.006 154.513 115.988 154.448 115.943 154.386C115.848 154.178 115.737 153.979 115.61 153.789C114.641 152.321 113.043 151.735 112.04 152.442C111.931 152.521 111.832 152.613 111.745 152.717L111.676 152.804C111.612 152.892 111.554 152.985 111.503 153.081L111.461 153.161C111.407 153.292 111.365 153.427 111.333 153.564L111.313 153.662C111.292 153.781 111.28 153.902 111.277 154.023L111.273 154.157C111.271 154.31 111.281 154.463 111.303 154.615V154.615C111.338 154.744 111.423 155.061 111.43 155.088C111.469 155.226 111.519 155.361 111.579 155.492L111.633 155.696C111.728 155.904 111.839 156.103 111.966 156.293C112.392 156.955 113.009 157.473 113.735 157.777C114.134 157.936 114.571 157.973 114.991 157.884C115.006 157.883 115.02 157.879 115.034 157.873L124.354 155.375C124.683 155.291 124.986 155.127 125.237 154.898C125.488 154.669 125.679 154.382 125.794 154.062V154.062Z" fill="black"/>
<path d="M272.249 198.705C272.473 198.08 272.545 197.411 272.459 196.753C272.373 196.094 272.131 195.466 271.753 194.92L264.683 184.659C264.065 183.767 263.188 183.086 262.169 182.709C261.151 182.333 260.042 182.279 258.992 182.555L240.072 187.624C240.336 186.3 240.285 184.932 239.924 183.631C238.815 179.493 234.951 176.899 231.35 177.864C227.749 178.828 225.7 183.007 226.809 187.146C227.918 191.284 231.781 193.878 235.383 192.913L251.615 188.564L260.164 200.906C260.654 201.62 261.354 202.163 262.167 202.462C262.98 202.76 263.865 202.798 264.701 202.571L269.431 201.303C270.074 201.127 270.665 200.799 271.156 200.347C271.646 199.895 272.021 199.332 272.249 198.705V198.705ZM230.625 186.123C230.078 184.081 230.907 182.015 232.412 181.612C233.917 181.208 235.668 182.583 236.215 184.625C236.762 186.668 235.933 188.733 234.428 189.137C232.923 189.54 231.172 188.165 230.625 186.123ZM263.693 198.808C263.638 198.828 263.578 198.83 263.522 198.814C263.466 198.798 263.417 198.765 263.381 198.719L255.592 187.498L260 186.317C260.283 186.238 260.584 186.25 260.86 186.352C261.135 186.454 261.372 186.641 261.535 186.885L268.659 197.132L268.716 197.347C268.7 197.387 268.675 197.423 268.643 197.452C268.61 197.48 268.572 197.501 268.53 197.512L263.693 198.808Z" fill="black"/>
<path d="M487.503 101.749L461.008 116.254C459.747 116.947 458.188 116.227 457.876 114.849L452.384 92.456C451.886 90.437 454.258 88.9883 455.839 90.2943L473.707 104.406L491.383 94.7201C498.463 90.6323 507.003 100.156 510.174 105.649C513.342 111.135 517.324 123.3 510.243 127.387C503.163 131.475 494.613 121.949 491.445 116.462C489.013 112.25 487.052 106.692 487.503 101.749ZM495.176 114.308C496.914 117.319 503.814 126.117 508.086 123.651C512.358 121.184 508.188 110.81 506.45 107.8C504.711 104.789 497.812 95.9905 493.54 98.4569C489.268 100.923 493.438 111.298 495.176 114.308Z" fill="black"/>
<path d="M442.37 645.398L444.842 654.621C445.001 655.215 444.649 655.825 444.055 655.984C443.461 656.143 442.851 655.791 442.692 655.197L436.787 633.16C436.205 630.989 438.007 628.8 440.616 628.101C443.225 627.402 445.88 628.397 446.462 630.567C447.044 632.738 445.242 634.927 442.633 635.626C441.65 635.889 440.661 635.912 439.778 635.723L440.688 639.12C441.358 638.514 442.226 638.039 443.209 637.776C445.818 637.077 448.473 638.072 449.054 640.242C449.636 642.413 447.834 644.602 445.225 645.301C444.242 645.564 443.253 645.587 442.37 645.398ZM443.785 639.926C442.238 640.341 441.316 641.461 441.529 642.259C441.743 643.057 443.102 643.566 444.649 643.151C446.196 642.737 447.118 641.616 446.904 640.819C446.691 640.021 445.332 639.512 443.785 639.926ZM441.192 630.251C439.645 630.666 438.723 631.786 438.937 632.584C439.151 633.382 440.509 633.891 442.056 633.476C443.603 633.062 444.526 631.941 444.312 631.144C444.098 630.346 442.739 629.837 441.192 630.251ZM449.975 630.778C449.381 630.937 448.771 630.585 448.612 629.991C448.453 629.398 448.805 628.787 449.399 628.628L458.536 626.18C459.13 626.021 459.74 626.373 459.899 626.967C460.058 627.561 459.706 628.171 459.112 628.33L449.975 630.778ZM424.712 637.547C424.119 637.706 423.509 637.354 423.349 636.76C423.19 636.167 423.543 635.556 424.136 635.397L433.274 632.949C433.868 632.79 434.478 633.142 434.637 633.736C434.796 634.33 434.444 634.94 433.85 635.099L424.712 637.547ZM452.567 640.453C451.974 640.612 451.363 640.26 451.204 639.666C451.045 639.073 451.398 638.462 451.991 638.303L461.129 635.855C461.722 635.696 462.333 636.048 462.492 636.642C462.651 637.236 462.298 637.846 461.705 638.005L452.567 640.453ZM427.305 647.222C426.711 647.381 426.101 647.029 425.942 646.435C425.783 645.842 426.135 645.231 426.729 645.072L435.866 642.624C436.46 642.465 437.07 642.817 437.229 643.411C437.388 644.005 437.036 644.615 436.442 644.774L427.305 647.222ZM447.635 652.145C447.041 652.304 446.431 651.951 446.272 651.358C446.113 650.764 446.465 650.154 447.059 649.995L463.721 645.53C464.315 645.371 464.925 645.723 465.084 646.317C465.243 646.911 464.891 647.521 464.297 647.68L447.635 652.145ZM429.897 656.897C429.304 657.056 428.693 656.704 428.534 656.11C428.375 655.517 428.728 654.906 429.321 654.747L438.459 652.299C439.052 652.14 439.663 652.492 439.822 653.086C439.981 653.68 439.628 654.29 439.035 654.449L429.897 656.897Z" fill="black"/>
<path d="M202.063 228.855C202.029 227.974 202.69 227.271 203.56 227.2C204.441 227.166 205.143 227.827 205.215 228.697L205.628 237.482C205.659 238.201 205.197 238.891 204.48 239.083L187.052 243.753L187.749 246.356C188.568 249.411 186.975 252.669 183.98 253.714C180.542 254.918 176.859 252.791 176.183 249.212C175.591 246.096 177.615 243.087 180.67 242.269L184.745 241.177L196.288 238.084L195.924 230.54C195.89 229.659 196.551 228.957 197.422 228.885C198.302 228.852 199.005 229.512 199.076 230.383L199.419 237.245L202.512 236.416L202.063 228.855Z" fill="black"/>
<path d="M514.414 620.887C514.05 621.668 514.267 622.428 514.881 622.665C515.517 622.87 516.289 622.418 516.676 621.653L520.357 613.874C520.656 613.237 520.58 612.528 520.126 612.213L509.075 604.575L510.589 602.384C512.367 599.812 512.444 596.581 510.638 595.051C508.567 593.292 505.036 594.463 503.162 597.532C501.528 600.203 501.863 603.297 503.801 604.637L506.384 606.422L513.704 611.481L510.537 618.16C510.173 618.942 510.39 619.702 511.004 619.938C511.64 620.143 512.412 619.691 512.799 618.927L515.689 612.854L517.651 614.209L514.414 620.887Z" fill="black" fill-opacity="0.55"/>
<path fill-rule="evenodd" clip-rule="evenodd" d="M284.69 586.266C284.669 586.217 284.644 586.17 284.616 586.124L269.623 560.203C269.613 560.187 269.603 560.172 269.593 560.157C269.583 560.141 269.573 560.126 269.562 560.111C269.552 560.095 269.542 560.08 269.532 560.065C269.517 560.05 269.501 560.037 269.485 560.023C269.475 560.008 269.465 559.992 269.454 559.977C269.439 559.963 269.423 559.949 269.407 559.936C269.392 559.921 269.376 559.907 269.36 559.894C269.352 559.884 269.343 559.875 269.334 559.865C269.32 559.857 269.306 559.849 269.292 559.841C269.277 559.827 269.261 559.813 269.245 559.799C269.225 559.792 269.205 559.785 269.185 559.779C269.171 559.771 269.157 559.762 269.143 559.755C269.123 559.747 269.103 559.741 269.083 559.734C268.939 559.671 268.782 559.64 268.625 559.642C268.467 559.643 268.311 559.679 268.168 559.746L257.2 562.684C257.125 562.697 257.052 562.716 256.982 562.743C256.948 562.75 256.914 562.759 256.881 562.77L240.722 567.1C240.983 565.897 240.855 564.52 240.495 563.092C240.477 563.025 240.459 562.958 240.441 562.89C239.876 560.785 238.762 558.531 237.195 556.487C235.579 554.377 233.797 552.877 232.034 552.145C231.153 551.779 230.253 551.597 229.383 551.721C228.513 551.845 227.675 552.315 227.132 553.063C227.132 553.063 227.136 553.079 227.136 553.079C226.046 554.574 226.083 556.617 226.629 558.778C227.174 560.94 228.314 563.273 229.929 565.383C231.544 567.493 233.33 569.009 235.093 569.742C235.975 570.108 236.87 570.272 237.741 570.149C237.872 570.13 238.007 570.113 238.136 570.079C238.2 570.074 238.263 570.063 238.325 570.046L256.835 565.086L270.681 589.011L256.824 592.724C257.08 591.526 256.942 590.157 256.584 588.738C256.566 588.67 256.548 588.604 256.53 588.536C255.966 586.431 254.844 584.16 253.279 582.116C251.664 580.006 249.882 578.506 248.119 577.774C247.237 577.407 246.338 577.227 245.467 577.35C244.597 577.473 243.767 577.961 243.221 578.708C242.131 580.204 242.167 582.244 242.713 584.407C243.26 586.57 244.403 588.918 246.018 591.029C247.633 593.139 249.415 594.638 251.178 595.371C252.059 595.737 252.96 595.919 253.83 595.794C253.961 595.776 254.092 595.743 254.221 595.708C254.285 595.702 254.348 595.691 254.41 595.675L272.416 590.85C272.568 590.841 272.717 590.801 272.853 590.733L283.939 587.762C284.083 587.724 284.218 587.657 284.335 587.565C284.453 587.474 284.551 587.359 284.623 587.229C284.696 587.099 284.742 586.955 284.758 586.807C284.774 586.659 284.76 586.509 284.717 586.366C284.709 586.332 284.7 586.298 284.69 586.265L284.69 586.266ZM281.952 585.992L272.898 588.418L259.069 564.489L268.123 562.063L281.952 585.992Z" fill="black"/>
<path d="M440.953 462.517C441.018 462.353 441 462.167 440.907 462.018L430.579 445.532C430.449 445.325 430.2 445.227 429.964 445.29L404.811 452.03C405.819 450.729 406.236 448.991 405.778 447.281C405 444.378 402.006 442.649 399.103 443.427C396.2 444.204 394.471 447.199 395.249 450.102C396.025 452.996 399.004 454.722 401.899 453.961C401.902 453.961 401.904 453.961 401.906 453.96L401.924 453.956L418.482 449.519L427.34 465.955C427.463 466.182 427.725 466.295 427.974 466.228L440.58 462.851C440.751 462.805 440.889 462.681 440.953 462.517ZM396.324 449.814C395.705 447.504 397.081 445.121 399.39 444.502C401.7 443.883 404.084 445.259 404.703 447.569C405.322 449.879 403.945 452.262 401.635 452.881C399.326 453.5 396.943 452.124 396.324 449.814ZM428.111 465.039L419.587 449.223L429.854 446.472L439.564 461.971L428.111 465.039Z" fill="black"/>
<path d="M403.853 447.796C403.359 445.956 401.46 444.859 399.619 445.352C399.322 445.432 399.146 445.736 399.226 446.034C399.305 446.331 399.61 446.507 399.907 446.427C401.155 446.093 402.443 446.836 402.778 448.085C402.857 448.382 403.162 448.557 403.459 448.478C403.756 448.398 403.932 448.094 403.853 447.796Z" fill="black"/>
<path d="M429.825 450.934L435.8 460.471L432.637 461.318C432.341 461.398 432.164 461.703 432.244 462C432.324 462.297 432.629 462.473 432.925 462.393L436.815 461.351C436.986 461.305 437.125 461.182 437.189 461.018C437.254 460.852 437.236 460.668 437.143 460.518L430.768 450.343C430.605 450.083 430.261 450.004 430.001 450.167C429.741 450.33 429.661 450.669 429.825 450.934Z" fill="black"/>
<path d="M105.124 93.6944C105.264 93.8066 105.343 93.9787 105.337 94.1576L104.624 113.907C104.615 114.155 104.445 114.368 104.205 114.432L78.6538 121.279C80.2022 121.911 81.4517 123.229 81.9171 124.965C82.7073 127.914 80.9509 130.957 78.0019 131.747C75.0528 132.537 72.0113 130.78 71.2211 127.831C70.4332 124.891 72.1777 121.859 75.1116 121.058C75.1138 121.058 75.1157 121.056 75.1179 121.056L75.1364 121.051L91.9561 116.544L91.4015 97.5849C91.394 97.323 91.5674 97.0898 91.8202 97.0221L104.625 93.5909C104.799 93.5444 104.984 93.5832 105.124 93.6944ZM72.3126 127.539C72.9414 129.886 75.3625 131.284 77.7087 130.655C80.0555 130.026 81.4533 127.605 80.8245 125.258C80.1957 122.911 77.7748 121.514 75.428 122.143C73.0817 122.772 71.6838 125.192 72.3126 127.539ZM92.5447 97.9984L93.0787 116.243L103.509 113.448L104.179 94.8809L92.5447 97.9984Z" fill="black"/>
<path d="M79.9608 125.49C80.4619 127.36 79.3479 129.289 77.4778 129.79C77.1763 129.871 76.8663 129.693 76.7854 129.391C76.7045 129.089 76.8837 128.779 77.1851 128.698C78.453 128.359 79.2085 127.05 78.8687 125.782C78.7878 125.48 78.967 125.171 79.2685 125.09C79.5699 125.009 79.8799 125.188 79.9608 125.49Z" fill="black"/>
<path d="M101.217 109.537L101.63 98.1123L98.4169 98.9732C98.1155 99.0539 97.8055 98.8754 97.7246 98.5735C97.6437 98.2715 97.8229 97.9619 98.1243 97.8811L102.076 96.8223C102.249 96.7759 102.434 96.8141 102.574 96.9258C102.715 97.0385 102.793 97.2096 102.787 97.389L102.347 109.578C102.336 109.89 102.073 110.134 101.761 110.123C101.45 110.111 101.208 109.854 101.217 109.537Z" fill="black"/>
<path d="M351.115 422.215L367.107 419.011L371.326 418.165C372.39 417.956 373.373 417.452 374.164 416.71C374.954 415.968 375.52 415.019 375.797 413.971V413.971L380.614 395.991C381.279 396.837 382.201 397.442 383.24 397.715C385.745 398.386 388.29 397.057 388.91 394.746C389.529 392.435 387.987 390.04 385.477 389.367C382.967 388.695 380.479 390.004 379.831 392.273L375.606 408.038L355.621 412.062L358.61 400.908C359.274 401.754 360.196 402.359 361.236 402.632C363.74 403.303 366.285 401.974 366.905 399.663C367.524 397.352 365.99 394.93 363.479 394.258C360.969 393.585 358.43 394.915 357.81 397.226C357.81 397.226 357.797 397.275 357.792 397.296L353.733 412.443L351.115 422.215V422.215ZM385.045 390.98C386.658 391.412 387.624 392.881 387.251 394.273C386.878 395.665 385.28 396.447 383.694 396.022C382.109 395.597 381.116 394.121 381.489 392.729C381.862 391.337 383.454 390.554 385.045 390.98ZM363.033 395.924C364.645 396.356 365.612 397.825 365.239 399.217C364.866 400.609 363.268 401.39 361.682 400.966C360.096 400.541 359.104 399.065 359.477 397.673C359.85 396.281 361.464 395.503 363.033 395.924Z" fill="black"/>
<path d="M392.671 358.133L393.993 357.779L383.96 346.48C383.247 345.663 382.319 345.064 381.281 344.75C380.243 344.436 379.138 344.42 378.092 344.705V344.705L359.651 349.646C360.05 348.649 360.113 347.548 359.83 346.511C359.159 344.006 356.736 342.466 354.425 343.085C352.113 343.705 350.783 346.244 351.456 348.754C352.129 351.265 354.55 352.799 356.862 352.18L370.89 348.421C373.3 349.503 377.355 352.726 379.367 354.687C383.525 358.424 387.629 359.484 392.671 358.133ZM353.128 348.307C352.696 346.694 353.484 345.123 354.877 344.75C356.269 344.377 357.744 345.37 358.169 346.956C358.594 348.541 357.813 350.139 356.42 350.512C355.028 350.885 353.554 349.898 353.128 348.307Z" fill="black"/>
<path fill-rule="evenodd" clip-rule="evenodd" d="M536.023 396.001C536.507 397.808 536.518 399.631 536.131 401.336L563.579 393.982C565.023 393.595 566.502 394.328 567.089 395.649L579.05 417.497C579.991 419.225 578.999 421.383 577.104 421.826C564.593 425.264 552.099 428.619 539.555 431.98C533.588 433.579 527.459 430.05 525.864 424.097C524.269 418.144 527.812 412.023 533.779 410.425C539.745 408.826 545.874 412.355 547.469 418.308C547.954 420.115 547.966 421.936 547.578 423.643L561.483 419.917L552.827 403.05L528.108 409.673C522.142 411.272 516.013 407.743 514.417 401.79C512.822 395.837 516.366 389.716 522.332 388.118C528.299 386.519 534.428 390.048 536.023 396.001V396.001ZM560.367 383.197L591.153 374.948C594.613 374.021 595.43 378.148 594.957 380.588C594.489 382.996 592.543 386.49 589.562 389.444C586.615 392.365 582.579 394.902 577.845 395.561C576.029 395.815 574.118 395.792 572.143 395.411C568.259 394.662 569.401 388.795 573.285 389.547C574.578 389.795 575.83 389.812 577.012 389.647C580.305 389.187 583.197 387.341 585.35 385.207C586.439 384.128 587.321 383.012 587.959 381.991L552.234 391.564C546.017 393.229 539.656 389.676 537.987 383.447C536.343 377.311 540.013 370.971 546.164 369.323C552.322 367.673 558.662 371.329 560.307 377.466C560.827 379.409 560.818 381.371 560.367 383.197V383.197ZM558.735 401.467L567.384 418.323L572.001 417.054L562.862 400.361L558.735 401.467V401.467Z" fill="black"/>
<path d="M417.609 286.824L417.21 285.335L420.849 284.36C421.214 284.262 421.431 283.887 421.333 283.522L420.934 282.033L424.572 281.058C424.938 280.96 425.154 280.585 425.057 280.219L424.082 276.581L425.7 276.147C425.994 276.068 426.168 275.767 426.089 275.473L425.798 274.386C425.719 274.093 425.418 273.918 425.124 273.997L395.556 281.92L394.979 279.77L396.468 279.371C396.833 279.273 397.05 278.898 396.952 278.533L394.714 270.18C394.616 269.815 394.241 269.598 393.876 269.696L392.387 270.095L391.412 266.456C391.314 266.091 390.939 265.874 390.574 265.972L389.085 266.371L388.686 264.882C388.588 264.517 388.213 264.3 387.848 264.398L386.359 264.797L385.96 263.308C385.862 262.943 385.487 262.726 385.121 262.824L379.994 264.198C379.629 264.296 379.412 264.671 379.51 265.037L379.909 266.525L378.42 266.924C378.055 267.022 377.838 267.398 377.936 267.763L380.75 278.265C380.848 278.63 381.223 278.847 381.589 278.749L383.077 278.35L384.052 281.989C384.15 282.354 384.526 282.571 384.891 282.473L386.379 282.074L386.778 283.563C386.876 283.928 387.252 284.145 387.617 284.047L389.106 283.648L389.504 285.137C389.602 285.502 389.978 285.719 390.343 285.621L393.982 284.646L395.589 284.215L421.932 277.157L422.508 279.307L418.869 280.282C418.504 280.38 418.287 280.755 418.385 281.12L418.784 282.609L415.145 283.584C414.78 283.682 414.563 284.057 414.661 284.422L415.06 285.911L408.61 287.639L408.211 286.151C408.113 285.785 407.738 285.569 407.373 285.667L402.245 287.04C401.88 287.138 401.663 287.514 401.761 287.879L401.983 288.706C402.081 289.072 402.456 289.288 402.821 289.19L406.46 288.215L406.859 289.704C406.957 290.069 407.332 290.286 407.697 290.188L417.125 287.662C417.49 287.564 417.707 287.189 417.609 286.824ZM391.256 283.072L390.857 281.583C390.759 281.218 390.383 281.001 390.018 281.099L388.529 281.498L388.131 280.009C388.033 279.644 387.657 279.427 387.292 279.525L385.803 279.924L384.828 276.286C384.731 275.92 384.355 275.704 383.99 275.801L382.501 276.2L380.485 268.675L381.974 268.276C382.339 268.179 382.556 267.803 382.458 267.438L382.059 265.949L384.209 265.373L384.608 266.862C384.706 267.227 385.081 267.444 385.446 267.346L386.935 266.947L387.334 268.436C387.432 268.801 387.807 269.018 388.172 268.92L389.661 268.521L390.636 272.16C390.734 272.525 391.109 272.742 391.474 272.644L392.963 272.245L394.403 277.62L392.915 278.019C392.549 278.117 392.333 278.492 392.431 278.857L393.406 282.496L391.256 283.072Z" fill="black"/>
<path d="M279.221 46.6406L278.068 46.6406L278.068 49.46C278.068 49.743 277.838 49.9724 277.555 49.9724L276.402 49.9724L276.402 52.7917C276.402 53.0747 276.173 53.3041 275.89 53.3041L273.07 53.3041L273.07 54.5582C273.07 54.7856 272.886 54.97 272.658 54.97L271.816 54.97C271.589 54.97 271.404 54.7856 271.404 54.5582L271.404 31.6478L269.739 31.6478L269.739 32.8013C269.739 33.0843 269.509 33.3137 269.226 33.3137L262.754 33.3137C262.471 33.3137 262.242 33.0843 262.242 32.8013L262.242 31.6478L259.423 31.6478C259.14 31.6478 258.91 31.4184 258.91 31.1354L258.91 29.9819L257.757 29.9819C257.474 29.9819 257.244 29.7525 257.244 29.4695L257.244 28.3161L256.091 28.3161C255.808 28.3161 255.579 28.0867 255.579 27.8037L255.579 23.8308C255.579 23.5478 255.808 23.3184 256.091 23.3184L257.244 23.3184L257.244 22.165C257.244 21.882 257.474 21.6526 257.757 21.6526L265.894 21.6526C266.177 21.6526 266.407 21.882 266.407 22.165L266.407 23.3184L269.226 23.3184C269.509 23.3184 269.739 23.5478 269.739 23.8308L269.739 24.9843L270.892 24.9843C271.175 24.9843 271.404 25.2137 271.404 25.4967L271.404 26.6502L272.558 26.6502C272.841 26.6502 273.07 26.8796 273.07 27.1626L273.07 29.9819L273.07 31.2271L273.07 51.6382L274.736 51.6382L274.736 48.8189C274.736 48.5359 274.966 48.3065 275.248 48.3065L276.402 48.3065L276.402 45.4872C276.402 45.2042 276.631 44.9747 276.914 44.9747L278.068 44.9747L278.068 39.9771L276.914 39.9771C276.631 39.9771 276.402 39.7478 276.402 39.4648L276.402 35.4919C276.402 35.2089 276.631 34.9795 276.914 34.9795L277.555 34.9795C277.838 34.9795 278.068 35.2089 278.068 35.4919L278.068 38.3113L279.221 38.3113C279.504 38.3113 279.734 38.5407 279.734 38.8237L279.734 46.1282C279.734 46.4112 279.504 46.6406 279.221 46.6406ZM271.404 28.3161L270.251 28.3161C269.968 28.3161 269.739 28.0867 269.739 27.8037L269.739 26.6502L268.585 26.6502C268.302 26.6502 268.073 26.4208 268.073 26.1378L268.073 24.9843L265.253 24.9843C264.97 24.9843 264.741 24.7549 264.741 24.4719L264.741 23.3184L258.91 23.3184L258.91 24.4719C258.91 24.7549 258.681 24.9843 258.398 24.9843L257.244 24.9843L257.244 26.6502L258.398 26.6502C258.681 26.6502 258.91 26.8796 258.91 27.1626L258.91 28.3161L260.064 28.3161C260.347 28.3161 260.576 28.5455 260.576 28.8285L260.576 29.9819L263.396 29.9819C263.679 29.9819 263.908 30.2113 263.908 30.4943L263.908 31.6478L268.073 31.6478L268.073 30.4943C268.073 30.2113 268.302 29.9819 268.585 29.9819L271.404 29.9819L271.404 28.3161Z" fill="black"/>
<path fill-rule="evenodd" clip-rule="evenodd" d="M356.629 671.993C357.224 671.833 357.836 672.187 357.993 672.783C358.052 673.004 358.136 673.374 358.223 673.851C358.367 674.647 358.461 675.457 358.48 676.243C358.52 677.956 358.208 679.342 357.337 680.271C355.386 682.352 352.078 682.054 348.776 680.134C348.245 679.824 348.064 679.143 348.374 678.612C348.683 678.081 349.364 677.9 349.895 678.209C352.407 679.671 354.658 679.874 355.713 678.749C356.086 678.351 356.282 677.478 356.254 676.296C356.241 675.706 356.174 675.084 356.07 674.465C356.058 674.392 340.006 678.751 340.006 678.751C339.908 678.777 339.81 678.79 339.714 678.79C337.676 679.048 335.709 677.768 335.163 675.728C334.566 673.502 335.888 671.213 338.114 670.617C340.34 670.02 342.629 671.342 343.225 673.568C343.407 674.247 343.411 674.933 343.264 675.574L356.629 671.993ZM350.236 661.032C350.463 660.971 350.693 660.985 350.899 661.059C351.232 661.178 351.502 661.454 351.6 661.822C351.658 662.043 351.743 662.413 351.829 662.89C351.973 663.686 352.068 664.496 352.086 665.283C352.126 666.995 351.814 668.381 350.943 669.31C348.992 671.391 345.684 671.093 342.383 669.173C341.851 668.864 341.671 668.182 341.98 667.651C342.289 667.12 342.97 666.94 343.502 667.249C346.014 668.71 348.265 668.913 349.319 667.788C349.692 667.39 349.889 666.517 349.861 665.335C349.847 664.743 349.78 664.118 349.676 663.496C349.664 663.426 333.612 667.791 333.612 667.791C333.515 667.817 333.417 667.829 333.321 667.829C331.283 668.087 329.316 666.807 328.769 664.767C328.173 662.541 329.494 660.253 331.72 659.656C333.947 659.059 336.235 660.381 336.832 662.607C337.014 663.287 337.017 663.972 336.871 664.613L350.236 661.032Z" fill="black"/>
<path fill-rule="evenodd" clip-rule="evenodd" d="M506.487 308.468C506.647 309.062 506.293 309.674 505.697 309.831C505.476 309.89 505.106 309.975 504.629 310.061C503.833 310.205 503.023 310.299 502.237 310.318C500.524 310.358 499.138 310.046 498.209 309.175C496.128 307.224 496.426 303.916 498.346 300.614C498.655 300.083 499.337 299.903 499.868 300.212C500.399 300.521 500.579 301.202 500.27 301.733C498.809 304.245 498.606 306.496 499.731 307.551C500.129 307.924 501.002 308.12 502.184 308.093C502.774 308.079 503.396 308.012 504.015 307.908C504.088 307.896 499.729 291.844 499.729 291.844C499.702 291.746 499.69 291.648 499.69 291.552C499.432 289.514 500.712 287.548 502.752 287.001C504.978 286.404 507.266 287.726 507.863 289.952C508.46 292.178 507.138 294.467 504.912 295.063C504.232 295.246 503.547 295.249 502.906 295.103L506.487 308.468ZM517.448 302.074C517.509 302.301 517.495 302.531 517.421 302.737C517.302 303.07 517.026 303.34 516.658 303.438C516.437 303.496 516.066 303.581 515.589 303.667C514.794 303.811 513.984 303.906 513.197 303.924C511.484 303.965 510.099 303.652 509.17 302.781C507.088 300.83 507.387 297.523 509.307 294.221C509.616 293.689 510.297 293.509 510.829 293.818C511.36 294.127 511.54 294.808 511.231 295.34C509.77 297.852 509.567 300.103 510.692 301.157C511.09 301.53 511.963 301.727 513.145 301.699C513.737 301.685 514.362 301.618 514.984 301.514C515.053 301.502 510.689 285.45 510.689 285.45C510.663 285.353 510.651 285.255 510.651 285.159C510.393 283.121 511.673 281.154 513.712 280.608C515.939 280.011 518.227 281.332 518.824 283.559C519.42 285.785 518.099 288.073 515.873 288.67C515.193 288.852 514.508 288.856 513.867 288.709L517.448 302.074Z" fill="black"/>
<path d="M126.734 306.331L134.611 322.93C134.784 323.222 134.627 323.607 134.297 323.696C127.259 325.581 120.032 327.364 113.053 329.384C110.514 330.064 108.631 326.208 108.111 324.264C107.591 322.324 107.292 318.039 109.831 317.359C112.367 316.68 114.254 320.538 114.774 322.479C115.213 324.114 115.386 326.289 114.656 327.879L133.425 322.85L125.966 307.135C119.067 308.984 111.984 310.728 105.141 312.711C102.605 313.391 100.719 309.536 100.198 307.592C99.677 305.648 99.3831 301.366 101.919 300.686C104.454 300.007 106.341 303.862 106.862 305.806C107.3 307.442 107.474 309.617 106.747 311.206L126.115 306.016C126.375 305.946 126.64 306.084 126.734 306.331ZM105.856 306.076C105.516 304.808 103.968 301.217 102.189 301.693C100.409 302.17 100.864 306.054 101.203 307.322C101.543 308.59 103.091 312.181 104.871 311.704C106.651 311.228 106.196 307.343 105.856 306.076ZM113.769 322.748C113.429 321.48 111.877 317.89 110.101 318.366C108.322 318.843 108.776 322.727 109.116 323.995C109.457 325.266 111.004 328.854 112.784 328.377C114.56 327.901 114.11 324.02 113.769 322.748Z" fill="black"/>
<path d="M457.613 244.766L444.345 249.493C444.093 249.558 443.97 249.851 444.101 250.078C446.893 254.916 449.844 259.799 452.532 264.676C453.54 266.422 456.65 265.352 457.987 264.581C459.32 263.811 461.804 261.65 460.797 259.905C459.791 258.162 456.676 259.231 455.342 260.001C454.218 260.65 452.945 261.734 452.479 262.992L445.032 250.092L457.593 245.618C460.33 250.359 463.224 255.144 465.858 259.928C466.864 261.671 469.976 260.604 471.313 259.832C472.649 259.061 475.129 256.899 474.123 255.157C473.117 253.414 470.005 254.481 468.668 255.253C467.544 255.902 466.271 256.986 465.804 258.241L458.119 244.931C458.015 244.752 457.797 244.683 457.613 244.766ZM469.067 255.944C469.939 255.441 472.724 254.333 473.431 255.556C474.137 256.78 471.785 258.638 470.914 259.141C470.042 259.645 467.257 260.752 466.55 259.529C465.844 258.306 468.196 256.447 469.067 255.944ZM455.741 260.692C456.613 260.189 459.4 259.084 460.105 260.305C460.811 261.528 458.459 263.387 457.588 263.89C456.714 264.394 453.93 265.5 453.224 264.277C452.52 263.056 454.867 261.196 455.741 260.692Z" fill="black"/>
<path d="M331.192 494.479C335.404 493.916 339.396 493.373 343.39 492.854C344.364 492.727 345.347 492.673 346.326 492.594C347.567 492.494 347.545 491.64 347.142 490.899C345.687 488.22 344.11 485.608 342.622 482.946C340.889 479.843 339.26 476.681 337.479 473.606C335.37 469.964 333.127 466.401 330.99 462.775C330.471 461.896 329.891 461.858 328.992 462.101C323.635 463.548 318.285 465.033 312.885 466.303C309.879 467.009 307.022 466.13 304.582 464.31C302.837 463.009 302.97 458.628 304.634 456.301C305.313 455.4 306.246 454.724 307.313 454.356C308.379 453.989 309.531 453.948 310.621 454.239C311.848 454.589 313.154 454.779 314.285 455.328C316.564 456.434 317.932 458.262 318 460.914C318.03 462.07 318.522 462.52 319.789 462.224C324.527 461.116 329.32 460.228 334.027 459.009C336.715 458.313 339.288 457.163 341.893 456.164C343.12 455.693 343.923 455.552 344.166 457.291C344.413 458.48 344.861 459.617 345.491 460.655C347.442 464.319 349.525 467.914 351.445 471.594C353.959 476.411 356.311 481.313 358.846 486.12C359.725 487.787 359.98 489.891 362.187 490.765C363 491.087 361.957 492.843 360.581 493.058C358.55 493.377 356.51 493.664 354.465 493.871C350.567 494.264 346.652 494.509 342.763 494.968C339.173 495.39 335.596 495.948 332.035 496.572C330.3 496.877 328.629 497.526 326.907 497.922C323.305 498.751 319.926 498.26 317.128 495.709C315.826 494.522 315.795 492.777 316.423 491.26C318.556 486.107 325.999 485.434 328.873 488.65C330.381 490.338 331.747 491.763 331.192 494.479ZM338.047 459.68C338.43 460.412 338.615 460.791 338.822 461.157C340.812 464.682 342.803 468.205 344.797 471.727C348.197 477.754 351.619 483.767 354.972 489.82C355.838 491.383 357.136 491.173 358.454 490.911C358.609 490.763 358.725 490.579 358.793 490.376C358.861 490.173 358.878 489.957 358.844 489.746C357.61 487.369 356.214 485.077 355.006 482.689C353.489 479.689 352.196 476.575 350.642 473.596C348.179 468.873 345.604 464.207 343 459.56C342.829 459.279 342.595 459.041 342.317 458.866C342.038 458.691 341.723 458.583 341.395 458.551C340.33 458.691 339.316 459.224 338.047 459.68ZM332.822 461.949C333.803 463.394 334.749 464.603 335.497 465.923C337.466 469.397 339.312 472.94 341.274 476.417C343.854 480.991 346.544 485.502 349.09 490.093C350.139 491.984 351.116 492.326 353.168 491.049C347.55 480.927 341.934 470.808 336.32 460.691L332.822 461.949ZM315.656 459.985C315.198 457.191 309.813 455.294 307.824 456.71C306.721 457.494 305.132 459.839 305.447 460.975C305.591 461.675 305.965 462.306 306.51 462.769C307.054 463.231 307.738 463.498 308.452 463.527C310.181 463.672 311.921 463.662 313.649 463.498C316.156 463.181 316.524 462.383 315.656 459.985ZM321.341 489.388C320.84 489.572 320.384 489.859 320.001 490.231C319.369 491.039 318.455 492.112 318.597 492.904C318.739 493.691 319.974 494.73 320.841 494.849C322.997 495.128 325.179 495.145 327.339 494.9C327.575 494.849 327.799 494.75 327.994 494.608C328.19 494.466 328.354 494.285 328.475 494.076C328.597 493.867 328.673 493.634 328.699 493.394C328.726 493.154 328.701 492.911 328.628 492.68C327.987 489.81 324.8 488.156 321.341 489.388Z" fill="black"/>
<path fill-rule="evenodd" clip-rule="evenodd" d="M566.27 276.647L565.621 274.226L557.036 276.526L556.717 275.338L565.303 273.037L564.284 269.237L555.699 271.537L555.38 270.349L563.966 268.048L562.947 264.247L554.362 266.548L554.043 265.36L562.629 263.059L561.343 258.26L562.608 257.921L563.894 262.72L583.409 257.491C583.595 254.615 588.18 253.386 589.78 255.784L598.604 253.42L597.35 248.742L613.337 248.531L613.572 249.409L615.526 248.886L615.844 250.073L613.891 250.597L614.912 254.397L616.862 253.875L617.181 255.063L615.231 255.586L616.251 259.386L618.199 258.863L618.518 260.052L616.569 260.574L617.59 264.375L619.536 263.853L619.854 265.041L617.909 265.562L618.929 269.363L620.873 268.842L621.191 270.03L619.147 270.578C619.039 273.521 614.299 274.791 612.735 272.296L590.217 278.329L590.563 279.619L576.562 287.27L575.241 282.342L559.709 286.504L559.391 285.316L574.923 281.154L573.904 277.353L568.181 278.887C568.407 282.071 563.048 283.507 561.651 280.636L558.372 281.515L558.054 280.327L561.422 279.425C561.591 277.227 564.304 276.013 566.27 276.647L566.27 276.647ZM564.212 263.908L565.231 267.709L570.982 266.168C570.943 263.112 575.961 261.768 577.455 264.434L584.625 262.513L583.606 258.712L564.212 263.908V263.908ZM590.174 256.952C590.31 259.037 587.663 260.809 585.32 260.053L585.888 262.174L599.94 258.409L598.922 254.608L590.174 256.952L590.174 256.952ZM612.636 250.933L600.186 254.269L601.204 258.07L613.654 254.734L612.636 250.933ZM599.868 253.081L611.802 249.883L599.057 250.055L599.868 253.081ZM565.549 268.898L566.567 272.698L572.249 271.176L571.231 267.375L565.549 268.898ZM577.757 265.627C577.733 267.631 575.173 269.278 572.899 268.544L573.513 270.837L585.961 267.502L584.943 263.701L577.757 265.627L577.757 265.627ZM586.207 263.363L587.225 267.163L601.277 263.398L600.259 259.597L586.207 263.363ZM613.973 255.923L601.523 259.259L602.541 263.059L614.991 259.723L613.973 255.923ZM612.396 271.113C612.481 268.84 615.203 267.43 617.231 268.084L616.646 265.901L604.175 269.242C604.59 272.544 598.897 274.07 597.605 271.003L588.881 273.34L589.899 277.141L612.396 271.113L612.396 271.113ZM588.953 278.668L576.505 282.003L577.405 285.362L589.051 279.033L588.953 278.668L588.953 278.668ZM576.187 280.816L588.635 277.48L587.617 273.679L575.168 277.015L576.187 280.816V280.816ZM566.886 273.887L567.904 277.688L573.586 276.165L572.568 272.364L566.886 273.887ZM573.831 272.026L574.85 275.827L587.298 272.491L586.28 268.69L573.831 272.026ZM587.544 268.351L588.562 272.153L597.442 269.773C597.708 267.778 600.211 266.462 602.277 267.129L601.596 264.586L587.544 268.351L587.544 268.351ZM615.31 260.912L602.86 264.248L603.878 268.049L616.328 264.713L615.31 260.912Z" fill="black"/>
<path d="M43.4296 515.355C36.6029 507.281 44.0577 493.69 51.2812 487.582C55.9552 483.63 65.4657 478.503 70.4959 484.452C78.7598 494.225 63.7879 512.714 53.1995 516.567L85.5365 554.809L108.36 508.547L67.0404 459.682C60.2137 451.608 67.3092 437.593 74.1078 431.844C79.2067 427.532 88.7172 422.405 94.1067 428.779C102.011 438.127 87.0394 456.617 76.8759 460.11L134.005 527.671L104.87 588.015L43.4296 515.355ZM88.0516 557.783L92.7225 563.307L115.187 516.62L110.516 511.096L88.0516 557.783Z" fill="black"/>
<path d="M50.2567 272.409C49.6481 272.904 48.8078 272.998 48.0586 273.2C43.2111 274.451 38.0461 274.465 33.4637 273.199C28.9822 272.072 25.0839 269.7 22.225 266.632C16.9682 261.02 15.5674 252.767 18.8369 245.535C19.4369 244.452 21.0798 243.9 22.2559 244.374C23.3667 244.762 23.9071 245.94 23.4547 246.959C22.3849 249.498 21.9754 252.189 22.2294 254.781C24.5711 256.382 27.3252 257.593 30.3483 258.099C34.2259 258.814 38.4508 258.416 42.3077 257.079C37.6782 239.769 33.0319 222.462 28.3992 205.153C28.1879 204.37 27.9457 203.592 27.8779 202.778C27.5345 200.453 28.2537 197.94 29.901 195.905C30.2918 195.435 30.5006 194.881 30.9302 194.43C33.7058 191.33 36.4767 188.226 39.2483 185.125C40.0495 184.139 41.6724 183.705 42.8572 184.158C46.3776 185.316 49.8966 186.477 53.4179 187.633C54.1708 187.9 54.9877 188.076 55.6481 188.487C56.149 188.785 56.7434 188.949 57.2587 189.228C59.5403 190.373 61.1946 192.327 61.801 194.577C62.3355 196.466 62.1426 198.553 61.2289 200.446C60.1214 202.897 57.7988 204.98 55.0085 206.076C52.4079 207.049 49.4121 207.313 46.9131 206.433C44.1212 209.571 39.105 211.012 34.993 210.002C39.1396 225.438 43.2679 240.878 47.4079 256.315C48.6681 260.979 49.8858 265.656 51.1774 270.311C51.3523 271.049 50.9545 271.889 50.2567 272.409ZM45.601 269.357C44.8775 266.65 44.1523 263.944 43.4255 261.238C37.1436 263.363 30.1314 263.318 24.3204 261.139C26.3398 264.429 29.6267 267.074 33.6408 268.524C35.171 269.005 36.7593 269.372 38.3811 269.626C40.7501 269.876 43.1973 269.823 45.601 269.357ZM56.4552 199.324C57.1861 197.905 57.2093 196.262 56.4595 194.956C55.8767 193.936 54.8698 193.11 53.6192 192.709C53.029 192.527 52.5942 192.12 51.9903 191.959C48.7037 190.894 45.432 189.798 42.145 188.731C39.7901 191.36 37.4423 193.996 35.0857 196.626C34.7397 197.032 34.575 197.52 34.2027 197.913C33.687 198.485 33.3074 199.142 33.0946 199.827C32.4628 201.689 33.1689 203.696 34.773 204.862C35.901 205.711 37.4849 206.101 39.0522 205.914C40.592 205.698 42.128 204.998 43.0838 203.863C43.7024 203.273 43.9596 202.45 44.7291 201.974C45.5904 201.391 46.8158 201.328 47.6587 201.793C48.9424 202.463 50.5341 202.836 52.11 202.457C54.0017 202.108 55.6759 200.86 56.4552 199.324Z" fill="black"/>
<path d="M53.2717 200.247C51.9617 200.998 50.105 200.514 49.665 199.308C49.171 198.217 50.0139 196.779 51.3808 196.387C52.6389 195.957 54.1002 196.517 54.4749 197.566C54.8762 198.502 54.3309 199.696 53.2717 200.247Z" fill="black"/>
<path d="M315.66 286.036L341.349 277.464C341.569 277.39 341.773 277.276 341.949 277.126C342.126 276.977 342.271 276.796 342.376 276.594C342.481 276.391 342.545 276.171 342.564 275.947C342.582 275.722 342.555 275.497 342.484 275.284L330.589 239.638L339.004 236.83C339.224 236.756 339.428 236.642 339.604 236.492C339.78 236.343 339.925 236.162 340.031 235.96C340.136 235.757 340.2 235.537 340.218 235.313C340.237 235.088 340.21 234.863 340.139 234.65L338.347 229.281C338.276 229.068 338.163 228.872 338.013 228.703C337.863 228.535 337.68 228.397 337.474 228.299C337.268 228.2 337.044 228.142 336.813 228.129C336.583 228.115 336.351 228.146 336.131 228.219L325.801 231.666C325.356 231.815 324.987 232.128 324.774 232.537C324.561 232.945 324.522 233.417 324.666 233.846L335.556 266.482L313.698 273.776L308.266 257.5L316.681 254.692C317.125 254.544 317.495 254.231 317.708 253.822C317.92 253.413 317.959 252.942 317.816 252.512L316.024 247.143C315.953 246.93 315.84 246.734 315.69 246.565C315.54 246.397 315.357 246.259 315.151 246.161C314.945 246.062 314.721 246.005 314.49 245.991C314.26 245.977 314.028 246.008 313.808 246.082L303.478 249.529C303.258 249.602 303.054 249.717 302.877 249.866C302.701 250.015 302.556 250.196 302.451 250.399C302.346 250.601 302.282 250.821 302.263 251.046C302.245 251.271 302.272 251.496 302.343 251.709L313.443 284.975C313.587 285.405 313.901 285.758 314.317 285.957C314.732 286.156 315.216 286.185 315.66 286.036Z" fill="black"/>
<path d="M574.475 550.436L537.975 540.656C540.199 543.183 541.163 546.734 540.231 550.215C538.747 555.752 533.025 559.046 527.474 557.559C521.924 556.072 518.616 550.358 520.099 544.821C521.582 539.285 527.305 535.991 532.855 537.478L563.926 545.803L571.344 518.12L545.844 511.287C548.068 513.814 549.033 517.364 548.1 520.846C546.617 526.383 540.894 529.677 535.344 528.19C529.794 526.703 526.485 520.988 527.968 515.452C529.452 509.916 535.174 506.622 540.724 508.109L582.796 519.382L574.475 550.436ZM521.789 545.274C520.554 549.881 523.307 554.636 527.926 555.874C532.545 557.111 537.307 554.369 538.541 549.763C539.775 545.156 537.022 540.401 532.404 539.163C527.785 537.925 523.023 540.666 521.789 545.274ZM529.658 515.905C528.423 520.512 531.177 525.267 535.795 526.505C540.414 527.742 545.176 525.001 546.41 520.394C547.645 515.787 544.891 511.032 540.273 509.794C535.654 508.557 530.892 511.298 529.658 515.905ZM565.616 546.256L573.237 548.298L580.655 520.615L573.034 518.573L565.616 546.256L565.616 546.256Z" fill="black"/>
<path fill-rule="evenodd" clip-rule="evenodd" d="M378.153 163.361C379.255 167.471 378.592 171.569 376.427 175.191L418.838 163.827C420.45 163.395 421.848 164.992 421.275 166.521L415.427 188.545C414.749 191.123 410.829 190.079 411.509 187.492L416.503 168.688L368.118 181.653C359.902 184.032 351.41 179.513 349.163 171.129C347.01 163.094 351.761 154.817 359.755 152.675C367.749 150.533 376.001 155.326 378.153 163.361V163.361Z" fill="black"/>
<path d="M588.298 219.844C589.492 217.273 590.107 214.593 590.039 212.275C589.977 210.125 589.253 207.428 586.783 206.282C584.313 205.136 581.787 206.325 580.104 207.666C578.29 209.111 576.642 211.311 575.449 213.883C574.256 216.454 573.64 219.134 573.708 221.452C573.771 223.602 574.495 226.3 576.964 227.445C579.434 228.591 581.961 227.402 583.643 226.062C585.457 224.617 587.105 222.416 588.298 219.844Z" stroke="black" stroke-width="5"/>
<path d="M167.996 569.286C165.495 574.053 168.006 579.704 172.689 582.162C177.373 584.619 183.45 583.473 185.951 578.706C188.452 573.939 185.941 568.288 181.258 565.831C176.574 563.373 170.497 564.519 167.996 569.286Z" fill="black" stroke="black" stroke-width="5"/>
<path d="M152.032 420.3C149.197 420.3 146.507 420.869 144.433 421.906C142.508 422.868 140.366 424.66 140.366 427.382C140.366 430.105 142.508 431.897 144.433 432.859C146.507 433.896 149.197 434.465 152.032 434.465C154.866 434.465 157.557 433.896 159.63 432.859C161.555 431.897 163.697 430.105 163.697 427.382C163.697 424.66 161.555 422.868 159.63 421.906C157.557 420.869 154.866 420.3 152.032 420.3Z" stroke="black" stroke-width="5"/>
</svg>
