<svg width="79" height="79" viewBox="0 0 79 79" fill="none" xmlns="http://www.w3.org/2000/svg">
<path d="M39.5 45.295C42.6979 45.295 45.295 42.6979 45.295 39.5C45.295 36.3021 42.6979 33.705 39.5 33.705C36.3005 33.705 33.705 36.3021 33.705 39.5C33.705 42.6979 36.3005 45.295 39.5 45.295ZM52.0116 28.3231C53.7579 28.3231 55.1683 26.9094 55.1683 25.1681C55.1683 23.4235 53.7579 22.013 52.0116 22.013C50.2703 22.013 48.8582 23.4235 48.8582 25.1681C48.8582 26.9094 50.2703 28.3231 52.0116 28.3231ZM51.09 39.5C51.09 45.9006 45.9006 51.09 39.5 51.09C33.0994 51.09 27.91 45.9006 27.91 39.5C27.91 38.1537 28.152 36.8634 28.575 35.6586H22.9725V51.3681C22.9725 54.0804 25.1928 56.3007 27.9068 56.3007H50.272C52.9843 56.3007 55.2045 54.0804 55.2045 51.3681V30.7211H47.0544C49.5215 32.8475 51.09 35.9878 51.09 39.5ZM39.5 0C17.6845 0 0 17.6845 0 39.5C0 61.3155 17.6845 79 39.5 79C61.3155 79 79 61.3155 79 39.5C79 17.6845 61.3155 0 39.5 0ZM60.5897 55.5172C60.5897 59.1364 57.6289 62.1006 54.0064 62.1006H24.1691C20.5482 62.1006 17.5857 59.1364 17.5857 55.5172V25.6766C17.5857 22.0542 20.5482 19.0933 24.1691 19.0933H54.0097C57.6289 19.0933 60.593 22.0542 60.593 25.6766V55.5172H60.5897Z" fill="white"/>
</svg>
