<?xml version="1.0" encoding="UTF-8" standalone="no"?>
<svg
   xmlns:dc="http://purl.org/dc/elements/1.1/"
   xmlns:cc="http://creativecommons.org/ns#"
   xmlns:rdf="http://www.w3.org/1999/02/22-rdf-syntax-ns#"
   xmlns:svg="http://www.w3.org/2000/svg"
   xmlns="http://www.w3.org/2000/svg"
   xmlns:sodipodi="http://sodipodi.sourceforge.net/DTD/sodipodi-0.dtd"
   xmlns:inkscape="http://www.inkscape.org/namespaces/inkscape"
   version="1.1"
   id="svg2"
   xml:space="preserve"
   width="4329"
   height="2666.6667"
   viewBox="0 0 4329 2666.6667"
   sodipodi:docname="iStock-1301227153.eps"><metadata
     id="metadata8"><rdf:RDF><cc:Work
         rdf:about=""><dc:format>image/svg+xml</dc:format><dc:type
           rdf:resource="http://purl.org/dc/dcmitype/StillImage" /></cc:Work></rdf:RDF></metadata><defs
     id="defs6" /><sodipodi:namedview
     pagecolor="#ffffff"
     bordercolor="#666666"
     borderopacity="1"
     objecttolerance="10"
     gridtolerance="10"
     guidetolerance="10"
     inkscape:pageopacity="0"
     inkscape:pageshadow="2"
     inkscape:window-width="640"
     inkscape:window-height="480"
     id="namedview4" /><g
     id="g10"
     inkscape:groupmode="layer"
     inkscape:label="ink_ext_XXXXXX"
     transform="matrix(1.3333333,0,0,-1.3333333,0,2666.6667)"><g
       id="g12"
       transform="scale(0.1)"><path
         d="M 32467.5,0 H 0 V 20000 H 32467.5 V 0"
         style="fill:#ffffff;fill-opacity:1;fill-rule:nonzero;stroke:none"
         id="path14" /><path
         d="m 19802,11780.1 h -2372.8 c -7.2,0 -14.2,2.9 -19.3,8 L 15347,13851 h -4732.3 c -15.1,0 -27.3,12.3 -27.3,27.3 0,15.1 12.2,27.3 27.3,27.3 h 4743.6 c 7.2,0 14.1,-2.9 19.2,-8 l 2063,-2063 h 2350.2 l 337.8,337.8 c 10.7,10.7 28,10.7 38.6,0 10.7,-10.6 10.7,-27.9 0,-38.5 l -345.8,-345.8 c -5.1,-5.1 -12,-8 -19.3,-8"
         style="fill:#100f0d;fill-opacity:1;fill-rule:nonzero;stroke:none"
         id="path16" /><path
         d="M 19619.9,12204.3 H 17665 c -7.3,0 -14.2,2.9 -19.3,8 L 16089,13769 c -10.7,10.7 -10.7,27.9 0,38.6 10.6,10.6 27.9,10.6 38.5,0 l 1548.8,-1548.7 h 1943.6 c 15.1,0 27.3,-12.3 27.3,-27.3 0,-15.1 -12.2,-27.3 -27.3,-27.3"
         style="fill:#100f0d;fill-opacity:1;fill-rule:nonzero;stroke:none"
         id="path18" /><path
         d="m 20185,12641.4 h -2204.7 c -7.2,0 -14.1,2.8 -19.3,7.9 l -1776,1776 h -6150.4 c -15.1,0 -27.3,12.2 -27.3,27.3 0,15.1 12.2,27.3 27.3,27.3 h 6161.7 c 7.3,0 14.2,-2.9 19.3,-8 l 1776,-1776 H 20185 c 15,0 27.2,-12.2 27.2,-27.3 0,-15 -12.2,-27.2 -27.2,-27.2"
         style="fill:#100f0d;fill-opacity:1;fill-rule:nonzero;stroke:none"
         id="path20" /><path
         d="m 27051.2,10885.4 c -7,0 -13.9,2.7 -19.3,8 l -1739,1739 h -2687.5 c -7.2,0 -14.1,2.9 -19.2,8 l -1152.5,1152.5 H 17778 c -15.1,0 -27.3,12.2 -27.3,27.3 0,15 12.2,27.2 27.3,27.2 h 3667 c 7.2,0 14.2,-2.8 19.3,-7.9 L 22616.7,12687 h 2687.5 c 7.3,0 14.2,-2.9 19.3,-8 l 1747,-1747 c 10.7,-10.6 10.7,-27.9 0,-38.6 -5.3,-5.3 -12.3,-8 -19.3,-8"
         style="fill:#100f0d;fill-opacity:1;fill-rule:nonzero;stroke:none"
         id="path22" /><path
         d="m 13638.6,15922.1 c -7,0 -14,2.6 -19.3,8 l -1488.9,1488.8 H 9411.04 l -289.02,-289 c -5.12,-5.1 -12.05,-8 -19.29,-8 H 5781.45 l -490.07,-490 c -8.08,-8.1 -20.34,-10.3 -30.68,-5.5 l -1204.1,553.7 -276.26,-276.2 c -10.65,-10.7 -27.92,-10.7 -38.57,0 -10.65,10.6 -10.65,27.9 0,38.5 l 289.68,289.7 c 8.08,8.1 20.32,10.3 30.68,5.5 l 1204.1,-553.7 484.63,484.6 c 5.12,5.1 12.05,8 19.29,8 h 3321.28 l 289.02,289 c 5.12,5.1 12.06,8 19.29,8 h 2741.96 c 7.2,0 14.2,-2.9 19.3,-8 l 1496.9,-1496.9 c 10.6,-10.6 10.6,-27.9 0,-38.5 -5.4,-5.4 -12.3,-8 -19.3,-8"
         style="fill:#100f0d;fill-opacity:1;fill-rule:nonzero;stroke:none"
         id="path24" /><path
         d="m 12934.5,15898.1 c -7,0 -14,2.6 -19.3,8 l -1115.4,1115.3 H 9620.28 l -289.02,-289 c -5.11,-5.1 -12.05,-8 -19.28,-8 H 6041 l -490.07,-490.1 c -7.74,-7.7 -19.35,-10.1 -29.5,-6 l -1058.54,427.2 -347.59,-293.4 c -11.51,-9.7 -28.72,-8.3 -38.44,3.2 -9.71,11.5 -8.25,28.8 3.26,38.5 l 360.14,303.9 c 7.73,6.6 18.42,8.3 27.8,4.5 l 1057.05,-426.5 485.3,485.2 c 5.12,5.2 12.05,8 19.29,8 h 3270.98 l 289.02,289.1 c 5.11,5.1 12.05,7.9 19.28,7.9 h 2202.12 c 7.3,0 14.2,-2.8 19.3,-7.9 l 1123.4,-1123.4 c 10.6,-10.6 10.6,-27.9 0,-38.5 -5.4,-5.4 -12.3,-8 -19.3,-8"
         style="fill:#100f0d;fill-opacity:1;fill-rule:nonzero;stroke:none"
         id="path26" /><path
         d="m 14601,16577.8 c -15,0 -27.2,12.2 -27.2,27.2 v 351.5 c 0,7.2 2.9,14.2 8,19.3 l 638.8,638.9 v 761.1 l -574.9,528.6 c -11.1,10.2 -11.8,27.4 -1.6,38.5 10.2,11.1 27.5,11.8 38.6,1.6 l 583.7,-536.6 c 5.6,-5.2 8.8,-12.5 8.8,-20.1 v -784.4 c 0,-7.3 -2.9,-14.2 -8,-19.3 l -638.9,-638.9 V 16605 c 0,-15 -12.2,-27.2 -27.3,-27.2"
         style="fill:#100f0d;fill-opacity:1;fill-rule:nonzero;stroke:none"
         id="path28" /><path
         d="m 15247.9,16577.8 c -15,0 -27.3,12.2 -27.3,27.2 v 351.5 c 0,7.2 2.9,14.2 8,19.3 l 315,314.9 v 1078.2 l -576.3,529.8 c -11.1,10.2 -11.8,27.5 -1.6,38.6 10.2,11.1 27.5,11.8 38.6,1.6 l 585,-538 c 5.6,-5.2 8.8,-12.4 8.8,-20.1 v -1101.4 c 0,-7.2 -2.9,-14.2 -8,-19.3 l -314.9,-314.9 V 16605 c 0,-15 -12.2,-27.2 -27.3,-27.2"
         style="fill:#100f0d;fill-opacity:1;fill-rule:nonzero;stroke:none"
         id="path30" /><path
         d="m 17175,16577.8 c -15.1,0 -27.3,12.2 -27.3,27.2 v 340.2 l -638.9,638.9 c -5.1,5.1 -8,12 -8,19.3 v 773.5 l -504,528.7 c -10.4,10.9 -9.9,28.2 1,38.6 10.9,10.4 28.1,10 38.5,-0.9 l 511.5,-536.7 c 4.9,-5.1 7.6,-11.8 7.6,-18.8 v -773.1 l 638.8,-638.9 c 5.2,-5.1 8,-12.1 8,-19.3 V 16605 c 0,-15 -12.2,-27.2 -27.2,-27.2"
         style="fill:#100f0d;fill-opacity:1;fill-rule:nonzero;stroke:none"
         id="path32" /><path
         d="m 16528.1,16577.8 c -15.1,0 -27.3,12.2 -27.3,27.2 v 340.2 l -314.9,314.9 c -5.1,5.1 -8,12.1 -8,19.3 v 1090.5 l -502.7,530.1 c -10.4,11 -9.9,28.2 1,38.6 10.9,10.4 28.2,9.9 38.6,-1 l 510.2,-538 c 4.8,-5.1 7.4,-11.8 7.4,-18.8 v -1090.1 l 315,-314.9 c 5.1,-5.1 8,-12.1 8,-19.3 V 16605 c 0,-15 -12.3,-27.2 -27.3,-27.2"
         style="fill:#100f0d;fill-opacity:1;fill-rule:nonzero;stroke:none"
         id="path34" /><path
         d="m 15919.8,16577.8 c -15,0 -27.2,12.2 -27.2,27.2 v 1774.3 l -565.2,518.8 c -11.1,10.2 -11.9,27.5 -1.7,38.6 10.2,11.1 27.5,11.8 38.6,1.6 l 574,-526.9 c 5.6,-5.2 8.8,-12.5 8.8,-20.1 V 16605 c 0,-15 -12.2,-27.2 -27.3,-27.2"
         style="fill:#100f0d;fill-opacity:1;fill-rule:nonzero;stroke:none"
         id="path36" /><path
         d="m 26612.1,10395.7 c -7,0 -14,2.7 -19.3,8 l -1708.3,1708.4 h -2370.6 c -7.2,0 -14.1,2.8 -19.3,8 l -1098.5,1098.5 h -3155.2 c -15.1,0 -27.3,12.2 -27.3,27.3 0,15 12.2,27.3 27.3,27.3 h 3166.5 c 7.2,0 14.2,-2.9 19.3,-8 l 1098.5,-1098.6 h 2370.6 c 7.2,0 14.1,-2.8 19.2,-8 l 1716.4,-1716.3 c 10.6,-10.7 10.6,-27.9 0,-38.6 -5.3,-5.3 -12.3,-8 -19.3,-8"
         style="fill:#100f0d;fill-opacity:1;fill-rule:nonzero;stroke:none"
         id="path38" /><path
         d="M 25367.1,13236.3 H 22820 c -7.2,0 -14.2,2.9 -19.3,8 l -1122.9,1122.9 h -4543.6 c -15,0 -27.2,12.2 -27.2,27.3 0,15 12.2,27.2 27.2,27.2 h 4554.9 c 7.2,0 14.2,-2.8 19.3,-7.9 l 1122.9,-1122.9 h 2535.8 c 15.1,0 27.3,-12.3 27.3,-27.3 0,-15.1 -12.2,-27.3 -27.3,-27.3"
         style="fill:#100f0d;fill-opacity:1;fill-rule:nonzero;stroke:none"
         id="path40" /><path
         d="m 5088.09,14269.2 c -6.98,0 -13.96,2.6 -19.29,8 -10.65,10.6 -10.65,27.9 0,38.5 l 1551.51,1551.5 c 5.12,5.2 12.06,8 19.29,8 h 3841.5 c 15.1,0 27.3,-12.2 27.3,-27.2 0,-15.1 -12.2,-27.3 -27.3,-27.3 H 6650.9 L 5107.38,14277.2 c -5.33,-5.4 -12.31,-8 -19.29,-8"
         style="fill:#100f0d;fill-opacity:1;fill-rule:nonzero;stroke:none"
         id="path42" /><path
         d="m 5169.68,14744.3 c -6.98,0 -13.96,2.7 -19.29,8 -10.65,10.7 -10.65,27.9 0,38.6 l 1363.49,1363.5 c 5.12,5.1 12.06,8 19.29,8 h 3275.54 l 297.69,297.7 c 5.2,5.1 12.1,8 19.3,8 h 941.6 c 7.2,0 14.2,-2.9 19.3,-8 l 493.6,-493.5 c 10.6,-10.7 10.6,-28 0,-38.6 -10.7,-10.7 -28,-10.7 -38.6,0 l -485.6,485.6 h -919 l -297.71,-297.8 c -5.12,-5.1 -12.05,-8 -19.29,-8 H 6544.47 L 5188.96,14752.3 c -5.32,-5.3 -12.3,-8 -19.28,-8"
         style="fill:#100f0d;fill-opacity:1;fill-rule:nonzero;stroke:none"
         id="path44" /><path
         d="m 5805.5,15797.3 c -3.23,0 -6.5,0.6 -9.64,1.8 L 4736.1,16199.8 4403.31,15867 c -10.66,-10.6 -27.92,-10.6 -38.57,0 -10.65,10.7 -10.65,27.9 0,38.6 l 345.24,345.3 c 7.58,7.5 18.9,10 28.94,6.2 l 1059.76,-400.8 617.05,617.1 c 5.11,5.1 12.05,8 19.28,8 h 3196.7 l 239.69,239.7 c 5.12,5.1 12.05,8 19.29,8 h 1588.11 c 7.2,0 14.1,-2.9 19.3,-8 l 759.6,-759.6 c 10.6,-10.7 10.6,-28 0,-38.6 -10.7,-10.7 -28,-10.7 -38.6,0 l -751.6,751.6 H 9901.99 l -239.7,-239.7 c -5.11,-5.1 -12.05,-8 -19.28,-8 h -3196.7 l -621.52,-621.5 c -5.21,-5.2 -12.18,-8 -19.29,-8"
         style="fill:#100f0d;fill-opacity:1;fill-rule:nonzero;stroke:none"
         id="path46" /><path
         d="m 10600.3,15939.9 c -50.6,0 -91.9,-41.3 -91.9,-91.9 0,-50.7 41.3,-92 91.9,-92 50.7,0 92,41.3 92,92 0,50.6 -41.3,91.9 -92,91.9 z m 0,-238.4 c -80.7,0 -146.4,65.7 -146.4,146.5 0,80.7 65.7,146.4 146.4,146.4 80.8,0 146.5,-65.7 146.5,-146.4 0,-80.8 -65.7,-146.5 -146.5,-146.5"
         style="fill:#100f0d;fill-opacity:1;fill-rule:nonzero;stroke:none"
         id="path48" /><path
         d="m 9915.35,14544.5 c -50.69,0 -91.92,-41.2 -91.92,-91.9 0,-50.7 41.23,-91.9 91.92,-91.9 50.69,0 91.95,41.2 91.95,91.9 0,50.7 -41.26,91.9 -91.95,91.9 z m 0,-238.4 c -80.77,0 -146.47,65.7 -146.47,146.5 0,80.8 65.7,146.5 146.47,146.5 80.77,0 146.45,-65.7 146.45,-146.5 0,-80.8 -65.68,-146.5 -146.45,-146.5"
         style="fill:#100f0d;fill-opacity:1;fill-rule:nonzero;stroke:none"
         id="path50" /><path
         d="m 10485.4,13974.5 c -50.7,0 -91.9,-41.2 -91.9,-91.9 0,-50.7 41.2,-92 91.9,-92 50.7,0 91.9,41.3 91.9,92 0,50.7 -41.2,91.9 -91.9,91.9 z m 0,-238.4 c -80.8,0 -146.5,65.7 -146.5,146.5 0,80.7 65.7,146.4 146.5,146.4 80.8,0 146.5,-65.7 146.5,-146.4 0,-80.8 -65.7,-146.5 -146.5,-146.5"
         style="fill:#100f0d;fill-opacity:1;fill-rule:nonzero;stroke:none"
         id="path52" /><path
         d="m 11560.9,15916.5 c -50.7,0 -92,-41.2 -92,-91.9 0,-50.7 41.3,-91.9 92,-91.9 50.7,0 91.9,41.2 91.9,91.9 0,50.7 -41.2,91.9 -91.9,91.9 z m 0,-238.4 c -80.8,0 -146.5,65.7 -146.5,146.5 0,80.8 65.7,146.5 146.5,146.5 80.7,0 146.4,-65.7 146.4,-146.5 0,-80.8 -65.7,-146.5 -146.4,-146.5"
         style="fill:#100f0d;fill-opacity:1;fill-rule:nonzero;stroke:none"
         id="path54" /><path
         d="m 11912.9,12182.7 c -50.7,0 -91.9,-41.2 -91.9,-91.9 0,-50.7 41.2,-92 91.9,-92 50.7,0 91.9,41.3 91.9,92 0,50.7 -41.2,91.9 -91.9,91.9 z m 0,-238.4 c -80.8,0 -146.5,65.7 -146.5,146.5 0,80.7 65.7,146.4 146.5,146.4 80.8,0 146.5,-65.7 146.5,-146.4 0,-80.8 -65.7,-146.5 -146.5,-146.5"
         style="fill:#100f0d;fill-opacity:1;fill-rule:nonzero;stroke:none"
         id="path56" /><path
         d="m 14825.8,11666.7 c -50.7,0 -92,-41.3 -92,-92 0,-50.7 41.3,-91.9 92,-91.9 50.7,0 91.9,41.2 91.9,91.9 0,50.7 -41.2,92 -91.9,92 z m 0,-238.4 c -80.8,0 -146.5,65.7 -146.5,146.4 0,80.8 65.7,146.5 146.5,146.5 80.7,0 146.4,-65.7 146.4,-146.5 0,-80.7 -65.7,-146.4 -146.4,-146.4"
         style="fill:#100f0d;fill-opacity:1;fill-rule:nonzero;stroke:none"
         id="path58" /><path
         d="m 13951.5,12316.5 c -50.7,0 -91.9,-41.2 -91.9,-91.9 0,-50.7 41.2,-92 91.9,-92 50.7,0 91.9,41.3 91.9,92 0,50.7 -41.2,91.9 -91.9,91.9 z m 0,-238.4 c -80.8,0 -146.5,65.7 -146.5,146.5 0,80.7 65.7,146.4 146.5,146.4 80.8,0 146.5,-65.7 146.5,-146.4 0,-80.8 -65.7,-146.5 -146.5,-146.5"
         style="fill:#100f0d;fill-opacity:1;fill-rule:nonzero;stroke:none"
         id="path60" /><path
         d="m 13169.8,12316.5 c -50.7,0 -91.9,-41.2 -91.9,-91.9 0,-50.7 41.2,-92 91.9,-92 50.7,0 92,41.3 92,92 0,50.7 -41.3,91.9 -92,91.9 z m 0,-238.4 c -80.7,0 -146.4,65.7 -146.4,146.5 0,80.7 65.7,146.4 146.4,146.4 80.8,0 146.5,-65.7 146.5,-146.4 0,-80.8 -65.7,-146.5 -146.5,-146.5"
         style="fill:#100f0d;fill-opacity:1;fill-rule:nonzero;stroke:none"
         id="path62" /><path
         d="m 12959.4,10125.4 c -50.7,0 -91.9,-41.2 -91.9,-91.9 0,-50.7 41.2,-91.9 91.9,-91.9 50.7,0 92,41.2 92,91.9 0,50.7 -41.3,91.9 -92,91.9 z m 0,-238.4 c -80.7,0 -146.4,65.7 -146.4,146.5 0,80.8 65.7,146.5 146.4,146.5 80.8,0 146.5,-65.7 146.5,-146.5 0,-80.8 -65.7,-146.5 -146.5,-146.5"
         style="fill:#100f0d;fill-opacity:1;fill-rule:nonzero;stroke:none"
         id="path64" /><path
         d="m 12409.6,9530.1 c -50.6,0 -91.9,-41.2 -91.9,-91.9 0,-50.7 41.3,-91.9 91.9,-91.9 50.7,0 92,41.2 92,91.9 0,50.7 -41.3,91.9 -92,91.9 z m 0,-238.4 c -80.7,0 -146.4,65.7 -146.4,146.5 0,80.8 65.7,146.5 146.4,146.5 80.8,0 146.5,-65.7 146.5,-146.5 0,-80.8 -65.7,-146.5 -146.5,-146.5"
         style="fill:#100f0d;fill-opacity:1;fill-rule:nonzero;stroke:none"
         id="path66" /><path
         d="m 11779.8,9026.6 c -50.7,0 -91.9,-41.2 -91.9,-91.9 0,-50.7 41.2,-91.9 91.9,-91.9 50.7,0 92,41.2 92,91.9 0,50.7 -41.3,91.9 -92,91.9 z m 0,-238.4 c -80.7,0 -146.5,65.8 -146.5,146.5 0,80.8 65.8,146.5 146.5,146.5 80.8,0 146.5,-65.7 146.5,-146.5 0,-80.7 -65.7,-146.5 -146.5,-146.5"
         style="fill:#100f0d;fill-opacity:1;fill-rule:nonzero;stroke:none"
         id="path68" /><path
         d="m 11646.8,9899.1 c -50.6,0 -91.9,-41.3 -91.9,-91.9 0,-50.7 41.3,-92 91.9,-92 50.7,0 92,41.3 92,92 0,50.6 -41.3,91.9 -92,91.9 z m 0,-238.4 c -80.7,0 -146.4,65.7 -146.4,146.5 0,80.7 65.7,146.4 146.4,146.4 80.8,0 146.5,-65.7 146.5,-146.4 0,-80.8 -65.7,-146.5 -146.5,-146.5"
         style="fill:#100f0d;fill-opacity:1;fill-rule:nonzero;stroke:none"
         id="path70" /><path
         d="m 11408.4,11463.7 c -50.7,0 -91.9,-41.2 -91.9,-91.9 0,-50.7 41.2,-91.9 91.9,-91.9 50.7,0 92,41.2 92,91.9 0,50.7 -41.3,91.9 -92,91.9 z m 0,-238.4 c -80.7,0 -146.4,65.7 -146.4,146.5 0,80.7 65.7,146.5 146.4,146.5 80.8,0 146.5,-65.8 146.5,-146.5 0,-80.8 -65.7,-146.5 -146.5,-146.5"
         style="fill:#100f0d;fill-opacity:1;fill-rule:nonzero;stroke:none"
         id="path72" /><path
         d="m 10527.3,11535.5 c -50.7,0 -92,-41.3 -92,-91.9 0,-50.7 41.3,-92 92,-92 50.7,0 91.9,41.3 91.9,92 0,50.6 -41.2,91.9 -91.9,91.9 z m 0,-238.4 c -80.8,0 -146.5,65.7 -146.5,146.5 0,80.7 65.7,146.4 146.5,146.4 80.7,0 146.4,-65.7 146.4,-146.4 0,-80.8 -65.7,-146.5 -146.4,-146.5"
         style="fill:#100f0d;fill-opacity:1;fill-rule:nonzero;stroke:none"
         id="path74" /><path
         d="m 8784.74,11442.8 c -50.69,0 -91.93,-41.2 -91.93,-91.9 0,-50.7 41.24,-91.9 91.93,-91.9 50.68,0 91.92,41.2 91.92,91.9 0,50.7 -41.24,91.9 -91.92,91.9 z m 0,-238.4 c -80.77,0 -146.48,65.7 -146.48,146.5 0,80.8 65.71,146.5 146.48,146.5 80.76,0 146.47,-65.7 146.47,-146.5 0,-80.8 -65.71,-146.5 -146.47,-146.5"
         style="fill:#100f0d;fill-opacity:1;fill-rule:nonzero;stroke:none"
         id="path76" /><path
         d="m 10662.1,10582.2 c -50.7,0 -91.9,-41.3 -91.9,-91.9 0,-50.7 41.2,-92 91.9,-92 50.7,0 91.9,41.3 91.9,92 0,50.6 -41.2,91.9 -91.9,91.9 z m 0,-238.4 c -80.8,0 -146.5,65.7 -146.5,146.5 0,80.7 65.7,146.4 146.5,146.4 80.7,0 146.5,-65.7 146.5,-146.4 0,-80.8 -65.8,-146.5 -146.5,-146.5"
         style="fill:#100f0d;fill-opacity:1;fill-rule:nonzero;stroke:none"
         id="path78" /><path
         d="m 7026.92,7460.8 c -50.69,0 -91.93,-41.3 -91.93,-92 0,-50.7 41.24,-91.9 91.93,-91.9 50.69,0 91.93,41.2 91.93,91.9 0,50.7 -41.24,92 -91.93,92 z m 0,-238.5 c -80.77,0 -146.48,65.8 -146.48,146.5 0,80.8 65.71,146.5 146.48,146.5 80.76,0 146.48,-65.7 146.48,-146.5 0,-80.7 -65.72,-146.5 -146.48,-146.5"
         style="fill:#100f0d;fill-opacity:1;fill-rule:nonzero;stroke:none"
         id="path80" /><path
         d="m 8423.1,11204.4 c -50.69,0 -91.92,-41.2 -91.92,-91.9 0,-50.7 41.23,-91.9 91.92,-91.9 50.69,0 91.93,41.2 91.93,91.9 0,50.7 -41.24,91.9 -91.93,91.9 z m 0,-238.4 c -80.77,0 -146.47,65.7 -146.47,146.5 0,80.8 65.7,146.5 146.47,146.5 80.77,0 146.48,-65.7 146.48,-146.5 0,-80.8 -65.71,-146.5 -146.48,-146.5"
         style="fill:#100f0d;fill-opacity:1;fill-rule:nonzero;stroke:none"
         id="path82" /><path
         d="m 11527.6,10463 c -50.6,0 -91.9,-41.3 -91.9,-92 0,-50.6 41.3,-91.9 91.9,-91.9 50.7,0 92,41.3 92,91.9 0,50.7 -41.3,92 -92,92 z m 0,-238.4 c -80.7,0 -146.4,65.7 -146.4,146.4 0,80.8 65.7,146.5 146.4,146.5 80.8,0 146.5,-65.7 146.5,-146.5 0,-80.7 -65.7,-146.4 -146.5,-146.4"
         style="fill:#100f0d;fill-opacity:1;fill-rule:nonzero;stroke:none"
         id="path84" /><path
         d="m 7026.92,6742.2 c -50.69,0 -91.93,-41.2 -91.93,-91.9 0,-50.7 41.24,-92 91.93,-92 50.69,0 91.93,41.3 91.93,92 0,50.7 -41.24,91.9 -91.93,91.9 z m 0,-238.4 c -80.77,0 -146.48,65.7 -146.48,146.5 0,80.7 65.71,146.4 146.48,146.4 80.76,0 146.48,-65.7 146.48,-146.4 0,-80.8 -65.72,-146.5 -146.48,-146.5"
         style="fill:#100f0d;fill-opacity:1;fill-rule:nonzero;stroke:none"
         id="path86" /><path
         d="m 4396.93,8332.8 c -50.69,0 -91.92,-41.3 -91.92,-92 0,-50.7 41.23,-91.9 91.92,-91.9 50.69,0 91.93,41.2 91.93,91.9 0,50.7 -41.24,92 -91.93,92 z m 0,-238.4 c -80.76,0 -146.47,65.7 -146.47,146.4 0,80.8 65.71,146.5 146.47,146.5 80.77,0 146.48,-65.7 146.48,-146.5 0,-80.7 -65.71,-146.4 -146.48,-146.4"
         style="fill:#100f0d;fill-opacity:1;fill-rule:nonzero;stroke:none"
         id="path88" /><path
         d="m 2836.31,8060.1 c -50.69,0 -91.93,-41.2 -91.93,-91.9 0,-50.7 41.24,-91.9 91.93,-91.9 50.69,0 91.92,41.2 91.92,91.9 0,50.7 -41.23,91.9 -91.92,91.9 z m 0,-238.4 c -80.77,0 -146.48,65.7 -146.48,146.5 0,80.8 65.71,146.5 146.48,146.5 80.76,0 146.47,-65.7 146.47,-146.5 0,-80.8 -65.71,-146.5 -146.47,-146.5"
         style="fill:#100f0d;fill-opacity:1;fill-rule:nonzero;stroke:none"
         id="path90" /><path
         d="m 1812.42,12242.7 c -50.69,0 -91.92,-41.3 -91.92,-92 0,-50.6 41.23,-91.9 91.92,-91.9 50.69,0 91.93,41.3 91.93,91.9 0,50.7 -41.24,92 -91.93,92 z m 0,-238.4 c -80.77,0 -146.47,65.7 -146.47,146.4 0,80.8 65.7,146.5 146.47,146.5 80.77,0 146.48,-65.7 146.48,-146.5 0,-80.7 -65.71,-146.4 -146.48,-146.4"
         style="fill:#100f0d;fill-opacity:1;fill-rule:nonzero;stroke:none"
         id="path92" /><path
         d="m 1278.17,11494.6 c -50.69,0 -91.93,-41.2 -91.93,-91.9 0,-50.7 41.24,-92 91.93,-92 50.69,0 91.92,41.3 91.92,92 0,50.7 -41.23,91.9 -91.92,91.9 z m 0,-238.4 c -80.77,0 -146.48,65.7 -146.48,146.5 0,80.7 65.71,146.4 146.48,146.4 80.76,0 146.47,-65.7 146.47,-146.4 0,-80.8 -65.71,-146.5 -146.47,-146.5"
         style="fill:#100f0d;fill-opacity:1;fill-rule:nonzero;stroke:none"
         id="path94" /><path
         d="m 2537.93,12593.4 c -50.68,0 -91.92,-41.3 -91.92,-92 0,-50.7 41.24,-91.9 91.92,-91.9 50.69,0 91.93,41.2 91.93,91.9 0,50.7 -41.24,92 -91.93,92 z m 0,-238.5 c -80.76,0 -146.48,65.8 -146.48,146.5 0,80.8 65.72,146.5 146.48,146.5 80.77,0 146.48,-65.7 146.48,-146.5 0,-80.7 -65.71,-146.5 -146.48,-146.5"
         style="fill:#100f0d;fill-opacity:1;fill-rule:nonzero;stroke:none"
         id="path96" /><path
         d="m 5124.64,13170.7 c -50.69,0 -91.92,-41.2 -91.92,-91.9 0,-50.7 41.23,-91.9 91.92,-91.9 50.69,0 91.93,41.2 91.93,91.9 0,50.7 -41.24,91.9 -91.93,91.9 z m 0,-238.4 c -80.76,0 -146.47,65.8 -146.47,146.5 0,80.8 65.71,146.5 146.47,146.5 80.77,0 146.48,-65.7 146.48,-146.5 0,-80.7 -65.71,-146.5 -146.48,-146.5"
         style="fill:#100f0d;fill-opacity:1;fill-rule:nonzero;stroke:none"
         id="path98" /><path
         d="m 5088.09,14782.9 c -50.69,0 -91.92,-41.2 -91.92,-91.9 0,-50.7 41.23,-91.9 91.92,-91.9 50.69,0 91.93,41.2 91.93,91.9 0,50.7 -41.24,91.9 -91.93,91.9 z m 0,-238.4 c -80.77,0 -146.47,65.8 -146.47,146.5 0,80.8 65.7,146.5 146.47,146.5 80.77,0 146.48,-65.7 146.48,-146.5 0,-80.7 -65.71,-146.5 -146.48,-146.5"
         style="fill:#100f0d;fill-opacity:1;fill-rule:nonzero;stroke:none"
         id="path100" /><path
         d="m 5005.44,14325.4 c -50.68,0 -91.92,-41.3 -91.92,-92 0,-50.6 41.24,-91.9 91.92,-91.9 50.69,0 91.93,41.3 91.93,91.9 0,50.7 -41.24,92 -91.93,92 z m 0,-238.4 c -80.76,0 -146.48,65.7 -146.48,146.4 0,80.8 65.72,146.5 146.48,146.5 80.77,0 146.48,-65.7 146.48,-146.5 0,-80.7 -65.71,-146.4 -146.48,-146.4"
         style="fill:#100f0d;fill-opacity:1;fill-rule:nonzero;stroke:none"
         id="path102" /><path
         d="m 4680.37,15325.8 c -50.69,0 -91.92,-41.3 -91.92,-92 0,-50.6 41.23,-91.9 91.92,-91.9 50.69,0 91.93,41.3 91.93,91.9 0,50.7 -41.24,92 -91.93,92 z m 0,-238.4 c -80.77,0 -146.47,65.7 -146.47,146.4 0,80.8 65.7,146.5 146.47,146.5 80.77,0 146.48,-65.7 146.48,-146.5 0,-80.7 -65.71,-146.4 -146.48,-146.4"
         style="fill:#100f0d;fill-opacity:1;fill-rule:nonzero;stroke:none"
         id="path104" /><path
         d="m 4297.66,15898.1 c -50.69,0 -91.93,-41.3 -91.93,-92 0,-50.7 41.24,-91.9 91.93,-91.9 50.69,0 91.92,41.2 91.92,91.9 0,50.7 -41.23,92 -91.92,92 z m 0,-238.4 c -80.77,0 -146.48,65.7 -146.48,146.4 0,80.8 65.71,146.5 146.48,146.5 80.77,0 146.48,-65.7 146.48,-146.5 0,-80.7 -65.71,-146.4 -146.48,-146.4"
         style="fill:#100f0d;fill-opacity:1;fill-rule:nonzero;stroke:none"
         id="path106" /><path
         d="m 3991.56,16374 c -50.69,0 -91.93,-41.2 -91.93,-91.9 0,-50.7 41.24,-91.9 91.93,-91.9 50.69,0 91.93,41.2 91.93,91.9 0,50.7 -41.24,91.9 -91.93,91.9 z m 0,-238.3 c -80.77,0 -146.48,65.7 -146.48,146.4 0,80.8 65.71,146.5 146.48,146.5 80.76,0 146.48,-65.7 146.48,-146.5 0,-80.7 -65.72,-146.4 -146.48,-146.4"
         style="fill:#100f0d;fill-opacity:1;fill-rule:nonzero;stroke:none"
         id="path108" /><path
         d="m 3667.95,16912.9 c -50.69,0 -91.93,-41.2 -91.93,-91.9 0,-50.7 41.24,-91.9 91.93,-91.9 50.69,0 91.93,41.2 91.93,91.9 0,50.7 -41.24,91.9 -91.93,91.9 z m 0,-238.4 c -80.77,0 -146.48,65.7 -146.48,146.5 0,80.7 65.71,146.4 146.48,146.4 80.77,0 146.48,-65.7 146.48,-146.4 0,-80.8 -65.71,-146.5 -146.48,-146.5"
         style="fill:#100f0d;fill-opacity:1;fill-rule:nonzero;stroke:none"
         id="path110" /><path
         d="m 2851.42,16846.2 c -50.69,0 -91.93,-41.3 -91.93,-92 0,-50.7 41.24,-91.9 91.93,-91.9 50.68,0 91.92,41.2 91.92,91.9 0,50.7 -41.24,92 -91.92,92 z m 0,-238.4 c -80.77,0 -146.48,65.7 -146.48,146.4 0,80.8 65.71,146.5 146.48,146.5 80.76,0 146.47,-65.7 146.47,-146.5 0,-80.7 -65.71,-146.4 -146.47,-146.4"
         style="fill:#100f0d;fill-opacity:1;fill-rule:nonzero;stroke:none"
         id="path112" /><path
         d="m 3206.89,6562.1 c -50.69,0 -91.92,-41.2 -91.92,-91.9 0,-50.7 41.23,-91.9 91.92,-91.9 50.69,0 91.93,41.2 91.93,91.9 0,50.7 -41.24,91.9 -91.93,91.9 z m 0,-238.4 c -80.77,0 -146.48,65.7 -146.48,146.5 0,80.8 65.71,146.5 146.48,146.5 80.77,0 146.48,-65.7 146.48,-146.5 0,-80.8 -65.71,-146.5 -146.48,-146.5"
         style="fill:#100f0d;fill-opacity:1;fill-rule:nonzero;stroke:none"
         id="path114" /><path
         d="m 7661.09,6742.2 c -50.69,0 -91.93,-41.2 -91.93,-91.9 0,-50.7 41.24,-92 91.93,-92 50.69,0 91.92,41.3 91.92,92 0,50.7 -41.23,91.9 -91.92,91.9 z m 0,-238.4 c -80.77,0 -146.48,65.7 -146.48,146.5 0,80.7 65.71,146.4 146.48,146.4 80.76,0 146.47,-65.7 146.47,-146.4 0,-80.8 -65.71,-146.5 -146.47,-146.5"
         style="fill:#100f0d;fill-opacity:1;fill-rule:nonzero;stroke:none"
         id="path116" /><path
         d="m 8295.25,6742.2 c -50.69,0 -91.92,-41.2 -91.92,-91.9 0,-50.7 41.23,-92 91.92,-92 50.69,0 91.93,41.3 91.93,92 0,50.7 -41.24,91.9 -91.93,91.9 z m 0,-238.4 c -80.76,0 -146.47,65.7 -146.47,146.5 0,80.7 65.71,146.4 146.47,146.4 80.77,0 146.48,-65.7 146.48,-146.4 0,-80.8 -65.71,-146.5 -146.48,-146.5"
         style="fill:#100f0d;fill-opacity:1;fill-rule:nonzero;stroke:none"
         id="path118" /><path
         d="m 8806.61,6742.2 c -50.69,0 -91.92,-41.2 -91.92,-91.9 0,-50.7 41.23,-92 91.92,-92 50.69,0 91.93,41.3 91.93,92 0,50.7 -41.24,91.9 -91.93,91.9 z m 0,-238.4 c -80.77,0 -146.47,65.7 -146.47,146.5 0,80.7 65.7,146.4 146.47,146.4 80.77,0 146.48,-65.7 146.48,-146.4 0,-80.8 -65.71,-146.5 -146.48,-146.5"
         style="fill:#100f0d;fill-opacity:1;fill-rule:nonzero;stroke:none"
         id="path120" /><path
         d="m 9449.8,6742.2 c -50.68,0 -91.92,-41.2 -91.92,-91.9 0,-50.7 41.24,-92 91.92,-92 50.69,0 91.93,41.3 91.93,92 0,50.7 -41.24,91.9 -91.93,91.9 z m 0,-238.4 c -80.76,0 -146.47,65.7 -146.47,146.5 0,80.7 65.71,146.4 146.47,146.4 80.77,0 146.48,-65.7 146.48,-146.4 0,-80.8 -65.71,-146.5 -146.48,-146.5"
         style="fill:#100f0d;fill-opacity:1;fill-rule:nonzero;stroke:none"
         id="path122" /><path
         d="m 9380.02,3193.4 c -50.69,0 -91.92,-41.3 -91.92,-92 0,-50.7 41.23,-91.9 91.92,-91.9 50.69,0 91.93,41.2 91.93,91.9 0,50.7 -41.24,92 -91.93,92 z m 0,-238.4 c -80.77,0 -146.48,65.7 -146.48,146.4 0,80.8 65.71,146.5 146.48,146.5 80.77,0 146.48,-65.7 146.48,-146.5 0,-80.7 -65.71,-146.4 -146.48,-146.4"
         style="fill:#100f0d;fill-opacity:1;fill-rule:nonzero;stroke:none"
         id="path124" /><path
         d="m 6717.91,2243.9 c -50.68,0 -91.92,-41.2 -91.92,-91.9 0,-50.7 41.24,-91.9 91.92,-91.9 50.69,0 91.93,41.2 91.93,91.9 0,50.7 -41.24,91.9 -91.93,91.9 z m 0,-238.4 c -80.76,0 -146.48,65.8 -146.48,146.5 0,80.8 65.72,146.5 146.48,146.5 80.77,0 146.48,-65.7 146.48,-146.5 0,-80.7 -65.71,-146.5 -146.48,-146.5"
         style="fill:#100f0d;fill-opacity:1;fill-rule:nonzero;stroke:none"
         id="path126" /><path
         d="m 6904.08,3537.5 c -50.69,0 -91.93,-41.2 -91.93,-91.9 0,-50.7 41.24,-91.9 91.93,-91.9 50.69,0 91.92,41.2 91.92,91.9 0,50.7 -41.23,91.9 -91.92,91.9 z m 0,-238.4 c -80.77,0 -146.48,65.7 -146.48,146.5 0,80.7 65.71,146.5 146.48,146.5 80.76,0 146.47,-65.8 146.47,-146.5 0,-80.8 -65.71,-146.5 -146.47,-146.5"
         style="fill:#100f0d;fill-opacity:1;fill-rule:nonzero;stroke:none"
         id="path128" /><path
         d="m 10609.1,6529.1 c -50.7,0 -92,-41.3 -92,-92 0,-50.7 41.3,-91.9 92,-91.9 50.7,0 91.9,41.2 91.9,91.9 0,50.7 -41.2,92 -91.9,92 z m 0,-238.4 c -80.8,0 -146.5,65.7 -146.5,146.4 0,80.8 65.7,146.5 146.5,146.5 80.7,0 146.4,-65.7 146.4,-146.5 0,-80.7 -65.7,-146.4 -146.4,-146.4"
         style="fill:#100f0d;fill-opacity:1;fill-rule:nonzero;stroke:none"
         id="path130" /><path
         d="m 12232.9,15916.5 c -50.7,0 -92,-41.2 -92,-91.9 0,-50.7 41.3,-91.9 92,-91.9 50.7,0 91.9,41.2 91.9,91.9 0,50.7 -41.2,91.9 -91.9,91.9 z m 0,-238.4 c -80.8,0 -146.5,65.7 -146.5,146.5 0,80.8 65.7,146.5 146.5,146.5 80.7,0 146.5,-65.7 146.5,-146.5 0,-80.8 -65.8,-146.5 -146.5,-146.5"
         style="fill:#100f0d;fill-opacity:1;fill-rule:nonzero;stroke:none"
         id="path132" /><path
         d="m 12998.2,15916.5 c -50.7,0 -91.9,-41.2 -91.9,-91.9 0,-50.7 41.2,-91.9 91.9,-91.9 50.7,0 91.9,41.2 91.9,91.9 0,50.7 -41.2,91.9 -91.9,91.9 z m 0,-238.4 c -80.8,0 -146.5,65.7 -146.5,146.5 0,80.8 65.7,146.5 146.5,146.5 80.8,0 146.5,-65.7 146.5,-146.5 0,-80.8 -65.7,-146.5 -146.5,-146.5"
         style="fill:#100f0d;fill-opacity:1;fill-rule:nonzero;stroke:none"
         id="path134" /><path
         d="m 13654.4,15916.5 c -50.7,0 -91.9,-41.2 -91.9,-91.9 0,-50.7 41.2,-91.9 91.9,-91.9 50.7,0 91.9,41.2 91.9,91.9 0,50.7 -41.2,91.9 -91.9,91.9 z m 0,-238.4 c -80.8,0 -146.5,65.7 -146.5,146.5 0,80.8 65.7,146.5 146.5,146.5 80.8,0 146.5,-65.7 146.5,-146.5 0,-80.8 -65.7,-146.5 -146.5,-146.5"
         style="fill:#100f0d;fill-opacity:1;fill-rule:nonzero;stroke:none"
         id="path136" /><path
         d="m 17015,14486.4 c -50.6,0 -91.9,-41.2 -91.9,-91.9 0,-50.7 41.3,-92 91.9,-92 50.7,0 92,41.3 92,92 0,50.7 -41.3,91.9 -92,91.9 z m 0,-238.4 c -80.7,0 -146.4,65.7 -146.4,146.5 0,80.7 65.7,146.4 146.4,146.4 80.8,0 146.5,-65.7 146.5,-146.4 0,-80.8 -65.7,-146.5 -146.5,-146.5"
         style="fill:#100f0d;fill-opacity:1;fill-rule:nonzero;stroke:none"
         id="path138" /><path
         d="m 16024,13964.5 c -23.6,0 -47.1,-9 -65,-26.9 -35.9,-35.9 -35.9,-94.2 0,-130 35.8,-35.9 94.1,-35.9 130,0 35.8,35.8 35.8,94.1 0,130 -18,17.9 -41.5,26.9 -65,26.9 z m 0,-238.3 c -37.6,0 -75.1,14.2 -103.6,42.8 -57.1,57.1 -57.1,150 0,207.2 57.1,57.1 150,57.1 207.1,0 v 0 c 57.1,-57.2 57.1,-150.1 0,-207.2 -28.5,-28.6 -66,-42.8 -103.5,-42.8"
         style="fill:#100f0d;fill-opacity:1;fill-rule:nonzero;stroke:none"
         id="path140" /><path
         d="m 14614.7,16577.8 c -50.7,0 -91.9,-41.3 -91.9,-92 0,-50.6 41.2,-91.9 91.9,-91.9 50.7,0 91.9,41.3 91.9,91.9 0,50.7 -41.2,92 -91.9,92 z m 0,-238.4 c -80.8,0 -146.5,65.7 -146.5,146.4 0,80.8 65.7,146.5 146.5,146.5 80.8,0 146.5,-65.7 146.5,-146.5 0,-80.7 -65.7,-146.4 -146.5,-146.4"
         style="fill:#100f0d;fill-opacity:1;fill-rule:nonzero;stroke:none"
         id="path142" /><path
         d="m 15247.9,16577.8 c -50.7,0 -91.9,-41.3 -91.9,-92 0,-50.6 41.2,-91.9 91.9,-91.9 50.7,0 91.9,41.3 91.9,91.9 0,50.7 -41.2,92 -91.9,92 z m 0,-238.4 c -80.7,0 -146.5,65.7 -146.5,146.4 0,80.8 65.8,146.5 146.5,146.5 80.8,0 146.5,-65.7 146.5,-146.5 0,-80.7 -65.7,-146.4 -146.5,-146.4"
         style="fill:#100f0d;fill-opacity:1;fill-rule:nonzero;stroke:none"
         id="path144" /><path
         d="m 15919.8,16577.8 c -50.6,0 -91.9,-41.3 -91.9,-92 0,-50.6 41.3,-91.9 91.9,-91.9 50.7,0 92,41.3 92,91.9 0,50.7 -41.3,92 -92,92 z m 0,-238.4 c -80.7,0 -146.4,65.7 -146.4,146.4 0,80.8 65.7,146.5 146.4,146.5 80.8,0 146.5,-65.7 146.5,-146.5 0,-80.7 -65.7,-146.4 -146.5,-146.4"
         style="fill:#100f0d;fill-opacity:1;fill-rule:nonzero;stroke:none"
         id="path146" /><path
         d="m 16528.1,16577.8 c -50.7,0 -91.9,-41.3 -91.9,-92 0,-50.6 41.2,-91.9 91.9,-91.9 50.7,0 91.9,41.3 91.9,91.9 0,50.7 -41.2,92 -91.9,92 z m 0,-238.4 c -80.8,0 -146.5,65.7 -146.5,146.4 0,80.8 65.7,146.5 146.5,146.5 80.7,0 146.5,-65.7 146.5,-146.5 0,-80.7 -65.8,-146.4 -146.5,-146.4"
         style="fill:#100f0d;fill-opacity:1;fill-rule:nonzero;stroke:none"
         id="path148" /><path
         d="m 17175,16577.8 c -50.7,0 -92,-41.3 -92,-92 0,-50.6 41.3,-91.9 92,-91.9 50.6,0 91.9,41.3 91.9,91.9 0,50.7 -41.3,92 -91.9,92 z m 0,-238.4 c -80.8,0 -146.5,65.7 -146.5,146.4 0,80.8 65.7,146.5 146.5,146.5 80.7,0 146.4,-65.7 146.4,-146.5 0,-80.7 -65.7,-146.4 -146.4,-146.4"
         style="fill:#100f0d;fill-opacity:1;fill-rule:nonzero;stroke:none"
         id="path150" /><path
         d="m 14621.1,19135.6 c -50.7,0 -91.9,-41.3 -91.9,-91.9 0,-50.7 41.2,-92 91.9,-92 50.7,0 92,41.3 92,92 0,50.6 -41.3,91.9 -92,91.9 z m 0,-238.4 c -80.7,0 -146.5,65.7 -146.5,146.5 0,80.7 65.8,146.4 146.5,146.4 80.8,0 146.5,-65.7 146.5,-146.4 0,-80.8 -65.7,-146.5 -146.5,-146.5"
         style="fill:#100f0d;fill-opacity:1;fill-rule:nonzero;stroke:none"
         id="path152" /><path
         d="m 14953.2,19135.6 c -50.7,0 -92,-41.3 -92,-91.9 0,-50.7 41.3,-92 92,-92 50.7,0 91.9,41.3 91.9,92 0,50.6 -41.2,91.9 -91.9,91.9 z m 0,-238.4 c -80.8,0 -146.5,65.7 -146.5,146.5 0,80.7 65.7,146.4 146.5,146.4 80.7,0 146.4,-65.7 146.4,-146.4 0,-80.8 -65.7,-146.5 -146.4,-146.5"
         style="fill:#100f0d;fill-opacity:1;fill-rule:nonzero;stroke:none"
         id="path154" /><path
         d="m 15300.3,19135.6 c -50.7,0 -92,-41.3 -92,-91.9 0,-50.7 41.3,-92 92,-92 50.7,0 91.9,41.3 91.9,92 0,50.6 -41.2,91.9 -91.9,91.9 z m 0,-238.4 c -80.8,0 -146.5,65.7 -146.5,146.5 0,80.7 65.7,146.4 146.5,146.4 80.7,0 146.4,-65.7 146.4,-146.4 0,-80.8 -65.7,-146.5 -146.4,-146.5"
         style="fill:#100f0d;fill-opacity:1;fill-rule:nonzero;stroke:none"
         id="path156" /><path
         d="m 15647.4,19135.6 c -50.7,0 -92,-41.3 -92,-91.9 0,-50.7 41.3,-92 92,-92 50.7,0 91.9,41.3 91.9,92 0,50.6 -41.2,91.9 -91.9,91.9 z m 0,-238.4 c -80.8,0 -146.5,65.7 -146.5,146.5 0,80.7 65.7,146.4 146.5,146.4 80.7,0 146.4,-65.7 146.4,-146.4 0,-80.8 -65.7,-146.5 -146.4,-146.5"
         style="fill:#100f0d;fill-opacity:1;fill-rule:nonzero;stroke:none"
         id="path158" /><path
         d="m 15994.5,19135.6 c -50.7,0 -92,-41.3 -92,-91.9 0,-50.7 41.3,-92 92,-92 50.6,0 91.9,41.3 91.9,92 0,50.6 -41.3,91.9 -91.9,91.9 z m 0,-238.4 c -80.8,0 -146.5,65.7 -146.5,146.5 0,80.7 65.7,146.4 146.5,146.4 80.7,0 146.4,-65.7 146.4,-146.4 0,-80.8 -65.7,-146.5 -146.4,-146.5"
         style="fill:#100f0d;fill-opacity:1;fill-rule:nonzero;stroke:none"
         id="path160" /><path
         d="m 15044.8,10157.7 c -35.9,-35.9 -35.9,-94.2 0,-130 35.8,-35.9 94.1,-35.9 130,0 35.8,35.8 35.8,94.1 0,130 -35.9,35.8 -94.2,35.8 -130,0 z m 65,-211.4 c -37.5,0 -75.1,14.2 -103.6,42.8 -57.1,57.1 -57.1,150 0,207.2 v 0 c 57.1,57.1 150,57.1 207.1,0 57.1,-57.2 57.1,-150.1 0,-207.2 -28.5,-28.6 -66,-42.8 -103.5,-42.8"
         style="fill:#100f0d;fill-opacity:1;fill-rule:nonzero;stroke:none"
         id="path162" /><path
         d="m 17658.8,13912.1 c -50.7,0 -92,-41.2 -92,-91.9 0,-50.7 41.3,-91.9 92,-91.9 50.7,0 91.9,41.2 91.9,91.9 0,50.7 -41.2,91.9 -91.9,91.9 z m 0,-238.4 c -80.8,0 -146.5,65.7 -146.5,146.5 0,80.7 65.7,146.5 146.5,146.5 80.7,0 146.5,-65.8 146.5,-146.5 0,-80.8 -65.8,-146.5 -146.5,-146.5"
         style="fill:#100f0d;fill-opacity:1;fill-rule:nonzero;stroke:none"
         id="path164" /><path
         d="m 18121.7,13337.8 c -50.7,0 -91.9,-41.2 -91.9,-91.9 0,-50.7 41.2,-92 91.9,-92 50.7,0 91.9,41.3 91.9,92 0,50.7 -41.2,91.9 -91.9,91.9 z m 0,-238.4 c -80.8,0 -146.5,65.7 -146.5,146.5 0,80.8 65.7,146.5 146.5,146.5 80.8,0 146.5,-65.7 146.5,-146.5 0,-80.8 -65.7,-146.5 -146.5,-146.5"
         style="fill:#100f0d;fill-opacity:1;fill-rule:nonzero;stroke:none"
         id="path166" /><path
         d="m 20304.2,12760.6 c -50.7,0 -92,-41.3 -92,-92 0,-50.7 41.3,-91.9 92,-91.9 50.7,0 91.9,41.2 91.9,91.9 0,50.7 -41.2,92 -91.9,92 z m 0,-238.4 c -80.8,0 -146.5,65.7 -146.5,146.4 0,80.8 65.7,146.5 146.5,146.5 80.7,0 146.5,-65.7 146.5,-146.5 0,-80.7 -65.8,-146.4 -146.5,-146.4"
         style="fill:#100f0d;fill-opacity:1;fill-rule:nonzero;stroke:none"
         id="path168" /><path
         d="m 19739.1,12323.5 c -50.7,0 -91.9,-41.2 -91.9,-91.9 0,-50.7 41.2,-91.9 91.9,-91.9 50.7,0 91.9,41.2 91.9,91.9 0,50.7 -41.2,91.9 -91.9,91.9 z m 0,-238.4 c -80.8,0 -146.5,65.7 -146.5,146.5 0,80.8 65.7,146.5 146.5,146.5 80.8,0 146.5,-65.7 146.5,-146.5 0,-80.8 -65.7,-146.5 -146.5,-146.5"
         style="fill:#100f0d;fill-opacity:1;fill-rule:nonzero;stroke:none"
         id="path170" /><path
         d="m 20231.1,12323.5 c -50.7,0 -91.9,-41.2 -91.9,-91.9 0,-50.7 41.2,-91.9 91.9,-91.9 50.7,0 92,41.2 92,91.9 0,50.7 -41.3,91.9 -92,91.9 z m 0,-238.4 c -80.7,0 -146.4,65.7 -146.4,146.5 0,80.8 65.7,146.5 146.4,146.5 80.8,0 146.5,-65.7 146.5,-146.5 0,-80.8 -65.7,-146.5 -146.5,-146.5"
         style="fill:#100f0d;fill-opacity:1;fill-rule:nonzero;stroke:none"
         id="path172" /><path
         d="m 20989.1,11434 c -50.7,0 -91.9,-41.2 -91.9,-91.9 0,-50.7 41.2,-91.9 91.9,-91.9 50.7,0 91.9,41.2 91.9,91.9 0,50.7 -41.2,91.9 -91.9,91.9 z m 0,-238.4 c -80.7,0 -146.5,65.7 -146.5,146.5 0,80.8 65.8,146.5 146.5,146.5 80.8,0 146.5,-65.7 146.5,-146.5 0,-80.8 -65.7,-146.5 -146.5,-146.5"
         style="fill:#100f0d;fill-opacity:1;fill-rule:nonzero;stroke:none"
         id="path174" /><path
         d="m 20642,10983.6 c -50.7,0 -91.9,-41.2 -91.9,-91.9 0,-50.7 41.2,-91.9 91.9,-91.9 50.7,0 91.9,41.2 91.9,91.9 0,50.7 -41.2,91.9 -91.9,91.9 z m 0,-238.4 c -80.7,0 -146.5,65.7 -146.5,146.5 0,80.8 65.8,146.5 146.5,146.5 80.8,0 146.5,-65.7 146.5,-146.5 0,-80.8 -65.7,-146.5 -146.5,-146.5"
         style="fill:#100f0d;fill-opacity:1;fill-rule:nonzero;stroke:none"
         id="path176" /><path
         d="m 20172.9,10601 c -50.7,0 -92,-41.3 -92,-91.9 0,-50.7 41.3,-92 92,-92 50.6,0 91.9,41.3 91.9,92 0,50.6 -41.3,91.9 -91.9,91.9 z m 0,-238.4 c -80.8,0 -146.5,65.7 -146.5,146.5 0,80.7 65.7,146.4 146.5,146.4 80.7,0 146.4,-65.7 146.4,-146.4 0,-80.8 -65.7,-146.5 -146.4,-146.5"
         style="fill:#100f0d;fill-opacity:1;fill-rule:nonzero;stroke:none"
         id="path178" /><path
         d="m 18638.5,8725.4 c -50.6,0 -91.9,-41.2 -91.9,-91.9 0,-50.7 41.3,-91.9 91.9,-91.9 50.7,0 92,41.2 92,91.9 0,50.7 -41.3,91.9 -92,91.9 z m 0,-238.4 c -80.7,0 -146.4,65.8 -146.4,146.5 0,80.8 65.7,146.5 146.4,146.5 80.8,0 146.5,-65.7 146.5,-146.5 0,-80.7 -65.7,-146.5 -146.5,-146.5"
         style="fill:#100f0d;fill-opacity:1;fill-rule:nonzero;stroke:none"
         id="path180" /><path
         d="m 17265.2,8803.7 c -50.6,0 -91.9,-41.2 -91.9,-91.9 0,-50.7 41.3,-92 91.9,-92 50.7,0 92,41.3 92,92 0,50.7 -41.3,91.9 -92,91.9 z m 0,-238.4 c -80.7,0 -146.4,65.7 -146.4,146.5 0,80.7 65.7,146.4 146.4,146.4 80.8,0 146.5,-65.7 146.5,-146.4 0,-80.8 -65.7,-146.5 -146.5,-146.5"
         style="fill:#100f0d;fill-opacity:1;fill-rule:nonzero;stroke:none"
         id="path182" /><path
         d="m 15927.3,8684.5 c -50.7,0 -91.9,-41.2 -91.9,-91.9 0,-50.7 41.2,-92 91.9,-92 50.7,0 91.9,41.3 91.9,92 0,50.7 -41.2,91.9 -91.9,91.9 z m 0,-238.4 c -80.8,0 -146.5,65.7 -146.5,146.5 0,80.7 65.7,146.4 146.5,146.4 80.8,0 146.5,-65.7 146.5,-146.4 0,-80.8 -65.7,-146.5 -146.5,-146.5"
         style="fill:#100f0d;fill-opacity:1;fill-rule:nonzero;stroke:none"
         id="path184" /><path
         d="m 15355.6,8793.5 c -50.6,0 -91.9,-41.2 -91.9,-91.9 0,-50.7 41.3,-91.9 91.9,-91.9 50.7,0 92,41.2 92,91.9 0,50.7 -41.3,91.9 -92,91.9 z m 0,-238.4 c -80.7,0 -146.4,65.7 -146.4,146.5 0,80.8 65.7,146.5 146.4,146.5 80.8,0 146.5,-65.7 146.5,-146.5 0,-80.8 -65.7,-146.5 -146.5,-146.5"
         style="fill:#100f0d;fill-opacity:1;fill-rule:nonzero;stroke:none"
         id="path186" /><path
         d="m 14753.7,8793.5 c -50.7,0 -92,-41.2 -92,-91.9 0,-50.7 41.3,-91.9 92,-91.9 50.7,0 91.9,41.2 91.9,91.9 0,50.7 -41.2,91.9 -91.9,91.9 z m 0,-238.4 c -80.8,0 -146.5,65.7 -146.5,146.5 0,80.8 65.7,146.5 146.5,146.5 80.7,0 146.4,-65.7 146.4,-146.5 0,-80.8 -65.7,-146.5 -146.4,-146.5"
         style="fill:#100f0d;fill-opacity:1;fill-rule:nonzero;stroke:none"
         id="path188" /><path
         d="m 20966.1,12396.9 c -23.6,0 -47.1,-9 -65,-26.9 -35.9,-35.8 -35.9,-94.2 0,-130 35.8,-35.8 94.1,-35.8 130,0 35.8,35.8 35.8,94.2 0,130 -18,17.9 -41.5,26.9 -65,26.9 z m 0,-238.3 c -37.6,0 -75.1,14.3 -103.6,42.8 -57.1,57.1 -57.1,150.1 0,207.2 57.1,57.1 150,57.1 207.1,0 v 0 c 57.1,-57.1 57.1,-150.1 0,-207.2 -28.5,-28.5 -66,-42.8 -103.5,-42.8"
         style="fill:#100f0d;fill-opacity:1;fill-rule:nonzero;stroke:none"
         id="path190" /><path
         d="m 14825.8,8747.7 c -7,0 -14,2.7 -19.3,8 -10.7,10.6 -10.7,27.9 0,38.6 l 2567.1,2567.1 c 5.1,5.1 12.1,8 19.3,8 h 3486.6 c 15.1,0 27.3,-12.2 27.3,-27.3 0,-15.1 -12.2,-27.3 -27.3,-27.3 H 17404.2 L 14845,8755.7 c -5.3,-5.3 -12.3,-8 -19.2,-8"
         style="fill:#100f0d;fill-opacity:1;fill-rule:nonzero;stroke:none"
         id="path192" /><path
         d="m 15424.3,8747.7 c -7,0 -14,2.7 -19.3,8 -10.7,10.6 -10.7,27.9 0,38.6 l 2116.7,2116.7 c 5.1,5.1 12.1,8 19.3,8 h 2990.5 c 15.1,0 27.3,-12.2 27.3,-27.3 0,-15.1 -12.2,-27.3 -27.3,-27.3 H 17552.3 L 15443.5,8755.7 c -5.3,-5.3 -12.3,-8 -19.2,-8"
         style="fill:#100f0d;fill-opacity:1;fill-rule:nonzero;stroke:none"
         id="path194" /><path
         d="m 15986,8638.7 c -7,0 -14,2.6 -19.3,7.9 -10.7,10.7 -10.7,28 0,38.6 l 1843.1,1843.1 c 5.1,5.1 12,8 19.3,8 h 2238.5 c 15,0 27.3,-12.2 27.3,-27.2 0,-15.1 -12.3,-27.3 -27.3,-27.3 H 17840.4 L 16005.2,8646.6 c -5.3,-5.3 -12.3,-7.9 -19.2,-7.9"
         style="fill:#100f0d;fill-opacity:1;fill-rule:nonzero;stroke:none"
         id="path196" /><path
         d="m 10210.6,12758.9 h 4665.3 c 7.4,0 14.4,-3 19.6,-8.2 l 861.2,-882.7 c 5,-5.1 7.7,-12 7.7,-19.1 l -0.4,-631.1 c 0,-7.2 -2.9,-14.1 -8,-19.3 l -893.3,-892.5 c -134.9,-134.9 -134.9,-354.5 0,-489.4 135,-134.9 354.5,-135 489.5,0 l 1121.8,1121.9 v 1010.4 L 15141.8,13276 h -4557.3 c -7.2,0 -14.1,2.9 -19.3,8 L 9304.74,14544.5 H 7370.32 L 6000.88,13195.1 c -58.9,-58.9 -91.42,-137.4 -91.42,-220.9 0,-83.5 32.52,-162.1 91.56,-221.1 59.05,-59.1 137.56,-91.6 221.06,-91.6 83.51,0 162.01,32.5 221.05,91.6 0.01,0 0.02,0 0.03,0 L 7692.07,13999 c 5.11,5.1 12.04,7.9 19.26,7.9 h 1239.9 c 7.24,0 14.17,-2.8 19.29,-7.9 z m 4896.8,-3098 c -102.6,0 -205.2,39 -283.3,117.1 -156.2,156.2 -156.2,410.4 0,566.6 l 885.4,884.5 0.4,608.7 -845.5,866.5 h -4665.1 c -7.2,0 -14.2,2.9 -19.3,8 L 8939.93,13952.4 H 7722.61 L 6481.68,12714.5 c -69.34,-69.3 -161.53,-107.5 -259.6,-107.5 -98.07,0 -190.28,38.2 -259.63,107.5 -69.35,69.4 -107.54,161.6 -107.54,259.7 0,98 38.19,190.2 107.54,259.6 l 1377.54,1357.4 c 5.1,5.1 11.98,7.9 19.15,7.9 h 1956.89 c 7.24,0 14.17,-2.9 19.29,-8 l 1260.48,-1260.5 h 4557.3 c 7.2,0 14.1,-2.9 19.2,-8 l 1348.3,-1343.1 c 5.1,-5.1 8,-12.1 8,-19.3 v -1033 c 0,-7.3 -2.9,-14.2 -8,-19.3 L 15390.7,9778 c -78.1,-78.1 -180.7,-117.1 -283.3,-117.1"
         style="fill:#100f0d;fill-opacity:1;fill-rule:nonzero;stroke:none"
         id="path198" /><path
         d="m 5716.76,13390.6 h 0.09 z m 1158.57,1987.1 -1547.13,-1547.1 -25.1,-25.8 c -109.08,-109.1 -109.08,-286.2 -0.27,-395 108.75,-108.7 285.69,-108.8 394.5,-0.1 l 30.87,31.4 1448.86,1448.8 c 5.11,5.1 12.05,8 19.28,8 h 7023.26 l 752.2,725.1 c 5.1,4.9 11.9,7.6 19,7.6 h 2113.7 c 7.3,0 14.2,-2.8 19.3,-8 l 627.2,-627.2 h 4223.2 c 7.3,0 14.2,-2.9 19.4,-8.1 l 1276.8,-1291.9 c 107.4,-107.4 282.3,-107.4 389.8,0.1 107.5,107.5 107.5,282.4 0,389.9 l -1417.9,1430 h -4161.6 c -7.2,0 -14.2,2.9 -19.3,8 l -603.1,603.1 h -2894.7 l -740.8,-740.8 c -5.1,-5.1 -12,-8 -19.2,-8 z m -1375.18,-2104 c -85.43,0 -170.86,32.5 -235.9,97.6 -63.01,63 -97.71,146.8 -97.71,235.9 0,89.1 34.7,172.9 97.71,235.9 l 25.1,25.8 1555.4,1555.4 c 5.12,5.1 12.06,8 19.29,8 h 6928.26 l 740.8,740.8 c 5.1,5.1 12,8 19.2,8 h 2917.3 c 7.2,0 14.2,-2.9 19.3,-8 l 603.1,-603.2 h 4161.7 c 7.3,0 14.2,-2.8 19.3,-8 l 1425.8,-1438 c 62.3,-62.3 96.7,-145.2 96.7,-233.5 0,-88.2 -34.4,-171.1 -96.7,-233.5 -128.8,-128.7 -338.3,-128.7 -467.1,0 l -1268.9,1284 h -4223.1 c -7.2,0 -14.2,2.9 -19.3,8 l -627.2,627.2 h -2091.4 l -752.3,-725.1 c -5.1,-4.9 -11.8,-7.6 -18.9,-7.6 H 7207.64 l -1440.71,-1440.8 -30.73,-31.2 c -0.06,0 -0.11,-0.1 -0.16,-0.1 -65.03,-65.1 -150.46,-97.6 -235.89,-97.6"
         style="fill:#100f0d;fill-opacity:1;fill-rule:nonzero;stroke:none"
         id="path200" /><path
         d="m 13196.2,5249.4 h -2408.9 c -7.2,0 -14.1,2.9 -19.2,8 L 9478.34,6547.1 c -10.65,10.7 -10.65,27.9 0,38.6 10.65,10.6 27.91,10.6 38.57,0 L 10798.6,5304 h 2386.3 l 569.4,569.4 c 5.1,5.1 12.1,8 19.3,8 h 4493 l 4241.8,4241.8 c 10.7,10.6 27.9,10.6 38.6,0 10.6,-10.7 10.6,-27.9 0,-38.6 L 18297.2,5834.8 c -5.1,-5.1 -12,-8 -19.3,-8 h -4493 l -569.4,-569.4 c -5.1,-5.1 -12.1,-8 -19.3,-8"
         style="fill:#100f0d;fill-opacity:1;fill-rule:nonzero;stroke:none"
         id="path202" /><path
         d="m 13397.1,4781.7 h -2868.4 c -7.2,0 -14.2,2.9 -19.3,8 L 8787.32,6511.8 c -10.65,10.6 -10.65,27.9 0,38.6 10.66,10.6 27.92,10.6 38.58,0 L 10540,4836.3 h 2845.8 l 415.4,415.4 c 10.6,10.6 27.9,10.6 38.5,0 10.7,-10.7 10.7,-28 0,-38.6 l -423.3,-423.4 c -5.2,-5.1 -12.1,-8 -19.3,-8"
         style="fill:#100f0d;fill-opacity:1;fill-rule:nonzero;stroke:none"
         id="path204" /><path
         d="m 12916.9,5923.6 h -1863.3 c -7.2,0 -14.2,2.9 -19.3,8 l -391.5,391.5 c -10.7,10.6 -10.7,27.9 0,38.6 10.6,10.6 27.9,10.6 38.6,0 l 383.5,-383.6 h 1840.7 l 507.9,507.9 c 5.1,5.1 12.1,8 19.3,8 h 4588.3 l 2356.3,2356.3 c 10.6,10.6 27.9,10.6 38.5,0 10.7,-10.7 10.7,-28 0,-38.6 L 18051.7,6447.5 c -5.1,-5.2 -12.1,-8 -19.3,-8 h -4588.3 l -507.9,-507.9 c -5.1,-5.1 -12.1,-8 -19.3,-8"
         style="fill:#100f0d;fill-opacity:1;fill-rule:nonzero;stroke:none"
         id="path206" /><path
         d="M 17849.5,6902.1 H 14140 c -15.1,0 -27.3,12.2 -27.3,27.3 0,15.1 12.2,27.3 27.3,27.3 h 3698.2 l 1762.4,1762.4 c 10.7,10.7 27.9,10.7 38.6,0 10.6,-10.6 10.6,-27.9 0,-38.5 L 17868.7,6910.1 c -5.1,-5.1 -12,-8 -19.2,-8"
         style="fill:#100f0d;fill-opacity:1;fill-rule:nonzero;stroke:none"
         id="path208" /><path
         d="M 11803.4,12063.5 H 9915.35 c -7.24,0 -14.17,2.9 -19.29,8 l -1076.62,1076.6 h -894.99 l -1011.03,-1011 c -5.11,-5.1 -12.05,-8 -19.28,-8 H 6041.1 c -7.23,0 -14.17,2.9 -19.29,8 l -837.87,837.8 c -10.65,10.7 -10.65,28 0,38.6 10.65,10.7 27.92,10.7 38.57,0 l 829.89,-829.9 h 830.44 l 1011.03,1011.1 c 5.11,5.1 12.05,8 19.28,8 h 917.59 c 7.23,0 14.17,-2.9 19.29,-8 L 9926.65,12118 h 1876.75 c 15.1,0 27.3,-12.2 27.3,-27.2 0,-15.1 -12.2,-27.3 -27.3,-27.3"
         style="fill:#100f0d;fill-opacity:1;fill-rule:nonzero;stroke:none"
         id="path210" /><path
         d="m 11323.2,11416.3 c -7,0 -13.9,2.6 -19.3,8 l -322.6,322.5 H 9736.03 c -7.23,0 -14.17,2.9 -19.29,8 l -1043.7,1043.7 h -609.4 L 7061.33,11796.2 c -5.11,-5.1 -12.05,-8 -19.28,-8 H 5874.08 c -7.24,0 -14.17,2.9 -19.29,8 l -1193.71,1193.7 c -5.11,5.2 -7.98,12.1 -7.98,19.3 V 15125 c 0,15.1 12.21,27.3 27.27,27.3 15.06,0 27.28,-12.2 27.28,-27.3 v -2104.5 l 1177.73,-1177.7 h 1145.37 l 1002.3,1002.3 c 5.12,5.1 12.06,8 19.29,8 h 632 c 7.23,0 14.17,-2.9 19.29,-8 l 1043.7,-1043.7 h 1245.27 c 7.3,0 14.2,-2.9 19.3,-8 l 330.6,-330.6 c 10.7,-10.6 10.7,-27.9 0,-38.5 -5.3,-5.4 -12.3,-8 -19.3,-8"
         style="fill:#100f0d;fill-opacity:1;fill-rule:nonzero;stroke:none"
         id="path212" /><path
         d="M 7307.69,11392.5 H 5723.85 c -7.23,0 -14.17,2.9 -19.29,8 l -1423.08,1423.1 c -5.11,5.1 -7.98,12 -7.98,19.2 v 2465.8 l -1359.02,1359 c -10.65,10.7 -10.65,27.9 0,38.6 10.65,10.6 27.92,10.6 38.57,0 l 1367.01,-1367 c 5.11,-5.1 7.99,-12.1 7.99,-19.3 V 12854.1 L 5735.15,11447 H 7296.4 l 868.59,868.6 c 5.12,5.2 12.06,8 19.29,8 h 396.96 c 7.24,0 14.17,-2.8 19.29,-8 l 837.71,-837.7 h 969.86 c 15,0 27.2,-12.2 27.2,-27.2 0,-15.1 -12.2,-27.3 -27.2,-27.3 h -981.16 c -7.23,0 -14.17,2.9 -19.28,8 l -837.71,837.7 h -374.37 l -868.6,-868.6 c -5.12,-5.1 -12.05,-8 -19.29,-8"
         style="fill:#100f0d;fill-opacity:1;fill-rule:nonzero;stroke:none"
         id="path214" /><path
         d="M 7544.19,11030.2 H 5668.77 c -7.23,0 -14.17,2.8 -19.28,7.9 L 4213.48,12474.2 H 2651.91 c -15.06,0 -27.27,12.2 -27.27,27.2 0,15.1 12.21,27.3 27.27,27.3 h 1572.86 c 7.24,0 14.17,-2.9 19.29,-8 l 1436.01,-1436 h 1852.82 l 751.77,751.8 c 10.24,10.2 28.34,10.2 38.58,0 l 397.42,-397.5 c 10.65,-10.6 10.65,-27.9 0,-38.5 -10.66,-10.7 -27.92,-10.7 -38.58,0 l -378.13,378.1 -740.47,-740.5 c -5.12,-5.1 -12.05,-7.9 -19.29,-7.9"
         style="fill:#100f0d;fill-opacity:1;fill-rule:nonzero;stroke:none"
         id="path216" /><path
         d="M 7975.79,10619.4 H 5637.46 c -7.23,0 -14.17,2.9 -19.29,8 L 4114.25,12131.3 H 1931.63 c -15.07,0 -27.28,12.3 -27.28,27.3 0,15.1 12.21,27.3 27.28,27.3 h 2193.92 c 7.23,0 14.17,-2.9 19.28,-8 L 5648.76,10674 h 2315.73 l 357.37,357.4 c 10.66,10.6 27.92,10.6 38.58,0 10.65,-10.7 10.65,-28 0,-38.6 l -365.37,-365.4 c -5.11,-5.1 -12.05,-8 -19.28,-8"
         style="fill:#100f0d;fill-opacity:1;fill-rule:nonzero;stroke:none"
         id="path218" /><path
         d="m 5335.59,9523.8 h 3451.19 l 631.17,631.2 c 5.12,5.1 12.05,8 19.29,8 H 10689 c 190.8,0 346.1,155.2 346.1,346.1 0,190.8 -155.3,346 -346.1,346 H 9114.5 l -643.41,-643.4 c -5.11,-5.1 -12.05,-7.9 -19.28,-7.9 H 5595.7 c -7.23,0 -14.17,2.8 -19.28,7.9 L 4022.1,11766.1 H 1277.29 c -1.09,-0.2 -2.2,-0.2 -3.32,-0.2 -190.83,0 -346.083,-155.3 -346.083,-346.1 0,-190.9 155.253,-346.1 346.083,-346.1 l 1179.41,8.2 h 1312.81 c 7.24,0 14.17,-2.9 19.29,-8 z m 3462.49,-54.6 H 5324.29 c -7.23,0 -14.17,2.9 -19.29,8 L 3754.89,11027.4 H 2453.57 l -1179.41,-8.3 c -221.1,0 -400.824,179.8 -400.824,400.7 0,219.7 177.874,398.8 397.224,400.6 1.12,0.1 2.26,0.2 3.41,0.2 H 4033.4 c 7.23,0 14.17,-2.9 19.29,-8 L 5607,10258.3 h 2833.51 l 643.4,643.4 c 5.12,5.1 12.06,8 19.29,8 H 10689 c 220.9,0 400.6,-179.7 400.6,-400.6 0,-221 -179.7,-400.7 -400.6,-400.7 H 9448.54 l -631.18,-631.2 c -5.11,-5.1 -12.05,-8 -19.28,-8"
         style="fill:#100f0d;fill-opacity:1;fill-rule:nonzero;stroke:none"
         id="path220" /><path
         d="m 11468.8,7053.1 c -190.9,0 -346.1,-155.3 -346.1,-346.2 0,-190.9 155.2,-346.1 346.1,-346.1 h 1197.3 l 987.5,987.4 c 5.1,5.1 12,8 19.2,8 h 4142.8 l 1050.6,1050.7 c 65.3,65.2 101.2,152.1 101.2,244.5 0,92.5 -35.9,179.4 -101.2,244.6 -65.5,65.5 -152.4,101.6 -244.8,101.6 -92.4,0 -179.3,-36.1 -244.8,-101.6 l -821,-821 c -5.1,-5.1 -12.1,-8 -19.3,-8 H 13436.6 L 12430.7,7061 c -5.2,-5.1 -12.1,-7.9 -19.3,-7.9 z m 1208.6,-746.9 h -1208.6 c -220.9,0 -400.7,179.8 -400.7,400.7 0,221 179.8,400.7 400.7,400.7 h 931.3 l 1006,1006 c 5.1,5.1 12,8 19.2,8 H 17525 l 813,813 c 75.8,75.8 176.5,117.5 283.4,117.5 106.9,0 207.6,-41.7 283.4,-117.5 75.6,-75.6 117.2,-176.1 117.2,-283.2 0,-107 -41.6,-207.6 -117.2,-283.1 L 17846.1,7309.6 c -5.1,-5.1 -12,-8 -19.2,-8 h -4142.8 l -987.4,-987.4 c -5.1,-5.1 -12.1,-8 -19.3,-8"
         style="fill:#100f0d;fill-opacity:1;fill-rule:nonzero;stroke:none"
         id="path222" /><path
         d="m 17803.2,3705.8 h 2032.3 l 1008.6,1219.7 v 1625.7 c 0,7.2 2.9,14.1 8,19.2 l 2213.1,2213.1 c 5.1,5.1 12,8 19.3,8 h 346.2 c 7.2,0 14.1,-2.9 19.3,-8 l 1092.8,-1092.8 h 3234.8 l 1874.6,1875.7 c 127.6,127.7 127.6,335.4 0,463.1 -61.9,61.9 -144.1,95.9 -231.6,95.9 -87.5,0 -169.7,-34 -231.5,-95.9 L 27439.4,8278.4 c -5.1,-5.1 -12.1,-8 -19.3,-8 h -2439.5 c -7.2,0 -14.2,2.9 -19.3,8 l -1192.2,1192.2 h -892 L 20134.2,6727.8 V 5255.7 c 0,-7.3 -2.9,-14.2 -8,-19.3 L 19338.8,4449 c -5.2,-5.2 -12.1,-8 -19.3,-8 h -1186.6 c -9.3,0 -18,4.7 -23,12.6 l -559.2,883 h -2955.9 c -190.9,0 -346.1,-155.2 -346.1,-346.1 0,-190.8 155.2,-346 346.1,-346 l 2577.7,1 c 9.2,0 17.8,-4.6 22.8,-12.3 z m 2045.2,-54.5 h -2060 c -9.2,0 -17.8,4.6 -22.8,12.3 l -607.8,927.3 -2563,-1 c -220.9,0 -400.7,179.7 -400.7,400.6 0,221 179.8,400.7 400.7,400.7 h 2970.9 c 9.4,0 18.1,-4.8 23.1,-12.7 l 559.1,-883 h 1160.3 l 771.4,771.5 v 1472.1 c 0,7.2 2.9,14.1 8,19.2 l 2758.9,2758.9 c 5.1,5.1 12,8 19.3,8 h 914.6 c 7.2,0 14.2,-2.9 19.3,-8 L 24991.9,8325 h 2416.9 l 1741.7,1743.1 c 72.1,72.2 168.1,111.9 270.1,111.9 102,0 198,-39.7 270.1,-111.9 149,-149 149,-391.3 0,-540.2 L 27808.2,7644.1 c -5.1,-5.1 -12,-8 -19.3,-8 h -3257.4 c -7.3,0 -14.2,2.9 -19.3,8 l -1092.8,1092.8 h -323.6 l -2197.1,-2197 V 4915.7 c 0,-6.3 -2.3,-12.5 -6.3,-17.4 l -1023,-1237.1 c -5.2,-6.3 -12.9,-9.9 -21,-9.9"
         style="fill:#100f0d;fill-opacity:1;fill-rule:nonzero;stroke:none"
         id="path224" /><path
         d="m 18936.7,5306 h -934.2 c -15.1,0 -27.3,12.2 -27.3,27.3 0,15 12.2,27.3 27.3,27.3 h 922.9 l 195.4,195.4 v 419.3 c 0,15 12.2,27.3 27.3,27.3 15.1,0 27.3,-12.3 27.3,-27.3 v -430.6 c 0,-7.3 -2.9,-14.2 -8,-19.3 L 18956,5314 c -5.1,-5.1 -12.1,-8 -19.3,-8"
         style="fill:#100f0d;fill-opacity:1;fill-rule:nonzero;stroke:none"
         id="path226" /><path
         d="M 19103.8,4919.8 H 18329 c -15.1,0 -27.3,12.2 -27.3,27.2 0,15.1 12.2,27.3 27.3,27.3 h 763.5 l 466.8,466.8 v 722.1 c 0,15 12.2,27.3 27.3,27.3 15,0 27.2,-12.3 27.2,-27.3 v -733.4 c 0,-7.2 -2.8,-14.2 -8,-19.3 l -482.7,-482.8 c -5.2,-5.1 -12.1,-7.9 -19.3,-7.9"
         style="fill:#100f0d;fill-opacity:1;fill-rule:nonzero;stroke:none"
         id="path228" /><path
         d="m 27267,8804.5 h -2333.1 c -7.2,0 -14.2,2.9 -19.3,8 l -1428.7,1428.7 c -10.7,10.6 -10.7,27.9 0,38.6 10.7,10.6 27.9,10.6 38.6,0 L 24945.2,8859 h 2310.5 l 1755.5,1755.5 c 5.1,5.1 12,8 19.3,8 h 875.2 c 7.3,0 14.2,-2.9 19.3,-8 l 479.6,-479.5 h 1312.9 c 15,0 27.3,-12.2 27.3,-27.3 0,-15 -12.3,-27.3 -27.3,-27.3 h -1324.2 c -7.3,0 -14.2,2.9 -19.3,8 l -479.6,479.6 h -852.6 L 27286.3,8812.5 c -5.1,-5.1 -12.1,-8 -19.3,-8"
         style="fill:#100f0d;fill-opacity:1;fill-rule:nonzero;stroke:none"
         id="path230" /><path
         d="M 27019.9,9123.2 H 25221 c -7.3,0 -14.2,2.9 -19.3,8 l -1166.4,1166.4 c -10.7,10.6 -10.7,27.9 0,38.6 10.6,10.6 27.9,10.6 38.5,0 l 1158.5,-1158.5 h 1776.3 l 1881.5,1881.5 c 5.1,5.1 12.1,8 19.3,8 h 2076.2 c 15,0 27.3,-12.2 27.3,-27.3 0,-15 -12.3,-27.3 -27.3,-27.3 H 28920.7 L 27039.2,9131.2 c -5.1,-5.1 -12,-8 -19.3,-8"
         style="fill:#100f0d;fill-opacity:1;fill-rule:nonzero;stroke:none"
         id="path232" /><path
         d="m 26776.4,9578.4 h -1333.2 c -7.2,0 -14.1,2.9 -19.3,8 l -817.2,817.3 c -10.7,10.7 -10.7,27.9 0,38.6 10.6,10.6 27.9,10.6 38.5,0 l 809.3,-809.3 h 1310.6 l 945.7,945.7 c 10.6,10.7 27.9,10.7 38.6,0 10.6,-10.6 10.6,-27.9 0,-38.5 l -953.7,-953.8 c -5.2,-5.1 -12.1,-8 -19.3,-8"
         style="fill:#100f0d;fill-opacity:1;fill-rule:nonzero;stroke:none"
         id="path234" /><path
         d="m 28310.7,11112.8 c -7,0 -14,2.7 -19.3,8 -10.6,10.6 -10.6,27.9 0,38.6 l 316.8,316.8 c 5.1,5.1 12.1,8 19.3,8 h 1611.9 c 15,0 27.3,-12.3 27.3,-27.3 0,-15.1 -12.3,-27.3 -27.3,-27.3 h -1600.6 l -308.8,-308.8 c -5.3,-5.3 -12.3,-8 -19.3,-8"
         style="fill:#100f0d;fill-opacity:1;fill-rule:nonzero;stroke:none"
         id="path236" /><path
         d="m 25694.2,4798 c -7,0 -14,2.6 -19.3,8 l -1503.2,1503.2 c -5.1,5.1 -8,12 -8,19.3 v 1051.1 l -877.9,877.9 c -10.6,10.6 -10.6,27.9 0,38.6 10.7,10.6 28,10.6 38.6,0 l 885.9,-885.9 c 5.1,-5.1 8,-12.1 8,-19.3 V 6339.8 l 1495.2,-1495.3 c 10.6,-10.6 10.6,-27.9 0,-38.5 -5.3,-5.4 -12.3,-8 -19.3,-8"
         style="fill:#100f0d;fill-opacity:1;fill-rule:nonzero;stroke:none"
         id="path238" /><path
         d="m 26028.2,3795.8 c -6.9,0 -13.9,2.7 -19.2,8 l -2246.9,2246.8 c -5.1,5.2 -7.9,12.1 -7.9,19.3 v 848.2 l -879.4,879.4 c -10.7,10.6 -10.7,27.9 0,38.5 10.6,10.7 27.9,10.7 38.6,0 l 887.3,-887.3 c 5.1,-5.1 8,-12.1 8,-19.3 v -848.2 l 2238.8,-2238.8 c 10.7,-10.7 10.7,-27.9 0,-38.6 -5.3,-5.3 -12.3,-8 -19.3,-8"
         style="fill:#100f0d;fill-opacity:1;fill-rule:nonzero;stroke:none"
         id="path240" /><path
         d="m 23508.8,4080 c -15,0 -27.2,12.2 -27.2,27.3 v 2291.2 l -973.2,973.1 c -10.6,10.7 -10.6,27.9 0,38.6 10.7,10.6 27.9,10.6 38.6,0 l 981.1,-981.1 c 5.1,-5.1 8,-12.1 8,-19.3 V 4107.3 c 0,-15.1 -12.2,-27.3 -27.3,-27.3"
         style="fill:#100f0d;fill-opacity:1;fill-rule:nonzero;stroke:none"
         id="path242" /><path
         d="m 23161.4,4226.1 c -15.1,0 -27.3,12.3 -27.3,27.3 v 1655.2 l -1001.5,1001.5 c -10.6,10.7 -10.6,27.9 0,38.6 10.7,10.6 27.9,10.6 38.6,0 l 1009.4,-1009.5 c 5.2,-5.1 8,-12 8,-19.3 V 4253.4 c 0,-15 -12.2,-27.3 -27.2,-27.3"
         style="fill:#100f0d;fill-opacity:1;fill-rule:nonzero;stroke:none"
         id="path244" /><path
         d="m 22831.7,4320.1 c -15.1,0 -27.3,12.2 -27.3,27.3 v 1058.3 l -1058,1058 c -10.7,10.7 -10.7,27.9 0,38.6 10.6,10.6 27.9,10.6 38.6,0 l 1065.9,-1066 c 5.2,-5.1 8,-12.1 8,-19.3 V 4347.4 c 0,-15.1 -12.2,-27.3 -27.2,-27.3"
         style="fill:#100f0d;fill-opacity:1;fill-rule:nonzero;stroke:none"
         id="path246" /><path
         d="m 22402.4,4450.6 c -15,0 -27.2,12.2 -27.2,27.3 v 609.2 l -999.4,999.4 c -10.7,10.6 -10.7,27.9 0,38.5 10.6,10.7 27.9,10.7 38.6,0 l 1007.3,-1007.3 c 5.1,-5.1 8,-12.1 8,-19.3 v -620.5 c 0,-15.1 -12.2,-27.3 -27.3,-27.3"
         style="fill:#100f0d;fill-opacity:1;fill-rule:nonzero;stroke:none"
         id="path248" /><path
         d="m 9435.69,3183.2 c -3.87,0 -7.8,0.9 -11.54,2.6 -13.65,6.4 -19.53,22.6 -13.14,36.3 l 687.29,1468.7 -1820.98,1821 c -10.65,10.6 -10.65,27.9 0,38.6 10.66,10.6 27.92,10.6 38.57,0 L 10150.4,4715.9 c 8.1,-8.1 10.3,-20.5 5.4,-30.9 L 9460.41,3199 c -4.63,-9.9 -14.46,-15.8 -24.72,-15.8"
         style="fill:#100f0d;fill-opacity:1;fill-rule:nonzero;stroke:none"
         id="path250" /><path
         d="m 9104.68,3809.5 c -3.88,0 -7.82,0.8 -11.57,2.5 -13.63,6.4 -19.5,22.7 -13.11,36.3 l 395.1,842.4 -1820.88,1820.8 c -10.65,10.7 -10.65,28 0,38.6 10.66,10.7 27.92,10.7 38.58,0 L 9527.21,4715.7 c 8.12,-8.1 10.28,-20.5 5.41,-30.9 l -403.23,-859.6 c -4.64,-9.9 -14.46,-15.7 -24.71,-15.7"
         style="fill:#100f0d;fill-opacity:1;fill-rule:nonzero;stroke:none"
         id="path252" /><path
         d="m 8696.36,4270.1 c -3.9,0 -7.86,0.8 -11.62,2.6 -13.63,6.5 -19.45,22.7 -13.02,36.3 l 180.24,381.7 -1820.84,1820.8 c -10.65,10.7 -10.65,28 0,38.6 10.66,10.7 27.92,10.7 38.58,0 L 8904.11,4715.7 c 8.14,-8.1 10.29,-20.5 5.38,-30.9 l -188.45,-399.1 c -4.65,-9.8 -14.45,-15.6 -24.68,-15.6"
         style="fill:#100f0d;fill-opacity:1;fill-rule:nonzero;stroke:none"
         id="path254" /><path
         d="m 6967.93,3519.1 c -5.69,0 -11.43,1.8 -16.34,5.4 -12.05,9.1 -14.5,26.2 -5.46,38.2 l 350.99,468.1 c 4,5.4 9.81,9 16.34,10.4 L 8690.9,4324 c 14.7,3 29.17,-6.5 32.2,-21.3 3.03,-14.7 -6.48,-29.1 -21.24,-32.2 L 7334.56,3989.8 6989.77,3530 c -5.35,-7.1 -13.55,-10.9 -21.84,-10.9"
         style="fill:#100f0d;fill-opacity:1;fill-rule:nonzero;stroke:none"
         id="path256" /><path
         d="m 6773.76,2243.9 c -5.69,0 -11.42,1.8 -16.32,5.5 -12.06,9 -14.53,26.1 -5.5,38.2 l 960.98,1284.2 c 3.99,5.4 9.81,9.1 16.35,10.4 L 9106.71,3865 c 14.74,3 29.17,-6.5 32.21,-21.2 3.02,-14.8 -6.48,-29.2 -21.24,-32.2 l -1367.29,-280.7 -954.78,-1276 c -5.35,-7.2 -13.55,-11 -21.85,-11"
         style="fill:#100f0d;fill-opacity:1;fill-rule:nonzero;stroke:none"
         id="path258" /><path
         d="m 12897.9,10125.4 c -11.1,0 -21.6,6.9 -25.6,18 l -277,760 c -3.6,10 -1.2,21.1 6.3,28.6 l 1234.6,1234.6 c 10.7,10.7 28,10.7 38.6,0 10.7,-10.6 10.7,-27.9 0,-38.6 l -1222.3,-1222.3 271,-743.6 c 5.2,-14.2 -2.1,-29.9 -16.2,-35 -3.1,-1.1 -6.3,-1.7 -9.4,-1.7"
         style="fill:#100f0d;fill-opacity:1;fill-rule:nonzero;stroke:none"
         id="path260" /><path
         d="m 12352,9495.3 c -11.2,0 -21.6,6.9 -25.7,18 l -506.4,1391.7 c -3.6,10 -1.2,21.1 6.3,28.6 l 1233.1,1233.2 c 10.7,10.6 28,10.6 38.6,0 10.7,-10.7 10.7,-28 0,-38.6 l -1220.8,-1220.9 500.5,-1375.4 c 5.1,-14.1 -2.2,-29.8 -16.3,-34.9 -3.1,-1.2 -6.2,-1.7 -9.3,-1.7"
         style="fill:#100f0d;fill-opacity:1;fill-rule:nonzero;stroke:none"
         id="path262" /><path
         d="m 7019.12,7727.8 c -190.84,0 -346.09,-155.2 -346.09,-346 0,-190.9 155.25,-346.1 346.09,-346.1 H 10350 l 693.1,693 c 5.1,5.1 12,8 19.3,8 h 1349.1 l 2017.1,2017.2 -244.5,679.7 c -3.5,9.9 -1,21 6.4,28.5 l 879.9,879.8 c 134.5,135 134.5,354.7 0,489.8 -135,134.4 -354.7,134.4 -489.7,-0.1 l -1177.2,-1177.2 243.7,-668.4 c 3.7,-9.9 1.2,-21.1 -6.3,-28.6 L 12118,8434.5 c -5.1,-5.1 -12,-8 -19.3,-8 h -1482.8 l -690.73,-690.7 c -5.12,-5.1 -12.06,-8 -19.29,-8 z M 10361.3,6981.1 H 7019.12 c -220.92,0 -400.64,179.7 -400.64,400.7 0,220.9 179.72,400.6 400.64,400.6 h 2875.46 l 690.72,690.7 c 5.1,5.1 12.1,8 19.3,8 h 1482.8 l 1502.6,1502.6 -243.7,668.4 c -3.6,9.9 -1.2,21.1 6.3,28.6 l 1189.5,1189.5 c 156.3,155.7 410.6,155.7 566.8,0 155.8,-156.3 155.8,-410.5 0.1,-566.8 l -867.7,-867.7 244.5,-679.6 c 3.6,-10 1.1,-21.1 -6.4,-28.6 L 12442.1,7690.2 c -5.1,-5.2 -12.1,-8 -19.3,-8 h -1349.1 l -693.1,-693.1 c -5.1,-5.1 -12.1,-8 -19.3,-8"
         style="fill:#100f0d;fill-opacity:1;fill-rule:nonzero;stroke:none"
         id="path264" /><path
         d="m 3273.86,6529.1 c -6.99,0 -13.96,2.6 -19.29,7.9 -10.65,10.7 -10.65,28 0,38.6 l 929.99,930 c 5.11,5.1 12.05,8 19.28,8 h 1637.18 l 810.61,810.6 c 5.12,5.1 12.05,8 19.29,8 h 2819.05 l 621.83,621.8 c 5.1,5.1 12.1,8 19.3,8 h 1549 c 15,0 27.2,-12.2 27.2,-27.3 0,-15 -12.2,-27.3 -27.2,-27.3 h -1537.7 l -621.84,-621.8 c -5.12,-5.1 -12.05,-8 -19.29,-8 H 6682.22 L 5871.61,7467 c -5.12,-5.1 -12.05,-8 -19.29,-8 H 4215.14 l -922,-922 c -5.32,-5.3 -12.31,-7.9 -19.28,-7.9"
         style="fill:#100f0d;fill-opacity:1;fill-rule:nonzero;stroke:none"
         id="path266" /><path
         d="M 5805.98,7940.9 H 2933.76 c -15.06,0 -27.27,12.2 -27.27,27.3 0,15.1 12.21,27.3 27.27,27.3 h 2860.92 l 665.57,665.5 c 5.12,5.1 12.05,8 19.29,8 h 2811.39 l 662.89,662.9 c 5.12,5.1 12.06,8 19.29,8 h 1142.29 l 426.2,426.2 c 10.6,10.7 27.9,10.6 38.6,0 10.6,-10.6 10.6,-27.9 0,-38.6 L 11146,9293.3 c -5.2,-5.1 -12.1,-7.9 -19.3,-7.9 H 9984.41 l -662.9,-662.9 c -5.11,-5.2 -12.05,-8 -19.28,-8 h -2811.4 l -665.56,-665.6 c -5.12,-5.1 -12.06,-8 -19.29,-8"
         style="fill:#100f0d;fill-opacity:1;fill-rule:nonzero;stroke:none"
         id="path268" /><path
         d="M 5693.73,8213.6 H 4514.58 c -15.06,0 -27.28,12.2 -27.28,27.2 0,15.1 12.22,27.3 27.28,27.3 h 1167.85 l 760.42,760.4 c 5.12,5.1 12.06,8 19.29,8 h 2607.52 l 707.2,707.2 c 5.12,5.1 12.06,8 19.29,8 h 1083.05 l 543.2,543.2 c 10.6,10.6 27.9,10.6 38.6,0 10.6,-10.7 10.6,-28 0,-38.6 l -551.2,-551.1 c -5.1,-5.2 -12,-8 -19.3,-8 H 9807.45 L 9100.24,8990 c -5.11,-5.2 -12.05,-8 -19.28,-8 H 6473.44 l -760.42,-760.5 c -5.12,-5.1 -12.06,-7.9 -19.29,-7.9"
         style="fill:#100f0d;fill-opacity:1;fill-rule:nonzero;stroke:none"
         id="path270" /><path
         d="m 20927.4,947.301 c -6.1,0 -12.2,2 -17.3,6.199 -11.6,9.602 -13.3,26.801 -3.7,38.398 L 23494.8,4133 c 9.5,11.6 26.7,13.2 38.4,3.7 11.6,-9.6 13.2,-26.8 3.7,-38.4 L 20948.5,957.199 c -5.4,-6.5 -13.2,-9.898 -21.1,-9.898"
         style="fill:#100f0d;fill-opacity:1;fill-rule:nonzero;stroke:none"
         id="path272" /><path
         d="m 21196.7,1828.5 c -6.1,0 -12.2,2 -17.3,6.1 -11.6,9.6 -13.3,26.8 -3.8,38.4 l 1964.7,2397.7 c 9.5,11.7 26.7,13.4 38.3,3.8 11.7,-9.5 13.4,-26.7 3.9,-38.4 L 21217.8,1838.5 c -5.4,-6.6 -13.2,-10 -21.1,-10"
         style="fill:#100f0d;fill-opacity:1;fill-rule:nonzero;stroke:none"
         id="path274" /><path
         d="m 18326.4,1990.5 c -6.9,0 -13.9,2.7 -19.2,8 -10.7,10.7 -10.7,27.9 -0.1,38.6 l 519.8,520.3 c 5.2,5.1 12.1,8 19.3,8 h 2454.6 l 1510,1799.5 c 9.7,11.6 26.9,13 38.4,3.4 11.5,-9.7 13,-26.9 3.3,-38.5 L 21334.4,2520.6 c -5.2,-6.2 -12.8,-9.8 -20.9,-9.8 h -2456 l -511.8,-512.3 c -5.3,-5.3 -12.3,-8 -19.3,-8"
         style="fill:#100f0d;fill-opacity:1;fill-rule:nonzero;stroke:none"
         id="path276" /><path
         d="m 17123.1,1401.6 c -7,0 -14,2.6 -19.3,8 -10.6,10.6 -10.6,27.9 0,38.5 l 1552.6,1553.2 c 5.2,5.1 12.1,8 19.3,8 h 2458.8 l 1247.1,1486.1 c 9.6,11.5 26.8,13 38.4,3.4 11.5,-9.7 13,-26.9 3.3,-38.5 L 21168.1,2964.5 c -5.1,-6.2 -12.8,-9.8 -20.9,-9.8 H 18687 L 17142.4,1409.6 c -5.3,-5.4 -12.3,-8 -19.3,-8"
         style="fill:#100f0d;fill-opacity:1;fill-rule:nonzero;stroke:none"
         id="path278" /><path
         d="M 18190.9,10144.6 17004.4,8958.7 c -134.7,-135.2 -134.7,-354.9 0,-489.7 135,-134.5 354.7,-134.5 489.8,0.1 l 986.1,986.1 c 5.1,5.1 12,8 19.3,8 h 2454.9 l 1357.6,1357.6 c 5.1,5.1 12.1,8 19.3,8 h 2284.7 c 7.2,0 14.2,-2.9 19.3,-8 l 871.7,-871.7 c 134.8,-134.9 354.3,-134.9 489.1,0 65.4,65.2 101.5,151.9 101.6,244.3 0.1,92.6 -36,179.8 -101.6,245.4 l -1088.8,1088.8 H 22272 c -7.2,0 -14.1,2.9 -19.2,7.9 l -1048.6,1040.8 c -135,135 -354.6,135 -489.5,0.1 -134.9,-135 -134.9,-354.5 0,-489.5 l 882.6,-882.9 c 10.6,-10.6 10.6,-27.9 0,-38.6 l -1012.9,-1012.8 c -5.1,-5.2 -12,-8 -19.3,-8 z m -941.6,-1830.9 c -102.7,0 -205.3,38.9 -283.4,116.7 -156,156 -156,410.3 -0.1,566.8 l 1194.5,1193.9 c 5.1,5.2 12,8 19.3,8 h 2374.2 l 985.6,985.6 -863.3,863.6 c -156.2,156.3 -156.2,410.4 0,566.6 156.2,156.2 410.4,156.2 566.6,0 l 1040.5,-1032.7 h 2635.5 c 7.2,0 14.1,-2.9 19.2,-8 l 1096.9,-1096.9 c 75.9,-75.9 117.6,-176.7 117.5,-283.9 -0.1,-107 -41.8,-207.5 -117.6,-282.9 -75.5,-75.5 -176,-117.1 -283,-117.1 -107.1,0 -207.6,41.6 -283.2,117.1 l -863.7,863.7 H 22342.7 L 20985.1,9416.6 c -5.1,-5.1 -12.1,-8 -19.3,-8 h -2454.9 l -978.2,-978.1 c -78.2,-77.9 -180.8,-116.8 -283.4,-116.8"
         style="fill:#100f0d;fill-opacity:1;fill-rule:nonzero;stroke:none"
         id="path280" /><path
         d="m 23015.8,15673.8 c -23.6,0 -47.1,-9 -65,-26.9 -35.9,-35.9 -35.9,-94.2 0,-130 35.8,-35.9 94.1,-35.9 130,0 35.8,35.8 35.8,94.1 0,130 -18,17.9 -41.5,26.9 -65,26.9 z m 0,-238.3 c -37.6,0 -75.1,14.3 -103.6,42.8 -57.1,57.1 -57.1,150 0,207.1 57.1,57.2 150,57.2 207.1,0 57.1,-57.1 57.1,-150 0,-207.1 -28.5,-28.5 -66,-42.8 -103.5,-42.8"
         style="fill:#100f0d;fill-opacity:1;fill-rule:nonzero;stroke:none"
         id="path282" /><path
         d="m 23265.4,15200.5 c -35.9,-35.8 -35.9,-94.2 0,-130 35.8,-35.8 94.2,-35.9 130,0 17.4,17.4 26.9,40.4 26.9,65 0,24.5 -9.5,47.6 -26.9,65 -35.8,35.8 -94.2,35.8 -130,0 z m 65,-211.4 c -37.5,0 -75,14.3 -103.6,42.8 -57.1,57.1 -57.1,150 0,207.2 v 0 c 57.1,57.1 150.1,57.1 207.2,0 27.6,-27.7 42.9,-64.5 42.9,-103.6 0,-39.1 -15.3,-75.9 -42.9,-103.6 -28.6,-28.5 -66.1,-42.8 -103.6,-42.8"
         style="fill:#100f0d;fill-opacity:1;fill-rule:nonzero;stroke:none"
         id="path284" /><path
         d="m 23592.5,14734.6 c -35.9,-35.9 -35.9,-94.2 0,-130.1 35.8,-35.8 94.1,-35.8 130,0.1 17.3,17.3 26.9,40.4 26.9,65 0,24.5 -9.6,47.6 -26.9,65 -35.9,35.8 -94.2,35.8 -130,0 z m 65,-211.5 c -37.5,0 -75.1,14.3 -103.6,42.9 -57.1,57.1 -57.1,150 0,207.1 v 0 c 57.1,57.1 150,57.1 207.1,0 27.7,-27.6 42.9,-64.4 42.9,-103.5 0,-39.2 -15.2,-76 -42.9,-103.6 -28.5,-28.6 -66,-42.9 -103.5,-42.9"
         style="fill:#100f0d;fill-opacity:1;fill-rule:nonzero;stroke:none"
         id="path286" /><path
         d="m 23914.2,14271.7 c -35.8,-35.8 -35.8,-94.2 0,-130 17.4,-17.4 40.5,-26.9 65,-26.9 24.6,0 47.7,9.5 65,26.9 35.9,35.8 35.9,94.2 0,130 -17.3,17.4 -40.4,26.9 -65,26.9 -24.5,0 -47.6,-9.5 -65,-26.9 z m 65,-211.5 c -39.1,0 -75.9,15.3 -103.5,42.9 -57.1,57.1 -57.1,150.1 0,207.2 v 0 c 27.6,27.6 64.4,42.9 103.5,42.9 39.2,0 76,-15.3 103.6,-42.9 57.1,-57.1 57.1,-150.1 0,-207.2 -27.6,-27.6 -64.4,-42.9 -103.6,-42.9"
         style="fill:#100f0d;fill-opacity:1;fill-rule:nonzero;stroke:none"
         id="path288" /><path
         d="m 26094.3,15842.2 c -50.7,0 -91.9,-41.2 -91.9,-91.9 0,-50.7 41.2,-91.9 91.9,-91.9 50.7,0 91.9,41.2 91.9,91.9 0,50.7 -41.2,91.9 -91.9,91.9 z m 0,-238.4 c -80.8,0 -146.5,65.7 -146.5,146.5 0,80.8 65.7,146.5 146.5,146.5 80.7,0 146.5,-65.7 146.5,-146.5 0,-80.8 -65.8,-146.5 -146.5,-146.5"
         style="fill:#100f0d;fill-opacity:1;fill-rule:nonzero;stroke:none"
         id="path290" /><path
         d="m 26719,17224.2 c -50.7,0 -91.9,-41.3 -91.9,-91.9 0,-50.7 41.2,-92 91.9,-92 50.7,0 91.9,41.3 91.9,92 0,50.6 -41.2,91.9 -91.9,91.9 z m 0,-238.4 c -80.7,0 -146.5,65.7 -146.5,146.5 0,80.7 65.8,146.4 146.5,146.4 80.8,0 146.5,-65.7 146.5,-146.4 0,-80.8 -65.7,-146.5 -146.5,-146.5"
         style="fill:#100f0d;fill-opacity:1;fill-rule:nonzero;stroke:none"
         id="path292" /><path
         d="m 29224.4,16762.4 c -50.7,0 -91.9,-41.2 -91.9,-91.9 0,-50.7 41.2,-91.9 91.9,-91.9 50.7,0 91.9,41.2 91.9,91.9 0,50.7 -41.2,91.9 -91.9,91.9 z m 0,-238.4 c -80.8,0 -146.5,65.8 -146.5,146.5 0,80.8 65.7,146.5 146.5,146.5 80.7,0 146.4,-65.7 146.4,-146.5 0,-80.7 -65.7,-146.5 -146.4,-146.5"
         style="fill:#100f0d;fill-opacity:1;fill-rule:nonzero;stroke:none"
         id="path294" /><path
         d="m 28036.1,16302.9 c -50.7,0 -91.9,-41.3 -91.9,-92 0,-50.6 41.2,-91.9 91.9,-91.9 50.7,0 91.9,41.3 91.9,91.9 0,50.7 -41.2,92 -91.9,92 z m 0,-238.4 c -80.8,0 -146.5,65.7 -146.5,146.4 0,80.8 65.7,146.5 146.5,146.5 80.7,0 146.4,-65.7 146.4,-146.5 0,-80.7 -65.7,-146.4 -146.4,-146.4"
         style="fill:#100f0d;fill-opacity:1;fill-rule:nonzero;stroke:none"
         id="path296" /><path
         d="m 23742.2,14723 c -7,0 -13.9,2.7 -19.3,8 -10.6,10.7 -10.6,27.9 0,38.6 l 700,700 c 0.1,0.1 0.2,0.2 0.3,0.3 l 346.9,752.5 c 4.4,9.6 14.1,15.8 24.7,15.8 h 3131.9 c 15.1,0 27.3,-12.2 27.3,-27.3 0,-15 -12.2,-27.2 -27.3,-27.2 h -3114.4 l -342.1,-742.1 c -1.7,-3.7 -4.2,-6.9 -7.3,-9.5 l -2.3,-2 -699.1,-699.1 c -5.3,-5.3 -12.3,-8 -19.3,-8"
         style="fill:#100f0d;fill-opacity:1;fill-rule:nonzero;stroke:none"
         id="path298" /><path
         d="m 23413.5,15191.3 c -7,0 -13.9,2.7 -19.3,8 -10.6,10.6 -10.6,27.9 0,38.6 l 691.6,692.7 348.5,751.4 c 4.5,9.6 14.1,15.8 24.7,15.8 h 4634.3 c 15.1,0 27.3,-12.2 27.3,-27.3 0,-15.1 -12.2,-27.3 -27.3,-27.3 h -4616.9 l -343.1,-739.9 c -1.3,-2.9 -3.2,-5.6 -5.4,-7.8 l -695.1,-696.2 c -5.3,-5.3 -12.3,-8 -19.3,-8"
         style="fill:#100f0d;fill-opacity:1;fill-rule:nonzero;stroke:none"
         id="path300" /><path
         d="m 23100,15638.9 c -6.9,0 -13.9,2.7 -19.2,8 -10.7,10.6 -10.7,27.9 0,38.5 l 706.3,706.4 349,751.9 c 4.5,9.7 14.1,15.8 24.7,15.8 h 2439 c 15.1,0 27.3,-12.2 27.3,-27.2 0,-15.1 -12.2,-27.3 -27.3,-27.3 h -2421.5 l -343.7,-740.5 c -1.4,-2.9 -3.2,-5.6 -5.5,-7.8 l -709.8,-709.8 c -5.3,-5.3 -12.3,-8 -19.3,-8"
         style="fill:#100f0d;fill-opacity:1;fill-rule:nonzero;stroke:none"
         id="path302" /><path
         d="m 24063.4,14263.5 c -7,0 -14,2.7 -19.3,8 -10.7,10.7 -10.7,27.9 0,38.6 l 700.3,700.3 347.9,751.4 c 4.4,9.6 14.1,15.8 24.7,15.8 h 858.1 c 15,0 27.3,-12.2 27.3,-27.3 0,-15.1 -12.3,-27.3 -27.3,-27.3 h -840.6 l -342.7,-739.9 c -1.3,-2.9 -3.1,-5.6 -5.4,-7.8 l -703.8,-703.8 c -5.3,-5.3 -12.3,-8 -19.2,-8"
         style="fill:#100f0d;fill-opacity:1;fill-rule:nonzero;stroke:none"
         id="path304" /><path
         d="m 25486.3,13355.5 c -50.7,0 -91.9,-41.2 -91.9,-91.9 0,-50.7 41.2,-91.9 91.9,-91.9 50.7,0 91.9,41.2 91.9,91.9 0,50.7 -41.2,91.9 -91.9,91.9 z m 0,-238.4 c -80.8,0 -146.5,65.7 -146.5,146.5 0,80.8 65.7,146.5 146.5,146.5 80.8,0 146.5,-65.7 146.5,-146.5 0,-80.8 -65.7,-146.5 -146.5,-146.5"
         style="fill:#100f0d;fill-opacity:1;fill-rule:nonzero;stroke:none"
         id="path306" /><path
         d="m 23473.9,13990.1 c -50.7,0 -92,-41.2 -92,-91.9 0,-50.7 41.3,-92 92,-92 50.7,0 91.9,41.3 91.9,92 0,50.7 -41.2,91.9 -91.9,91.9 z m 0,-238.4 c -80.8,0 -146.5,65.7 -146.5,146.5 0,80.7 65.7,146.4 146.5,146.4 80.7,0 146.4,-65.7 146.4,-146.4 0,-80.8 -65.7,-146.5 -146.4,-146.5"
         style="fill:#100f0d;fill-opacity:1;fill-rule:nonzero;stroke:none"
         id="path308" /><path
         d="m 27135.1,10920.7 c -24.5,0 -47.6,-9.5 -65,-26.9 -35.8,-35.8 -35.8,-94.1 0,-130 17.4,-17.4 40.5,-26.9 65,-26.9 24.6,0 47.7,9.5 65,26.9 35.9,35.9 35.9,94.2 0,130 -17.3,17.4 -40.4,26.9 -65,26.9 z m 0,-238.4 c -39.1,0 -75.9,15.3 -103.5,42.9 -57.1,57.2 -57.1,150.1 0,207.2 27.6,27.7 64.4,42.9 103.5,42.9 39.2,0 76,-15.2 103.6,-42.9 v 0 c 57.1,-57.1 57.1,-150 0,-207.2 -27.6,-27.6 -64.4,-42.9 -103.6,-42.9"
         style="fill:#100f0d;fill-opacity:1;fill-rule:nonzero;stroke:none"
         id="path310" /><path
         d="m 26693,10434 c -23.6,0 -47.1,-9 -65,-26.9 -17.4,-17.4 -26.9,-40.4 -26.9,-65 0,-24.5 9.5,-47.6 26.9,-65 35.8,-35.8 94.1,-35.8 130,0 17.4,17.4 26.9,40.5 26.9,65 0,24.6 -9.5,47.6 -26.9,65 v 0 c -17.9,17.9 -41.5,26.9 -65,26.9 z m 0,-238.3 c -37.5,0 -75,14.3 -103.6,42.8 -27.7,27.7 -42.9,64.5 -42.9,103.6 0,39.1 15.2,75.9 42.9,103.6 57.1,57.1 150,57.1 207.2,0 v 0 0 c 27.6,-27.7 42.9,-64.5 42.9,-103.6 0,-39.1 -15.3,-75.9 -42.9,-103.6 -28.6,-28.5 -66.1,-42.8 -103.6,-42.8"
         style="fill:#100f0d;fill-opacity:1;fill-rule:nonzero;stroke:none"
         id="path312" /><path
         d="m 27814.4,10735.6 c -23.6,0 -47.1,-9 -65,-26.9 -35.9,-35.8 -35.9,-94.1 0,-130 35.8,-35.8 94.1,-35.8 130,0 35.8,35.9 35.8,94.2 0,130 -18,17.9 -41.5,26.9 -65,26.9 z m 0,-238.3 c -37.5,0 -75.1,14.3 -103.6,42.9 -57.1,57.1 -57.1,150 0,207.1 57.1,57.1 150,57.1 207.1,0 v 0 c 57.1,-57.1 57.1,-150 0,-207.1 -28.5,-28.6 -66,-42.9 -103.5,-42.9"
         style="fill:#100f0d;fill-opacity:1;fill-rule:nonzero;stroke:none"
         id="path314" /><path
         d="m 29423.6,9864.4 c -23.5,0 -47.1,-8.9 -65,-26.9 -35.8,-35.8 -35.8,-94.1 0,-130 35.8,-35.8 94.2,-35.8 130,0 35.9,35.9 35.9,94.2 0,130 v 0 c -17.9,18 -41.5,26.9 -65,26.9 z m 0,-238.3 c -37.5,0 -75,14.3 -103.6,42.9 -57.1,57.1 -57.1,150 0,207.1 57.1,57.1 150.1,57.1 207.2,0 v 0 c 57.1,-57.1 57.1,-150 0,-207.1 -28.6,-28.6 -66.1,-42.9 -103.6,-42.9"
         style="fill:#100f0d;fill-opacity:1;fill-rule:nonzero;stroke:none"
         id="path316" /><path
         d="m 24541.7,10599.2 c -23.6,0 -47.1,-9 -65,-26.9 -17.4,-17.4 -27,-40.4 -27,-65 0,-24.6 9.6,-47.6 27,-65 35.8,-35.9 94.1,-35.8 130,0 17.3,17.4 26.9,40.4 26.9,65 0,24.6 -9.6,47.6 -26.9,65 v 0 c -18,17.9 -41.5,26.9 -65,26.9 z m 0,-238.3 c -37.6,0 -75.1,14.3 -103.6,42.8 -27.7,27.7 -42.9,64.5 -42.9,103.6 0,39.1 15.2,75.9 42.9,103.6 57.1,57.1 150,57.1 207.1,0 v 0 0 c 27.7,-27.7 42.9,-64.5 42.9,-103.6 0,-39.1 -15.2,-75.9 -42.9,-103.6 -28.5,-28.5 -66,-42.8 -103.5,-42.8"
         style="fill:#100f0d;fill-opacity:1;fill-rule:nonzero;stroke:none"
         id="path318" /><path
         d="m 25726.5,10301.7 c -23.6,0 -47.1,-9 -65,-26.9 -17.4,-17.4 -26.9,-40.5 -26.9,-65 0,-24.6 9.5,-47.6 26.9,-65 35.8,-35.9 94.1,-35.8 130,0 17.3,17.4 26.9,40.4 26.9,65 0,24.5 -9.6,47.6 -26.9,65 -17.9,17.9 -41.5,26.9 -65,26.9 z m 0,-238.3 c -37.5,0 -75,14.3 -103.6,42.8 -27.7,27.7 -42.9,64.5 -42.9,103.6 0,39.1 15.2,75.9 42.9,103.6 57.1,57.1 150,57.1 207.1,0 27.7,-27.7 42.9,-64.5 42.9,-103.6 0,-39.1 -15.2,-75.9 -42.9,-103.6 -28.5,-28.5 -66,-42.8 -103.5,-42.8"
         style="fill:#100f0d;fill-opacity:1;fill-rule:nonzero;stroke:none"
         id="path320" /><path
         d="m 23975.8,10491 c -24.5,0 -47.6,-9.6 -65,-27 -17.3,-17.3 -26.9,-40.4 -26.9,-65 0,-24.5 9.6,-47.6 26.9,-65 17.4,-17.3 40.5,-26.9 65,-26.9 24.6,0 47.7,9.6 65,26.9 17.4,17.4 26.9,40.5 26.9,65 0,24.6 -9.5,47.7 -26.9,65 v 0 c -17.3,17.4 -40.4,27 -65,27 z m 0,-238.4 c -39.1,0 -75.9,15.2 -103.6,42.9 -27.6,27.6 -42.9,64.4 -42.9,103.5 0,39.2 15.3,75.9 42.9,103.6 27.7,27.7 64.5,42.9 103.6,42.9 39.1,0 75.9,-15.2 103.6,-42.9 v 0 0 c 27.7,-27.7 42.9,-64.4 42.9,-103.6 0,-39.1 -15.2,-75.9 -42.9,-103.5 -27.7,-27.7 -64.5,-42.9 -103.6,-42.9"
         style="fill:#100f0d;fill-opacity:1;fill-rule:nonzero;stroke:none"
         id="path322" /><path
         d="m 23420.9,10433.9 c -24.6,0 -47.6,-9.5 -65,-26.9 -17.4,-17.4 -26.9,-40.4 -26.9,-65 0,-24.6 9.5,-47.6 26.9,-65 17.4,-17.4 40.4,-26.9 65,-26.9 24.5,0 47.6,9.5 65,26.9 17.4,17.4 26.9,40.4 26.9,65 0,24.6 -9.5,47.6 -26.9,65 v 0 c -17.4,17.4 -40.5,26.9 -65,26.9 z m 0,-238.4 c -39.1,0 -75.9,15.3 -103.6,42.9 -27.6,27.7 -42.9,64.5 -42.9,103.6 0,39.1 15.3,75.9 42.9,103.6 27.7,27.6 64.5,42.9 103.6,42.9 39.1,0 75.9,-15.3 103.6,-42.9 v 0 0 c 27.6,-27.7 42.9,-64.5 42.9,-103.6 0,-39.1 -15.3,-75.9 -42.9,-103.6 -27.7,-27.6 -64.5,-42.9 -103.6,-42.9"
         style="fill:#100f0d;fill-opacity:1;fill-rule:nonzero;stroke:none"
         id="path324" /><path
         d="m 23228.3,8421.8 c -23.5,0 -47,-8.9 -65,-26.8 -17.3,-17.4 -26.9,-40.5 -26.9,-65 0,-24.6 9.6,-47.7 26.9,-65 35.9,-35.9 94.2,-35.9 130,0 17.4,17.3 27,40.4 27,65 0,24.5 -9.6,47.6 -27,65 v 0 c -17.9,17.9 -41.4,26.8 -65,26.8 z m 0,-238.2 c -37.5,0 -75,14.2 -103.5,42.8 -27.7,27.7 -42.9,64.4 -42.9,103.6 0,39.1 15.2,75.9 42.9,103.5 57.1,57.1 150,57.2 207.1,0 v 0 0 c 27.7,-27.6 42.9,-64.4 42.9,-103.5 0,-39.2 -15.2,-75.9 -42.9,-103.6 -28.6,-28.6 -66.1,-42.8 -103.6,-42.8"
         style="fill:#100f0d;fill-opacity:1;fill-rule:nonzero;stroke:none"
         id="path326" /><path
         d="m 22809,8002.6 c -23.5,0 -47,-9 -65,-26.9 -35.8,-35.9 -35.8,-94.2 0,-130 35.9,-35.9 94.2,-35.9 130,0 35.9,35.8 35.9,94.1 0,130 v 0 c -17.9,17.9 -41.4,26.9 -65,26.9 z m 0,-238.3 c -37.5,0 -75,14.2 -103.5,42.8 -57.1,57.1 -57.1,150 0,207.1 57.1,57.2 150,57.2 207.1,0 v 0 c 57.1,-57.1 57.1,-150 0,-207.1 -28.5,-28.6 -66,-42.8 -103.6,-42.8"
         style="fill:#100f0d;fill-opacity:1;fill-rule:nonzero;stroke:none"
         id="path328" /><path
         d="m 22444.6,7559.8 c -23.6,0 -47.1,-9 -65,-26.9 -35.9,-35.8 -35.9,-94.2 0,-130 35.8,-35.9 94.1,-35.9 130,0 35.8,35.8 35.8,94.2 0,130 -18,17.9 -41.5,26.9 -65,26.9 z m 0,-238.3 c -37.6,0 -75.1,14.3 -103.6,42.8 -57.1,57.1 -57.1,150.1 0,207.2 57.1,57.1 150,57.1 207.1,0 v 0 c 57.1,-57.1 57.1,-150.1 0,-207.2 -28.5,-28.5 -66,-42.8 -103.5,-42.8"
         style="fill:#100f0d;fill-opacity:1;fill-rule:nonzero;stroke:none"
         id="path330" /><path
         d="m 22067.3,7103.1 c -23.5,0 -47,-9 -65,-26.9 -17.3,-17.4 -26.9,-40.5 -26.9,-65 0,-24.6 9.6,-47.7 26.9,-65 35.9,-35.9 94.2,-35.9 130,0 17.4,17.3 27,40.4 27,65 0,24.5 -9.6,47.6 -27,65 v 0 c -17.9,17.9 -41.4,26.9 -65,26.9 z m 0,-238.3 c -37.5,0 -75,14.3 -103.5,42.8 -27.7,27.7 -42.9,64.5 -42.9,103.6 0,39.1 15.2,75.9 42.9,103.6 57.1,57.1 150,57.1 207.1,0 v 0 0 c 27.7,-27.7 42.9,-64.5 42.9,-103.6 0,-39.1 -15.2,-75.9 -42.9,-103.6 -28.5,-28.5 -66.1,-42.8 -103.6,-42.8"
         style="fill:#100f0d;fill-opacity:1;fill-rule:nonzero;stroke:none"
         id="path332" /><path
         d="m 21681.1,6659.4 c -23.6,0 -47.1,-8.9 -65,-26.9 -35.8,-35.8 -35.8,-94.1 0,-130 35.8,-35.8 94.2,-35.8 130,0 35.8,35.9 35.8,94.2 0,130 -17.9,18 -41.5,26.9 -65,26.9 z m 0,-238.3 c -37.5,0 -75,14.3 -103.6,42.9 -57.1,57.1 -57.1,150 0,207.1 57.1,57.1 150.1,57.1 207.2,0 v 0 c 57.1,-57.1 57.1,-150 0,-207.1 -28.6,-28.6 -66.1,-42.9 -103.6,-42.9"
         style="fill:#100f0d;fill-opacity:1;fill-rule:nonzero;stroke:none"
         id="path334" /><path
         d="m 20466.9,8988.1 c -24.6,0 -47.7,-9.6 -65,-27 -35.9,-35.8 -35.9,-94.1 0,-130 17.3,-17.3 40.4,-26.9 65,-26.9 24.5,0 47.6,9.6 65,26.9 35.8,35.9 35.8,94.2 0,130 v 0 c -17.4,17.4 -40.5,27 -65,27 z m 0,-238.4 c -39.2,0 -76,15.2 -103.6,42.9 -57.1,57.1 -57.1,150 0,207.1 27.6,27.7 64.4,42.9 103.6,42.9 39.1,0 75.9,-15.2 103.5,-42.9 v 0 0 c 57.1,-57.1 57.1,-150 0,-207.1 -27.6,-27.7 -64.4,-42.9 -103.5,-42.9"
         style="fill:#100f0d;fill-opacity:1;fill-rule:nonzero;stroke:none"
         id="path336" /><path
         d="m 19701.1,8869.8 c -24.6,0 -47.7,-9.6 -65,-27 -17.4,-17.3 -27,-40.4 -27,-65 0,-24.5 9.6,-47.6 27,-65 17.3,-17.3 40.4,-26.9 65,-26.9 24.5,0 47.6,9.6 65,26.9 17.3,17.4 26.9,40.5 26.9,65 0,24.6 -9.6,47.7 -26.9,65 v 0 c -17.4,17.4 -40.5,27 -65,27 z m 0,-238.5 c -39.2,0 -75.9,15.3 -103.6,42.9 -27.7,27.7 -42.9,64.5 -42.9,103.6 0,39.1 15.2,75.9 42.9,103.6 27.7,27.7 64.4,42.9 103.6,42.9 39.1,0 75.9,-15.2 103.5,-42.9 v 0 0 c 27.7,-27.7 42.9,-64.5 42.9,-103.6 0,-39.1 -15.2,-75.9 -42.9,-103.6 -27.6,-27.6 -64.4,-42.9 -103.5,-42.9"
         style="fill:#100f0d;fill-opacity:1;fill-rule:nonzero;stroke:none"
         id="path338" /><path
         d="m 21308.4,6255.1 c -24.5,0 -47.6,-9.6 -65,-26.9 -17.4,-17.4 -26.9,-40.5 -26.9,-65 0,-24.6 9.5,-47.7 26.9,-65 17.4,-17.4 40.5,-27 65,-27 24.6,0 47.6,9.6 65,27 17.4,17.3 26.9,40.4 26.9,65 0,24.5 -9.5,47.6 -26.9,65 v 0 c -17.4,17.3 -40.4,26.9 -65,26.9 z m 0,-238.4 c -39.1,0 -75.9,15.2 -103.6,42.9 -27.6,27.7 -42.9,64.4 -42.9,103.6 0,39.1 15.3,75.9 42.9,103.5 27.7,27.7 64.5,42.9 103.6,42.9 39.1,0 75.9,-15.2 103.6,-42.9 v 0 0 c 27.6,-27.6 42.9,-64.4 42.9,-103.5 0,-39.2 -15.3,-75.9 -42.9,-103.6 -27.7,-27.7 -64.5,-42.9 -103.6,-42.9"
         style="fill:#100f0d;fill-opacity:1;fill-rule:nonzero;stroke:none"
         id="path340" /><path
         d="m 19586.6,6374.3 c -24.6,0 -47.7,-9.6 -65,-26.9 -17.4,-17.4 -27,-40.5 -27,-65 0,-24.6 9.6,-47.7 27,-65 17.3,-17.4 40.4,-27 65,-27 24.5,0 47.6,9.6 65,27 17.3,17.3 26.9,40.4 26.9,65 0,24.5 -9.6,47.6 -26.9,65 v 0 c -17.4,17.3 -40.5,26.9 -65,26.9 z m 0,-238.4 c -39.2,0 -76,15.2 -103.6,42.9 -27.7,27.7 -42.9,64.5 -42.9,103.6 0,39.1 15.2,75.9 42.9,103.5 27.6,27.7 64.4,42.9 103.6,42.9 39.1,0 75.9,-15.2 103.5,-42.9 v 0 0 c 27.7,-27.6 42.9,-64.4 42.9,-103.5 0,-39.1 -15.2,-75.9 -42.9,-103.6 -27.6,-27.7 -64.4,-42.9 -103.5,-42.9"
         style="fill:#100f0d;fill-opacity:1;fill-rule:nonzero;stroke:none"
         id="path342" /><path
         d="m 19148.1,6162 c -24.6,0 -47.6,-9.5 -65,-26.9 -35.8,-35.8 -35.8,-94.1 0,-130 17.4,-17.3 40.4,-26.9 65,-26.9 24.5,0 47.6,9.6 65,26.9 35.8,35.9 35.8,94.2 0,130 -17.4,17.4 -40.5,26.9 -65,26.9 z m 0,-238.4 c -39.1,0 -75.9,15.3 -103.6,42.9 -57.1,57.2 -57.1,150.1 0,207.2 27.7,27.7 64.5,42.9 103.6,42.9 39.1,0 75.9,-15.2 103.6,-42.9 v 0 c 57.1,-57.1 57.1,-150 0,-207.2 -27.7,-27.6 -64.5,-42.9 -103.6,-42.9"
         style="fill:#100f0d;fill-opacity:1;fill-rule:nonzero;stroke:none"
         id="path344" /><path
         d="m 18209.8,5039 c -24.6,0 -47.7,-9.6 -65,-27 -35.9,-35.8 -35.9,-94.1 0,-130 17.3,-17.3 40.4,-26.9 65,-26.9 24.5,0 47.6,9.6 65,26.9 35.8,35.9 35.8,94.2 0,130 v 0 c -17.4,17.4 -40.5,27 -65,27 z m 0,-238.4 c -39.1,0 -75.9,15.2 -103.6,42.9 -57.1,57.1 -57.1,150 0,207.1 27.7,27.7 64.5,42.9 103.6,42.9 39.1,0 75.9,-15.2 103.5,-42.9 v 0 c 57.2,-57.1 57.2,-150 0,-207.1 -27.6,-27.7 -64.4,-42.9 -103.5,-42.9"
         style="fill:#100f0d;fill-opacity:1;fill-rule:nonzero;stroke:none"
         id="path346" /><path
         d="m 17866.8,5425.2 c -24.5,0 -47.6,-9.6 -65,-26.9 -35.8,-35.9 -35.8,-94.2 0,-130 17.4,-17.4 40.5,-27 65,-27 24.6,0 47.7,9.6 65,27 35.9,35.8 35.9,94.1 0,130 -17.3,17.3 -40.4,26.9 -65,26.9 z m 0,-238.4 c -39.1,0 -75.9,15.2 -103.6,42.9 -57.1,57.1 -57.1,150 0,207.2 27.7,27.6 64.5,42.9 103.6,42.9 39.1,0 75.9,-15.3 103.6,-42.9 57.1,-57.2 57.1,-150.1 0,-207.2 -27.7,-27.7 -64.5,-42.9 -103.6,-42.9"
         style="fill:#100f0d;fill-opacity:1;fill-rule:nonzero;stroke:none"
         id="path348" /><path
         d="m 14603.4,5084.2 c -23.5,0 -47.1,-9 -65,-26.9 -35.8,-35.9 -35.8,-94.2 0,-130 35.8,-35.9 94.2,-35.9 130,0 35.9,35.8 35.9,94.1 0,130 -17.9,17.9 -41.5,26.9 -65,26.9 z m 0,-238.3 c -37.5,0 -75,14.2 -103.6,42.8 -57.1,57.1 -57.1,150 0,207.1 57.1,57.2 150.1,57.2 207.2,0 57.1,-57.1 57.1,-150 0,-207.1 -28.6,-28.6 -66.1,-42.8 -103.6,-42.8"
         style="fill:#100f0d;fill-opacity:1;fill-rule:nonzero;stroke:none"
         id="path350" /><path
         d="m 13911.8,5396.4 c -23.5,0 -47.1,-9 -65,-26.9 -35.8,-35.8 -35.8,-94.1 0,-130 35.9,-35.8 94.2,-35.8 130,0 35.9,35.9 35.9,94.2 0,130 -17.9,17.9 -41.4,26.9 -65,26.9 z m 0,-238.3 c -37.5,0 -75,14.3 -103.6,42.8 -57.1,57.2 -57.1,150.1 0,207.2 57.2,57.1 150.1,57.1 207.2,0 57.1,-57.1 57.1,-150 0,-207.2 -28.6,-28.5 -66.1,-42.8 -103.6,-42.8"
         style="fill:#100f0d;fill-opacity:1;fill-rule:nonzero;stroke:none"
         id="path352" /><path
         d="m 14028.4,7021.3 c -23.6,0 -47.1,-9 -65,-26.9 -35.9,-35.8 -35.9,-94.2 0,-130 35.8,-35.9 94.2,-35.8 130,0 35.8,35.8 35.8,94.2 0,130 -17.9,17.9 -41.5,26.9 -65,26.9 z m 0,-238.3 c -37.5,0 -75,14.3 -103.6,42.8 -57.1,57.1 -57.1,150.1 0,207.2 57.1,57.1 150,57.1 207.2,0 57.1,-57.1 57.1,-150.1 0,-207.2 -28.6,-28.5 -66.1,-42.8 -103.6,-42.8"
         style="fill:#100f0d;fill-opacity:1;fill-rule:nonzero;stroke:none"
         id="path354" /><path
         d="m 11509.8,6796.3 c -23.5,0 -47.1,-9 -65,-26.9 -35.9,-35.8 -35.9,-94.1 0,-130 35.8,-35.8 94.2,-35.8 130,0 35.8,35.9 35.8,94.2 0,130 -17.9,17.9 -41.5,26.9 -65,26.9 z m 0,-238.3 c -37.5,0 -75,14.3 -103.6,42.8 -57.1,57.2 -57.1,150.1 0,207.2 57.1,57.1 150.1,57.1 207.2,0 57.1,-57.1 57.1,-150 0,-207.2 -28.6,-28.5 -66.1,-42.8 -103.6,-42.8"
         style="fill:#100f0d;fill-opacity:1;fill-rule:nonzero;stroke:none"
         id="path356" /><path
         d="m 22610.7,10278.8 c -23.5,0 -47.1,-9 -65,-26.9 -35.8,-35.8 -35.8,-94.2 0,-130 35.9,-35.8 94.2,-35.8 130,0 35.9,35.8 35.9,94.2 0,130 -17.9,17.9 -41.4,26.9 -65,26.9 z m 0,-238.3 c -37.5,0 -75,14.3 -103.6,42.8 -57.1,57.1 -57.1,150.1 0,207.2 57.1,57.1 150.1,57.1 207.2,0 v 0 c 57.1,-57.1 57.1,-150.1 0,-207.2 -28.6,-28.5 -66.1,-42.8 -103.6,-42.8"
         style="fill:#100f0d;fill-opacity:1;fill-rule:nonzero;stroke:none"
         id="path358" /><path
         d="m 28228.8,11150 c -23.6,0 -47.1,-9 -65,-26.9 -17.4,-17.3 -27,-40.4 -27,-65 0,-24.5 9.6,-47.6 27,-65 35.8,-35.8 94.1,-35.8 130,0 17.3,17.4 26.9,40.5 26.9,65 0,24.6 -9.6,47.7 -26.9,65 v 0 c -18,17.9 -41.5,26.9 -65,26.9 z m 0,-238.3 c -37.5,0 -75,14.3 -103.6,42.8 -27.7,27.7 -42.9,64.5 -42.9,103.6 0,39.1 15.2,75.9 42.9,103.6 57.1,57.1 150,57.1 207.1,0 v 0 0 c 27.7,-27.7 42.9,-64.5 42.9,-103.6 0,-39.1 -15.2,-75.9 -42.9,-103.6 -28.5,-28.5 -66,-42.8 -103.5,-42.8"
         style="fill:#100f0d;fill-opacity:1;fill-rule:nonzero;stroke:none"
         id="path360" /><path
         d="m 30358.6,11548.8 c -50.7,0 -91.9,-41.2 -91.9,-91.9 0,-50.7 41.2,-92 91.9,-92 50.7,0 91.9,41.3 91.9,92 0,50.7 -41.2,91.9 -91.9,91.9 z m 0,-238.4 c -80.8,0 -146.5,65.7 -146.5,146.5 0,80.8 65.7,146.5 146.5,146.5 80.7,0 146.5,-65.7 146.5,-146.5 0,-80.8 -65.8,-146.5 -146.5,-146.5"
         style="fill:#100f0d;fill-opacity:1;fill-rule:nonzero;stroke:none"
         id="path362" /><path
         d="m 31104.8,11131.8 c -50.7,0 -91.9,-41.2 -91.9,-91.9 0,-50.7 41.2,-91.9 91.9,-91.9 50.7,0 91.9,41.2 91.9,91.9 0,50.7 -41.2,91.9 -91.9,91.9 z m 0,-238.4 c -80.8,0 -146.5,65.7 -146.5,146.5 0,80.8 65.7,146.5 146.5,146.5 80.8,0 146.5,-65.7 146.5,-146.5 0,-80.8 -65.7,-146.5 -146.5,-146.5"
         style="fill:#100f0d;fill-opacity:1;fill-rule:nonzero;stroke:none"
         id="path364" /><path
         d="m 31836.7,10198.4 c -50.7,0 -91.9,-41.2 -91.9,-91.9 0,-50.7 41.2,-91.9 91.9,-91.9 50.7,0 91.9,41.2 91.9,91.9 0,50.7 -41.2,91.9 -91.9,91.9 z m 0,-238.4 c -80.8,0 -146.5,65.7 -146.5,146.5 0,80.8 65.7,146.5 146.5,146.5 80.7,0 146.5,-65.7 146.5,-146.5 0,-80.8 -65.8,-146.5 -146.5,-146.5"
         style="fill:#100f0d;fill-opacity:1;fill-rule:nonzero;stroke:none"
         id="path366" /><path
         d="m 26106,3831 c -23.5,0 -47.1,-8.9 -65,-26.9 -17.4,-17.3 -26.9,-40.4 -26.9,-65 0,-24.5 9.5,-47.6 26.9,-65 35.9,-35.8 94.2,-35.8 130,0 17.4,17.4 26.9,40.5 26.9,65 0,24.6 -9.5,47.7 -26.9,65 v 0 c -17.9,18 -41.4,26.9 -65,26.9 z m 0,-238.3 c -37.5,0 -75,14.3 -103.6,42.9 -27.6,27.6 -42.9,64.4 -42.9,103.5 0,39.2 15.3,75.9 42.9,103.6 57.1,57.1 150.1,57.1 207.2,0 v 0 0 c 27.6,-27.7 42.9,-64.4 42.9,-103.6 0,-39.1 -15.3,-75.9 -42.9,-103.5 -28.6,-28.6 -66.1,-42.9 -103.6,-42.9"
         style="fill:#100f0d;fill-opacity:1;fill-rule:nonzero;stroke:none"
         id="path368" /><path
         d="m 25778.9,4843.6 c -24.5,0 -47.6,-9.5 -65,-26.9 -35.8,-35.8 -35.8,-94.1 0,-130 17.4,-17.3 40.5,-26.9 65,-26.9 24.6,0 47.7,9.6 65,26.9 35.9,35.9 35.9,94.2 0,130 v 0 c -17.3,17.4 -40.4,26.9 -65,26.9 z m 0,-238.4 c -39.1,0 -75.9,15.3 -103.6,42.9 -57.1,57.2 -57.1,150.1 0,207.2 27.7,27.7 64.5,42.9 103.6,42.9 39.1,0 75.9,-15.2 103.6,-42.9 v 0 c 57.1,-57.1 57.1,-150 0,-207.2 -27.7,-27.6 -64.5,-42.9 -103.6,-42.9"
         style="fill:#100f0d;fill-opacity:1;fill-rule:nonzero;stroke:none"
         id="path370" /><path
         d="m 21110.1,1851.5 c -24.6,0 -47.7,-9.5 -65,-26.9 -35.9,-35.8 -35.9,-94.1 0,-130 17.3,-17.3 40.4,-26.9 65,-26.9 24.5,0 47.6,9.6 65,26.9 35.8,35.9 35.8,94.2 0,130 -17.4,17.4 -40.5,26.9 -65,26.9 z m 0,-238.4 c -39.2,0 -75.9,15.3 -103.6,42.9 -57.1,57.2 -57.1,150.1 0,207.2 27.7,27.7 64.4,42.9 103.6,42.9 39.1,0 75.9,-15.2 103.5,-42.9 v 0 c 57.2,-57.1 57.2,-150 0,-207.2 -27.6,-27.6 -64.4,-42.9 -103.5,-42.9"
         style="fill:#100f0d;fill-opacity:1;fill-rule:nonzero;stroke:none"
         id="path372" /><path
         d="m 20852.4,972.801 c -24.5,0 -47.6,-9.602 -65,-26.899 -17.3,-17.402 -26.9,-40.5 -26.9,-65 0,-24.601 9.6,-47.703 26.9,-65 17.4,-17.402 40.5,-26.902 65,-26.902 24.6,0 47.7,9.5 65,26.902 17.4,17.297 27,40.399 27,65 0,24.5 -9.6,47.598 -27,65 v 0 c -17.3,17.297 -40.4,26.899 -65,26.899 z m 0,-238.403 c -39.1,0 -75.9,15.204 -103.5,42.903 -27.7,27.699 -42.9,64.5 -42.9,103.601 0,39.098 15.2,75.899 42.9,103.598 27.6,27.6 64.4,42.9 103.5,42.9 39.2,0 75.9,-15.3 103.6,-42.9 v 0 0 c 27.7,-27.699 42.9,-64.5 42.9,-103.598 0,-39.101 -15.2,-75.902 -42.9,-103.601 -27.7,-27.699 -64.4,-42.903 -103.6,-42.903"
         style="fill:#100f0d;fill-opacity:1;fill-rule:nonzero;stroke:none"
         id="path374" /><path
         d="m 18242,2015.1 c -24.6,0 -47.6,-9.5 -65,-26.9 -17.4,-17.4 -26.9,-40.4 -26.9,-65 0,-24.6 9.5,-47.6 26.9,-65 17.4,-17.4 40.4,-26.9 65,-26.9 24.6,0 47.6,9.5 65,26.9 17.4,17.4 26.9,40.4 26.9,65 0,24.6 -9.5,47.6 -26.9,65 v 0 c -17.4,17.4 -40.4,26.9 -65,26.9 z m 0,-238.4 c -39.1,0 -75.9,15.3 -103.6,42.9 -27.6,27.7 -42.9,64.5 -42.9,103.6 0,39.1 15.3,75.9 42.9,103.6 27.7,27.6 64.5,42.9 103.6,42.9 39.1,0 75.9,-15.3 103.6,-42.9 v 0 0 c 27.6,-27.7 42.9,-64.5 42.9,-103.6 0,-39.1 -15.3,-75.9 -42.9,-103.6 -27.7,-27.6 -64.5,-42.9 -103.6,-42.9"
         style="fill:#100f0d;fill-opacity:1;fill-rule:nonzero;stroke:none"
         id="path376" /><path
         d="m 17042.2,1440.1 c -23.5,0 -47.1,-9 -65,-26.9 -17.4,-17.4 -26.9,-40.5 -26.9,-65 0,-24.6 9.5,-47.7 26.9,-65 35.8,-35.9 94.2,-35.9 130,0 17.4,17.3 26.9,40.4 26.9,65 0,24.5 -9.5,47.6 -26.9,65 v 0 c -17.9,17.9 -41.4,26.9 -65,26.9 z m 0,-238.3 c -37.5,0 -75,14.2 -103.6,42.8 -27.6,27.7 -42.9,64.4 -42.9,103.6 0,39.1 15.3,75.9 42.9,103.5 57.1,57.2 150.1,57.2 207.2,0 v 0 0 c 27.6,-27.6 42.9,-64.4 42.9,-103.5 0,-39.2 -15.3,-75.9 -42.9,-103.6 -28.6,-28.5 -66.1,-42.8 -103.6,-42.8"
         style="fill:#100f0d;fill-opacity:1;fill-rule:nonzero;stroke:none"
         id="path378" /></g></g></svg>
