<svg width="79" height="79" viewBox="0 0 79 79" fill="none" xmlns="http://www.w3.org/2000/svg">
<path d="M33.6859 47.3495C34.7543 48.1453 35.8246 48.9441 36.8959 49.7418C35.7775 50.8451 34.6572 51.9494 33.5426 53.0517C33.4389 53.1583 33.3417 53.2696 33.2399 53.378L33.2936 52.6481C33.4219 50.8828 33.5511 49.1147 33.6859 47.3495ZM42.4756 31.7863C37.0411 35.2141 31.6066 38.6513 26.1692 42.0772C26.0589 42.146 25.9382 42.1998 25.8156 42.2554C26.5276 44.5318 27.2396 46.8091 27.9496 49.0874C28.457 50.6905 28.9832 52.2898 29.4632 53.8995C29.6612 54.5671 30.0044 54.9245 30.7287 54.7981C30.9295 52.0738 31.1219 49.3514 31.3275 46.6262C31.351 46.3084 31.3888 45.9859 31.4274 45.6681C31.12 45.4918 31.2549 45.1542 31.3614 45.0429C31.5491 44.8496 31.7367 44.6525 31.9244 44.4564C31.9913 44.3941 32.0611 44.3309 32.1262 44.2687C32.2205 44.1706 32.312 44.0726 32.4053 43.9754C32.8551 43.5567 33.3031 43.1305 33.7529 42.7099C34.0094 42.4676 34.2687 42.2243 34.5261 41.9829C35.224 41.3294 35.9208 40.6769 36.6309 40.0337C38.4358 38.3929 40.2775 36.7898 42.0862 35.1556C44.3918 33.0697 46.6918 30.9763 48.9758 28.8668C49.1436 28.6339 49.2521 28.334 49.3992 28.0776C48.9899 28.1322 48.5099 28.0644 48.1846 28.2558C46.2618 29.4015 44.3701 30.5925 42.4756 31.7863ZM79 39.5C79 61.3152 61.3149 79 39.4995 79C17.6832 79 0 61.3152 0 39.5C0 17.6839 17.6832 0 39.4995 0C61.3149 0 79 17.6839 79 39.5ZM57.1384 23.7634C57.1176 23.6125 57.1026 23.4578 57.0724 23.3098C56.7244 21.6332 55.8059 21.1268 54.1613 21.6897C53.9199 21.7708 53.6728 21.8236 53.4277 21.8906C52.5101 22.2697 51.602 22.6752 50.6713 23.0231C49.1285 23.6049 47.5707 24.1491 46.0147 24.7101C45.0661 25.1052 44.124 25.5183 43.1669 25.8926C40.7688 26.83 38.366 27.7494 35.9642 28.6773C31.021 30.5831 26.0768 32.4879 21.1298 34.3937C20.019 34.8228 18.8987 35.2292 17.7992 35.6865C16.8326 36.0854 15.8462 36.4721 14.956 37.0077C14.5618 37.2444 14.1281 37.8667 14.1733 38.2619C14.2167 38.6607 14.8268 39.0021 15.2002 39.3586C15.2681 39.4236 15.3841 39.4444 15.4822 39.4745C18.1028 40.2855 20.7234 41.0965 23.3459 41.9056C23.3318 42.179 23.3629 42.4582 23.4487 42.7345L24.4021 45.7926L25.6553 49.805C25.8024 50.2708 25.9505 50.7282 26.0957 51.1855C26.4522 52.303 26.8228 53.4572 27.1594 54.5869C27.8931 57.0377 29.8715 57.2273 30.4609 57.2273C30.5486 57.2273 30.6419 57.2216 30.7343 57.2179C30.8249 57.2216 30.9154 57.2245 31.005 57.2245C32.5185 57.2245 33.4907 56.3909 34.0697 55.892C34.1763 55.7987 34.2781 55.7128 34.3517 55.6563C34.4714 55.5667 34.5837 55.4696 34.6798 55.3611C34.7553 55.2828 34.8241 55.2017 34.8986 55.1244C35.0203 54.9886 35.1344 54.8613 35.2353 54.7614C36.1151 53.89 36.993 53.0215 37.8747 52.1521L38.9196 51.1214C39.0667 51.2233 39.2138 51.3242 39.3619 51.4251C41.7392 53.1998 44.1127 54.983 46.4985 56.7482C48.2789 58.0647 49.5236 57.7233 50.3855 55.7119C50.7524 54.0155 51.1173 52.3152 51.4813 50.6226C51.8151 48.9299 52.1452 47.242 52.4752 45.5531C52.6874 44.6252 52.8968 43.6944 53.1061 42.7675C53.6625 40.1535 54.2179 37.5367 54.7714 34.9218C54.9516 34.0872 55.1279 33.2536 55.3071 32.4191C55.3504 32.2211 55.4023 32.0221 55.4419 31.8222C56.0096 29.1356 56.5735 26.4509 57.1384 23.7634Z" fill="white"/>
</svg>
