<svg width="730" height="27" viewBox="0 0 730 27" fill="none" xmlns="http://www.w3.org/2000/svg">
<path d="M2.51795 6.99995C7.34186 8.7572 42.5402 7.4266 51.0151 7.07764C52.2408 7.02717 53.4411 6.86131 54.6383 6.59407C62.8299 4.76562 96.5285 -2.44827 101.346 1.49995C106.5 5.72474 144.724 6.86454 149.38 6.98816C149.693 6.99645 149.958 7.00798 150.27 7.0293C155.832 7.40947 214.14 11.285 218.932 6.99995C223.694 2.74293 277.998 6.54014 283.85 6.9627C284.211 6.98879 284.494 7.01745 284.853 7.06237C291.105 7.84381 355.011 15.5561 376.325 6.99995C396.802 -1.22036 439.799 5.57575 447.095 6.81489C447.818 6.93774 448.525 7.02572 449.257 7.07713L509.761 11.3277C511.389 11.4421 513.026 11.3567 514.634 11.0733L566.647 1.90532C568.176 1.63599 569.73 1.54538 571.279 1.63534L663.657 6.99995H725.5C727.985 6.99995 730 9.01467 730 11.4999C730 13.9852 727.985 15.9999 725.5 15.9999H622.753C621.657 15.9999 620.572 16.0886 619.49 16.2623C609.093 17.9314 550.825 26.9999 512.213 26.9999C473.964 26.9999 416.264 17.9498 405.868 16.2674C404.778 16.0909 403.739 15.9999 402.635 15.9999C390.17 15.9999 307.642 15.9999 253.248 15.9999C233.813 15.9999 204.42 15.9999 199.508 15.9999C199.026 15.9999 198.607 16.0141 198.126 16.0477C190.205 16.6014 114.8 21.6825 93.5676 15.9999C71.1483 9.9999 55.3642 15.9999 30.8852 15.9999C25.8402 15.9999 19.5071 15.9999 14.1054 15.9999C7.00272 15.9999 -4.15572 4.56887 2.51795 6.99995Z" fill="url(#paint0_linear)"/>
<defs>
<linearGradient id="paint0_linear" x1="25.5" y1="13.9993" x2="682.5" y2="26.999" gradientUnits="userSpaceOnUse">
<stop stop-color="#A4D0CE"/>
<stop offset="0.479167" stop-color="#E1D2B9"/>
<stop offset="0.984375" stop-color="#90A7AC"/>
</linearGradient>
</defs>
</svg>
