<svg width="911" height="632" viewBox="0 0 911 632" fill="none" xmlns="http://www.w3.org/2000/svg">
<path d="M159.904 85.8447C156.856 98.8043 148.981 109.766 137.732 116.731C126.367 123.669 113.017 125.951 100.058 122.904C87.0979 119.856 76.1361 111.981 69.1709 100.732C62.2056 89.4841 59.9512 76.0171 62.9986 63.0575C66.0461 50.0979 73.9217 39.1361 85.1699 32.1708C96.4181 25.2055 109.885 22.9511 122.845 25.9986C135.804 29.046 146.766 36.9217 153.731 48.1699C160.669 59.5348 162.951 72.8851 159.904 85.8447ZM65.2169 63.5791C62.3067 75.9549 64.3756 88.6391 71.073 99.4547C77.7704 110.27 88.2033 117.775 100.579 120.685C112.955 123.596 125.639 121.527 136.455 114.829C147.27 108.132 154.775 97.6989 157.685 85.3231C160.596 72.9473 158.527 60.2631 151.829 49.4475C145.132 38.6319 134.699 31.1271 122.323 28.2169C109.947 25.3067 97.2631 27.3756 86.4475 34.073C75.632 40.7704 68.1271 51.2033 65.2169 63.5791Z" fill="url(#paint0_linear_0)" fill-opacity="0.3"/>
<path d="M156.869 85.1309C154.013 97.2732 146.653 107.617 136.009 114.108C125.454 120.744 112.914 122.723 100.772 119.868C88.6296 117.013 78.286 109.652 71.7947 99.0082C65.1866 88.3368 63.1795 75.9136 66.0348 63.7713C68.8901 51.629 76.2507 41.2853 86.8946 34.794C97.566 28.1859 109.989 26.1789 122.132 29.0341C134.274 31.8894 144.618 39.2501 151.109 49.894C157.744 60.4486 159.724 72.9886 156.869 85.1309ZM67.9028 64.2105C65.1574 75.8859 67.1575 87.8146 73.4084 97.9092C79.6593 108.004 89.5634 115.138 101.122 117.856C112.797 120.601 124.726 118.601 134.821 112.35C144.915 106.099 152.049 96.1953 154.767 84.6367C157.485 73.0782 155.513 61.0326 149.262 50.9381C143.011 40.8436 133.107 33.7095 121.548 30.9915C109.873 28.246 97.944 30.2461 87.8495 36.497C77.7549 42.7479 70.6483 52.5352 67.9028 64.2105Z" fill="url(#paint1_linear_0)" fill-opacity="0.3"/>
<path d="M162.823 86.5313C159.583 100.308 151.192 111.888 139.223 119.3C127.254 126.712 113.148 129.062 99.3714 125.823C85.5945 122.583 74.0146 114.192 66.6028 102.223C59.191 90.2539 56.8404 76.1482 60.08 62.3713C63.3196 48.5944 71.7103 37.0145 83.6795 29.6027C95.6487 22.1909 109.754 19.8403 123.531 23.0799C137.308 26.3196 148.888 34.7102 156.3 46.6794C163.712 58.6487 166.062 72.7544 162.823 86.5313ZM62.4151 62.9204C59.3402 75.9967 61.5671 89.5806 68.6217 100.973C75.6763 112.365 86.8441 120.413 99.9205 123.488C112.997 126.563 126.581 124.336 137.973 117.281C149.365 110.226 157.413 99.0586 160.488 85.9822C163.563 72.9059 161.336 59.322 154.281 47.9296C147.226 36.5372 136.059 28.4899 122.982 25.415C109.906 22.3401 96.3221 24.567 84.9297 31.6216C73.5373 38.6762 65.49 49.844 62.4151 62.9204Z" fill="url(#paint2_linear_0)" fill-opacity="0.3"/>
<path d="M153.95 84.4446C151.287 95.7696 144.324 105.468 134.401 111.512C124.451 117.674 112.783 119.612 101.458 116.949C90.133 114.286 80.435 107.324 74.3902 97.4009C68.2286 87.4505 66.2903 75.7827 68.9534 64.4577C71.6165 53.1326 78.5789 43.4346 88.5018 37.3898C98.4521 31.2282 110.12 29.2899 121.445 31.953C132.77 34.6161 142.468 41.5785 148.513 51.5014C154.702 61.335 156.613 73.1195 153.95 84.4446ZM70.7047 64.8695C68.1514 75.7275 69.9385 86.9902 75.8323 96.5079C81.726 106.026 91.0119 112.645 101.87 115.198C112.728 117.751 123.991 115.964 133.508 110.07C143.026 104.177 149.645 94.8908 152.198 84.0328C154.752 73.1747 152.965 61.9121 147.071 52.3944C141.177 42.8767 131.891 36.2576 121.033 33.7043C110.175 31.151 98.9125 32.9381 89.3948 38.8318C79.8771 44.7256 73.258 54.0115 70.7047 64.8695Z" fill="url(#paint3_linear_0)" fill-opacity="0.3"/>
<path d="M150.915 83.7308C148.444 94.2385 142.024 103.202 132.795 108.917C123.565 114.632 112.68 116.385 102.173 113.914C91.6647 111.443 82.7016 105.023 76.9865 95.7935C71.2714 86.5642 69.5187 75.6793 71.9896 65.1715C74.4605 54.6637 80.8805 45.7006 90.1098 39.9855C99.3391 34.2704 110.224 32.5177 120.732 34.9886C131.24 37.4595 140.203 43.8795 145.918 53.1088C151.633 62.338 153.386 73.223 150.915 83.7308ZM73.5074 65.5284C71.1188 75.6859 72.8646 86.0764 78.2844 94.9898C83.7316 103.786 92.3719 110.007 102.529 112.396C112.687 114.784 123.194 113.066 131.991 107.619C140.787 102.172 147.008 93.5314 149.397 83.3738C151.785 73.2163 150.067 62.7091 144.62 53.9124C139.173 45.1158 130.532 38.8949 120.375 36.5064C110.217 34.1178 99.7101 35.8361 90.9135 41.2834C82.0893 46.8473 75.8959 55.3709 73.5074 65.5284Z" fill="url(#paint4_linear_0)" fill-opacity="0.3"/>
<path d="M147.996 83.0444C145.689 92.8517 139.695 101.052 131.187 106.321C122.679 111.59 112.549 113.274 102.859 110.995C93.1682 108.716 84.8507 102.694 79.582 94.1861C74.3134 85.6779 72.6295 75.5484 74.9082 65.8579C77.1869 56.1674 83.2087 47.8499 91.7169 42.5813C100.225 37.3127 110.355 35.6287 120.045 37.9074C129.736 40.1862 138.053 46.2079 143.322 54.7162C148.707 63.2519 150.302 73.2372 147.996 83.0444ZM76.3092 66.1873C74.0854 75.6443 75.6457 85.2519 80.7357 93.4718C85.8257 101.692 93.7311 107.37 103.188 109.594C112.645 111.818 122.253 110.257 130.473 105.167C138.692 100.077 144.398 92.0552 146.595 82.715C148.791 73.3747 147.258 63.6504 142.168 55.4306C137.078 47.2107 129.056 41.5048 119.716 39.3085C110.375 37.1121 100.651 38.6449 92.4313 43.7349C84.2115 48.8249 78.5331 56.7303 76.3092 66.1873Z" fill="url(#paint5_linear_0)" fill-opacity="0.3"/>
<path d="M145.076 82.3579C142.962 91.3479 137.483 98.9305 129.695 103.753C121.908 108.575 112.562 110.073 103.688 107.987C94.6983 105.873 87.1157 100.393 82.2936 92.6061C77.4715 84.8189 75.9731 75.4723 78.0596 66.599C80.1462 57.7258 85.6529 50.0265 93.4402 45.2043C101.227 40.3822 110.574 38.8838 119.447 40.9704C128.437 43.0843 136.02 48.5637 140.842 56.3509C145.664 64.1381 147.19 73.368 145.076 82.3579ZM78.9937 66.8187C76.962 75.4584 78.426 84.4273 83.0696 91.9261C87.7131 99.4249 95.1789 104.877 103.819 106.908C112.458 108.94 121.427 107.476 128.926 102.832C136.425 98.189 141.733 90.8124 143.764 82.1727C145.796 73.533 144.332 64.5641 139.688 57.0653C135.045 49.5665 127.668 44.2588 119.028 42.2272C110.389 40.1955 101.42 41.6596 93.921 46.3031C86.4222 50.9466 81.0253 58.1789 78.9937 66.8187Z" fill="url(#paint6_linear_0)" fill-opacity="0.3"/>
<path d="M142.04 81.6439C140.118 89.8166 135.154 96.781 127.944 101.246C120.733 105.711 112.431 106.962 104.258 105.04C96.0851 103.118 89.1207 98.154 84.6557 90.9436C80.1908 83.7332 78.823 75.403 80.7723 67.1135C82.7216 58.824 87.6584 51.9764 94.8688 47.5114C102.079 43.0465 110.409 41.6787 118.699 43.628C126.988 45.5773 133.836 50.5141 138.301 57.7245C142.766 64.9349 143.962 73.4712 142.04 81.6439ZM81.7956 67.4774C79.9287 75.4166 81.2072 83.6026 85.4935 90.5246C89.7799 97.4465 96.5382 102.239 104.477 104.106C112.417 105.973 120.603 104.695 127.525 100.408C134.447 96.1219 139.239 89.3635 141.106 81.4243C142.973 73.4851 141.695 65.299 137.408 58.3771C133.122 51.4551 126.364 46.6624 118.424 44.7955C110.485 42.9286 102.299 44.2071 95.3772 48.4934C88.4552 52.7798 83.6625 59.5381 81.7956 67.4774Z" fill="url(#paint7_linear_0)" fill-opacity="0.3"/>
<path d="M139.123 80.9577C137.393 88.3132 132.827 94.632 126.454 98.6779C119.965 102.696 112.418 103.879 104.945 102.121C97.5899 100.392 91.2711 95.8257 87.2252 89.4531C83.2068 82.9638 82.0245 75.4165 83.7816 67.9443C85.5387 60.4721 90.0774 54.27 96.45 50.2241C102.939 46.2057 110.487 45.0234 117.959 46.7805C125.314 48.5101 131.633 53.0762 135.679 59.4488C139.581 65.9107 140.852 73.6023 139.123 80.9577ZM84.5989 68.1364C82.8967 75.3751 84.1339 82.689 87.9463 89.0067C91.9029 95.235 97.8989 99.602 105.138 101.304C112.376 103.006 119.69 101.769 126.008 97.9568C132.325 94.1444 136.603 88.0042 138.305 80.7655C140.008 73.5268 138.77 66.213 134.958 59.8953C131.146 53.5776 125.005 49.3 117.767 47.5978C110.528 45.8956 103.214 47.1328 96.8964 50.9451C90.6681 54.9017 86.3011 60.8977 84.5989 68.1364Z" fill="url(#paint8_linear_0)" fill-opacity="0.3"/>
<path d="M136.203 80.2719C134.638 86.9268 130.615 92.5107 124.846 96.0827C119.078 99.6546 112.286 100.768 105.631 99.2032C98.9761 97.6383 93.3922 93.6146 89.8203 87.8463C86.2483 82.078 85.1348 75.2861 86.6998 68.6312C88.2647 61.9762 92.2883 56.3923 98.0566 52.8204C103.825 49.2484 110.617 48.135 117.272 49.6999C123.927 51.2648 129.511 55.2884 133.083 61.0567C136.655 66.825 137.768 73.6169 136.203 80.2719ZM87.2835 68.7684C85.7735 75.1898 86.7977 81.8376 90.3971 87.4891C93.8797 93.1132 99.3469 97.1094 105.768 98.6194C112.19 100.129 118.837 99.1052 124.489 95.5058C130.141 91.9064 134.109 86.556 135.619 80.1346C137.129 73.7132 136.105 67.0655 132.506 61.4139C128.906 55.7624 123.556 51.7936 117.135 50.2836C110.713 48.7736 104.065 49.7978 98.4138 53.3972C92.7897 56.8798 88.7935 62.347 87.2835 68.7684Z" fill="url(#paint9_linear_0)" fill-opacity="0.3"/>
<path d="M132.467 79.3927C131.138 85.0431 127.722 89.7842 122.824 92.817C117.926 95.8498 112.16 96.7952 106.509 95.4665C100.859 94.1378 96.1177 90.7215 93.085 85.8238C90.0522 80.9262 89.1068 75.1595 90.4355 69.5091C91.7642 63.8587 95.1805 59.1176 100.078 56.0848C104.976 53.0521 110.742 52.1067 116.393 53.4354C122.043 54.7641 126.784 58.1804 129.817 63.078C132.85 67.9756 133.795 73.7423 132.467 79.3927ZM90.9311 69.6257C89.649 75.0778 90.5186 80.7221 93.5747 85.5206C96.5317 90.2957 101.174 93.6887 106.626 94.9708C112.078 96.2529 117.722 95.3833 122.521 92.3272C127.319 89.2711 130.689 84.7283 131.971 79.2762C133.253 73.824 132.383 68.1798 129.327 63.3813C126.271 58.5828 121.728 55.2131 116.276 53.931C110.824 52.6489 105.18 53.5185 100.381 56.5746C95.6062 59.5316 92.2132 64.1735 90.9311 69.6257Z" fill="url(#paint10_linear_0)" fill-opacity="0.3"/>
<path d="M127.674 72.7511C128.169 77.0436 126.962 81.2271 124.278 84.589C121.594 87.9509 117.768 90.0709 113.448 90.5692C109.129 91.0674 104.921 89.874 101.542 87.2114C98.1631 84.5489 96.0355 80.75 95.5404 76.4575C95.0453 72.1651 96.2522 67.9816 98.9362 64.6197C101.62 61.2578 105.446 59.1377 109.765 58.6395C114.085 58.1412 118.293 59.3346 121.672 61.9972C125.051 64.6598 127.178 68.4587 127.674 72.7511ZM95.9193 76.4138C96.397 80.5556 98.4402 84.288 101.81 86.8752C105.105 89.4712 109.237 90.6734 113.405 90.1926C117.573 89.7119 121.332 87.6759 123.94 84.3227C126.548 80.9696 127.772 76.9367 127.295 72.7948C126.817 68.653 124.774 64.9207 121.403 62.3334C118.033 59.7461 113.977 58.5352 109.809 59.016C105.641 59.4968 101.882 61.5328 99.274 64.8859C96.6572 68.1638 95.4416 72.272 95.9193 76.4138Z" fill="url(#paint11_linear_0)" fill-opacity="0.3"/>
<path d="M130.132 78.8437C128.951 83.8663 125.914 88.0806 121.561 90.7764C117.207 93.4722 112.082 94.3126 107.059 93.1315C102.036 91.9504 97.8221 88.9137 95.1262 84.5603C92.4304 80.2068 91.5901 75.0809 92.7711 70.0583C93.9522 65.0357 96.9889 60.8214 101.342 58.1256C105.696 55.4298 110.822 54.5894 115.844 55.7705C120.867 56.9516 125.081 59.9883 127.777 64.3417C130.473 68.6952 131.313 73.8211 130.132 78.8437ZM93.2117 70.1619C92.0721 75.0082 92.8451 80.0254 95.5616 84.2907C98.19 88.5353 102.316 91.5513 107.163 92.6909C112.009 93.8305 117.026 93.0576 121.291 90.341C125.557 87.6245 128.552 83.5865 129.692 78.7401C130.831 73.8938 130.058 68.8766 127.342 64.6113C124.625 60.346 120.587 57.3507 115.741 56.2111C110.894 55.0715 105.877 55.8444 101.612 58.5609C97.3673 61.1894 94.3513 65.3155 93.2117 70.1619Z" fill="url(#paint12_linear_0)" fill-opacity="0.3"/>
<path d="M26.2356 74.4308C25.5284 77.4381 23.6874 79.9787 21.0528 81.5892C18.3908 83.1934 15.2602 83.7153 12.2182 82.9999C9.17612 82.2846 6.59986 80.4493 4.95913 77.8334C3.3184 75.2175 2.78149 72.0892 3.48866 69.0818C4.19584 66.0745 6.03687 63.534 8.67146 61.9234C11.3061 60.3128 14.464 59.7974 17.506 60.5127C20.5481 61.2281 23.1244 63.0633 24.7651 65.6792C26.3995 68.3222 26.9427 71.4235 26.2356 74.4308ZM4.00937 69.2043C3.33406 72.0761 3.82698 75.0226 5.4046 77.5379C6.98222 80.0532 9.4342 81.802 12.3392 82.4851C15.2442 83.1683 18.2186 82.6955 20.7519 81.1468C23.2852 79.5982 25.0395 77.1802 25.7148 74.3083C26.3902 71.4365 25.8972 68.49 24.3196 65.9747C22.742 63.4594 20.29 61.7106 17.385 61.0275C14.48 60.3444 11.5056 60.8172 8.97232 62.3658C6.43906 63.9144 4.68469 66.3324 4.00937 69.2043Z" fill="url(#paint13_linear_0)" fill-opacity="0.3"/>
<path d="M25.5227 74.2632C24.8602 77.0809 23.1396 79.4782 20.6465 80.9791C18.1744 82.5136 15.2338 82.9657 12.3836 82.2955C9.53334 81.6253 7.1024 79.91 5.57321 77.4346C4.01663 74.9529 3.53837 72.0671 4.20095 69.2494C4.86352 66.4317 6.58411 64.0344 9.07723 62.5335C11.5767 61.0055 14.4899 60.5469 17.3401 61.2171C20.1903 61.8874 22.6213 63.6026 24.1505 66.078C25.7134 68.5327 26.1853 71.4455 25.5227 74.2632ZM4.63944 69.3525C4.00235 72.0618 4.47868 74.8328 5.95113 77.1804C7.42358 79.528 9.75127 81.1905 12.4645 81.8285C15.205 82.4729 18.0023 82.0156 20.3666 80.5702C22.731 79.1248 24.3987 76.8294 25.0294 74.1472C25.6602 71.465 25.1902 68.6669 23.7177 66.3193C22.2453 63.9717 19.9176 62.3093 17.2044 61.6713C14.4638 61.0268 11.6666 61.4841 9.30224 62.9295C6.93786 64.3749 5.27654 66.6432 4.63944 69.3525Z" fill="url(#paint14_linear_0)" fill-opacity="0.3"/>
<path d="M26.9204 74.592C26.1686 77.789 24.2072 80.4728 21.4037 82.1866C18.6002 83.9004 15.2925 84.4378 12.0586 83.6774C8.8247 82.9169 6.10311 80.9618 4.35721 78.1781C2.61131 75.3945 2.05144 72.1178 2.80321 68.9209C3.55498 65.7239 5.51645 63.0401 8.31993 61.3263C11.1234 59.6125 14.4311 59.0751 17.665 59.8355C20.8989 60.596 23.6205 62.5512 25.3664 65.3348C27.1123 68.1184 27.6722 71.3951 26.9204 74.592ZM3.35133 69.0498C2.63778 72.0842 3.16832 75.2396 4.83009 77.8891C6.49185 80.5385 9.11655 82.4137 12.186 83.1355C15.2555 83.8573 18.4408 83.3483 21.1092 81.7171C23.7776 80.0859 25.6587 77.4976 26.3723 74.4631C27.0858 71.4287 26.5553 68.2733 24.8935 65.6239C23.2318 62.9744 20.6071 61.0992 17.5376 60.3774C14.4681 59.6556 11.2828 60.1646 8.61442 61.7958C5.94605 63.427 4.06487 66.0153 3.35133 69.0498Z" fill="url(#paint15_linear_0)" fill-opacity="0.3"/>
<path d="M24.8379 74.1022C24.2199 76.7302 22.5924 78.9779 20.2681 80.3755C17.9375 81.8003 15.2015 82.2434 12.5431 81.6183C9.88476 80.9931 7.60551 79.3707 6.1815 77.0631C4.73009 74.749 4.26842 72.0386 4.8864 69.4106C5.50438 66.7826 7.13193 64.5349 9.45616 63.1373C11.7868 61.7125 14.5228 61.2694 17.1812 61.8946C19.8395 62.5197 22.1188 64.1421 23.5428 66.4497C25.0006 68.7367 25.4559 71.4742 24.8379 74.1022ZM5.29749 69.5073C4.70499 72.0269 5.13096 74.6431 6.51927 76.8566C7.90758 79.0701 10.0899 80.6125 12.6387 81.2119C15.1874 81.8112 17.8285 81.403 20.0578 80.0402C22.2871 78.6774 23.8343 76.5252 24.4268 74.0055C25.0193 71.4859 24.5933 68.8697 23.205 66.6562C21.8167 64.4428 19.6344 62.9003 17.0856 62.3009C14.5369 61.7016 11.8958 62.1098 9.66651 63.4726C7.43724 64.8354 5.88999 66.9876 5.29749 69.5073Z" fill="url(#paint16_linear_0)" fill-opacity="0.3"/>
<path d="M24.1251 73.9346C23.5517 76.373 22.051 78.4504 19.8892 79.7719C17.7275 81.0934 15.175 81.4938 12.7085 80.9138C10.242 80.3338 8.13546 78.8378 6.78922 76.6914C5.44298 74.545 5.0253 72.0165 5.59869 69.5782C6.17207 67.1398 7.67281 65.0624 9.83452 63.7409C11.9962 62.4194 14.5487 62.019 17.0153 62.599C19.4818 63.179 21.5883 64.675 22.9345 66.8214C24.2808 68.9678 24.6985 71.4963 24.1251 73.9346ZM5.95496 69.6619C5.40069 72.019 5.81645 74.4327 7.09321 76.5056C8.37634 78.5513 10.407 80.001 12.7913 80.5616C15.1756 81.1223 17.6395 80.7296 19.6999 79.47C21.7603 78.2105 23.2145 76.208 23.7688 73.8509C24.3231 71.4938 23.9137 69.053 22.6306 67.0072C21.3474 64.9615 19.3167 63.5118 16.9324 62.9512C14.5481 62.3905 12.0842 62.7832 10.0238 64.0428C7.95708 65.3294 6.50923 67.3048 5.95496 69.6619Z" fill="url(#paint17_linear_0)" fill-opacity="0.3"/>
<path d="M23.4402 73.7736C22.9051 76.0494 21.5037 77.95 19.5109 79.1683C17.5181 80.3866 15.1428 80.7715 12.8681 80.2366C10.5934 79.7017 8.63857 78.2985 7.39751 76.3198C6.15644 74.3411 5.75535 71.9881 6.28414 69.7394C6.81293 67.4907 8.22062 65.563 10.2135 64.3447C12.2063 63.1265 14.5816 62.7415 16.8563 63.2764C19.131 63.8113 21.0858 65.2145 22.3269 67.1932C23.5953 69.1783 23.9754 71.4978 23.4402 73.7736ZM6.61301 69.8167C6.09697 72.0112 6.46873 74.243 7.66772 76.1546C8.86672 78.0663 10.7247 79.3895 12.9445 79.9115C15.1644 80.4335 17.4174 80.077 19.3426 78.9C21.2679 77.723 22.6017 75.8637 23.1114 73.6963C23.621 71.5289 23.2556 69.27 22.0567 67.3584C20.8577 65.4467 18.9723 64.1171 16.7798 63.6015C14.5874 63.0859 12.307 63.436 10.3817 64.613C8.45646 65.79 7.12906 67.6222 6.61301 69.8167Z" fill="url(#paint18_linear_0)" fill-opacity="0.3"/>
<path d="M22.7548 73.6124C22.2642 75.6986 20.9833 77.4559 19.1594 78.571C17.3354 79.686 15.1437 80.0283 13.0608 79.5385C10.9506 79.0423 9.16845 77.7655 8.03257 75.9545C6.89668 74.1435 6.53958 71.9723 7.02377 69.9133C7.50796 67.8542 8.79521 66.0697 10.6192 64.9547C12.4431 63.8397 14.6349 63.4974 16.7177 63.9872C18.828 64.4834 20.6101 65.7602 21.746 67.5712C22.8818 69.3822 23.2453 71.5263 22.7548 73.6124ZM7.24302 69.9648C6.77157 71.9697 7.12037 74.0531 8.21419 75.7971C9.30801 77.541 11.0627 78.8114 13.0907 79.2883C15.1188 79.7651 17.2219 79.4306 18.9783 78.3568C20.7347 77.2831 21.9755 75.5735 22.4469 73.5686C22.9184 71.5637 22.5696 69.4803 21.4757 67.7364C20.3819 65.9924 18.6483 64.7556 16.6202 64.2787C14.5922 63.8018 12.489 64.1364 10.7326 65.2101C8.97624 66.2839 7.71447 67.9599 7.24302 69.9648Z" fill="url(#paint19_linear_0)" fill-opacity="0.3"/>
<path d="M22.0426 73.4447C21.5967 75.3412 20.4362 76.9553 18.7474 77.9877C17.0585 79.0202 15.1115 79.3057 13.1931 78.8546C11.2747 78.4035 9.63792 77.2466 8.58617 75.5697C7.53442 73.8929 7.20857 71.9578 7.66091 70.0342C8.11324 68.1106 9.26731 66.5236 10.9562 65.4911C12.645 64.4587 14.5984 64.1461 16.5442 64.6037C18.49 65.0612 20.0994 66.2116 21.1511 67.8885C22.2029 69.5654 22.4886 71.5482 22.0426 73.4447ZM7.90119 70.1193C7.46796 71.9616 7.77278 73.8631 8.78246 75.4729C9.79214 77.0827 11.3805 78.1996 13.2441 78.6378C15.1077 79.0761 17.0273 78.7841 18.6486 77.793C20.2699 76.8018 21.3902 75.2354 21.8234 73.3931C22.2566 71.5508 21.9518 69.6493 20.9421 68.0395C19.9324 66.4297 18.3441 65.3128 16.4805 64.8746C14.6169 64.4364 12.6973 64.7283 11.076 65.7195C9.4547 66.7106 8.33441 68.277 7.90119 70.1193Z" fill="url(#paint20_linear_0)" fill-opacity="0.3"/>
<path d="M21.3577 73.2838C20.9564 74.9907 19.889 76.4551 18.3964 77.3908C16.8764 78.3199 15.1066 78.5899 13.3526 78.1775C11.626 77.7715 10.141 76.7075 9.18802 75.2254C8.24145 73.7162 7.95959 71.9631 8.36733 70.2291C8.77507 68.4952 9.8361 67.0578 11.3287 66.1221C12.8486 65.193 14.6185 64.923 16.3724 65.3354C18.099 65.7414 19.5841 66.8054 20.537 68.2875C21.4562 69.7902 21.7591 71.5769 21.3577 73.2838ZM8.55917 70.2742C8.16418 71.954 8.45877 73.653 9.35691 75.1222C10.2888 76.5707 11.6981 77.5883 13.3972 77.9878C15.0964 78.3874 16.8114 78.1045 18.2912 77.2231C19.771 76.3416 20.7709 74.9185 21.1659 73.2387C21.5609 71.5589 21.2663 69.86 20.3682 68.3907C19.47 66.9215 18.027 65.9246 16.3278 65.5251C14.6287 65.1255 12.9136 65.4084 11.4338 66.2898C9.97506 67.2048 8.95417 68.5944 8.55917 70.2742Z" fill="url(#paint21_linear_0)" fill-opacity="0.3"/>
<path d="M20.6719 73.1228C20.3088 74.6671 19.3682 75.9612 18.0171 76.7872C16.666 77.6131 15.0734 77.8676 13.5112 77.5003C11.9491 77.1329 10.6367 76.1953 9.79534 74.8538C8.95394 73.5123 8.68867 71.9346 9.05181 70.3903C9.41495 68.846 10.3555 67.5519 11.7066 66.7259C13.0577 65.9 14.6504 65.6455 16.2125 66.0128C17.7746 66.3802 19.087 67.3178 19.9284 68.6593C20.7698 70.0008 21.0351 71.5785 20.6719 73.1228ZM9.18884 70.4225C8.83844 71.9127 9.08267 73.4568 9.93044 74.7712C10.7508 76.0792 12.0358 77.0104 13.5431 77.3648C15.0504 77.7193 16.6093 77.4854 17.933 76.653C19.2566 75.8206 20.1845 74.5807 20.5349 73.0906C20.8853 71.6004 20.641 70.0563 19.7933 68.7419C18.9455 67.4275 17.688 66.5027 16.1806 66.1483C14.6733 65.7939 13.1144 66.0277 11.7908 66.8601C10.4735 67.6654 9.53924 68.9324 9.18884 70.4225Z" fill="url(#paint22_linear_0)" fill-opacity="0.3"/>
<path d="M19.7951 72.9164C19.4868 74.2276 18.6882 75.3264 17.541 76.0277C16.3939 76.729 15.0416 76.945 13.7153 76.6332C12.3889 76.3213 11.2747 75.5252 10.5603 74.3862C9.84589 73.2472 9.62066 71.9076 9.92899 70.5964C10.2373 69.2852 11.0359 68.1864 12.1831 67.4851C13.3302 66.7839 14.6825 66.5678 16.0088 66.8797C17.3352 67.1916 18.4494 67.9876 19.1638 69.1267C19.8782 70.2657 20.1034 71.6052 19.7951 72.9164ZM10.0453 70.6238C9.74783 71.889 9.9552 73.2 10.675 74.316C11.3715 75.4266 12.4625 76.2172 13.7423 76.5181C15.0221 76.8191 16.3457 76.6205 17.4696 75.9138C18.5935 75.2071 19.3813 74.1543 19.6788 72.8891C19.9763 71.6239 19.7689 70.3128 19.0491 69.1968C18.3293 68.0808 17.2616 67.2956 15.9818 66.9947C14.702 66.6937 13.3784 66.8923 12.2545 67.599C11.1361 68.2828 10.3429 69.3586 10.0453 70.6238Z" fill="url(#paint23_linear_0)" fill-opacity="0.3"/>
<path d="M18.6667 71.3714C18.7855 72.3684 18.5048 73.3391 17.8772 74.1181C17.2495 74.8971 16.3534 75.3871 15.3403 75.5002C14.3272 75.6133 13.3394 75.3337 12.5451 74.7134C11.7509 74.0932 11.2494 73.2098 11.1307 72.2129C11.012 71.2159 11.2927 70.2452 11.9203 69.4662C12.5479 68.6872 13.4441 68.1972 14.4572 68.0841C15.4703 67.971 16.4581 68.2506 17.2524 68.8709C18.0466 69.4911 18.548 70.3745 18.6667 71.3714ZM11.2196 72.2029C11.3342 73.1649 11.8157 74.0328 12.6079 74.6355C13.3823 75.2403 14.3523 75.5219 15.3299 75.4127C16.3074 75.3036 17.1879 74.8331 17.7978 74.0561C18.4076 73.279 18.6924 72.3434 18.5779 71.3814C18.4633 70.4194 17.9818 69.5515 17.1896 68.9488C16.3974 68.346 15.4452 68.0624 14.4676 68.1716C13.4901 68.2807 12.6096 68.7512 11.9997 69.5282C11.3878 70.2878 11.1051 71.2409 11.2196 72.2029Z" fill="url(#paint24_linear_0)" fill-opacity="0.3"/>
<path d="M19.2472 72.7874C18.9732 73.9529 18.2633 74.9296 17.2436 75.553C16.2239 76.1763 15.0219 76.3684 13.843 76.0912C12.664 75.8139 11.6735 75.1063 11.0385 74.0939C10.4035 73.0814 10.2033 71.8907 10.4774 70.7252C10.7514 69.5597 11.4613 68.5829 12.481 67.9596C13.5007 67.3362 14.7027 67.1442 15.8816 67.4214C17.0606 67.6987 18.0511 68.4063 18.6861 69.4187C19.3211 70.4312 19.5213 71.6219 19.2472 72.7874ZM10.5808 70.7495C10.3163 71.8741 10.5007 73.0395 11.1405 74.0315C11.7596 75.0187 12.7294 75.7214 13.867 75.9889C15.0046 76.2564 16.1811 76.08 17.1801 75.4518C18.1791 74.8235 18.8794 73.8877 19.1438 72.7631C19.4083 71.6385 19.224 70.4731 18.5841 69.4811C17.9443 68.4891 16.9952 67.7912 15.8576 67.5237C14.72 67.2561 13.5435 67.4326 12.5445 68.0608C11.5503 68.6686 10.8452 69.6249 10.5808 70.7495Z" fill="url(#paint25_linear_0)" fill-opacity="0.3"/>
<g filter="url(#filter0_d_0)">
<circle cx="175.239" cy="122.239" r="92.5" transform="rotate(-50.3768 175.239 122.239)" fill="url(#paint26_linear_0)"/>
</g>
<g filter="url(#filter1_d_0)">
<circle cx="587.357" cy="206.357" r="92.5" transform="rotate(60 587.357 206.357)" fill="url(#paint27_linear_0)" shape-rendering="crispEdges"/>
</g>
<g filter="url(#filter2_d_0)">
<circle cx="373.627" cy="509.627" r="92.5" transform="rotate(151.189 373.627 509.627)" fill="url(#paint28_linear_0)" shape-rendering="crispEdges"/>
</g>
<line x1="779.1" y1="106.51" x2="823.1" y2="115.51" stroke="#A1B0CD"/>
<line x1="779.1" y1="104.51" x2="823.1" y2="113.51" stroke="#A1B0CD"/>
<path d="M817 99.5L750.865 108.981L709.847 131.654L668.829 154.328" stroke="url(#paint29_linear_0)" stroke-width="4"/>
<line x1="809.688" y1="96.6096" x2="834.688" y2="76.6096" stroke="#A1B0CD"/>
<line x1="805.688" y1="96.6096" x2="830.688" y2="76.6096" stroke="#A1B0CD"/>
<line x1="813.682" y1="95.6145" x2="836.682" y2="76.6145" stroke="#A1B0CD"/>
<path d="M817.024 95.1654L750.43 104.715L709.099 127.354L667.769 149.994" stroke="#B0F3EB"/>
<g filter="url(#filter3_f_0)">
<ellipse cx="386" cy="278.5" rx="20" ry="17.5" fill="url(#paint30_linear_0)"/>
</g>
<line x1="385.762" y1="274.571" x2="253.762" y2="170.571" stroke="url(#paint31_linear_0)" stroke-width="4"/>
<line x1="386.22" y1="275.244" x2="484.195" y2="232.169" stroke="url(#paint32_linear_0)" stroke-width="4"/>
<line x1="385.552" y1="275.221" x2="344.552" y2="192.221" stroke="url(#paint33_linear_0)"/>
<line x1="385.838" y1="275.647" x2="448.648" y2="343.653" stroke="url(#paint34_linear_0)"/>
<line x1="385.995" y1="273.146" x2="375.922" y2="411.14" stroke="url(#paint35_linear_0)" stroke-width="4"/>
<line x1="386.441" y1="275.764" x2="401.441" y2="303.764" stroke="url(#paint36_linear_0)"/>
<line x1="384.798" y1="275.341" x2="364.611" y2="250.314" stroke="url(#paint37_linear_0)"/>
<line x1="386.423" y1="274.267" x2="345.423" y2="339.267" stroke="url(#paint38_linear_0)"/>
<line x1="385.272" y1="276.809" x2="406.204" y2="202.864" stroke="url(#paint39_linear_0)"/>
<line x1="385.54" y1="274.803" x2="394.54" y2="253.803" stroke="url(#paint40_linear_0)"/>
<line x1="385.967" y1="276.045" x2="383.277" y2="298.733" stroke="url(#paint41_linear_0)"/>
<line x1="386.325" y1="274.62" x2="428.325" y2="310.62" stroke="url(#paint42_linear_0)"/>
<line x1="385.266" y1="276.442" x2="334.795" y2="253.798" stroke="url(#paint43_linear_0)"/>
<line x1="386.325" y1="275.38" x2="365.325" y2="293.38" stroke="url(#paint44_linear_0)"/>
<line x1="385.051" y1="275.714" x2="400.099" y2="252.507" stroke="url(#paint45_linear_0)"/>
<path d="M566.437 216.446H576.202V256.646C576.202 257.44 576.202 278.5 576.5 298.5H595.632C595.632 299.5 595.632 257.44 595.632 256.646V216.635H606.858C607.588 216.635 608.202 216.087 608.285 215.362L609.99 200.562C610.037 200.155 609.908 199.748 609.636 199.442C609.363 199.136 608.973 198.961 608.563 198.961H595.633V189.684C595.633 186.887 597.139 185.469 600.109 185.469C600.532 185.469 608.563 185.469 608.563 185.469C609.357 185.469 610 184.826 610 184.032V170.447C610 169.654 609.357 169.011 608.563 169.011H596.912C596.83 169.007 596.647 169 596.378 169C594.357 169 587.33 169.397 581.779 174.503C575.629 180.162 576.484 186.938 576.688 188.112V198.961H566.437C565.643 198.961 565 199.604 565 200.398V215.009C565 215.802 565.643 216.446 566.437 216.446Z" fill="white"/>
<path d="M348.077 491.077L373.077 511.846L373.154 511.923C373.769 512.462 374.615 512.462 375.154 511.923L375.231 511.846L400.231 491.077C400.307 491 400.384 491 400.461 490.923C398.538 489.769 396.307 489 393.923 489H354.307C351.923 489 349.692 489.692 347.769 490.923C347.846 490.923 348 491 348.077 491.077Z" fill="white"/>
<path d="M404.692 495.231C404.538 495.462 404.385 495.616 404.154 495.769L379.231 516.539C377.769 517.769 376 518.462 374.154 518.462C372.308 518.462 370.538 517.846 369.077 516.539L344.154 495.769C343.923 495.616 343.769 495.385 343.615 495.231C342.615 497 342 499.077 342 501.308V526.692C342 533.462 347.538 539 354.308 539H394C400.769 539 406.308 533.462 406.308 526.692V501.308C406.308 499.077 405.692 497 404.692 495.231Z" fill="white"/>
<path d="M863.568 48.3784C837.429 48.3784 816.259 69.5491 816.259 95.6872C816.259 116.621 829.801 134.303 848.606 140.571C850.972 140.985 851.859 139.566 851.859 138.324C851.859 137.201 851.799 133.475 851.799 129.513C839.913 131.701 836.838 126.615 835.892 123.954C835.36 122.594 833.053 118.395 831.043 117.272C829.387 116.385 827.022 114.197 830.984 114.138C834.709 114.078 837.37 117.567 838.257 118.987C842.515 126.142 849.316 124.132 852.036 122.89C852.45 119.815 853.692 117.745 855.052 116.562C844.526 115.379 833.526 111.299 833.526 93.2035C833.526 88.0586 835.36 83.8008 838.376 80.4892C837.903 79.3065 836.247 74.4574 838.849 67.9524C838.849 67.9524 842.811 66.7106 851.859 72.8016C855.643 71.7371 859.665 71.2049 863.686 71.2049C867.707 71.2049 871.728 71.7371 875.513 72.8016C884.561 66.6514 888.523 67.9524 888.523 67.9524C891.125 74.4574 889.469 79.3065 888.996 80.4892C892.012 83.8008 893.845 87.9995 893.845 93.2035C893.845 111.358 882.787 115.379 872.261 116.562C873.975 118.041 875.454 120.879 875.454 125.314C875.454 131.642 875.395 136.728 875.395 138.324C875.395 139.566 876.282 141.044 878.647 140.571C888.039 137.402 896.201 131.366 901.982 123.314C907.764 115.262 910.875 105.6 910.876 95.6872C910.876 69.5491 889.706 48.3784 863.568 48.3784Z" fill="url(#paint46_linear_0)"/>
<g filter="url(#filter4_d_0)">
<circle cx="750" cy="107" r="12" fill="url(#paint47_linear_0)"/>
</g>
<defs>
<filter id="filter0_d_0" x="54.7368" y="0.736816" width="243.005" height="243.005" filterUnits="userSpaceOnUse" color-interpolation-filters="sRGB">
<feFlood flood-opacity="0" result="BackgroundImageFix"/>
<feColorMatrix in="SourceAlpha" type="matrix" values="0 0 0 0 0 0 0 0 0 0 0 0 0 0 0 0 0 0 127 0" result="hardAlpha"/>
<feMorphology radius="10" operator="dilate" in="SourceAlpha" result="effect1_dropShadow_0"/>
<feOffset dx="1"/>
<feGaussianBlur stdDeviation="9.5"/>
<feComposite in2="hardAlpha" operator="out"/>
<feColorMatrix type="matrix" values="0 0 0 0 1 0 0 0 0 1 0 0 0 0 1 0 0 0 1 0"/>
<feBlend mode="normal" in2="BackgroundImageFix" result="effect1_dropShadow_0"/>
<feBlend mode="normal" in="SourceGraphic" in2="effect1_dropShadow_0" result="shape"/>
</filter>
<filter id="filter1_d_0" x="466.842" y="84.8418" width="243.031" height="243.031" filterUnits="userSpaceOnUse" color-interpolation-filters="sRGB">
<feFlood flood-opacity="0" result="BackgroundImageFix"/>
<feColorMatrix in="SourceAlpha" type="matrix" values="0 0 0 0 0 0 0 0 0 0 0 0 0 0 0 0 0 0 127 0" result="hardAlpha"/>
<feMorphology radius="10" operator="dilate" in="SourceAlpha" result="effect1_dropShadow_0"/>
<feOffset dx="1"/>
<feGaussianBlur stdDeviation="9.5"/>
<feComposite in2="hardAlpha" operator="out"/>
<feColorMatrix type="matrix" values="0 0 0 0 1 0 0 0 0 1 0 0 0 0 1 0 0 0 1 0"/>
<feBlend mode="normal" in2="BackgroundImageFix" result="effect1_dropShadow_0"/>
<feBlend mode="normal" in="SourceGraphic" in2="effect1_dropShadow_0" result="shape"/>
</filter>
<filter id="filter2_d_0" x="253.11" y="388.11" width="243.034" height="243.034" filterUnits="userSpaceOnUse" color-interpolation-filters="sRGB">
<feFlood flood-opacity="0" result="BackgroundImageFix"/>
<feColorMatrix in="SourceAlpha" type="matrix" values="0 0 0 0 0 0 0 0 0 0 0 0 0 0 0 0 0 0 127 0" result="hardAlpha"/>
<feMorphology radius="10" operator="dilate" in="SourceAlpha" result="effect1_dropShadow_0"/>
<feOffset dx="1"/>
<feGaussianBlur stdDeviation="9.5"/>
<feComposite in2="hardAlpha" operator="out"/>
<feColorMatrix type="matrix" values="0 0 0 0 1 0 0 0 0 1 0 0 0 0 1 0 0 0 1 0"/>
<feBlend mode="normal" in2="BackgroundImageFix" result="effect1_dropShadow_0"/>
<feBlend mode="normal" in="SourceGraphic" in2="effect1_dropShadow_0" result="shape"/>
</filter>
<filter id="filter3_f_0" x="331" y="226" width="110" height="105" filterUnits="userSpaceOnUse" color-interpolation-filters="sRGB">
<feFlood flood-opacity="0" result="BackgroundImageFix"/>
<feBlend mode="normal" in="SourceGraphic" in2="BackgroundImageFix" result="shape"/>
<feGaussianBlur stdDeviation="17.5" result="effect1_foregroundBlur_0"/>
</filter>
<filter id="filter4_d_0" x="723" y="80" width="54" height="54" filterUnits="userSpaceOnUse" color-interpolation-filters="sRGB">
<feFlood flood-opacity="0" result="BackgroundImageFix"/>
<feColorMatrix in="SourceAlpha" type="matrix" values="0 0 0 0 0 0 0 0 0 0 0 0 0 0 0 0 0 0 127 0" result="hardAlpha"/>
<feOffset/>
<feGaussianBlur stdDeviation="7.5"/>
<feComposite in2="hardAlpha" operator="out"/>
<feColorMatrix type="matrix" values="0 0 0 0 0.2 0 0 0 0 1 0 0 0 0 0.901031 0 0 0 1 0"/>
<feBlend mode="normal" in2="BackgroundImageFix" result="effect1_dropShadow_0"/>
<feBlend mode="normal" in="SourceGraphic" in2="effect1_dropShadow_0" result="shape"/>
</filter>
<linearGradient id="paint0_linear_0" x1="62.9986" y1="63.0575" x2="159.904" y2="85.8447" gradientUnits="userSpaceOnUse">
<stop stop-color="#2D74B6"/>
<stop offset="1" stop-color="#188275"/>
</linearGradient>
<linearGradient id="paint1_linear_0" x1="66.0348" y1="63.7713" x2="156.869" y2="85.1309" gradientUnits="userSpaceOnUse">
<stop stop-color="#2D74B6"/>
<stop offset="1" stop-color="#188275"/>
</linearGradient>
<linearGradient id="paint2_linear_0" x1="60.08" y1="62.3713" x2="162.823" y2="86.5313" gradientUnits="userSpaceOnUse">
<stop stop-color="#2D74B6"/>
<stop offset="1" stop-color="#188275"/>
</linearGradient>
<linearGradient id="paint3_linear_0" x1="68.9534" y1="64.4577" x2="153.95" y2="84.4446" gradientUnits="userSpaceOnUse">
<stop stop-color="#2D74B6"/>
<stop offset="1" stop-color="#188275"/>
</linearGradient>
<linearGradient id="paint4_linear_0" x1="71.9896" y1="65.1715" x2="150.915" y2="83.7307" gradientUnits="userSpaceOnUse">
<stop stop-color="#2D74B6"/>
<stop offset="1" stop-color="#188275"/>
</linearGradient>
<linearGradient id="paint5_linear_0" x1="74.9082" y1="65.8579" x2="147.996" y2="83.0444" gradientUnits="userSpaceOnUse">
<stop stop-color="#2D74B6"/>
<stop offset="1" stop-color="#188275"/>
</linearGradient>
<linearGradient id="paint6_linear_0" x1="78.0596" y1="66.599" x2="145.076" y2="82.3579" gradientUnits="userSpaceOnUse">
<stop stop-color="#2D74B6"/>
<stop offset="1" stop-color="#188275"/>
</linearGradient>
<linearGradient id="paint7_linear_0" x1="80.7723" y1="67.1135" x2="142.068" y2="81.5271" gradientUnits="userSpaceOnUse">
<stop stop-color="#2D74B6"/>
<stop offset="1" stop-color="#188275"/>
</linearGradient>
<linearGradient id="paint8_linear_0" x1="83.7816" y1="67.9443" x2="139.123" y2="80.9577" gradientUnits="userSpaceOnUse">
<stop stop-color="#2D74B6"/>
<stop offset="1" stop-color="#188275"/>
</linearGradient>
<linearGradient id="paint9_linear_0" x1="86.6998" y1="68.6312" x2="136.203" y2="80.2719" gradientUnits="userSpaceOnUse">
<stop stop-color="#2D74B6"/>
<stop offset="1" stop-color="#188275"/>
</linearGradient>
<linearGradient id="paint10_linear_0" x1="90.4355" y1="69.5091" x2="132.467" y2="79.3927" gradientUnits="userSpaceOnUse">
<stop stop-color="#2D74B6"/>
<stop offset="1" stop-color="#188275"/>
</linearGradient>
<linearGradient id="paint11_linear_0" x1="95.5404" y1="76.4575" x2="127.674" y2="72.7511" gradientUnits="userSpaceOnUse">
<stop stop-color="#2D74B6"/>
<stop offset="1" stop-color="#188275"/>
</linearGradient>
<linearGradient id="paint12_linear_0" x1="92.7711" y1="70.0583" x2="130.132" y2="78.8437" gradientUnits="userSpaceOnUse">
<stop stop-color="#2D74B6"/>
<stop offset="1" stop-color="#188275"/>
</linearGradient>
<linearGradient id="paint13_linear_0" x1="3.48866" y1="69.0818" x2="26.2356" y2="74.4308" gradientUnits="userSpaceOnUse">
<stop stop-color="#2D74B6"/>
<stop offset="1" stop-color="#188275"/>
</linearGradient>
<linearGradient id="paint14_linear_0" x1="4.20095" y1="69.2494" x2="25.5227" y2="74.2632" gradientUnits="userSpaceOnUse">
<stop stop-color="#2D74B6"/>
<stop offset="1" stop-color="#188275"/>
</linearGradient>
<linearGradient id="paint15_linear_0" x1="2.80321" y1="68.9209" x2="26.9204" y2="74.592" gradientUnits="userSpaceOnUse">
<stop stop-color="#2D74B6"/>
<stop offset="1" stop-color="#188275"/>
</linearGradient>
<linearGradient id="paint16_linear_0" x1="4.8864" y1="69.4106" x2="24.8379" y2="74.1022" gradientUnits="userSpaceOnUse">
<stop stop-color="#2D74B6"/>
<stop offset="1" stop-color="#188275"/>
</linearGradient>
<linearGradient id="paint17_linear_0" x1="5.59869" y1="69.5782" x2="24.1251" y2="73.9346" gradientUnits="userSpaceOnUse">
<stop stop-color="#2D74B6"/>
<stop offset="1" stop-color="#188275"/>
</linearGradient>
<linearGradient id="paint18_linear_0" x1="6.28414" y1="69.7394" x2="23.4402" y2="73.7736" gradientUnits="userSpaceOnUse">
<stop stop-color="#2D74B6"/>
<stop offset="1" stop-color="#188275"/>
</linearGradient>
<linearGradient id="paint19_linear_0" x1="7.02377" y1="69.9133" x2="22.7548" y2="73.6124" gradientUnits="userSpaceOnUse">
<stop stop-color="#2D74B6"/>
<stop offset="1" stop-color="#188275"/>
</linearGradient>
<linearGradient id="paint20_linear_0" x1="7.66091" y1="70.0342" x2="22.049" y2="73.4176" gradientUnits="userSpaceOnUse">
<stop stop-color="#2D74B6"/>
<stop offset="1" stop-color="#188275"/>
</linearGradient>
<linearGradient id="paint21_linear_0" x1="8.36733" y1="70.2291" x2="21.3577" y2="73.2838" gradientUnits="userSpaceOnUse">
<stop stop-color="#2D74B6"/>
<stop offset="1" stop-color="#188275"/>
</linearGradient>
<linearGradient id="paint22_linear_0" x1="9.05181" y1="70.3903" x2="20.6719" y2="73.1228" gradientUnits="userSpaceOnUse">
<stop stop-color="#2D74B6"/>
<stop offset="1" stop-color="#188275"/>
</linearGradient>
<linearGradient id="paint23_linear_0" x1="9.92899" y1="70.5964" x2="19.7951" y2="72.9164" gradientUnits="userSpaceOnUse">
<stop stop-color="#2D74B6"/>
<stop offset="1" stop-color="#188275"/>
</linearGradient>
<linearGradient id="paint24_linear_0" x1="11.1307" y1="72.2129" x2="18.6602" y2="71.3163" gradientUnits="userSpaceOnUse">
<stop stop-color="#2D74B6"/>
<stop offset="1" stop-color="#188275"/>
</linearGradient>
<linearGradient id="paint25_linear_0" x1="10.4774" y1="70.7252" x2="19.2472" y2="72.7874" gradientUnits="userSpaceOnUse">
<stop stop-color="#2D74B6"/>
<stop offset="1" stop-color="#188275"/>
</linearGradient>
<linearGradient id="paint26_linear_0" x1="175.239" y1="29.7393" x2="175.239" y2="214.739" gradientUnits="userSpaceOnUse">
<stop stop-color="#EFEFEF"/>
<stop offset="1" stop-color="#D1F4FF"/>
</linearGradient>
<linearGradient id="paint27_linear_0" x1="651.87" y1="135.857" x2="479.481" y2="153.429" gradientUnits="userSpaceOnUse">
<stop stop-color="#EFEFEF"/>
<stop offset="1" stop-color="#D1F4FF" stop-opacity="0"/>
</linearGradient>
<linearGradient id="paint28_linear_0" x1="373.627" y1="417.127" x2="373.627" y2="602.127" gradientUnits="userSpaceOnUse">
<stop stop-color="#EFEFEF"/>
<stop offset="1" stop-color="#D1F4FF" stop-opacity="0"/>
</linearGradient>
<linearGradient id="paint29_linear_0" x1="766.352" y1="138.77" x2="766.257" y2="138.121" gradientUnits="userSpaceOnUse">
<stop stop-color="#D8D7DD"/>
<stop offset="1" stop-color="#DDE1E1"/>
</linearGradient>
<linearGradient id="paint30_linear_0" x1="386" y1="261" x2="386" y2="296" gradientUnits="userSpaceOnUse">
<stop stop-color="#000B69"/>
<stop offset="1" stop-color="#BFC2E1"/>
</linearGradient>
<linearGradient id="paint31_linear_0" x1="321" y1="221" x2="321.619" y2="220.215" gradientUnits="userSpaceOnUse">
<stop stop-color="#82D1C8"/>
<stop offset="1" stop-color="#FF0099" stop-opacity="0.59"/>
</linearGradient>
<linearGradient id="paint32_linear_0" x1="436.012" y1="255.537" x2="436.415" y2="256.453" gradientUnits="userSpaceOnUse">
<stop stop-color="#82D1C8"/>
<stop offset="1" stop-color="#FF0099" stop-opacity="0.59"/>
</linearGradient>
<linearGradient id="paint33_linear_0" x1="365.5" y1="233.5" x2="366.397" y2="233.057" gradientUnits="userSpaceOnUse">
<stop stop-color="#82D1C8"/>
<stop offset="1" stop-color="#FF0099" stop-opacity="0.59"/>
</linearGradient>
<linearGradient id="paint34_linear_0" x1="416.875" y1="309.989" x2="416.141" y2="310.668" gradientUnits="userSpaceOnUse">
<stop stop-color="#82D1C8"/>
<stop offset="1" stop-color="#FF0099" stop-opacity="0.59"/>
</linearGradient>
<linearGradient id="paint35_linear_0" x1="378.964" y1="341.997" x2="377.966" y2="341.925" gradientUnits="userSpaceOnUse">
<stop stop-color="#82D1C8"/>
<stop offset="1" stop-color="#FF0099" stop-opacity="0.59"/>
</linearGradient>
<linearGradient id="paint36_linear_0" x1="393.5" y1="290" x2="392.619" y2="290.472" gradientUnits="userSpaceOnUse">
<stop stop-color="#82D1C8"/>
<stop offset="1" stop-color="#FF0099" stop-opacity="0.59"/>
</linearGradient>
<linearGradient id="paint37_linear_0" x1="375.094" y1="262.513" x2="375.872" y2="261.885" gradientUnits="userSpaceOnUse">
<stop stop-color="#82D1C8"/>
<stop offset="1" stop-color="#FF0099" stop-opacity="0.59"/>
</linearGradient>
<linearGradient id="paint38_linear_0" x1="365.5" y1="306.5" x2="364.654" y2="305.966" gradientUnits="userSpaceOnUse">
<stop stop-color="#82D1C8"/>
<stop offset="1" stop-color="#FF0099" stop-opacity="0.59"/>
</linearGradient>
<linearGradient id="paint39_linear_0" x1="396.219" y1="239.973" x2="397.181" y2="240.245" gradientUnits="userSpaceOnUse">
<stop stop-color="#82D1C8"/>
<stop offset="1" stop-color="#FF0099" stop-opacity="0.59"/>
</linearGradient>
<linearGradient id="paint40_linear_0" x1="390.5" y1="264.5" x2="391.419" y2="264.894" gradientUnits="userSpaceOnUse">
<stop stop-color="#82D1C8"/>
<stop offset="1" stop-color="#FF0099" stop-opacity="0.59"/>
</linearGradient>
<linearGradient id="paint41_linear_0" x1="384.125" y1="287.33" x2="383.132" y2="287.212" gradientUnits="userSpaceOnUse">
<stop stop-color="#82D1C8"/>
<stop offset="1" stop-color="#FF0099" stop-opacity="0.59"/>
</linearGradient>
<linearGradient id="paint42_linear_0" x1="407" y1="293" x2="406.349" y2="293.759" gradientUnits="userSpaceOnUse">
<stop stop-color="#82D1C8"/>
<stop offset="1" stop-color="#FF0099" stop-opacity="0.59"/>
</linearGradient>
<linearGradient id="paint43_linear_0" x1="360.235" y1="264.664" x2="360.644" y2="263.751" gradientUnits="userSpaceOnUse">
<stop stop-color="#82D1C8"/>
<stop offset="1" stop-color="#FF0099" stop-opacity="0.59"/>
</linearGradient>
<linearGradient id="paint44_linear_0" x1="375.5" y1="284" x2="374.849" y2="283.241" gradientUnits="userSpaceOnUse">
<stop stop-color="#82D1C8"/>
<stop offset="1" stop-color="#FF0099" stop-opacity="0.59"/>
</linearGradient>
<linearGradient id="paint45_linear_0" x1="392.994" y1="264.383" x2="393.833" y2="264.927" gradientUnits="userSpaceOnUse">
<stop stop-color="#82D1C8"/>
<stop offset="1" stop-color="#FF0099" stop-opacity="0.59"/>
</linearGradient>
<linearGradient id="paint46_linear_0" x1="863.568" y1="55.7994" x2="910.876" y2="111.457" gradientUnits="userSpaceOnUse">
<stop stop-color="#C9EDE7"/>
<stop offset="1" stop-color="#BFBFC8"/>
</linearGradient>
<linearGradient id="paint47_linear_0" x1="750" y1="95" x2="762" y2="119" gradientUnits="userSpaceOnUse">
<stop stop-color="#C9D8E1"/>
<stop offset="1" stop-color="#DFE1E2"/>
</linearGradient>
</defs>
</svg>
