<svg width="88" height="88" viewBox="0 0 88 88" fill="none" xmlns="http://www.w3.org/2000/svg">
<path d="M44 85.5C32.9 85.5 22.5 81.2 14.7 73.4C6.9 65.5 2.5 55.1 2.5 44C2.5 32.9 6.8 22.5 14.6 14.7C22.4 6.9 32.9 2.5 44 2.5C55.1 2.5 65.5 6.8 73.3 14.6C81.1 22.4 85.5 32.9 85.5 44C85.5 55.1 81.2 65.5 73.4 73.3C65.5 81.1 55.1 85.5 44 85.5ZM44 4.4C33.4 4.4 23.5 8.5 16 16C8.5 23.5 4.4 33.4 4.4 44C4.4 54.6 8.5 64.5 16 72C23.5 79.5 33.4 83.6 44 83.6C54.6 83.6 64.5 79.5 72 72C79.5 64.5 83.6 54.6 83.6 44C83.6 33.4 79.5 23.5 72 16C64.5 8.5 54.6 4.4 44 4.4Z" fill="url(#paint0_linear)"/>
<path d="M44 82.9001C33.6 82.9001 23.8 78.9001 16.5 71.5001C9.09998 64.2001 5.09998 54.4001 5.09998 44.0001C5.09998 33.6001 9.09998 23.8001 16.5 16.5001C23.9 9.1001 33.6 5.1001 44 5.1001C54.4 5.1001 64.2 9.1001 71.5 16.5001C78.9 23.9001 82.9 33.6001 82.9 44.0001C82.9 54.4001 78.9 64.2001 71.5 71.5001C64.2 78.9001 54.4 82.9001 44 82.9001ZM44 6.7001C34 6.7001 24.7 10.6001 17.7 17.6001C10.7 24.6001 6.79998 34.0001 6.79998 43.9001C6.79998 53.9001 10.7 63.2001 17.7 70.2001C24.7 77.2001 34.1 81.1001 44 81.1001C53.9 81.1001 63.3 77.2001 70.3 70.2001C77.3 63.2001 81.2 53.8001 81.2 43.9001C81.2 33.9001 77.3 24.6001 70.3 17.6001C63.3 10.6001 54 6.7001 44 6.7001Z" fill="url(#paint1_linear)"/>
<path d="M44 88C32.2 88 21.2 83.4 12.9 75.1C4.6 66.8 0 55.8 0 44C0 32.2 4.6 21.2 12.9 12.9C21.2 4.6 32.2 0 44 0C55.8 0 66.8 4.6 75.1 12.9C83.4 21.2 88 32.2 88 44C88 55.8 83.4 66.8 75.1 75.1C66.8 83.4 55.8 88 44 88ZM44 2C32.8 2 22.2 6.4 14.3 14.3C6.4 22.2 2 32.8 2 44C2 55.2 6.4 65.8 14.3 73.7C22.2 81.6 32.8 86 44 86C55.2 86 65.8 81.6 73.7 73.7C81.6 65.8 86 55.2 86 44C86 32.8 81.6 22.2 73.7 14.3C65.8 6.4 55.2 2 44 2Z" fill="url(#paint2_linear)"/>
<path d="M44 80.4001C34.3 80.4001 25.1 76.6001 18.3 69.7001C11.4 62.8001 7.59998 53.7001 7.59998 44.0001C7.59998 34.3001 11.4 25.1001 18.3 18.3001C25.2 11.4001 34.3 7.6001 44 7.6001C53.7 7.6001 62.9 11.4001 69.7 18.3001C76.6 25.2001 80.4 34.3001 80.4 44.0001C80.4 53.7001 76.6 62.9001 69.7 69.7001C62.9 76.6001 53.7 80.4001 44 80.4001ZM44 9.1001C34.7 9.1001 25.9 12.7001 19.3 19.3001C12.7 25.9001 9.09998 34.7001 9.09998 44.0001C9.09998 53.3001 12.7 62.1001 19.3 68.7001C25.9 75.3001 34.7 78.9001 44 78.9001C53.3 78.9001 62.1 75.3001 68.7 68.7001C75.3 62.1001 78.9 53.3001 78.9 44.0001C78.9 34.7001 75.3 25.9001 68.7 19.3001C62.1 12.7001 53.3 9.1001 44 9.1001Z" fill="url(#paint3_linear)"/>
<path d="M44 77.8C35 77.8 26.5 74.2999 20.1 67.9C13.7 61.5 10.2 53 10.2 44C10.2 35 13.7 26.5 20.1 20.1C26.5 13.7 35 10.2 44 10.2C53 10.2 61.5 13.7 67.9 20.1C74.2999 26.5 77.8 35 77.8 44C77.8 53 74.2999 61.5 67.9 67.9C61.5 74.2999 53 77.8 44 77.8ZM44 11.5C35.2999 11.5 27.2 14.9 21 21C14.9 27.1 11.5 35.2999 11.5 44C11.5 52.7 14.9 60.9 21 67C27.1 73.0999 35.2999 76.5 44 76.5C52.7 76.5 60.9 73.0999 67 67C73.0999 60.9 76.5 52.7 76.5 44C76.5 35.2999 73.0999 27.1 67 21C60.7999 14.9 52.7 11.5 44 11.5Z" fill="url(#paint4_linear)"/>
<path d="M44 75.3C35.6 75.3 27.7999 72 21.9 66.0999C15.9999 60.1999 12.7 52.2999 12.7 44C12.7 35.7 15.9999 27.7999 21.9 21.9C27.7999 15.9999 35.7 12.7 44 12.7C52.2999 12.7 60.1999 15.9999 66.0999 21.9C72 27.7999 75.3 35.7 75.3 44C75.3 52.2999 72 60.1999 66.0999 66.0999C60.1999 72.0999 52.3999 75.3 44 75.3ZM44 13.9C35.9 13.9 28.4 17 22.7 22.7C17 28.4 13.9 35.9 13.9 44C13.9 52.1 17 59.6 22.7 65.3C28.4 71 36 74.0999 44 74.0999C52 74.0999 59.6 71 65.3 65.3C71 59.6 74.0999 52 74.0999 44C74.0999 36 71 28.4 65.3 22.7C59.6 17 52.1 13.9 44 13.9Z" fill="url(#paint5_linear)"/>
<path d="M44 72.7999C36.3 72.7999 29.1 69.7999 23.7001 64.3999C18.3001 58.9999 15.3 51.6999 15.3 44.0999C15.3 36.3999 18.3001 29.1999 23.7001 23.7999C29.1 18.3999 36.4 15.3999 44 15.3999C51.6 15.3999 58.9001 18.3999 64.3001 23.7999C69.7001 29.1999 72.7 36.4999 72.7 44.0999C72.7 51.7999 69.7001 58.9999 64.3001 64.3999C58.9001 69.7999 51.7001 72.7999 44 72.7999ZM44 16.1999C36.6 16.1999 29.6 19.0999 24.4 24.2999C19.2 29.4999 16.2001 36.5999 16.2001 43.9999C16.2001 51.3999 19.1 58.3999 24.3 63.5999C29.5 68.7999 36.5001 71.6999 43.9001 71.6999C51.3001 71.6999 58.3 68.7999 63.5 63.5999C68.7001 58.3999 71.6 51.3999 71.6 43.9999C71.6 36.5999 68.7001 29.5999 63.5 24.3999C58.3 19.1999 51.4001 16.1999 44 16.1999Z" fill="url(#paint6_linear)"/>
<path d="M44 70.1999C37 70.1999 30.4 67.5 25.4 62.5C20.4 57.5 17.8 51 17.8 44C17.8 37 20.5 30.4 25.5 25.4C30.5 20.4 37 17.7 44.1 17.7C51.2 17.7 57.7 20.4 62.7 25.4C67.7 30.4 70.4001 36.9 70.4001 44C70.4001 51.0999 67.7 57.5999 62.7 62.5999C57.7 67.5999 51 70.1999 44 70.1999ZM44 18.6C37.2001 18.6 30.8 21.2 26 26C21.2 30.8 18.6 37.2 18.6 44C18.6 50.7999 21.2 57.2 26 62C30.8 66.7999 37.2001 69.4 44 69.4C50.8 69.4 57.2001 66.7999 62 62C66.8 57.2 69.4001 50.7999 69.4001 44C69.4001 37.2 66.8 30.8 62 26C57.2001 21.2 50.8 18.6 44 18.6Z" fill="url(#paint7_linear)"/>
<path d="M44 67.7C37.7001 67.7 31.7001 65.2001 27.2001 60.8001C22.7001 56.3001 20.3 50.4 20.3 44C20.3 37.7001 22.8001 31.7001 27.2001 27.2001C31.7001 22.7001 37.6 20.3 44 20.3C50.4 20.3 56.3001 22.8001 60.8001 27.2001C65.3001 31.7001 67.7 37.6 67.7 44C67.7 50.3 65.2001 56.3001 60.8001 60.8001C56.3001 65.2001 50.3 67.7 44 67.7ZM44 21C37.8 21 32.1 23.4001 27.7001 27.7001C23.4001 32.1 21 37.8 21 44C21 50.2001 23.4001 55.9001 27.7001 60.3001C32.0001 64.7001 37.8 67 44 67C50.2001 67 55.9001 64.6001 60.3001 60.3001C64.7001 56.0001 67 50.2001 67 44C67 37.8 64.6001 32.1 60.3001 27.7001C55.9001 23.4001 50.2001 21 44 21Z" fill="url(#paint8_linear)"/>
<path d="M44 65.2C38.3 65.2 33 63 29 59C25 55 22.8 49.7001 22.8 44C22.8 38.3 25 33 29 29C33 25 38.3 22.8 44 22.8C49.7001 22.8 55 25 59 29C63 33 65.2 38.3 65.2 44C65.2 49.7001 63 55 59 59C55 63 49.7001 65.2 44 65.2ZM44 23.3C38.5 23.3 33.3001 25.4001 29.4001 29.4001C25.5001 33.3001 23.3 38.5 23.3 44C23.3 49.5 25.4001 54.7 29.4001 58.6C33.4001 62.5 38.5 64.7 44 64.7C49.5 64.7 54.7 62.6 58.6 58.6C62.5 54.6 64.7 49.5 64.7 44C64.7 38.5 62.6 33.3001 58.6 29.4001C54.7 25.5001 49.5 23.3 44 23.3Z" fill="url(#paint9_linear)"/>
<path d="M57.7 42.6219L38.3 31.3219C36.8 30.4219 35 31.5219 35 33.2219V55.7219C35 57.4219 36.9 58.5219 38.3 57.6219L57.8 46.4219C59.2 45.6219 59.2 43.4219 57.7 42.6219Z" fill="url(#paint10_linear)"/>
<defs>
<linearGradient id="paint0_linear" x1="44" y1="2.5" x2="44" y2="85.5" gradientUnits="userSpaceOnUse">
<stop stop-color="#AE7F21"/>
<stop offset="1" stop-color="#FFD25F"/>
</linearGradient>
<linearGradient id="paint1_linear" x1="44" y1="5.1001" x2="44" y2="82.9001" gradientUnits="userSpaceOnUse">
<stop stop-color="#AE7F21"/>
<stop offset="1" stop-color="#FFD25F"/>
</linearGradient>
<linearGradient id="paint2_linear" x1="44" y1="0" x2="44" y2="88" gradientUnits="userSpaceOnUse">
<stop stop-color="#AE7F21"/>
<stop offset="1" stop-color="#FFD25F"/>
</linearGradient>
<linearGradient id="paint3_linear" x1="44" y1="7.6001" x2="44" y2="80.4001" gradientUnits="userSpaceOnUse">
<stop stop-color="#AE7F21"/>
<stop offset="1" stop-color="#FFD25F"/>
</linearGradient>
<linearGradient id="paint4_linear" x1="44" y1="10.2" x2="44" y2="77.8" gradientUnits="userSpaceOnUse">
<stop stop-color="#AE7F21"/>
<stop offset="1" stop-color="#FFD25F"/>
</linearGradient>
<linearGradient id="paint5_linear" x1="44" y1="12.7" x2="44" y2="75.3" gradientUnits="userSpaceOnUse">
<stop stop-color="#AE7F21"/>
<stop offset="1" stop-color="#FFD25F"/>
</linearGradient>
<linearGradient id="paint6_linear" x1="44" y1="15.3999" x2="44" y2="72.7999" gradientUnits="userSpaceOnUse">
<stop stop-color="#AE7F21"/>
<stop offset="1" stop-color="#FFD25F"/>
</linearGradient>
<linearGradient id="paint7_linear" x1="44.1" y1="17.7" x2="44.1" y2="70.1999" gradientUnits="userSpaceOnUse">
<stop stop-color="#AE7F21"/>
<stop offset="1" stop-color="#FFD25F"/>
</linearGradient>
<linearGradient id="paint8_linear" x1="44" y1="20.3" x2="44" y2="67.7" gradientUnits="userSpaceOnUse">
<stop stop-color="#AE7F21"/>
<stop offset="1" stop-color="#FFD25F"/>
</linearGradient>
<linearGradient id="paint9_linear" x1="44" y1="22.8" x2="44" y2="65.2" gradientUnits="userSpaceOnUse">
<stop stop-color="#AE7F21"/>
<stop offset="1" stop-color="#FFD25F"/>
</linearGradient>
<linearGradient id="paint10_linear" x1="46.9189" y1="31" x2="46.9189" y2="57.9439" gradientUnits="userSpaceOnUse">
<stop stop-color="#15D7BF"/>
<stop offset="1" stop-color="#075B51"/>
</linearGradient>
</defs>
</svg>
